<svg xmlns:xlink="http://www.w3.org/1999/xlink" xmlns="http://www.w3.org/2000/svg" width="40" height="40" viewBox="0 0 40 40" fill="none">
<g clip-path="url(#clip0_1540_13347)">
<path d="M22.8546 32.8291C23.1747 32.5156 23.155 31.9851 22.7992 31.7126C22.2676 31.3055 21.8954 30.6924 21.8126 29.9745C21.7302 29.2591 21.952 28.5795 22.374 28.0624L21.109 27.2539C20.5108 28.054 20.2044 29.0747 20.3278 30.1456C20.4578 31.2744 21.0397 32.2408 21.872 32.8861C22.1675 33.1151 22.5874 33.0909 22.8546 32.8291Z" fill="#639EC6"/>
<path d="M30.2715 35.3438L22.236 39.8774C21.886 40.0811 21.4429 40.0235 21.1566 39.7372L20.398 38.9786C20.0496 38.6303 20.0496 38.0656 20.398 37.7172L26.5215 31.5938L30.2715 35.3438Z" fill="#639EC6"/>
<path d="M24.6261 8.21111L23.876 7.46094L16.4028 14.934L8.92969 22.4072L9.67986 23.1574C9.67986 23.1574 17.6413 24.7778 23.9523 30.0693C24.4994 30.528 25.3048 30.4968 25.8096 29.9919L28.635 27.1665L31.4606 24.3409C31.9654 23.8361 31.9966 23.0308 31.5379 22.4837C26.2465 16.1726 24.6261 8.21111 24.6261 8.21111Z" fill="#FEAA3A"/>
<path d="M37.201 28.258L33.5289 24.5859L29.7923 28.3224L26.0557 32.059L29.7279 35.7311C30.8958 36.8991 32.7894 36.8991 33.9574 35.7311L35.5792 34.1095L37.2009 32.4878C38.3689 31.3197 38.3689 29.426 37.201 28.258Z" fill="#92BEE2"/>
<path d="M34.0999 31.5988L32.3027 29.8016C32.0801 29.5789 32.0801 29.2177 32.3027 28.9951C32.5254 28.7725 32.8864 28.7725 33.1092 28.9951L34.9063 30.7922C35.1291 31.015 35.1291 31.3761 34.9063 31.5988C34.6836 31.8214 34.3226 31.8214 34.0999 31.5988Z" fill="#639EC6"/>
<path d="M10.0661 9.12088L7.78074 6.83553C7.49757 6.55236 7.49757 6.0933 7.78074 5.81003C8.0639 5.52686 8.52306 5.52686 8.80623 5.81003L11.0916 8.09538C11.3747 8.37855 11.3747 8.83771 11.0916 9.12088C10.8084 9.40405 10.3493 9.40405 10.0661 9.12088Z" fill="#FD6041"/>
<path d="M19.54 3.95709V0.7251C19.54 0.324606 19.8647 0 20.2651 0C20.6657 0 20.9902 0.324606 20.9902 0.7251V3.95709C20.9902 4.35758 20.6656 4.68219 20.2651 4.68219C19.8647 4.68228 19.54 4.35758 19.54 3.95709Z" fill="#FD6041"/>
<path d="M5.88004 17.6172H2.64805C2.24755 17.6172 1.92285 17.9419 1.92285 18.3424C1.92285 18.7429 2.24755 19.0675 2.64805 19.0675H5.88004C6.28053 19.0675 6.60514 18.7428 6.60514 18.3424C6.60514 17.9419 6.28044 17.6172 5.88004 17.6172Z" fill="#FD6041"/>
<path d="M32.263 33.4387L30.4658 31.6415C30.2432 31.4188 30.2432 31.0576 30.4658 30.8351C30.6885 30.6123 31.0495 30.6123 31.2723 30.8351L33.0694 32.6322C33.2922 32.8548 33.2922 33.216 33.0694 33.4387C32.8467 33.6613 32.4857 33.6613 32.263 33.4387Z" fill="#639EC6"/>
<path d="M10.0934 23.483L24.9527 8.62372C25.367 8.20935 25.367 7.53765 24.9527 7.12328C24.5384 6.70891 23.8666 6.70891 23.4523 7.12328L8.593 21.9827C8.17863 22.397 8.17863 23.0688 8.593 23.4831C9.00737 23.8973 9.67907 23.8973 10.0934 23.483Z" fill="#EF8535"/>
</g>
<defs>
<clipPath id="clip0_1540_13347">
<rect width="40" height="40" fill="white"/>
</clipPath>
</defs>
</svg>