<svg xmlns:xlink="http://www.w3.org/1999/xlink" xmlns="http://www.w3.org/2000/svg" width="40" height="40" viewBox="0 0 40 40" fill="none">
<g clip-path="url(#clip0_1540_13271)">
<path d="M20.0005 3.75L6.08594 17.285V37.1678H33.9149V17.285L20.0005 3.75Z" fill="#DFEBFA"/>
<path d="M9.38594 19.3151C9.38594 18.8405 9.57781 18.386 9.91805 18.0551L22.3123 5.99883L20.0005 3.75L6.08594 17.285V37.1677H9.38594V19.3151Z" fill="#B1DBFC"/>
<path d="M28.5273 2.83203V7.87836L32.983 12.2125V2.83203H28.5273Z" fill="#695D67"/>
<path d="M31.1077 8.22125C30.8823 8.00203 30.7552 7.70094 30.7552 7.38648V2.83203H28.5273V7.87836L32.983 12.2125V10.0454L31.1077 8.22125Z" fill="#544E55"/>
<path d="M37.6062 16.4676L21.1624 0.47209C20.5153 -0.157363 19.485 -0.157363 18.8381 0.47209L2.39424 16.4676C1.7344 17.1094 1.71979 18.1646 2.36166 18.8244C3.00354 19.4843 4.05877 19.4989 4.71854 18.857L19.7715 4.21451C19.8989 4.09068 20.1016 4.09068 20.2289 4.21451L35.2819 18.8569C35.9421 19.499 36.9972 19.484 37.6388 18.8244C38.2806 18.1646 38.266 17.1094 37.6062 16.4676V16.4676Z" fill="#FF656F"/>
<path d="M19.7715 4.21451C19.8287 4.15889 19.9012 4.12967 19.9752 4.12396L21.4403 2.69873C21.873 2.27779 22.4768 2.1399 23.0231 2.28201L21.1624 0.47209C20.5153 -0.157363 19.485 -0.157363 18.8381 0.47209L2.39424 16.4676C1.7344 17.1094 1.71979 18.1646 2.36166 18.8244C3.00354 19.4843 4.05877 19.4989 4.71854 18.857L19.7715 4.21451Z" fill="#FF4756"/>
<path d="M34.2761 2.49102V0.582031C34.2761 0.260625 34.0154 0 33.694 0H27.8173C27.4959 0 27.2354 0.260547 27.2354 0.582031V2.49109C27.2354 2.8125 27.4959 3.07312 27.8173 3.07312H33.694C34.0154 3.07305 34.2761 2.8125 34.2761 2.49102V2.49102Z" fill="#7B6C79"/>
<path d="M29.4632 2.49102V0.582031C29.4632 0.260625 29.7237 0 30.0451 0H27.8173C27.4959 0 27.2354 0.260547 27.2354 0.582031V2.49109C27.2354 2.8125 27.4959 3.07312 27.8173 3.07312H30.0451C29.7237 3.07305 29.4632 2.8125 29.4632 2.49102V2.49102Z" fill="#695D67"/>
<path d="M9.30566 22.0977H18.6394V37.1674H9.30566V22.0977Z" fill="#AB6B51"/>
<path d="M9.30566 22.0977H12.3285V37.1674H9.30566V22.0977Z" fill="#965A44"/>
<path d="M21.3613 22.1797V33.4496C21.3613 33.6981 21.5628 33.8997 21.8114 33.8997H30.2451C30.4936 33.8997 30.6952 33.6982 30.6952 33.4496V22.1797H21.3613Z" fill="#60B8FE"/>
<path d="M24.3841 33.4496V22.1797H21.3613V33.4496C21.3613 33.6981 21.5628 33.8997 21.8114 33.8997H24.8342C24.5856 33.8997 24.3841 33.6981 24.3841 33.4496Z" fill="#23A8FE"/>
<path d="M26.6318 22.2602C26.6318 22.2328 26.6294 22.2061 26.6259 22.1797H25.4305C25.427 22.2061 25.4246 22.2328 25.4246 22.2602V27.4763H21.3613V28.6836H25.4246V33.8996H26.6319V28.6836H30.6952V27.4763H26.6319V22.2602H26.6318Z" fill="#8BCAFF"/>
<path d="M21.3613 27.4766H24.3841V28.6838H21.3613V27.4766Z" fill="#60B8FE"/>
<path d="M30.2451 19.3281H21.8114C21.5628 19.3281 21.3613 19.5296 21.3613 19.7782V22.2587H30.6951V19.7782C30.6951 19.5297 30.4936 19.3281 30.2451 19.3281V19.3281Z" fill="#23A8FE"/>
<path d="M24.8342 19.3281H21.8114C21.5628 19.3281 21.3613 19.5296 21.3613 19.7782V22.2587H24.3841V19.7782C24.3841 19.5297 24.5856 19.3281 24.8342 19.3281V19.3281Z" fill="#0193FA"/>
<path d="M18.1894 19.3281H9.75574C9.50723 19.3281 9.30566 19.5296 9.30566 19.7782V22.2587H18.6394V19.7782C18.6394 19.5297 18.4379 19.3281 18.1894 19.3281V19.3281Z" fill="#BC7C63"/>
<path d="M12.7786 19.3281H9.75574C9.50723 19.3281 9.30566 19.5296 9.30566 19.7782V22.2587H12.3285V19.7782C12.3285 19.5297 12.53 19.3281 12.7786 19.3281V19.3281Z" fill="#AB6B51"/>
<path d="M15.3861 29.9558C16.0535 29.9558 16.5945 29.4148 16.5945 28.7474C16.5945 28.0801 16.0535 27.5391 15.3861 27.5391C14.7187 27.5391 14.1777 28.0801 14.1777 28.7474C14.1777 29.4148 14.7187 29.9558 15.3861 29.9558Z" fill="#DFEBFA"/>
<path d="M34.5021 36.9258H5.49797C5.17656 36.9258 4.91602 37.1863 4.91602 37.5078V39.4169C4.91602 39.7383 5.17656 39.9989 5.49797 39.9989H34.5021C34.8235 39.9989 35.0841 39.7384 35.0841 39.4169V37.5078C35.0841 37.1863 34.8235 36.9258 34.5021 36.9258Z" fill="#43CB8E"/>
<path d="M8.59805 39.4169V37.5078C8.59805 37.1864 8.85859 36.9258 9.18 36.9258H5.49797C5.17656 36.9258 4.91602 37.1863 4.91602 37.5078V39.4169C4.91602 39.7383 5.17656 39.9989 5.49797 39.9989H9.18008C8.85859 39.9989 8.59805 39.7384 8.59805 39.4169V39.4169Z" fill="#00BA66"/>
</g>
<defs>
<clipPath id="clip0_1540_13271">
<rect width="40" height="40" fill="white"/>
</clipPath>
</defs>
</svg>