<svg xmlns:xlink="http://www.w3.org/1999/xlink" xmlns="http://www.w3.org/2000/svg" width="40" height="40" viewBox="0 0 40 40" fill="none">
<path d="M26.25 14.7266C32.7219 14.7266 37.9687 19.9734 37.9687 26.4453C37.9687 32.9172 32.7219 38.1641 26.25 38.1641C23.9523 38.1641 21.8086 37.5023 20 36.3594C21.0867 35.6734 22.0531 34.8133 22.8586 33.8172C23.8906 34.293 25.0391 34.5586 26.25 34.5586C30.7305 34.5586 34.3633 30.9258 34.3633 26.4453C34.3633 20.4949 28.1826 16.619 22.8586 19.0734C18.0548 21.2846 16.5842 27.4984 20 31.618C19.2289 32.5492 18.2531 33.3055 17.1414 33.8172C13.6722 29.5396 13.6476 23.3812 17.1414 19.0734C19.2817 16.4266 22.5698 14.7266 26.25 14.7266V14.7266Z" fill="#FCBE00"/>
<path d="M22.8586 19.0724C26.3278 23.35 26.3523 29.5083 22.8586 33.8161C20.7182 36.463 17.4301 38.163 13.75 38.163C7.27813 38.163 2.03125 32.9161 2.03125 26.4443C2.03125 19.3724 8.25602 13.9068 15.2664 14.8232C16.9898 15.0458 18.5961 15.6427 20 16.5302C18.9133 17.2161 17.9469 18.0763 17.1414 19.0724C11.8187 16.6185 5.63672 20.493 5.63672 26.4443C5.63672 30.9247 9.26953 34.5576 13.75 34.5576C16.235 34.5576 18.4949 33.4346 20 31.6169C22.4851 28.6198 22.4862 24.27 20 21.2716C20.7711 20.3404 21.7469 19.5841 22.8586 19.0724V19.0724Z" fill="#FFD92E"/>
<path d="M18.8215 9.96226C18.8215 10.8201 18.502 11.606 17.8152 12.4341C17.164 13.2196 16.1008 14.1177 15.266 14.824C14.2697 14.6937 13.2301 14.6937 12.2332 14.824C11.3937 14.1244 10.3044 13.1824 9.68398 12.4341C8.99727 11.606 8.67773 10.8201 8.67773 9.96226C8.67773 7.0239 12.0623 5.79719 13.7496 8.13726C14.2912 7.38914 15.0566 6.91383 15.9879 6.91383C17.6118 6.91383 18.8215 8.24476 18.8215 9.96226V9.96226Z" fill="#EC6385"/>
<path d="M37.6411 9.53024C38.3189 10.208 37.9327 11.4966 36.5896 11.6232C36.0749 11.6713 35.4302 11.5898 34.588 11.5326C34.4663 11.5245 34.3726 11.4284 34.3646 11.3099C34.2691 9.89844 34.0754 8.93344 34.6919 8.31696C35.52 7.4861 36.8384 8.08376 36.656 9.24118C37.0221 9.18344 37.3748 9.26391 37.6411 9.53024V9.53024Z" fill="#EC6385"/>
<path d="M31.7669 7.0305C31.7556 7.19972 31.6213 7.33636 31.4497 7.34769C29.4673 7.48183 28.0766 7.7609 27.1966 6.88285C26.0062 5.69246 26.882 3.82808 28.5106 4.09144C28.2472 2.46222 30.1125 1.58785 31.302 2.77738C32.1772 3.65058 31.9029 5.02566 31.7669 7.0305Z" fill="#FF6E6A"/>
<path d="M18.9426 4.84646C18.79 4.69396 18.79 4.44662 18.9426 4.29412L20.5051 2.73162C20.6575 2.57904 20.905 2.57904 21.0574 2.73162C21.21 2.88412 21.21 3.13146 21.0574 3.28396L19.495 4.84646C19.3424 4.99912 19.0951 4.99912 18.9426 4.84646Z" fill="#FCBE00"/>
<path d="M23.125 8.08594H21.5625C21.3467 8.08594 21.1719 7.91109 21.1719 7.69531C21.1719 7.47953 21.3467 7.30469 21.5625 7.30469H23.125C23.3408 7.30469 23.5156 7.47953 23.5156 7.69531C23.5156 7.91109 23.3408 8.08594 23.125 8.08594Z" fill="#FCBE00"/>
<path d="M8.00506 4.84646L6.44256 3.28396C6.28998 3.13146 6.28998 2.88412 6.44256 2.73162C6.59514 2.57904 6.8424 2.57904 6.99498 2.73162L8.55748 4.29412C8.71006 4.44662 8.71006 4.69396 8.55748 4.84646C8.4049 4.99912 8.15764 4.99912 8.00506 4.84646Z" fill="#FCBE00"/>
<path d="M5.9373 8.08594H4.6709C4.4552 8.08594 4.28027 7.91109 4.28027 7.69531C4.28027 7.47953 4.4552 7.30469 4.6709 7.30469H5.9373C6.15301 7.30469 6.32793 7.47953 6.32793 7.69531C6.32793 7.91109 6.15301 8.08594 5.9373 8.08594Z" fill="#FCBE00"/>
<path d="M13.75 4.17969C13.5343 4.17969 13.3594 4.00484 13.3594 3.78906V2.22656C13.3594 2.01078 13.5343 1.83594 13.75 1.83594C13.9657 1.83594 14.1406 2.01078 14.1406 2.22656V3.78906C14.1406 4.00484 13.9657 4.17969 13.75 4.17969Z" fill="#FCBE00"/>
</svg>