<svg xmlns:xlink="http://www.w3.org/1999/xlink" xmlns="http://www.w3.org/2000/svg" width="40" height="40" viewBox="0 0 40 40" fill="none">
<path d="M19.9063 6.49906C19.9366 6.48969 19.9681 6.48492 20 6.48492C20.0319 6.48492 20.0634 6.48969 20.0937 6.49914C20.2596 6.55078 20.4234 6.60484 20.5859 6.66047V3.34375C20.5859 3.02016 20.3237 2.75781 20 2.75781C19.6763 2.75781 19.4141 3.02016 19.4141 3.34375V6.66039C19.5765 6.60477 19.7404 6.5507 19.9063 6.49906V6.49906Z" fill="#80D261"/>
<path d="M27.2384 19.5238C28.108 18.2619 28.5938 16.8546 28.5938 15.3707C28.5938 11.4018 25.1203 7.98168 20.1169 6.42395C20.041 6.40035 19.959 6.40035 19.8831 6.42395C14.8797 7.98168 11.4062 11.4018 11.4062 15.3707C11.4062 16.8546 11.892 18.2619 12.7616 19.5238H27.2384Z" fill="#4FC123"/>
<path d="M16.2446 19.4457C15.4081 18.2039 14.941 16.8243 14.941 15.3707C14.941 11.855 17.667 8.76996 21.7673 7.02855C21.2389 6.80418 20.6879 6.60184 20.1168 6.42395C20.0409 6.40035 19.959 6.40035 19.8831 6.42395C14.8798 7.98176 11.4062 11.4018 11.4062 15.3707C11.4062 16.8243 11.8725 18.204 12.7087 19.4457H16.2446Z" fill="#47A920"/>
<path d="M28.8281 21.6241V19.8477C28.8281 19.6255 28.648 19.4453 28.4257 19.4453H11.5743C11.352 19.4453 11.1719 19.6255 11.1719 19.8477V21.6241H28.8281Z" fill="#D8AA5E"/>
<path d="M14.5272 21.5459V19.8477C14.5272 19.6255 14.7073 19.4453 14.9296 19.4453H11.5743C11.352 19.4453 11.1719 19.6255 11.1719 19.8477V21.5459H14.5272Z" fill="#C99C56"/>
<path d="M4.24125 4.11789C4.25656 4.11305 4.27266 4.11062 4.28898 4.11062C4.30539 4.11062 4.32141 4.11305 4.3368 4.11789C4.52203 4.17609 4.70125 4.24063 4.875 4.31V2.32812C4.875 2.00453 4.61273 1.74219 4.28906 1.74219C3.96539 1.74219 3.70312 2.00453 3.70312 2.32812V4.30992C3.87687 4.24055 4.05602 4.17609 4.24125 4.11789V4.11789Z" fill="#80D261"/>
<path d="M7.68844 9.22238C7.89008 8.80582 8 8.36113 8 7.89902C8 6.19066 6.50969 4.71777 4.36031 4.04215C4.31414 4.02762 4.26398 4.02762 4.21789 4.04215C2.06844 4.71777 0.578125 6.19066 0.578125 7.89902C0.578125 8.36113 0.688047 8.80582 0.889687 9.22238H7.68844Z" fill="#4FC123"/>
<path d="M3.68094 9.14426C3.50258 8.75043 3.40602 8.33238 3.40602 7.89902C3.40602 6.57574 4.30086 5.39418 5.70297 4.61449C5.295 4.3877 4.84469 4.19449 4.36039 4.04215C4.31422 4.02762 4.26391 4.02762 4.21773 4.04215C2.06836 4.71785 0.578125 6.19074 0.578125 7.89902C0.578125 8.3323 0.674141 8.75043 0.852266 9.14426H3.68094Z" fill="#47A920"/>
<path d="M1.39844 10.2383H7.17969V26.7761H1.39844V10.2383Z" fill="#FEF1DA"/>
<path d="M3.42969 21.5071C3.30023 21.5071 3.19531 21.4022 3.19531 21.2727V20.2449C3.19531 19.6173 3.46953 19.0513 3.9032 18.6585V15.5475H3.42969C3.30023 15.5475 3.19531 15.4426 3.19531 15.3131V14.2853C3.19531 13.6577 3.46953 13.0917 3.9032 12.6989V10.3164H1.39844V26.6979H3.9032V21.5071H3.42969Z" fill="#FAE2C0"/>
<path d="M4.41789 12.4996C4.34016 12.448 4.23813 12.448 4.16031 12.4996C3.58008 12.8842 3.19531 13.5427 3.19531 14.2871V15.3149C3.19531 15.4444 3.30023 15.5493 3.42969 15.5493H5.14844C5.27789 15.5493 5.38281 15.4444 5.38281 15.3149V14.2871C5.38289 13.5427 4.99812 12.8842 4.41789 12.4996Z" fill="#D8AA5E"/>
<path d="M7.96094 10.3164H0.617188C0.293516 10.3164 0.03125 10.0541 0.03125 9.73047C0.03125 9.40687 0.293516 9.14453 0.617188 9.14453H7.96094C8.28461 9.14453 8.54688 9.40687 8.54688 9.73047C8.54688 10.0541 8.28461 10.3164 7.96094 10.3164Z" fill="#80D261"/>
<path d="M35.6622 4.11789C35.6776 4.11305 35.6936 4.11062 35.71 4.11062C35.7264 4.11062 35.7425 4.11305 35.7578 4.11789C35.943 4.17609 36.1221 4.24055 36.2959 4.30992V2.32812C36.2959 2.00453 36.0336 1.74219 35.71 1.74219C35.3863 1.74219 35.124 2.00453 35.124 2.32812V4.31C35.2978 4.24063 35.477 4.17609 35.6622 4.11789V4.11789Z" fill="#80D261"/>
<path d="M39.1102 9.22238C39.3119 8.80582 39.4218 8.36113 39.4218 7.89902C39.4218 6.19066 37.9315 4.71777 35.7821 4.04215C35.7359 4.02762 35.6858 4.02762 35.6397 4.04215C33.4903 4.71777 32 6.19066 32 7.89902C32 8.36113 32.1099 8.80582 32.3116 9.22238H39.1102Z" fill="#4FC123"/>
<path d="M34.8953 9.14426C34.717 8.75043 34.6207 8.33238 34.6207 7.89902C34.6207 6.54324 35.5595 5.33605 37.0213 4.5577C36.6411 4.35527 36.2257 4.1816 35.7821 4.04215C35.736 4.02762 35.6859 4.02762 35.6398 4.04215C33.4903 4.71777 32 6.19066 32 7.89902C32 8.3323 32.096 8.75043 32.2741 9.14426H34.8953Z" fill="#47A920"/>
<path d="M32.8203 10.2383H38.6016V26.7761H32.8203V10.2383Z" fill="#FEF1DA"/>
<path d="M34.8516 22.3881C34.7221 22.3881 34.6172 22.2832 34.6172 22.1538V21.1259C34.6172 20.4983 34.8914 19.9323 35.3251 19.5395V16.4285H34.8516C34.7221 16.4285 34.6172 16.3236 34.6172 16.1941V15.1663C34.6172 14.5387 34.8914 13.9727 35.3251 13.5799V10.3164H32.8203V26.6979H35.3251V22.388H34.8516V22.3881Z" fill="#FAE2C0"/>
<path d="M35.8388 13.3785C35.7611 13.327 35.659 13.327 35.5812 13.3785C35.001 13.7631 34.6162 14.4216 34.6162 15.166V16.1938C34.6162 16.3233 34.7211 16.4282 34.8506 16.4282H36.5693C36.6988 16.4282 36.8037 16.3233 36.8037 16.1938V15.166C36.8038 14.4216 36.419 13.7631 35.8388 13.3785Z" fill="#D8AA5E"/>
<path d="M35.5471 16.1938V15.166C35.5471 14.5774 35.7884 14.0431 36.1759 13.6548C36.0734 13.5521 35.9612 13.459 35.8398 13.3785C35.762 13.327 35.66 13.327 35.5822 13.3785C35.002 13.7631 34.6172 14.4216 34.6172 15.166V16.1938C34.6172 16.3233 34.7221 16.4282 34.8516 16.4282H35.7815C35.652 16.4282 35.5471 16.3233 35.5471 16.1938Z" fill="#C99C56"/>
<path d="M4.41789 18.4566C4.34016 18.4051 4.23813 18.4051 4.16031 18.4566C3.58008 18.8412 3.19531 19.4998 3.19531 20.2441V21.272C3.19531 21.4014 3.30023 21.5063 3.42969 21.5063H5.14844C5.27789 21.5063 5.38281 21.4014 5.38281 21.272V20.2441C5.38289 19.4998 4.99812 18.8412 4.41789 18.4566Z" fill="#D8AA5E"/>
<path d="M35.8388 19.3395C35.7611 19.2879 35.659 19.2879 35.5812 19.3395C35.001 19.7241 34.6162 20.3826 34.6162 21.127V22.1548C34.6162 22.2842 34.7211 22.3891 34.8506 22.3891H36.5693C36.6988 22.3891 36.8037 22.2842 36.8037 22.1548V21.127C36.8038 20.3826 36.419 19.7241 35.8388 19.3395V19.3395Z" fill="#D8AA5E"/>
<path d="M39.3828 10.3164H32.0391C31.7154 10.3164 31.4531 10.0541 31.4531 9.73047C31.4531 9.40687 31.7154 9.14453 32.0391 9.14453H39.3828C39.7065 9.14453 39.9688 9.40687 39.9688 9.73047C39.9688 10.0541 39.7064 10.3164 39.3828 10.3164Z" fill="#80D261"/>
<path d="M9.32859 26.6992H0.402422C0.180156 26.6992 0 26.8794 0 27.1016V37.8593C0 38.0816 0.180156 38.2617 0.402422 38.2617H9.32859V26.6992Z" fill="#4FC123"/>
<path d="M39.598 26.6992H30.6719V38.2617H39.598C39.8203 38.2617 40.0005 38.0816 40.0005 37.8593V27.1016C40.0005 26.8794 39.8203 26.6992 39.598 26.6992Z" fill="#4FC123"/>
<path d="M33.2802 32.9883V27.1016C33.2802 26.8794 33.4603 26.6992 33.6826 26.6992H30.75V38.2617H32.9288V34.5427C32.9288 33.9059 33.054 33.4059 33.2802 32.9883Z" fill="#47A920"/>
<path d="M2.45477 33.044V27.1016C2.45477 26.8794 2.63492 26.6992 2.85719 26.6992H0.402422C0.180156 26.6992 0 26.8794 0 27.1016V37.8593C0 38.0816 0.180156 38.2617 0.402422 38.2617H2.13281V34.5428C2.13281 33.9341 2.24711 33.4503 2.45477 33.044V33.044Z" fill="#47A920"/>
<path d="M30.7491 38.2614H9.25V21.9493C9.25 21.727 9.43016 21.5469 9.65242 21.5469H30.3466C30.5688 21.5469 30.749 21.727 30.749 21.9493V38.2614H30.7491Z" fill="#FEF1DA"/>
<path d="M12.9975 21.5469H9.65242C9.43016 21.5469 9.25 21.727 9.25 21.9493V38.2613H12.5951V21.9493C12.5951 21.7271 12.7752 21.5469 12.9975 21.5469Z" fill="#FAE2C0"/>
<path d="M20.0005 24.5273C17.1411 26.1468 15.1992 26.7732 15.1992 30.2769V38.2614H24.8016V30.2769C24.8017 26.7732 22.8598 26.1468 20.0005 24.5273Z" fill="#D8AA5E"/>
<path d="M17.722 31.1147C17.722 27.8236 19.4355 27.0711 22.0133 25.6497C21.415 25.2973 20.7386 24.9455 20.0004 24.5273C17.141 26.1468 15.1992 26.7732 15.1992 30.2769V38.2614H17.722V31.1147Z" fill="#C99C56"/>
<path d="M4.60227 31.1992C3.13156 32.0321 2.13281 32.7422 2.13281 34.5442V38.2631H7.07172V34.5442C7.07172 32.7422 6.07297 32.0321 4.60227 31.1992Z" fill="#D8AA5E"/>
<path d="M3.82297 35.3922C3.82297 33.6855 4.71914 32.9583 6.0632 32.1785C5.66656 31.8239 5.16977 31.5206 4.60234 31.1992C3.13156 32.0322 2.13281 32.7423 2.13281 34.5443V38.2632H3.82297V35.3922Z" fill="#C99C56"/>
<path d="M35.3982 31.1992C33.9275 32.0322 32.9287 32.7422 32.9287 34.5443V38.2632H37.8676V34.5442C37.8676 32.7422 36.8689 32.0321 35.3982 31.1992V31.1992Z" fill="#D8AA5E"/>
<path d="M34.8084 35.3921C34.8084 33.7351 35.6532 33.0013 36.9325 32.2464C36.5244 31.8621 36.0006 31.5409 35.3972 31.1992C33.9265 32.0322 32.9277 32.7422 32.9277 34.5443V38.2632H34.8083V35.3921H34.8084Z" fill="#C99C56"/>
<path d="M35.5471 22.1548V21.127C35.5471 20.5384 35.7884 20.0041 36.1759 19.6158C36.0734 19.513 35.9612 19.4199 35.8398 19.3395C35.762 19.2879 35.66 19.2879 35.5822 19.3395C35.002 19.7241 34.6172 20.3826 34.6172 21.127V22.1548C34.6172 22.2842 34.7221 22.3891 34.8516 22.3891H35.7815C35.652 22.3891 35.5471 22.2842 35.5471 22.1548Z" fill="#C99C56"/>
<path d="M4.12523 21.2759V20.248C4.12523 19.6595 4.36648 19.1252 4.75406 18.7369C4.65148 18.6341 4.5393 18.541 4.41789 18.4605C4.34016 18.409 4.23813 18.409 4.16031 18.4605C3.58008 18.8452 3.19531 19.5037 3.19531 20.248V21.2759C3.19531 21.4053 3.30023 21.5102 3.42969 21.5102H4.35961C4.23016 21.5102 4.12523 21.4053 4.12523 21.2759V21.2759Z" fill="#C99C56"/>
<path d="M4.12523 15.3149V14.2871C4.12523 13.6985 4.36648 13.1642 4.75406 12.7759C4.65148 12.6732 4.5393 12.5801 4.41789 12.4996C4.34016 12.448 4.23813 12.448 4.16031 12.4996C3.58008 12.8842 3.19531 13.5427 3.19531 14.2871V15.3149C3.19531 15.4444 3.30023 15.5493 3.42969 15.5493H4.35961C4.23016 15.5493 4.12523 15.4443 4.12523 15.3149V15.3149Z" fill="#C99C56"/>
</svg>