<svg xmlns:xlink="http://www.w3.org/1999/xlink" xmlns="http://www.w3.org/2000/svg" width="40" height="40" viewBox="0 0 40 40" fill="none">
<g clip-path="url(#clip0_1540_12644)">
<path d="M38.6001 39.9994H1.4006C0.562133 39.9994 -0.0642658 39.2283 0.107646 38.4076L1.18475 32.7612C1.31288 32.1492 1.85251 31.7109 2.47771 31.7109H37.5231C38.1483 31.7109 38.6879 32.1492 38.8161 32.7612L39.8932 38.4076C40.065 39.2283 39.4387 39.9994 38.6001 39.9994Z" fill="#8B8089"/>
<path d="M39.8933 38.4076L38.8162 32.7612C38.688 32.1492 38.1485 31.7109 37.5233 31.7109H35.6992C36.3244 31.7109 36.864 32.1492 36.9922 32.7612L38.0693 38.4076C38.2412 39.2283 37.6149 39.9994 36.7763 39.9994H38.6004C39.4389 39.9994 40.0653 39.2283 39.8933 38.4076Z" fill="#7B7179"/>
<path d="M21.8944 33.1168L32.154 36.0842C34.2346 36.0842 35.9212 34.3976 35.9212 32.3171V22.7122C35.9212 20.2128 35.101 17.7687 33.5318 15.822C32.4019 14.4198 30.857 13.2305 28.8679 13.2305L25.9364 13.2656V25.9321C25.9364 26.5981 25.3965 27.138 24.7305 27.138H21.8953L21.208 30.2597L21.8944 33.1168Z" fill="#ACA6D6"/>
<path d="M33.5314 15.822C32.4015 14.4198 30.8566 13.2305 28.8675 13.2305L27.4463 13.2475C29.2423 13.3951 30.6548 14.5161 31.7072 15.822C33.2765 17.7687 34.0966 20.2128 34.0966 22.7122V32.3171C34.0966 34.3977 32.41 36.0843 30.3295 36.0843H32.1536C34.2341 36.0843 35.9207 34.3977 35.9207 32.3171V22.7122C35.9207 20.2128 35.1006 17.7687 33.5314 15.822V15.822Z" fill="#978ECB"/>
<path d="M15.1006 29.9459V33.2817C15.1006 34.8306 16.356 36.0869 17.9057 36.0869H21.8937V27.1406H17.9057C16.356 27.1406 15.1006 28.3969 15.1006 29.9459Z" fill="#C38F86"/>
<path d="M20.0703 27.1406H21.8944V36.0869H20.0703V27.1406Z" fill="#B87D72"/>
<path d="M30.4132 32.8867H28.5592L28.2578 34.4886L28.5592 36.0875H29.8593L30.889 37.2866C30.9794 37.392 31.1114 37.4527 31.2503 37.4527H32.573C32.908 37.4527 33.1383 37.116 33.0169 36.8038L31.8865 33.8948C31.6502 33.287 31.0652 32.8867 30.4132 32.8867V32.8867Z" fill="#FFF3DE"/>
<path d="M33.0176 36.8037L31.887 33.8947C31.6509 33.287 31.0659 32.8867 30.4139 32.8867H28.7402C29.3922 32.8867 29.9773 33.287 30.2134 33.8947L31.3439 36.8037C31.4424 37.057 31.3093 37.3262 31.0769 37.419C31.1318 37.4405 31.1906 37.4526 31.251 37.4526H32.5736C32.9086 37.4526 33.1389 37.116 33.0176 36.8037V36.8037Z" fill="#FFE5C2"/>
<path d="M18.2568 36.0852H28.5596V32.3756C28.5596 32.0085 28.2621 31.7109 27.895 31.7109H18.2568V36.0852Z" fill="#C38F86"/>
<path d="M27.8954 31.7109H26.0713C26.4384 31.7109 26.7359 32.0085 26.7359 32.3756V36.0852H28.56V32.3756C28.5599 32.0085 28.2624 31.7109 27.8954 31.7109Z" fill="#B87D72"/>
<path d="M9.59892 10.9118C7.77582 10.8505 6.29075 9.36534 6.22942 7.54224C6.18218 6.13798 6.96447 4.91206 8.12391 4.3156C8.31352 4.21806 8.24214 3.92912 8.02894 3.92969C8.01365 3.92977 7.99835 3.92985 7.98298 3.93001C5.20053 3.96212 2.92157 6.22981 2.87666 9.0121C2.82958 11.9337 5.20745 14.3116 8.12906 14.2644C10.9113 14.2195 13.179 11.9406 13.2111 9.15818C13.2112 9.14281 13.2114 9.12751 13.2114 9.11222C13.212 8.89902 12.923 8.82764 12.8255 9.01725C12.2291 10.1767 11.0032 10.9591 9.59892 10.9118V10.9118Z" fill="#FFE177"/>
<path d="M6.29994 4.3152C5.14018 4.91158 4.35788 6.13734 4.40537 7.54176C4.46654 9.3647 5.95145 10.8504 7.77438 10.9116C8.13253 10.9237 8.47941 10.8818 8.80698 10.7925C7.36312 10.3981 6.28143 9.09186 6.22911 7.54176C6.18163 6.13734 6.96473 4.91158 8.12368 4.3152C8.31362 4.21782 8.24199 3.92888 8.02871 3.92969H7.98283C7.43072 3.93613 6.89873 4.03029 6.39974 4.20011C6.38444 4.24679 6.35225 4.28864 6.29994 4.3152V4.3152Z" fill="#FFD15B"/>
<path d="M12.8253 9.01629C12.4664 9.71408 11.8796 10.275 11.1625 10.6002C10.9632 10.6912 10.7533 10.7627 10.536 10.815C10.5394 10.8145 10.5427 10.8148 10.5464 10.8139C10.8059 10.7506 11.025 11.0099 10.9126 11.2524C10.2139 12.7602 8.80761 13.8825 7.12793 14.1834C7.45228 14.2413 7.78708 14.2687 8.12914 14.2631C10.9114 14.2188 13.1786 11.9395 13.2108 9.15722V9.11134C13.2116 8.89798 12.9227 8.82635 12.8253 9.01629V9.01629Z" fill="#FFD15B"/>
<path d="M11.4494 37.6149H5.22749C4.89542 37.6149 4.64262 37.317 4.69679 36.9893L5.10604 34.5127C5.14894 34.253 5.37349 34.0625 5.63675 34.0625H11.4494C11.7464 34.0625 11.9872 34.3033 11.9872 34.6004V37.077C11.9872 37.3741 11.7464 37.6149 11.4494 37.6149V37.6149Z" fill="#FED2A4"/>
<path d="M11.4491 34.0625H9.625C9.92206 34.0625 10.1629 34.3033 10.1629 34.6004V37.077C10.1629 37.374 9.92206 37.6149 9.625 37.6149H11.4491C11.7461 37.6149 11.9869 37.374 11.9869 37.077V34.6004C11.9869 34.3034 11.7461 34.0625 11.4491 34.0625V34.0625Z" fill="#FFBD86"/>
<path d="M24.5105 13.956L24.5129 13.9568C27.2333 14.6962 30.0384 13.0903 30.7778 10.3699L31.0428 9.31818L27.8483 7.1214L23.1613 6.98828L22.333 10.1538C21.8838 11.8046 22.8589 13.5076 24.5105 13.956V13.956Z" fill="#FFF3DE"/>
<path d="M29.4884 8.25L29.2187 9.31889L28.9538 10.3706C28.4213 12.3297 26.8173 13.7106 24.9453 14.054C27.5245 14.5224 30.0776 12.947 30.7778 10.3706L31.0428 9.31889L29.4884 8.25Z" fill="#FFE5C2"/>
<path d="M23.1621 6.99015L31.0436 9.32005L31.2931 8.33204C31.7088 6.8027 30.8056 5.22685 29.277 4.81107L26.895 4.16375C25.3665 3.74797 23.7898 4.65043 23.374 6.17976L23.1621 6.99015Z" fill="#5A74D1"/>
<path d="M29.2764 4.81091L26.8944 4.16359C26.3284 4.00962 25.756 4.03682 25.2383 4.20922L27.4524 4.81083C28.9809 5.2266 29.8842 6.80238 29.4684 8.33179L29.3456 8.81807L31.043 9.31988L31.2924 8.33187C31.7082 6.80254 30.805 5.22668 29.2764 4.81091Z" fill="#4F66D0"/>
<path d="M12.5994 3.05227C12.9374 3.05227 13.2114 2.77824 13.2114 2.4402C13.2114 2.10216 12.9374 1.82812 12.5994 1.82812C12.2613 1.82812 11.9873 2.10216 11.9873 2.4402C11.9873 2.77824 12.2613 3.05227 12.5994 3.05227Z" fill="#FFD15B"/>
<path d="M15.4363 6.10696C15.7743 6.10696 16.0484 5.83292 16.0484 5.49488C16.0484 5.15685 15.7743 4.88281 15.4363 4.88281C15.0983 4.88281 14.8242 5.15685 14.8242 5.49488C14.8242 5.83292 15.0983 6.10696 15.4363 6.10696Z" fill="#FFD15B"/>
<path d="M16.0486 1.22414C16.3866 1.22414 16.6607 0.950111 16.6607 0.612072C16.6607 0.274034 16.3866 0 16.0486 0C15.7106 0 15.4365 0.274034 15.4365 0.612072C15.4365 0.950111 15.7106 1.22414 16.0486 1.22414Z" fill="#FFD15B"/>
<path d="M31.5006 30.5963C31.3462 30.5963 31.1916 30.5374 31.0737 30.4195L28.7041 28.05C28.4684 27.8141 28.4684 27.432 28.7041 27.1963C28.94 26.9606 29.3221 26.9606 29.5578 27.1963L31.9274 29.5659C32.1631 29.8017 32.1631 30.1838 31.9274 30.4195C31.8095 30.5374 31.655 30.5963 31.5006 30.5963V30.5963Z" fill="#978ECB"/>
<path d="M15.4435 19.1582L15.5343 18.2278C15.5586 17.979 15.8591 17.8677 16.0396 18.0407L17.1223 19.0786C17.2701 19.2201 17.4475 19.3271 17.6418 19.3916L19.3301 19.952V21.4893L18.2911 22.7299L15.9644 20.5436C15.5854 20.1875 15.393 19.6758 15.4435 19.1582V19.1582Z" fill="#FFF3DE"/>
<path d="M29.6617 16.0755L29.6158 16.0583C28.6334 15.6909 27.5392 16.1895 27.1717 17.1718L25.6057 21.3592L20.2507 19.3565C19.9132 19.2303 19.5373 19.4015 19.4111 19.739L18.292 22.7313L25.7489 25.5202C26.9157 25.9566 28.2154 25.3645 28.6518 24.1977L30.7754 18.5195C31.1426 17.5371 30.6441 16.443 29.6617 16.0755V16.0755Z" fill="#ACA6D6"/>
<path d="M29.6617 16.0753L29.6158 16.0582C29.0802 15.8579 28.5116 15.9154 28.0454 16.168C28.8881 16.6031 29.2916 17.6091 28.9512 18.5194L26.8275 24.1976C26.6054 24.7915 26.1593 25.2361 25.6211 25.4724L25.7487 25.5202C26.9156 25.9565 28.2152 25.3644 28.6516 24.1976L30.7752 18.5194C31.1426 17.537 30.6441 16.4428 29.6617 16.0753V16.0753Z" fill="#978ECB"/>
</g>
<defs>
<clipPath id="clip0_1540_12644">
<rect width="40" height="40" fill="white"/>
</clipPath>
</defs>
</svg>