<svg xmlns:xlink="http://www.w3.org/1999/xlink" xmlns="http://www.w3.org/2000/svg" width="40" height="40" viewBox="0 0 40 40" fill="none">
<g clip-path="url(#clip0_1547_14568)">
<path d="M33.5486 1.28906H8.2034C7.49082 1.28906 6.91309 1.86672 6.91309 2.57937V37.9532C6.91309 38.6658 7.49082 39.2435 8.2034 39.2435H33.5486L34.8389 38.7084V2.57937C34.8389 1.86672 34.2613 1.28906 33.5486 1.28906V1.28906Z" fill="#95D6A4"/>
<path d="M10.3223 3.87109H32.2577V37.4195H10.3223V3.87109Z" fill="#78C2A4"/>
<path d="M29.6771 13.5486C28.9645 13.5486 28.3868 12.9709 28.3868 12.2583C28.3868 9.76406 26.3648 7.74219 23.8707 7.74219H18.7094C16.2152 7.74219 14.1933 9.76414 14.1933 12.2583C14.1933 12.9709 13.6156 13.5486 12.903 13.5486C12.5466 13.5486 12.2578 13.8374 12.2578 14.1938V27.097C12.2578 27.4533 12.5466 27.7421 12.903 27.7421C13.6156 27.7421 14.1933 28.3198 14.1933 29.0324C14.1933 31.5266 16.2152 33.5485 18.7094 33.5485H23.8707C26.3649 33.5485 28.3868 31.5266 28.3868 29.0324C28.3868 28.3198 28.9645 27.7421 29.6771 27.7421C30.0334 27.7421 30.3223 27.4533 30.3223 27.097V14.1938C30.3223 13.8375 30.0334 13.5486 29.6771 13.5486Z" fill="#95D6A4"/>
<path d="M10.3223 3.87109V12.2582H12.292C12.616 12.2582 12.8988 12.0186 12.9298 11.6961C13.0731 10.2037 13.7814 8.87641 14.8382 7.93047C15.7337 7.12891 16.8795 6.60117 18.1439 6.47898C18.4676 6.44773 18.7095 6.16664 18.7095 5.84141V3.87109H10.3223Z" fill="#FFD064"/>
<path d="M32.2573 3.87109V12.2582H30.2875C29.9636 12.2582 29.6807 12.0186 29.6498 11.6961C29.5064 10.2037 28.7982 8.87641 27.7414 7.93047C26.8459 7.12891 25.7001 6.60117 24.4357 6.47898C24.112 6.44773 23.8701 6.16664 23.8701 5.84141V3.87109H32.2573Z" fill="#FFD064"/>
<path d="M32.2573 37.4184V29.0312H30.2875C29.9636 29.0312 29.6807 29.2709 29.6498 29.5934C29.5064 31.0857 28.7982 32.413 27.7414 33.359C26.8459 34.1605 25.7001 34.6883 24.4357 34.8105C24.112 34.8417 23.8701 35.1228 23.8701 35.448V37.4183H32.2573V37.4184Z" fill="#FFD064"/>
<path d="M10.3223 37.4184V29.0312H12.292C12.616 29.0312 12.8988 29.2709 12.9298 29.5934C13.0731 31.0857 13.7814 32.413 14.8382 33.359C15.7337 34.1605 16.8795 34.6883 18.1439 34.8105C18.4676 34.8417 18.7095 35.1228 18.7095 35.448V37.4183H10.3223V37.4184Z" fill="#FFD064"/>
<path d="M32.2574 38.0653H10.3219C9.96527 38.0653 9.67676 37.7764 9.67676 37.4202V3.87172C9.67676 3.51547 9.96535 3.22656 10.3219 3.22656H32.2574C32.614 3.22656 32.9025 3.51547 32.9025 3.87172V37.4201C32.9025 37.7764 32.614 38.0653 32.2574 38.0653ZM10.9671 36.775H31.6122V4.51687H10.9671V36.775Z" fill="#FFE07D"/>
<path d="M21.2899 26.4528C24.4967 26.4528 27.0964 23.8532 27.0964 20.6463C27.0964 17.4395 24.4967 14.8398 21.2899 14.8398C18.0831 14.8398 15.4834 17.4395 15.4834 20.6463C15.4834 23.8532 18.0831 26.4528 21.2899 26.4528Z" fill="#FFE07D"/>
<path d="M21.2902 23.8695C23.0718 23.8695 24.516 22.4253 24.516 20.6437C24.516 18.8622 23.0718 17.418 21.2902 17.418C19.5087 17.418 18.0645 18.8622 18.0645 20.6437C18.0645 22.4253 19.5087 23.8695 21.2902 23.8695Z" fill="#FFD064"/>
<path d="M7.74195 37.4181V1.28906H6.45164L5.66406 2.57937V38.7084L6.45164 39.9987H33.5484C34.261 39.9987 34.8388 39.421 34.8388 38.7084H9.03227C8.31961 38.7084 7.74195 38.1307 7.74195 37.4181V37.4181Z" fill="#78C2A4"/>
<path d="M6.45145 39.9987C5.73879 39.9987 5.16113 39.421 5.16113 38.7084V2.57937C5.16113 1.86672 5.73887 1.28906 6.45145 1.28906V39.9987Z" fill="#5FA5A2"/>
<path d="M10.6101 7.07328L9.67766 6.45164L8.74523 7.07328C8.31648 7.35914 7.74219 7.0518 7.74219 6.53648V0.645156C7.74219 0.288828 8.03102 0 8.38734 0H10.968C11.3243 0 11.6131 0.288828 11.6131 0.645156V6.53641C11.6131 7.05172 11.0388 7.35906 10.6101 7.07328Z" fill="#FFC269"/>
<path d="M8.38734 0C8.03102 0 7.74219 0.288828 7.74219 0.645156V6.53641C7.74219 7.05172 8.31648 7.35906 8.74523 7.0732L9.67766 6.45156V0H8.38734Z" fill="#FFA95F"/>
</g>
<defs>
<clipPath id="clip0_1547_14568">
<rect width="40" height="40" fill="white"/>
</clipPath>
</defs>
</svg>