<svg xmlns:xlink="http://www.w3.org/1999/xlink" xmlns="http://www.w3.org/2000/svg" width="40" height="40" viewBox="0 0 40 40" fill="none">
<g clip-path="url(#clip0_1540_13608)">
<path d="M34.4954 25.7544L39.8233 20.4264C40.0588 20.191 40.0588 19.8091 39.8233 19.5736L34.4954 14.2457C34.3822 14.1325 34.3187 13.9792 34.3187 13.8193V6.28426C34.3187 5.95121 34.0487 5.68121 33.7157 5.68121H26.1807C26.0208 5.68121 25.8675 5.6177 25.7543 5.50457L20.4264 0.176602C20.1909 -0.0588672 19.809 -0.0588672 19.5736 0.176602L14.2456 5.50457C14.1325 5.6177 13.9791 5.68121 13.8192 5.68121H6.28426C5.95121 5.68121 5.68121 5.95121 5.68121 6.28426V13.8192C5.68121 13.9791 5.6177 14.1325 5.50457 14.2456L0.176602 19.5736C-0.0588672 19.809 -0.0588672 20.1909 0.176602 20.4264L5.50457 25.7543C5.6177 25.8675 5.68121 26.0208 5.68121 26.1807V33.7157C5.68121 34.0487 5.95121 34.3187 6.28426 34.3187H13.8192C13.9791 34.3187 14.1325 34.3822 14.2456 34.4954L19.5736 39.8233C19.809 40.0588 20.1909 40.0588 20.4264 39.8233L25.7543 34.4954C25.8675 34.3822 26.0208 34.3187 26.1807 34.3187H33.7157C34.0487 34.3187 34.3187 34.0487 34.3187 33.7157V26.1807C34.3187 26.0208 34.3822 25.8675 34.4954 25.7544V25.7544Z" fill="#FECE85"/>
<path d="M39.8237 20.4246L34.4955 25.7529C34.382 25.8655 34.3184 26.0192 34.3184 26.1794V33.714C34.3184 34.0471 34.0489 34.3166 33.7158 34.3166H32.0977C32.4308 34.3166 32.7003 34.0471 32.7003 33.714V25.813C32.7003 25.6529 32.7639 25.4992 32.8773 25.3866L37.9723 20.4245C38.208 20.1888 38.208 19.8073 37.9723 19.5716L32.8773 14.6802C32.7639 14.5675 32.7003 14.4138 32.7003 14.2537V6.28234C32.7003 5.94922 32.4308 5.67969 32.0977 5.67969H33.7158C34.0489 5.67969 34.3184 5.94922 34.3184 6.28234V13.817C34.3184 13.9771 34.382 14.1308 34.4955 14.2434L39.8237 19.5717C40.0587 19.8074 40.0587 20.1888 39.8237 20.4246V20.4246Z" fill="#FEC165"/>
<path d="M31.0863 24.4849L35.3887 20.1825C35.4896 20.0816 35.4896 19.918 35.3887 19.817L31.0863 15.5146C31.0378 15.4662 31.0105 15.4004 31.0105 15.3319V9.24742C31.0105 9.10469 30.8948 8.98898 30.7521 8.98898H24.6676C24.5991 8.98898 24.5333 8.9618 24.4848 8.91328L20.1824 4.61086C20.0815 4.50992 19.9179 4.50992 19.817 4.61086L15.5145 8.91328C15.4661 8.96172 15.4003 8.98898 15.3318 8.98898H9.24742C9.10469 8.98898 8.98898 9.10469 8.98898 9.24742V15.332C8.98898 15.4005 8.9618 15.4663 8.91328 15.5147L4.61086 19.8171C4.50992 19.918 4.50992 20.0816 4.61086 20.1826L8.91328 24.485C8.96172 24.5334 8.98898 24.5992 8.98898 24.6677V30.7523C8.98898 30.895 9.10469 31.0107 9.24742 31.0107H15.332C15.4005 31.0107 15.4663 31.0379 15.5147 31.0864L19.8171 35.3888C19.918 35.4898 20.0816 35.4898 20.1826 35.3888L24.485 31.0864C24.5334 31.038 24.5992 31.0107 24.6677 31.0107H30.7523C30.895 31.0107 31.0107 30.895 31.0107 30.7523V24.6677C31.0105 24.5991 31.0378 24.5334 31.0863 24.4849V24.4849Z" fill="#6ED5A1"/>
<path d="M20.0004 31.8269C26.5325 31.8269 31.8279 26.5315 31.8279 19.9994C31.8279 13.4672 26.5325 8.17188 20.0004 8.17188C13.4682 8.17188 8.17285 13.4672 8.17285 19.9994C8.17285 26.5315 13.4682 31.8269 20.0004 31.8269Z" fill="#B0E7C9"/>
<path d="M26.3808 15.8945C26.0474 15.8945 25.7773 16.1647 25.7773 16.498V25.6584C25.7773 25.9916 26.0475 26.2618 26.3808 26.2618C26.7141 26.2618 26.9842 25.9916 26.9842 25.6584V16.498C26.9843 16.1647 26.7141 15.8945 26.3808 15.8945V15.8945Z" fill="#6ED5A1"/>
<path d="M23.5354 15.8945C23.2021 15.8945 22.932 16.1647 22.932 16.498V23.8263C22.932 24.5037 22.3808 25.0549 21.7034 25.0549C21.026 25.0549 20.4748 24.5037 20.4748 23.8263V21.0782C20.4748 20.7449 20.2046 20.4748 19.8713 20.4748C19.538 20.4748 19.2679 20.7449 19.2679 21.0782V23.8263C19.2679 24.5037 18.7167 25.0549 18.0392 25.0549C17.3617 25.0549 16.8106 24.5037 16.8106 23.8263V20.2981C16.8106 19.674 16.5335 19.118 16.0502 18.7727C15.5457 18.4123 14.8707 18.3252 14.2443 18.5399C13.7148 18.7213 13.3046 19.133 13.1189 19.6694C12.9321 20.209 12.9985 20.787 13.3011 21.2551C13.8432 22.0935 14.8868 22.2034 15.6036 22.1652V23.8263C15.6036 25.1693 16.6962 26.2619 18.0392 26.2619C18.7691 26.2619 19.4245 25.9387 19.8713 25.4285C20.3181 25.9387 20.9735 26.2619 21.7033 26.2619C23.0463 26.2619 24.1388 25.1693 24.1388 23.8263V16.498C24.1389 16.1647 23.8687 15.8945 23.5354 15.8945V15.8945ZM15.6036 20.9535C15.1498 20.9845 14.538 20.9452 14.3147 20.5998C14.2151 20.4457 14.1949 20.2505 14.2595 20.064C14.5032 19.362 15.6036 19.5491 15.6036 20.2981V20.9535Z" fill="#6ED5A1"/>
<path d="M17.5794 16.9929C17.8096 17.1726 18.0763 17.2641 18.3522 17.2641C18.5324 17.2641 18.7166 17.2251 18.897 17.1462C19.0342 17.0862 19.1631 17.0054 19.28 16.9086C19.6867 17.1973 20.2686 17.3154 20.8119 17.2107C21.4416 17.0892 21.7583 16.7281 21.9129 16.4466C22.1941 15.9347 22.1899 15.2213 21.9013 14.4891C21.7791 14.1791 21.4284 14.0268 21.1185 14.1489C20.8084 14.2711 20.6562 14.6216 20.7784 14.9317C20.9257 15.3054 20.9565 15.6807 20.8551 15.8654C20.8353 15.9014 20.7889 15.9858 20.5832 16.0255C20.3549 16.0697 20.0786 16.0167 19.9545 15.9052C19.9166 15.8711 19.8984 15.8395 19.9049 15.7617C19.9328 15.4296 19.6861 15.1378 19.354 15.1099C19.0218 15.0817 18.7301 15.3287 18.7022 15.6608C18.7021 15.661 18.7021 15.6611 18.7021 15.6612C18.6903 15.7988 18.5529 15.9793 18.4135 16.0403C18.3538 16.0664 18.3405 16.056 18.3221 16.0416C18.1606 15.9154 18.1875 15.6923 18.3445 15.1271C18.3814 14.9945 18.4195 14.8573 18.4475 14.7225C18.5153 14.3961 18.3058 14.0766 17.9794 14.0088C17.6534 13.9411 17.3336 14.1505 17.2657 14.4769C17.2458 14.5728 17.2146 14.6851 17.1816 14.8041C17.0213 15.3814 16.7529 16.3476 17.5794 16.9929V16.9929Z" fill="#6ED5A1"/>
<path d="M19.068 13.2705C19.5557 13.2525 20.1917 12.8202 20.4561 12.589C20.707 12.3697 20.7326 11.9884 20.5132 11.7375C20.2939 11.4866 19.9126 11.4611 19.6618 11.6804C19.445 11.8699 19.1837 12.011 18.9064 12.0883C18.5853 12.1779 18.3977 12.5107 18.4871 12.8317C18.5807 13.1672 18.8023 13.2804 19.068 13.2705V13.2705Z" fill="#6ED5A1"/>
<path d="M31.8277 20.001C31.8277 26.533 26.5323 31.8284 20.0003 31.8284C17.8632 31.8284 15.8588 31.2619 14.1289 30.2705C15.5281 30.8531 17.0626 31.175 18.6727 31.175C25.2047 31.175 30.5 25.8797 30.5 19.3477C30.5 14.9527 28.1022 11.117 24.5441 9.07812C28.8207 10.8587 31.8277 15.0791 31.8277 20.001Z" fill="#91DEB6"/>
</g>
<defs>
<clipPath id="clip0_1540_13608">
<rect width="40" height="40" fill="white"/>
</clipPath>
</defs>
</svg>