<svg xmlns:xlink="http://www.w3.org/1999/xlink" xmlns="http://www.w3.org/2000/svg" width="40" height="40" viewBox="0 0 40 40" fill="none">
<path d="M30.833 11.6641C32.2137 11.6641 33.333 10.5448 33.333 9.16406C33.333 7.78335 32.2137 6.66406 30.833 6.66406C29.4523 6.66406 28.333 7.78335 28.333 9.16406C28.333 10.5448 29.4523 11.6641 30.833 11.6641Z" fill="url(#paint0_linear_1540_12780)"/>
<path d="M32.499 16.6641C33.8797 16.6641 34.999 15.5448 34.999 14.1641C34.999 12.7833 33.8797 11.6641 32.499 11.6641C31.1183 11.6641 29.999 12.7833 29.999 14.1641C29.999 15.5448 31.1183 16.6641 32.499 16.6641Z" fill="url(#paint1_linear_1540_12780)"/>
<path d="M31.5088 21.9922C32.8895 21.9922 34.0088 20.8729 34.0088 19.4922C34.0088 18.1115 32.8895 16.9922 31.5088 16.9922C30.1281 16.9922 29.0088 18.1115 29.0088 19.4922C29.0088 20.8729 30.1281 21.9922 31.5088 21.9922Z" fill="url(#paint2_linear_1540_12780)"/>
<path d="M25.833 9.99609C27.2137 9.99609 28.333 8.87681 28.333 7.49609C28.333 6.11538 27.2137 4.99609 25.833 4.99609C24.4523 4.99609 23.333 6.11538 23.333 7.49609C23.333 8.87681 24.4523 9.99609 25.833 9.99609Z" fill="url(#paint3_linear_1540_12780)"/>
<path d="M20.5479 10.7031C21.9286 10.7031 23.0479 9.58384 23.0479 8.20313C23.0479 6.82241 21.9286 5.70312 20.5479 5.70312C19.1671 5.70312 18.0479 6.82241 18.0479 8.20313C18.0479 9.58384 19.1671 10.7031 20.5479 10.7031Z" fill="url(#paint4_linear_1540_12780)"/>
<path d="M5.83203 36.6602C7.21274 36.6602 8.33203 35.5409 8.33203 34.1602C8.33203 32.7794 7.21274 31.6602 5.83203 31.6602C4.45132 31.6602 3.33203 32.7794 3.33203 34.1602C3.33203 35.5409 4.45132 36.6602 5.83203 36.6602Z" fill="url(#paint5_linear_1540_12780)"/>
<path d="M10.833 38.3281C12.2137 38.3281 13.333 37.2088 13.333 35.8281C13.333 34.4474 12.2137 33.3281 10.833 33.3281C9.4523 33.3281 8.33301 34.4474 8.33301 35.8281C8.33301 37.2088 9.4523 38.3281 10.833 38.3281Z" fill="url(#paint6_linear_1540_12780)"/>
<path d="M16.001 37.5039C17.3817 37.5039 18.501 36.3846 18.501 35.0039C18.501 33.6232 17.3817 32.5039 16.001 32.5039C14.6203 32.5039 13.501 33.6232 13.501 35.0039C13.501 36.3846 14.6203 37.5039 16.001 37.5039Z" fill="url(#paint7_linear_1540_12780)"/>
<path d="M29.0723 26.668C30.453 26.668 31.5723 25.5487 31.5723 24.168C31.5723 22.7873 30.453 21.668 29.0723 21.668C27.6916 21.668 26.5723 22.7873 26.5723 24.168C26.5723 25.5487 27.6916 26.668 29.0723 26.668Z" fill="url(#paint8_linear_1540_12780)"/>
<path d="M20.833 34.9922C22.2137 34.9922 23.333 33.8729 23.333 32.4922C23.333 31.1115 22.2137 29.9922 20.833 29.9922C19.4523 29.9922 18.333 31.1115 18.333 32.4922C18.333 33.8729 19.4523 34.9922 20.833 34.9922Z" fill="url(#paint9_linear_1540_12780)"/>
<path d="M25.833 31.6719C27.2137 31.6719 28.333 30.5526 28.333 29.1719C28.333 27.7912 27.2137 26.6719 25.833 26.6719C24.4523 26.6719 23.333 27.7912 23.333 29.1719C23.333 30.5526 24.4523 31.6719 25.833 31.6719Z" fill="url(#paint10_linear_1540_12780)"/>
<path d="M4.16602 31.6719C5.54673 31.6719 6.66602 30.5526 6.66602 29.1719C6.66602 27.7912 5.54673 26.6719 4.16602 26.6719C2.7853 26.6719 1.66602 27.7912 1.66602 29.1719C1.66602 30.5526 2.7853 31.6719 4.16602 31.6719Z" fill="url(#paint11_linear_1540_12780)"/>
<path d="M5.00098 26.3477C6.38169 26.3477 7.50098 25.2284 7.50098 23.8477C7.50098 22.4669 6.38169 21.3477 5.00098 21.3477C3.62026 21.3477 2.50098 22.4669 2.50098 23.8477C2.50098 25.2284 3.62026 26.3477 5.00098 26.3477Z" fill="url(#paint12_linear_1540_12780)"/>
<path d="M15.5664 13.332C16.9471 13.332 18.0664 12.2127 18.0664 10.832C18.0664 9.45132 16.9471 8.33203 15.5664 8.33203C14.1857 8.33203 13.0664 9.45132 13.0664 10.832C13.0664 12.2127 14.1857 13.332 15.5664 13.332Z" fill="url(#paint13_linear_1540_12780)"/>
<path d="M7.39941 21.668C8.78013 21.668 9.89941 20.5487 9.89941 19.168C9.89941 17.7873 8.78013 16.668 7.39941 16.668C6.0187 16.668 4.89941 17.7873 4.89941 19.168C4.89941 20.5487 6.0187 21.668 7.39941 21.668Z" fill="url(#paint14_linear_1540_12780)"/>
<path d="M10.833 16.6641C12.2137 16.6641 13.333 15.5448 13.333 14.1641C13.333 12.7833 12.2137 11.6641 10.833 11.6641C9.4523 11.6641 8.33301 12.7833 8.33301 14.1641C8.33301 15.5448 9.4523 16.6641 10.833 16.6641Z" fill="url(#paint15_linear_1540_12780)"/>
<path d="M34.167 8.33421C33.946 8.33417 33.7341 8.24634 33.5779 8.09005L31.9112 6.42338C31.8338 6.34595 31.7724 6.25404 31.7305 6.15288C31.6886 6.05172 31.667 5.94329 31.667 5.8338C31.667 5.7243 31.6886 5.61588 31.7305 5.51472C31.7724 5.41356 31.8338 5.32164 31.9112 5.24421C31.9886 5.16679 32.0805 5.10537 32.1817 5.06347C32.2829 5.02157 32.3913 5 32.5008 5C32.6103 5 32.7187 5.02157 32.8199 5.06347C32.921 5.10537 33.0129 5.16679 33.0904 5.24421L34.757 6.91088C34.8739 7.02743 34.9535 7.17605 34.9858 7.3379C35.018 7.49974 35.0015 7.66753 34.9383 7.81999C34.8752 7.97244 34.7681 8.1027 34.6308 8.19425C34.4935 8.28579 34.3321 8.33451 34.167 8.33421Z" fill="url(#paint16_linear_1540_12780)"/>
<path d="M37.5004 6.18516H34.6429C34.4219 6.18516 34.2099 6.09736 34.0536 5.94108C33.8974 5.7848 33.8096 5.57284 33.8096 5.35182V2.49349C33.8096 2.27248 33.8974 2.06051 34.0536 1.90423C34.2099 1.74795 34.4219 1.66016 34.6429 1.66016C34.8639 1.66016 35.0759 1.74795 35.2322 1.90423C35.3884 2.06051 35.4762 2.27248 35.4762 2.49349V4.51849H37.5004C37.7214 4.51849 37.9334 4.60629 38.0897 4.76257C38.2459 4.91885 38.3337 5.13081 38.3337 5.35182C38.3337 5.57284 38.2459 5.7848 38.0897 5.94108C37.9334 6.09736 37.7214 6.18516 37.5004 6.18516Z" fill="url(#paint17_linear_1540_12780)"/>
<path d="M34.6427 6.18533C34.4779 6.1853 34.3169 6.1364 34.1798 6.04483C34.0428 5.95326 33.9361 5.82313 33.873 5.67088C33.8099 5.51863 33.7934 5.3511 33.8256 5.18947C33.8577 5.02785 33.9371 4.87938 34.0536 4.76283L36.0769 2.73783C36.2341 2.58603 36.4446 2.50204 36.6631 2.50394C36.8816 2.50584 37.0906 2.59348 37.2451 2.74798C37.3996 2.90249 37.4872 3.1115 37.4891 3.33C37.491 3.5485 37.407 3.759 37.2552 3.91617L35.2319 5.94117C35.1547 6.01881 35.0629 6.08038 34.9618 6.12229C34.8606 6.1642 34.7522 6.18563 34.6427 6.18533V6.18533Z" fill="url(#paint18_linear_1540_12780)"/>
<defs>
<linearGradient id="paint0_linear_1540_12780" x1="29.0647" y1="10.9316" x2="32.6005" y2="7.39573" gradientUnits="userSpaceOnUse">
<stop stop-color="#37A477"/>
<stop offset="1" stop-color="#34CA82"/>
</linearGradient>
<linearGradient id="paint1_linear_1540_12780" x1="30.7315" y1="15.9316" x2="34.2674" y2="12.3957" gradientUnits="userSpaceOnUse">
<stop stop-color="#F59815"/>
<stop offset="1" stop-color="#FED200"/>
</linearGradient>
<linearGradient id="paint2_linear_1540_12780" x1="29.7405" y1="21.2605" x2="33.2763" y2="17.7239" gradientUnits="userSpaceOnUse">
<stop stop-color="#37A477"/>
<stop offset="1" stop-color="#34CA82"/>
</linearGradient>
<linearGradient id="paint3_linear_1540_12780" x1="24.0647" y1="9.26443" x2="27.6005" y2="5.72859" gradientUnits="userSpaceOnUse">
<stop stop-color="#F59815"/>
<stop offset="1" stop-color="#FED200"/>
</linearGradient>
<linearGradient id="paint4_linear_1540_12780" x1="18.7795" y1="9.97146" x2="22.3154" y2="6.43479" gradientUnits="userSpaceOnUse">
<stop stop-color="#37A477"/>
<stop offset="1" stop-color="#34CA82"/>
</linearGradient>
<linearGradient id="paint5_linear_1540_12780" x1="4.0637" y1="35.9285" x2="7.59953" y2="32.3927" gradientUnits="userSpaceOnUse">
<stop stop-color="#37A477"/>
<stop offset="1" stop-color="#34CA82"/>
</linearGradient>
<linearGradient id="paint6_linear_1540_12780" x1="9.06551" y1="37.5965" x2="12.6013" y2="34.0598" gradientUnits="userSpaceOnUse">
<stop stop-color="#F59815"/>
<stop offset="1" stop-color="#FED200"/>
</linearGradient>
<linearGradient id="paint7_linear_1540_12780" x1="14.2335" y1="36.7714" x2="17.7693" y2="33.2356" gradientUnits="userSpaceOnUse">
<stop stop-color="#37A477"/>
<stop offset="1" stop-color="#34CA82"/>
</linearGradient>
<linearGradient id="paint8_linear_1540_12780" x1="27.3039" y1="25.9355" x2="30.8406" y2="22.3996" gradientUnits="userSpaceOnUse">
<stop stop-color="#F59815"/>
<stop offset="1" stop-color="#FED200"/>
</linearGradient>
<linearGradient id="paint9_linear_1540_12780" x1="19.0647" y1="34.2597" x2="22.6013" y2="30.7239" gradientUnits="userSpaceOnUse">
<stop stop-color="#F59815"/>
<stop offset="1" stop-color="#FED200"/>
</linearGradient>
<linearGradient id="paint10_linear_1540_12780" x1="24.0647" y1="30.9394" x2="27.6005" y2="27.4035" gradientUnits="userSpaceOnUse">
<stop stop-color="#37A477"/>
<stop offset="1" stop-color="#34CA82"/>
</linearGradient>
<linearGradient id="paint11_linear_1540_12780" x1="2.39768" y1="30.9394" x2="5.93435" y2="27.4035" gradientUnits="userSpaceOnUse">
<stop stop-color="#F59815"/>
<stop offset="1" stop-color="#FED200"/>
</linearGradient>
<linearGradient id="paint12_linear_1540_12780" x1="3.23264" y1="25.6152" x2="6.76848" y2="22.0793" gradientUnits="userSpaceOnUse">
<stop stop-color="#37A477"/>
<stop offset="1" stop-color="#34CA82"/>
</linearGradient>
<linearGradient id="paint13_linear_1540_12780" x1="13.7989" y1="12.5995" x2="17.3347" y2="9.0637" gradientUnits="userSpaceOnUse">
<stop stop-color="#F59815"/>
<stop offset="1" stop-color="#FED200"/>
</linearGradient>
<linearGradient id="paint14_linear_1540_12780" x1="5.63108" y1="20.9355" x2="9.16691" y2="17.3996" gradientUnits="userSpaceOnUse">
<stop stop-color="#F59815"/>
<stop offset="1" stop-color="#FED200"/>
</linearGradient>
<linearGradient id="paint15_linear_1540_12780" x1="9.06551" y1="15.9316" x2="12.6013" y2="12.3957" gradientUnits="userSpaceOnUse">
<stop stop-color="#37A477"/>
<stop offset="1" stop-color="#34CA82"/>
</linearGradient>
<linearGradient id="paint16_linear_1540_12780" x1="33.9212" y1="6.07588" x2="32.7779" y2="7.21838" gradientUnits="userSpaceOnUse">
<stop stop-color="#FED200"/>
<stop offset="1" stop-color="#F59815"/>
</linearGradient>
<linearGradient id="paint17_linear_1540_12780" x1="37.1346" y1="2.85932" x2="34.1321" y2="5.86182" gradientUnits="userSpaceOnUse">
<stop stop-color="#37AA79"/>
<stop offset="1" stop-color="#398A70"/>
</linearGradient>
<linearGradient id="paint18_linear_1540_12780" x1="37.3527" y1="2.642" x2="34.1827" y2="5.81117" gradientUnits="userSpaceOnUse">
<stop stop-color="#34CA82"/>
<stop offset="1" stop-color="#37A477"/>
</linearGradient>
</defs>
</svg>