<svg xmlns:xlink="http://www.w3.org/1999/xlink" xmlns="http://www.w3.org/2000/svg" width="40" height="40" viewBox="0 0 40 40" fill="none">
<path d="M20 31.25C25.1777 31.25 29.375 27.0527 29.375 21.875C29.375 16.6973 25.1777 12.5 20 12.5C14.8223 12.5 10.625 16.6973 10.625 21.875C10.625 27.0527 14.8223 31.25 20 31.25Z" fill="#FFA426"/>
<path d="M13.1252 21.8756C13.1265 19.6071 13.9507 17.416 15.4449 15.709C16.9391 14.0021 19.0018 12.8952 21.2502 12.5938C19.9208 12.4043 18.5661 12.5027 17.278 12.8823C15.9899 13.2618 14.7983 13.9137 13.784 14.7937C12.7696 15.6738 11.9562 16.7615 11.3987 17.9832C10.8412 19.2049 10.5527 20.5321 10.5527 21.875C10.5527 23.2179 10.8412 24.5451 11.3987 25.7668C11.9562 26.9885 12.7696 28.0762 13.784 28.9563C14.7983 29.8363 15.9899 30.4882 17.278 30.8677C18.5661 31.2473 19.9208 31.3457 21.2502 31.1563C19.002 30.8549 16.9394 29.7481 15.4453 28.0414C13.9511 26.3347 13.1268 24.144 13.1252 21.8756V21.8756Z" fill="#FE8205"/>
<path d="M20 12.5C19.5817 12.5031 19.1641 12.5342 18.75 12.5931C20.9978 12.8946 23.0598 14.0017 24.5531 15.7086C26.0464 17.4156 26.8694 19.6064 26.8694 21.8744C26.8694 24.1423 26.0464 26.3332 24.5531 28.0401C23.0598 29.7471 20.9978 30.8541 18.75 31.1556C20.0228 31.3289 21.3176 31.2386 22.554 30.8904C23.7904 30.5422 24.942 29.9435 25.9373 29.1315C26.9326 28.3195 27.7504 27.3116 28.3397 26.1703C28.9291 25.029 29.2776 23.7787 29.3635 22.4971C29.4493 21.2155 29.2708 19.9299 28.8389 18.7201C28.4071 17.5104 27.7311 16.4024 26.853 15.4649C25.9749 14.5274 24.9135 13.7804 23.7346 13.2704C22.5557 12.7603 21.2845 12.4981 20 12.5V12.5Z" fill="#FFC247"/>
<path d="M23.595 9.27675C24.5625 8.31363 26.3088 5.00113 25.3431 4.033C24.3775 3.06488 21.0625 4.81363 20.0994 5.78113C19.6425 6.24606 19.3878 6.87263 19.3906 7.52446C19.3935 8.17628 19.6537 8.80059 20.1146 9.26151C20.5755 9.72242 21.1998 9.98263 21.8517 9.98548C22.5035 9.98834 23.1301 9.73361 23.595 9.27675V9.27675Z" fill="#A5E887"/>
<path d="M23.5951 7.4025C23.3069 7.69026 22.9521 7.90238 22.5622 8.02C22.1723 8.13761 21.7593 8.15709 21.3601 8.07669C20.9608 7.9963 20.5876 7.81852 20.2736 7.55916C19.9596 7.2998 19.7145 6.96688 19.5601 6.59C19.3425 7.11855 19.3149 7.70617 19.4818 8.25284C19.6487 8.79951 19.9999 9.27143 20.4756 9.58829C20.9514 9.90514 21.5222 10.0473 22.091 9.99067C22.6597 9.93401 23.1913 9.68198 23.5951 9.2775C24.5295 8.34375 26.1895 5.215 25.4208 4.14062C25.0384 5.33988 24.4174 6.44941 23.5951 7.4025V7.4025Z" fill="#86C983"/>
<path d="M24.1919 6.06734L23.3081 5.18359L18.75 9.74297C18.1688 9.19035 17.4812 8.76192 16.729 8.48383C15.9768 8.20573 15.1759 8.0838 14.375 8.12547V9.37547C19.2944 9.37547 19.375 14.173 19.375 14.3755V15.0005H20.625V14.3755C20.57 13.0874 20.1942 11.8334 19.5319 10.7273L24.1919 6.06734Z" fill="#98BA5C"/>
<path d="M20 28.75C18.1773 28.7478 16.4299 28.0228 15.141 26.734C13.8522 25.4451 13.1272 23.6977 13.125 21.875H14.375C14.3768 23.3663 14.97 24.796 16.0245 25.8505C17.079 26.905 18.5087 27.4982 20 27.5V28.75Z" fill="#F5E3A7"/>
<path d="M13.125 19.375H14.375V20.625H13.125V19.375Z" fill="#F5E3A7"/>
<path d="M23.75 16.875H25V18.125H23.75V16.875Z" fill="#F5E3A7"/>
<path d="M26.25 19.375H27.5V20.625H26.25V19.375Z" fill="#F5E3A7"/>
<path d="M23.75 19.375H25V20.625H23.75V19.375Z" fill="#F5E3A7"/>
<path d="M8.125 18.75C9.19118 18.811 10.2443 19.0149 11.2563 19.3562C12.3063 19.675 13.125 20 13.125 20L12.2125 20.4562L10.625 21.25L11.875 23.125L8.125 21.875L4.375 23.125L5.625 21.25L4.0375 20.4562L3.125 20C3.125 20 6.05 18.8313 7.9375 18.7563C8 18.75 8.0625 18.75 8.125 18.75V18.75Z" fill="#A5E887"/>
<path d="M15.6252 25.6258C15.6257 26.3727 15.4769 27.1122 15.1877 27.8008L12.5002 28.1258C11.6714 28.1258 10.8765 28.455 10.2905 29.0411C9.70444 29.6271 9.3752 30.422 9.3752 31.2508H6.2502C4.9556 31.2493 3.70115 30.8012 2.6985 29.9823C1.69585 29.1633 1.00638 28.0235 0.746418 26.7553C0.486456 25.4871 0.671913 24.168 1.2715 23.0206C1.87109 21.8732 2.8481 20.9678 4.0377 20.457L5.6252 21.2508L4.3752 23.1258L8.1252 21.8758L11.8752 23.1258L10.6252 21.2508L12.2127 20.457C13.2253 20.8895 14.0886 21.61 14.6952 22.5289C15.3019 23.4478 15.6253 24.5247 15.6252 25.6258Z" fill="#FF475A"/>
<path d="M12.2125 21.707C13.1319 22.102 13.9291 22.7356 14.5214 23.5422C15.1136 24.3488 15.4796 25.299 15.5813 26.2945C15.7335 25.0872 15.4867 23.8633 14.8785 22.8093C14.2702 21.7554 13.334 20.9293 12.2125 20.457L10.625 21.2508L11.25 22.1883L12.2125 21.707Z" fill="#F03049"/>
<path d="M4.375 24.375L8.125 23.125L11.875 24.375L10.8037 22.7681L8.125 21.875L5.44625 22.7681L4.375 24.375Z" fill="#F03049"/>
<path d="M2.27498 22.9008C2.78074 22.3938 3.37905 21.9886 4.03748 21.707L4.99998 22.1883L5.62498 21.2508L4.03748 20.457C2.9246 20.9287 1.99434 21.748 1.38586 22.7924C0.777375 23.8367 0.523376 25.05 0.661857 26.2508C0.801611 24.9828 1.37082 23.8007 2.27498 22.9008V22.9008Z" fill="#F03049"/>
<path d="M33.125 31.25C33.1233 32.4675 32.6782 33.6428 31.8731 34.5561C31.0679 35.4694 29.9577 36.0582 28.75 36.2125C28.5426 36.2376 28.3339 36.2502 28.125 36.25C27.9159 36.2512 27.7069 36.2366 27.5 36.2063C27.323 36.1872 27.1476 36.1558 26.975 36.1125L23.75 35.725L22.5 35.575L15.625 34.75L12.5 34.375C11.6712 34.375 10.8763 34.0458 10.2903 33.4597C9.70424 32.8737 9.375 32.0788 9.375 31.25C9.375 30.4212 9.70424 29.6263 10.2903 29.0403C10.8763 28.4542 11.6712 28.125 12.5 28.125L15.1875 27.8L18.125 27.45L19.375 27.3L25 26.625L28.125 26.25C29.3427 26.2495 30.5185 26.694 31.4313 27.5C31.638 27.6807 31.8284 27.8794 32 28.0938C32.1907 28.3246 32.3582 28.5737 32.5 28.8375C32.9121 29.5746 33.1273 30.4055 33.125 31.25V31.25Z" fill="#FFC247"/>
<path d="M39.375 30V32.5H35L37.5 33.75L36.875 35.625L32 34.4062C32.7278 33.5154 33.1253 32.4003 33.125 31.25C33.1273 30.4055 32.9121 29.5746 32.5 28.8375C32.3582 28.5737 32.1907 28.3246 32 28.0938L32.5 27.9688L36.875 26.875L37.5 28.75L35 30H39.375Z" fill="#A5E887"/>
<path d="M14.375 34.6V31.25H15.625V34.75L14.375 34.6Z" fill="#FF9500"/>
<path d="M19.375 27.3008V30.6258H18.125V27.4508L19.375 27.3008Z" fill="#FF9500"/>
<path d="M23.75 31.875V35.725L22.5 35.575V31.875H23.75Z" fill="#FF9500"/>
<path d="M26.25 26.4766V30.0016H25V26.6266L26.25 26.4766Z" fill="#FF9500"/>
<path d="M27.5 36.2063V33.75H28.75V36.2125L27.5 36.2063Z" fill="#FF9500"/>
<path d="M18.125 31.875H19.375V33.125H18.125V31.875Z" fill="#FF9500"/>
<path d="M27.5 31.25H28.75V32.5H27.5V31.25Z" fill="#FF9500"/>
<path d="M7.50047 20.6255C7.48921 20.0371 7.43006 19.4505 7.32359 18.8717C7.24051 18.0753 6.93174 17.3192 6.43359 16.6923L7.31734 15.8086C8.00746 16.6088 8.43872 17.5995 8.55422 18.6498C8.67471 19.3017 8.74035 19.9626 8.75047 20.6255H7.50047Z" fill="#98BA5C"/>
<path d="M33.1251 31.25C33.1234 32.4675 32.6784 33.6428 31.8732 34.5561C31.068 35.4694 29.9578 36.0582 28.7501 36.2125C28.5427 36.2376 28.334 36.2502 28.1251 36.25C27.916 36.2512 27.707 36.2366 27.5001 36.2063C27.3232 36.1872 27.1477 36.1558 26.9751 36.1125L23.7501 35.725L22.5001 35.575L15.6251 34.75L12.5001 34.375C12.008 34.3803 11.5218 34.268 11.0818 34.0476C10.6419 33.8272 10.2609 33.5049 9.97052 33.1076C9.68017 32.7102 9.48885 32.2494 9.41247 31.7632C9.33609 31.2771 9.37685 30.7797 9.53136 30.3125C9.73082 30.9445 10.1258 31.4969 10.6593 31.89C11.1928 32.2831 11.8374 32.4967 12.5001 32.5L15.6251 32.875L22.5001 33.7L23.7501 33.85L26.9751 34.2375C27.1477 34.2808 27.3232 34.3122 27.5001 34.3313C27.707 34.3616 27.916 34.3762 28.1251 34.375C28.334 34.3752 28.5427 34.3626 28.7501 34.3375C30.0264 34.1787 31.1913 33.5312 32.0001 32.5312C32.5181 31.893 32.8721 31.1377 33.0314 30.3312C33.091 30.6339 33.1224 30.9415 33.1251 31.25V31.25Z" fill="#FFA426"/>
<path d="M15.625 32.8766V34.7516L14.375 34.6016V32.7266L15.625 32.8766Z" fill="#FE8205"/>
<path d="M19.375 27.3008V30.6258H18.125V27.4508L19.375 27.3008Z" fill="#FF9500"/>
<path d="M23.75 33.8492V35.7242L22.5 35.5742V33.6992L23.75 33.8492Z" fill="#FE8205"/>
<path d="M26.25 26.4766V30.0016H25V26.6266L26.25 26.4766Z" fill="#FF9500"/>
<path d="M28.75 34.3383V36.2133L27.5 36.207V34.332C27.7069 34.3624 27.9159 34.377 28.125 34.3758C28.3339 34.3759 28.5426 34.3634 28.75 34.3383Z" fill="#FE8205"/>
<path d="M18.125 31.875H19.375V33.125H18.125V31.875Z" fill="#FF9500"/>
<path d="M27.5 31.25H28.75V32.5H27.5V31.25Z" fill="#FF9500"/>
<path d="M30.8313 25.168C30.0537 25.2908 29.2883 25.4811 28.5437 25.7367C28.057 25.8994 27.588 26.1109 27.1438 26.368L25.625 26.5492L22.7125 26.8992L21.875 26.0617L23.6687 24.268C25.0125 22.9242 25.4562 19.793 25.4562 19.793C25.8315 20.167 26.2806 20.4587 26.775 20.6492C26.7677 21.0712 26.8459 21.4903 27.0049 21.8813C27.1639 22.2723 27.4003 22.627 27.7 22.9242C28.108 23.3354 28.6235 23.6235 29.1875 23.7555V23.7617C29.4451 23.8251 29.7098 23.8545 29.975 23.8492C30.1655 24.3436 30.4572 24.7928 30.8313 25.168V25.168Z" fill="#98BA5C"/>
<path d="M29.975 23.8516C29.7098 23.8568 29.4451 23.8274 29.1875 23.7641V23.7578C29.1156 23.7416 29.0456 23.7147 28.975 23.6953C28.3625 23.8146 27.7589 23.9763 27.1688 24.1791C26.682 24.3418 26.213 24.5533 25.7687 24.8103L24.25 24.9916L22.7725 25.1691C22.1194 25.8191 21.875 26.0641 21.875 26.0641L22.7125 26.9016L25.625 26.5516L27.1438 26.3703C27.588 26.1133 28.057 25.9018 28.5437 25.7391C29.2883 25.4835 30.0537 25.2932 30.8313 25.1703C30.4572 24.7951 30.1655 24.3459 29.975 23.8516V23.8516Z" fill="#7A9E51"/>
<path d="M38.4504 16.6586C39.0419 17.2543 39.3738 18.0597 39.3738 18.8992C39.3738 19.7387 39.0419 20.5442 38.4504 21.1399C38.1172 21.4701 37.7133 21.7202 37.2691 21.8711C37.422 22.7992 37.2252 23.7509 36.7168 24.5422C36.2083 25.3335 35.4244 25.908 34.5167 26.1546C33.6091 26.4011 32.6422 26.3022 31.8033 25.8769C30.9644 25.4516 30.313 24.7302 29.9754 23.8524C29.7102 23.8576 29.4455 23.8282 29.1879 23.7649V23.7586C28.6239 23.6266 28.1084 23.3386 27.7004 22.9274C27.4007 22.6302 27.1643 22.2754 27.0053 21.8844C26.8463 21.4935 26.7681 21.0744 26.7754 20.6524C26.1847 20.4251 25.6602 20.0538 25.2495 19.5722C24.8389 19.0906 24.5551 18.514 24.4241 17.8948C24.293 17.2756 24.3188 16.6335 24.4992 16.0268C24.6795 15.4201 25.0086 14.8682 25.4566 14.4211C25.4879 14.3899 25.5191 14.3586 25.5566 14.3274C25.9802 13.9315 26.489 13.6383 27.0438 13.4704C27.5987 13.3024 28.1847 13.2642 28.7566 13.3586C28.9076 12.9145 29.1577 12.5105 29.4879 12.1774C30.0836 11.5859 30.889 11.2539 31.7285 11.2539C32.568 11.2539 33.3734 11.5859 33.9691 12.1774C34.0316 12.2399 34.0754 12.3149 34.1316 12.3774C34.7074 12.1465 35.3383 12.0898 35.946 12.2143C36.5537 12.3388 37.1115 12.639 37.5502 13.0776C37.9888 13.5162 38.289 14.074 38.4135 14.6817C38.5379 15.2894 38.4812 15.9203 38.2504 16.4961C38.3129 16.5524 38.3879 16.5961 38.4504 16.6586V16.6586Z" fill="#A5E887"/>
<path d="M38.4504 16.6582C38.3879 16.5957 38.3129 16.5519 38.2504 16.4957C38.4812 15.9199 38.5379 15.289 38.4135 14.6813C38.289 14.0736 37.9888 13.5158 37.5502 13.0772C37.1115 12.6385 36.5537 12.3384 35.946 12.2139C35.3383 12.0894 34.7074 12.1461 34.1316 12.3769C34.0754 12.3144 34.0316 12.2394 33.9691 12.1769C33.4895 11.703 32.8712 11.3944 32.2042 11.2958C31.5371 11.1972 30.856 11.3139 30.2598 11.6288C30.5433 11.7715 30.8035 11.9563 31.0316 12.1769C31.0941 12.2394 31.1379 12.3144 31.1941 12.3769C31.7699 12.1461 32.4008 12.0894 33.0085 12.2139C33.6162 12.3384 34.174 12.6385 34.6126 13.0772C35.0513 13.5158 35.3515 14.0736 35.476 14.6813C35.6004 15.289 35.5437 15.9199 35.3129 16.4957C35.3754 16.5519 35.4504 16.5957 35.5129 16.6582C36.1044 17.2539 36.4363 18.0593 36.4363 18.8988C36.4363 19.7383 36.1044 20.5437 35.5129 21.1394C35.1797 21.4697 34.7758 21.7198 34.3316 21.8707C34.4712 22.7129 34.322 23.5775 33.9082 24.3242C33.4944 25.0709 32.8404 25.6557 32.0523 25.9838C32.6774 26.2469 33.3617 26.3377 34.0338 26.2466C34.7059 26.1556 35.3413 25.8861 35.874 25.4661C36.4066 25.0462 36.817 24.4912 37.0623 23.8588C37.3077 23.2265 37.3791 22.54 37.2691 21.8707C37.7133 21.7198 38.1172 21.4697 38.4504 21.1394C39.0419 20.5437 39.3738 19.7383 39.3738 18.8988C39.3738 18.0593 39.0419 17.2539 38.4504 16.6582V16.6582Z" fill="#86C983"/>
</svg>