<svg xmlns:xlink="http://www.w3.org/1999/xlink" xmlns="http://www.w3.org/2000/svg" width="40" height="40" viewBox="0 0 40 40" fill="none">
<g clip-path="url(#clip0_1540_12800)">
<path d="M29.6553 7.85164C29.8575 7.85164 30.0538 7.87727 30.2412 7.92539V0.585938C30.2412 0.262344 29.9789 0 29.6553 0C29.3316 0 29.0693 0.262344 29.0693 0.585938V7.92539C29.2568 7.87727 29.4531 7.85164 29.6553 7.85164Z" fill="#814AA0"/>
<path d="M29.6549 7.77344C28.3095 7.77344 27.2188 8.86414 27.2188 10.2096V10.4648H32.0911V10.2096C32.0912 8.86414 31.0004 7.77344 29.6549 7.77344Z" fill="#E9B665"/>
<path d="M27.2188 24.7383V24.9934C27.2188 25.8858 27.6988 26.6656 28.4145 27.0898C28.6603 27.2355 28.8614 27.4457 29.0042 27.6931L29.6549 28.8202L30.3056 27.6931C30.4484 27.4457 30.6495 27.2355 30.8953 27.0898C31.6111 26.6656 32.0911 25.8858 32.0911 24.9934V24.7383H27.2188Z" fill="#E9B665"/>
<path d="M29.6549 7.77344C28.3095 7.77344 27.2188 8.86414 27.2188 10.2096V10.4648H29.2434V10.2096C29.2434 9.22547 29.8273 8.3782 30.6673 7.99383C30.3589 7.85273 30.0163 7.77344 29.6549 7.77344Z" fill="#D8AA5E"/>
<path d="M30.4392 27.0898C29.7234 26.6656 29.2434 25.8858 29.2434 24.9934V24.7383H27.2188V24.9934C27.2188 25.8858 27.6988 26.6656 28.4145 27.0898C28.6602 27.2355 28.8613 27.4458 29.0042 27.6931L29.6549 28.8202L30.3056 27.6931C30.4012 27.5275 30.5235 27.3791 30.6673 27.2551C30.5963 27.1938 30.5205 27.138 30.4392 27.0898V27.0898Z" fill="#D8AA5E"/>
<path d="M34.9218 13.4216L35.5634 13.3434L32.0914 10.3867H27.219L23.7471 13.3434L24.375 13.4216H34.9218Z" fill="#0AB69F"/>
<path d="M24.375 21.7812L23.7471 21.8594L27.219 24.8161H32.0914L35.5634 21.8594L34.9218 21.7812H24.375Z" fill="#0AB69F"/>
<path d="M32.0415 13.4216V13.3434L30.6393 10.3867H28.6716L27.2695 13.3434V13.4216H32.0415Z" fill="#01998D"/>
<path d="M27.2695 21.7812V21.8594L28.6716 24.8161H30.6393L32.0415 21.8594V21.7812H27.2695Z" fill="#01998D"/>
<path d="M23.7471 13.3438H35.5633V21.8598H23.7471V13.3438Z" fill="#FED402"/>
<path d="M27.2695 13.3438H32.0415V21.8598H27.2695V13.3438Z" fill="#FEE97D"/>
<path d="M12.6846 8.30016C12.895 8.30016 13.0935 8.3507 13.2705 8.4382V0.585938C13.2705 0.262344 13.0082 0 12.6846 0C12.3609 0 12.0986 0.262344 12.0986 0.585938V8.4382C12.2757 8.3507 12.4741 8.30016 12.6846 8.30016Z" fill="#814AA0"/>
<path d="M11.8964 10.7936C12.1492 10.7319 12.4129 10.6984 12.6845 10.6984C12.9561 10.6984 13.2199 10.7319 13.4727 10.7936C13.8457 10.5407 14.0908 10.1135 14.0908 9.62891C14.0908 8.85227 13.4612 8.22266 12.6846 8.22266C11.9079 8.22266 11.2783 8.85227 11.2783 9.62891C11.2783 10.1134 11.5235 10.5407 11.8964 10.7936Z" fill="#0AB69F"/>
<path d="M11.8964 10.7936C12.1493 10.7319 12.413 10.6984 12.6846 10.6984C12.8278 10.6984 12.9685 10.7085 13.1069 10.7261C12.785 10.4686 12.5785 10.0732 12.5785 9.62891C12.5785 9.08695 12.8855 8.61742 13.3346 8.38266C13.1401 8.28094 12.9193 8.22266 12.6846 8.22266C11.9079 8.22266 11.2783 8.85227 11.2783 9.62891C11.2784 10.1134 11.5236 10.5407 11.8964 10.7936Z" fill="#01998D"/>
<path d="M12.6841 10.6211C10.8058 10.6211 9.2832 12.1437 9.2832 14.022V14.3472H16.0849V14.022C16.0849 12.1437 14.5623 10.6211 12.6841 10.6211Z" fill="#E9B665"/>
<path d="M9.2832 34.3359V34.6612C9.2832 35.9069 9.95336 36.9955 10.9525 37.5877C11.2955 37.791 11.5762 38.0845 11.7756 38.4299L12.6841 40.0033L13.5924 38.4299C13.7918 38.0846 14.0726 37.7911 14.4155 37.5877C15.4148 36.9955 16.0848 35.9069 16.0848 34.6612V34.3359H9.2832Z" fill="#E9B665"/>
<path d="M12.6841 10.6211C10.8058 10.6211 9.2832 12.1437 9.2832 14.022V14.3472H11.9293V14.022C11.9293 12.613 12.7861 11.4041 14.0071 10.888C13.6004 10.7162 13.1534 10.6211 12.6841 10.6211Z" fill="#D8AA5E"/>
<path d="M13.5986 37.5877C12.5994 36.9955 11.9293 35.9069 11.9293 34.6612V34.3359H9.2832V34.6612C9.2832 35.9069 9.95336 36.9955 10.9525 37.5877C11.2955 37.7911 11.5762 38.0845 11.7756 38.4299L12.6841 40.0033L13.5924 38.4299C13.7054 38.2342 13.8453 38.0561 14.007 37.9006C13.8834 37.7818 13.7473 37.6759 13.5986 37.5877Z" fill="#D8AA5E"/>
<path d="M20.2343 18.4752L20.9318 18.397L16.085 14.2695H9.28332L4.43652 18.397L5.07809 18.4752H20.2343Z" fill="#0AB69F"/>
<path d="M5.07809 30.207L4.43652 30.2852L9.28332 34.4127H16.085L20.9318 30.2852L20.2343 30.207H5.07809Z" fill="#0AB69F"/>
<path d="M9.35352 30.207V30.2852L11.3109 34.4127H14.0577L16.0151 30.2852V30.207H9.35352Z" fill="#01998D"/>
<path d="M16.0151 18.4752V18.397L14.0577 14.2695H11.3109L9.35352 18.397V18.4752H16.0151Z" fill="#01998D"/>
<path d="M4.43652 18.3984V25.853H4.51465C4.51465 25.0652 5.15551 24.4243 5.94332 24.4243C6.73113 24.4243 7.37199 25.0652 7.37199 25.853V30.2084L7.45012 30.2866H17.9182L17.9964 30.2084V25.853C17.9964 25.0652 18.6372 24.4243 19.425 24.4243C20.2129 24.4243 20.8537 25.0652 20.8537 25.853H20.9318V18.3984H4.43652Z" fill="#FED402"/>
<path d="M9.35352 18.3984H16.0151V30.2866H9.35352V18.3984Z" fill="#FEE97D"/>
<path d="M12.6845 24.3438C11.8523 24.3438 11.1777 25.0184 11.1777 25.8505V30.2841H14.1912V25.8505C14.1913 25.0184 13.5167 24.3438 12.6845 24.3438Z" fill="#814AA0"/>
<path d="M13.3458 24.4982C13.1459 24.4003 12.9221 24.3438 12.6845 24.3438C11.8523 24.3438 11.1777 25.0184 11.1777 25.8505V30.2841H12.5003V25.8505C12.5003 25.256 12.8456 24.7434 13.3458 24.4982Z" fill="#693685"/>
<path d="M12.5188 20.3812L11.5814 21.3186C11.4898 21.4102 11.4898 21.5585 11.5814 21.6501L12.5188 22.5875C12.6104 22.6791 12.7587 22.6791 12.8503 22.5875L13.7877 21.6501C13.8793 21.5585 13.8793 21.4102 13.7877 21.3186L12.8503 20.3812C12.7587 20.2896 12.6103 20.2896 12.5188 20.3812Z" fill="#814AA0"/>
<path d="M19.4257 24.3438C18.5936 24.3438 17.9189 25.0184 17.9189 25.8505V30.2841H20.9325V25.8505C20.9325 25.0184 20.2579 24.3438 19.4257 24.3438V24.3438Z" fill="#814AA0"/>
<path d="M20.076 24.4929C19.8789 24.3983 19.6589 24.3438 19.4257 24.3438C18.5936 24.3438 17.9189 25.0184 17.9189 25.8505V30.2841H19.2194V25.8505C19.2194 25.2516 19.5698 24.7359 20.076 24.4929Z" fill="#693685"/>
<path d="M19.26 20.3812L18.3226 21.3186C18.231 21.4102 18.231 21.5585 18.3226 21.6501L19.26 22.5875C19.3516 22.6791 19.4999 22.6791 19.5915 22.5875L20.5289 21.6501C20.6205 21.5585 20.6205 21.4102 20.5289 21.3186L19.5915 20.3812C19.4999 20.2896 19.3516 20.2896 19.26 20.3812V20.3812Z" fill="#814AA0"/>
<path d="M19.2883 21.6501C19.1967 21.5585 19.1967 21.4102 19.2883 21.3186L19.9086 20.6983L19.5915 20.3812C19.4999 20.2896 19.3516 20.2896 19.26 20.3812L18.3226 21.3186C18.231 21.4102 18.231 21.5585 18.3226 21.6501L19.26 22.5875C19.3516 22.6791 19.4999 22.6791 19.5915 22.5875L19.9086 22.2704L19.2883 21.6501Z" fill="#693685"/>
<path d="M12.5471 21.6501C12.4555 21.5585 12.4555 21.4102 12.5471 21.3186L13.1674 20.6983L12.8503 20.3812C12.7587 20.2896 12.6104 20.2896 12.5188 20.3812L11.5814 21.3186C11.4898 21.4102 11.4898 21.5585 11.5814 21.6501L12.5188 22.5875C12.6104 22.6791 12.7587 22.6791 12.8503 22.5875L13.1674 22.2704L12.5471 21.6501Z" fill="#693685"/>
<path d="M5.94332 24.3438C5.11113 24.3438 4.43652 25.0184 4.43652 25.8505V30.2841H7.45004V25.8505C7.45012 25.0184 6.77551 24.3438 5.94332 24.3438Z" fill="#814AA0"/>
<path d="M6.59324 24.4927C6.39621 24.3983 6.17637 24.3438 5.94332 24.3438C5.11113 24.3438 4.43652 25.0184 4.43652 25.8505V30.2841H5.73637V25.8505C5.73645 25.2515 6.08691 24.7356 6.59324 24.4927Z" fill="#693685"/>
<path d="M5.77758 20.3812L4.84016 21.3186C4.74859 21.4102 4.74859 21.5585 4.84016 21.6501L5.77758 22.5875C5.86914 22.6791 6.0175 22.6791 6.10906 22.5875L7.04648 21.6501C7.13805 21.5585 7.13805 21.4102 7.04648 21.3186L6.10906 20.3812C6.0175 20.2896 5.86906 20.2896 5.77758 20.3812Z" fill="#814AA0"/>
<path d="M5.80586 21.6501C5.7143 21.5585 5.7143 21.4102 5.80586 21.3186L6.42617 20.6983L6.10906 20.3812C6.0175 20.2896 5.86914 20.2896 5.77758 20.3812L4.84016 21.3186C4.74859 21.4102 4.74859 21.5585 4.84016 21.6501L5.77758 22.5875C5.86914 22.6791 6.0175 22.6791 6.10906 22.5875L6.42617 22.2704L5.80586 21.6501Z" fill="#693685"/>
<path d="M24.9882 32.8157C25.0177 32.7863 25.0569 32.77 25.0986 32.77C25.1404 32.77 25.1796 32.7863 25.2091 32.8157L25.6846 33.2912V31.2852C25.6846 30.9616 25.4223 30.6992 25.0986 30.6992C24.775 30.6992 24.5127 30.9616 24.5127 31.2852V33.2912L24.9882 32.8157Z" fill="#FDB441"/>
<path d="M23.639 34.3878C23.6095 34.3583 23.5932 34.3191 23.5932 34.2773C23.5932 34.2356 23.6095 34.1964 23.639 34.1669L24.1145 33.6914H22.1084C21.7847 33.6914 21.5225 33.9537 21.5225 34.2773C21.5225 34.6009 21.7847 34.8633 22.1084 34.8633H24.1145L23.639 34.3878Z" fill="#FDB441"/>
<path d="M25.2091 35.7372C25.1796 35.7666 25.1404 35.7829 25.0986 35.7829C25.0569 35.7829 25.0177 35.7666 24.9882 35.7372L24.5127 35.2617V37.2677C24.5127 37.5913 24.775 37.8537 25.0986 37.8537C25.4223 37.8537 25.6846 37.5913 25.6846 37.2677V35.2617L25.2091 35.7372Z" fill="#FDB441"/>
<path d="M28.089 33.6914H26.083L26.5585 34.1669C26.6193 34.2278 26.6193 34.3269 26.5585 34.3878L26.083 34.8633H28.089C28.4127 34.8633 28.675 34.6009 28.675 34.2773C28.675 33.9537 28.4127 33.6914 28.089 33.6914Z" fill="#FDB441"/>
<path d="M26.6134 34.4409L25.2641 35.7902C25.1725 35.8817 25.0242 35.8817 24.9326 35.7902L23.5833 34.4409C23.4918 34.3493 23.4918 34.2009 23.5833 34.1094L24.9326 32.7601C25.0242 32.6685 25.1725 32.6685 25.2641 32.7601L26.6134 34.1094C26.705 34.2009 26.705 34.3493 26.6134 34.4409Z" fill="#FEA613"/>
<path d="M24.8698 34.4409C24.7782 34.3493 24.7782 34.2009 24.8698 34.1094L25.7416 33.2376L25.2641 32.7601C25.1725 32.6685 25.0242 32.6685 24.9326 32.7601L23.5833 34.1094C23.4918 34.2009 23.4918 34.3493 23.5833 34.4409L24.9326 35.7902C25.0242 35.8817 25.1725 35.8817 25.2641 35.7902L25.7416 35.3127L24.8698 34.4409Z" fill="#FE9901"/>
<path d="M22.4584 6.69945H20.8306L20.6652 6.53406V4.90625C20.6652 4.58266 20.4029 4.32031 20.0793 4.32031C19.7556 4.32031 19.4933 4.58266 19.4933 4.90625V6.53414L19.328 6.69945H17.7002C17.3765 6.69945 17.1143 6.9618 17.1143 7.28539C17.1143 7.60898 17.3765 7.87133 17.7002 7.87133H19.3281L19.4934 8.03656V9.66445C19.4934 9.98805 19.7557 10.2504 20.0793 10.2504C20.403 10.2504 20.6653 9.98805 20.6653 9.66445V8.03664L20.8306 7.87133H22.4585C22.7821 7.87133 23.0444 7.60898 23.0444 7.28539C23.0444 6.9618 22.782 6.69945 22.4584 6.69945V6.69945Z" fill="#FDB441"/>
</g>
<defs>
<clipPath id="clip0_1540_12800">
<rect width="40" height="40" fill="white"/>
</clipPath>
</defs>
</svg>