<svg xmlns:xlink="http://www.w3.org/1999/xlink" xmlns="http://www.w3.org/2000/svg" width="40" height="40" viewBox="0 0 40 40" fill="none">
<path d="M8.16539 8.80167C7.32019 8.80247 6.63459 8.11767 6.63379 7.27247C6.63339 6.86567 6.79499 6.47567 7.08259 6.18847C7.23619 6.02967 7.48939 6.02527 7.64819 6.17847C7.80699 6.33167 7.81139 6.58527 7.65819 6.74407C7.65499 6.74727 7.65179 6.75087 7.64819 6.75407C7.36859 7.04567 7.37859 7.50887 7.67059 7.78847C7.95339 8.05967 8.39979 8.05967 8.68259 7.78847C8.83619 7.62967 9.08939 7.62527 9.24819 7.77847C9.40699 7.93207 9.41139 8.18527 9.25819 8.34407C9.25499 8.34727 9.25179 8.35087 9.24819 8.35407C8.96099 8.64127 8.57139 8.80247 8.16539 8.80167V8.80167Z" fill="#F9DD64"/>
<path d="M7.59961 8.39844V10.1984C7.59961 10.4192 7.77881 10.5984 7.99961 10.5984C8.22041 10.5984 8.39961 10.4192 8.39961 10.1984V8.39844H7.59961Z" fill="#F9DD64"/>
<path d="M8.0002 10.3984C9.5466 10.3984 10.8002 11.652 10.8002 13.1984V15.1984H5.2002V13.1984C5.2002 11.652 6.4538 10.3984 8.0002 10.3984Z" fill="#FFDFAE"/>
<path d="M4.7998 18.3984H11.1998V24.3984H4.7998V18.3984Z" fill="#FFDFAE"/>
<path d="M4 28.3984H12V35.9984H4V28.3984Z" fill="#FFDFAE"/>
<path d="M14.7997 25.2012V26.4172C14.7993 26.66 14.6889 26.8892 14.4997 27.0412L12.7997 28.4012H11.9997V36.0012H6.42369C5.70769 33.0572 5.39169 26.5812 5.99969 20.8012C6.37649 17.2548 7.22129 13.774 8.51169 10.4492C9.83809 10.6948 10.8005 11.852 10.7997 13.2012V15.2012H11.5997C12.0409 15.2024 12.3985 15.56 12.3997 16.0012V16.8692C12.3997 17.0824 12.3145 17.2868 12.1637 17.4372L11.1997 18.4012V24.4012H13.9997C14.4409 24.4024 14.7985 24.76 14.7997 25.2012V25.2012Z" fill="#FFC977"/>
<path d="M12.0004 28.3984V35.9984H8.40039V33.1984C8.40159 32.7572 8.75919 32.3996 9.20039 32.3984H9.60039V30.7984C9.60159 30.3572 9.95919 29.9996 10.4004 29.9984H10.7084C10.6648 29.4664 10.6556 28.9316 10.6804 28.3984H12.0004Z" fill="#C28F42"/>
<path d="M12.1652 17.4336L11.1996 18.3992H4.79961L3.83401 17.4336C3.68401 17.2836 3.59961 17.08 3.59961 16.868V15.9992C3.59961 15.5572 3.95761 15.1992 4.39961 15.1992H11.5996C12.0416 15.1992 12.3996 15.5572 12.3996 15.9992V16.868C12.3996 17.08 12.3152 17.2836 12.1652 17.4336Z" fill="#FFC369"/>
<path d="M14 24.3984H2.8C2.358 24.3984 2 24.7564 2 25.1984V26.414C2 26.6568 2.1108 26.8868 2.3004 27.0384L4 28.3984H12.8L14.4996 27.0384C14.6892 26.8868 14.8 26.6568 14.8 26.414V25.1984C14.8 24.7564 14.442 24.3984 14 24.3984V24.3984Z" fill="#E8A644"/>
<path d="M14.6996 26.8008C14.65 26.8936 14.582 26.9756 14.4996 27.0408L12.7996 28.4008H3.99961L2.29961 27.0408C2.21721 26.9756 2.14921 26.8936 2.09961 26.8008H14.6996Z" fill="#C28F42"/>
<path d="M8.0002 22.3984C7.5582 22.3984 7.2002 22.7564 7.2002 23.1984V24.3984H8.8002V23.1984C8.8002 22.7564 8.4422 22.3984 8.0002 22.3984Z" fill="#C28F42"/>
<path d="M11.2004 30H34.4004C34.8424 30 35.2004 30.358 35.2004 30.8V32.4H10.4004V30.8C10.4004 30.358 10.7584 30 11.2004 30Z" fill="#FFC977"/>
<path d="M10.0002 32.3984H35.6002C36.0422 32.3984 36.4002 32.7564 36.4002 33.1984V35.9984H9.2002V33.1984C9.2002 32.7564 9.5582 32.3984 10.0002 32.3984Z" fill="#FFC977"/>
<path d="M24.4004 35.9984C24.4004 35.9984 26.4136 35.5984 29.6004 35.1984C32.8004 34.7984 35.6004 33.9984 34.6108 32.3984H35.6004C36.0424 32.3984 36.4004 32.7564 36.4004 33.1984V35.9984H24.4004Z" fill="#E8A644"/>
<path d="M22.6004 33.6016C23.2632 33.6016 23.8004 34.1388 23.8004 34.8016V36.0016H21.4004V34.8016C21.4004 34.1388 21.9376 33.6016 22.6004 33.6016Z" fill="#C28F42"/>
<path d="M12.3279 17.1992C12.2879 17.2872 12.2323 17.3668 12.1639 17.4352L11.1999 18.3992H4.79987L3.83587 17.4352C3.76747 17.3668 3.71187 17.2872 3.67188 17.1992H12.3279Z" fill="#E8A644"/>
<path d="M27.5024 17.3912C24.0884 15.3492 22.8 13.2656 22.8 13.2656C22.8 13.2656 21.5116 15.3492 18.0976 17.3912C11.2 21.5184 12 29.9984 12 29.9984H33.6C33.6 29.9984 34.4 21.5184 27.5024 17.3912Z" fill="#22AF97"/>
<path d="M33.5998 29.9981H17.9158C15.7878 23.6381 20.3278 17.8981 23.8878 14.5781C24.965 15.6697 26.1806 16.6153 27.5038 17.3901C34.3998 21.5181 33.5998 29.9981 33.5998 29.9981V29.9981Z" fill="#43BEAC"/>
<path d="M21.0752 15.1992C21.0752 15.1992 22.1008 12.8888 22.1552 12.0468C22.1864 11.5564 21.7952 10.5976 21.832 10.1076C21.8908 9.34362 22.8004 7.19922 22.8004 7.19922C22.8004 7.19922 23.71 9.34362 23.77 10.1076C23.81 10.5976 23.4156 11.5564 23.4468 12.0468C23.5 12.8868 24.5268 15.1992 24.5268 15.1992H21.0752Z" fill="#F9DD64"/>
<path d="M21.0762 15.1992H21.7482C21.7482 15.1992 22.7762 12.8872 22.8282 12.0472C22.8602 11.5552 22.4682 10.5992 22.5042 10.1072C22.6422 9.39762 22.8542 8.70482 23.1362 8.03922C22.9522 7.55922 22.8002 7.19922 22.8002 7.19922C22.8002 7.19922 21.8922 9.34322 21.8322 10.1072C21.7922 10.5992 22.1842 11.5552 22.1522 12.0472C22.1002 12.8872 21.0762 15.1992 21.0762 15.1992V15.1992Z" fill="#E0B95E"/>
<path d="M24 32.4C24 32.4 31.4344 32.3312 32 31.2C32.2256 30.772 32.0612 30.242 31.6332 30.0168C31.6224 30.0108 31.6112 30.0052 31.6 30H34.4C34.842 30 35.2 30.358 35.2 30.8V32.4H24Z" fill="#E8A644"/>
</svg>