<svg xmlns:xlink="http://www.w3.org/1999/xlink" xmlns="http://www.w3.org/2000/svg" width="40" height="40" viewBox="0 0 40 40" fill="none">
<g clip-path="url(#clip0_1547_14693)">
<path d="M33.333 25.832L39.1663 19.9987L33.333 14.1654V6.66536H25.833L19.9997 0.832031L14.1663 6.66536H6.66634V14.1654L0.833008 19.9987L6.66634 25.832V33.332H14.1663L19.9997 39.1654L25.833 33.332H33.333V25.832Z" fill="#43B462"/>
<path d="M39.1667 19.9987L33.3333 25.832V33.332H25.8333L25 34.1654C22.4515 34.2841 19.9062 33.8696 17.5271 32.9484C15.1479 32.0272 12.9872 30.6195 11.1832 28.8155C9.37916 27.0115 7.97152 24.8508 7.05031 22.4716C6.1291 20.0925 5.71461 17.5472 5.83334 14.9987L6.66667 14.1654V6.66536H14.1667L20 0.832031L25.8333 6.66536H33.3333V14.1654L39.1667 19.9987Z" fill="#74D57E"/>
<path d="M21.9326 27.4983C20.8993 27.4983 15.4493 24.4233 13.3326 16.7566C13.273 16.5433 13.3005 16.3151 13.4091 16.1221C13.5177 15.9291 13.6985 15.7871 13.9118 15.7274C14.1251 15.6678 14.3533 15.6953 14.5463 15.8039C14.7393 15.9125 14.8813 16.0933 14.941 16.3066C16.2826 21.1566 18.8326 23.6983 20.5326 24.9149C20.5826 23.1066 22.1493 21.7066 23.6826 20.7483H19.2326C19.0491 20.7353 18.8751 20.6619 18.7376 20.5396C18.6001 20.4173 18.507 20.2529 18.4728 20.0722C18.4385 19.8914 18.4651 19.7044 18.5483 19.5402C18.6314 19.3761 18.7666 19.2442 18.9326 19.1649C20.7576 18.4483 22.6993 17.6066 24.341 16.8066C19.766 11.4816 30.341 11.6149 29.991 14.6066C29.841 15.8816 26.8326 17.5816 23.4076 19.1066H27.441C27.639 19.107 27.8304 19.178 27.9808 19.3067C28.1313 19.4354 28.231 19.6135 28.2621 19.8091C28.2932 20.0047 28.2536 20.2049 28.1505 20.3739C28.0474 20.543 27.8874 20.6698 27.6993 20.7316C26.3993 21.1649 22.8993 22.6733 22.2826 24.5066C22.2007 24.7913 22.1889 25.0917 22.2484 25.382C22.3079 25.6722 22.4369 25.9437 22.6243 26.1733C22.7161 26.2988 22.7709 26.4475 22.7826 26.6026C22.7943 26.7577 22.7623 26.9129 22.6904 27.0508C22.6184 27.1886 22.5093 27.3036 22.3754 27.3827C22.2415 27.4618 22.0881 27.5018 21.9326 27.4983V27.4983ZM24.8576 14.5733C25.1224 15.1016 25.4682 15.5853 25.8826 16.0066C26.6871 15.619 27.4448 15.1409 28.141 14.5816C27.6382 14.3053 27.0741 14.1598 26.5004 14.1584C25.9267 14.1569 25.3618 14.2996 24.8576 14.5733V14.5733Z" fill="#EDEBF2"/>
<path d="M9.99969 24.6247C9.93891 24.4037 9.96842 24.1676 10.0817 23.9684C10.195 23.7691 10.3828 23.623 10.6039 23.5622C10.8249 23.5015 11.061 23.531 11.2602 23.6443C11.4595 23.7576 11.6056 23.9454 11.6664 24.1664C11.7914 24.5997 12.083 25.3414 12.4997 25.4081C13.333 25.5331 15.1414 23.7414 16.2914 22.0747C16.4151 21.8913 16.6067 21.7645 16.8239 21.7223C17.0412 21.6801 17.2662 21.726 17.4497 21.8497C17.6331 21.9735 17.7599 22.1651 17.8021 22.3823C17.8443 22.5995 17.7985 22.8246 17.6747 23.0081C14.9997 26.8414 11.3664 29.0164 9.99969 24.6247Z" fill="#EDEBF2"/>
</g>
<defs>
<clipPath id="clip0_1547_14693">
<rect width="40" height="40" fill="white"/>
</clipPath>
</defs>
</svg>