<svg xmlns:xlink="http://www.w3.org/1999/xlink" xmlns="http://www.w3.org/2000/svg" width="40" height="40" viewBox="0 0 40 40" fill="none">
<path d="M7.5 25V16.25C7.5 15.5594 6.94063 15 6.25 15H3.75C3.05937 15 2.5 15.5594 2.5 16.25V30H36.25C36.9406 30 37.5 29.4406 37.5 28.75V26.25C37.5 25.5594 36.9406 25 36.25 25H7.5Z" fill="#64C8F0"/>
<path d="M6.25 15H3.75C3.05937 15 2.5 15.5594 2.5 16.25V30H5V16.25C5 15.5594 5.55937 15 6.25 15Z" fill="#46AAD2"/>
<path d="M32.5 12.5C35.2614 12.5 37.5 10.2614 37.5 7.5C37.5 4.73858 35.2614 2.5 32.5 2.5C29.7386 2.5 27.5 4.73858 27.5 7.5C27.5 10.2614 29.7386 12.5 32.5 12.5Z" fill="#FA6450"/>
<path d="M28.7394 7.5C28.7394 4.94875 30.67 2.84625 33.1381 2.54063C32.9344 2.515 32.71 2.5 32.5 2.5C29.7387 2.5 27.5 4.73875 27.5 7.5C27.5 10.2613 29.7387 12.5 32.5 12.5C32.71 12.5 32.9163 12.4831 33.1194 12.4575C30.6513 12.1519 28.7394 10.0512 28.7394 7.5V7.5Z" fill="#DC4632"/>
<path d="M35 6.875H33.125V5H31.875V6.875H30V8.125H31.875V10H33.125V8.125H35V6.875Z" fill="#F0F0F0"/>
<path d="M13.9014 13.9014C12.437 15.3658 10.0627 15.3658 8.59828 13.9014C7.13391 12.437 7.13391 10.0627 8.59828 8.59828C10.0627 7.13391 12.437 7.13391 13.9014 8.59828C15.3658 10.0627 15.3658 12.4364 13.9014 13.9014Z" fill="#F0C8A0"/>
<path d="M11.0983 13.9035C9.63391 12.4392 9.63391 10.0648 11.0983 8.60041C11.507 8.19166 11.9895 7.90979 12.5002 7.72916C11.1802 7.26229 9.65453 7.54479 8.59828 8.60041C7.13391 10.0648 7.13391 12.4392 8.59828 13.9035C9.65391 14.9592 11.1983 15.2485 12.5183 14.7817C12.0077 14.601 11.507 14.3117 11.0983 13.9035Z" fill="#D2AA82"/>
<path d="M8.59828 13.9014C7.13391 12.437 7.13391 10.0627 8.59828 8.59828C10.0627 7.13391 12.437 7.13391 13.9014 8.59828L8.59828 13.9014Z" fill="#FAB400"/>
<path d="M11.0983 8.59791C11.507 8.18916 12.0077 7.90041 12.5183 7.71978C11.1983 7.25291 9.65391 7.54228 8.59828 8.59791C7.13391 10.0623 7.13391 12.4367 8.59828 13.901L10.1752 12.3242C9.79203 11.0467 10.0889 9.60791 11.0983 8.59791V8.59791Z" fill="#DC9600"/>
<path d="M18.7503 20L14.4828 15.7325C14.0134 15.2631 13.3778 15 12.7146 15H11.7596C9.61151 15 8.46401 17.53 9.87838 19.1463L13.9065 23.75H18.7503V20Z" fill="#FA6450"/>
<path d="M13.2359 15.0581C13.0659 15.0219 12.8915 15 12.7146 15H11.7596C9.61151 15 8.46401 17.53 9.87838 19.1463L13.9065 23.75H15.9021L11.874 19.1463C10.579 17.6663 11.4346 15.4269 13.2359 15.0581Z" fill="#DC4632"/>
<path d="M32.5 20H20V23.75H36.25C36.25 21.6788 34.5712 20 32.5 20Z" fill="#F0F0F0"/>
<path d="M8.75 19.7227V23.7508H12.245L8.93687 19.9702C8.86812 19.8908 8.81125 19.8058 8.75 19.7227Z" fill="#F0F0F0"/>
<path d="M10 30H30V32.5H10V30Z" fill="#505050"/>
<path d="M10 30H12.5V32.5H10V30Z" fill="#3C3C3C"/>
<path d="M35 32.5H30.625C32.1338 32.5 33.3962 33.5756 33.6869 35H35V32.5Z" fill="#64C8F0"/>
<path d="M30.625 33.75C31.6606 33.75 32.5 34.5894 32.5 35.625C32.5 36.6606 31.6606 37.5 30.625 37.5C29.5894 37.5 28.75 36.6606 28.75 35.625C28.75 34.5894 29.5894 33.75 30.625 33.75Z" fill="#505050"/>
<path d="M9.375 32.5C10.8838 32.5 12.1463 33.5756 12.4369 35H27.5631C27.8538 33.5756 29.1156 32.5 30.625 32.5H9.375Z" fill="#64C8F0"/>
<path d="M5 35H6.31312C6.60375 33.5756 7.86563 32.5 9.375 32.5H5V35Z" fill="#64C8F0"/>
<path d="M9.375 33.75C10.4106 33.75 11.25 34.5894 11.25 35.625C11.25 36.6606 10.4106 37.5 9.375 37.5C8.33938 37.5 7.5 36.6606 7.5 35.625C7.5 34.5894 8.33938 33.75 9.375 33.75Z" fill="#505050"/>
<path d="M9.375 35C9.72 35 10 35.28 10 35.625C10 35.97 9.72 36.25 9.375 36.25C9.03 36.25 8.75 35.97 8.75 35.625C8.75 35.28 9.03 35 9.375 35Z" fill="#F0F0F0"/>
<path d="M30.625 35C30.97 35 31.25 35.28 31.25 35.625C31.25 35.97 30.97 36.25 30.625 36.25C30.28 36.25 30 35.97 30 35.625C30 35.28 30.28 35 30.625 35Z" fill="#F0F0F0"/>
</svg>