<svg xmlns:xlink="http://www.w3.org/1999/xlink" xmlns="http://www.w3.org/2000/svg" width="40" height="40" viewBox="0 0 40 40" fill="none">
<path d="M0.625 24.6875V34.6875H23.125V24.6875C23.125 23.3614 22.5982 22.0896 21.6605 21.152C20.7229 20.2143 19.4511 19.6875 18.125 19.6875H5.625C4.29892 19.6875 3.02715 20.2143 2.08947 21.152C1.15178 22.0896 0.625 23.3614 0.625 24.6875V24.6875Z" fill="#F7F7FF"/>
<path d="M11.875 19.6875L11.25 20.9375H7.5C6.17392 20.9375 4.90215 21.4643 3.96447 22.402C3.02678 23.3396 2.5 24.6114 2.5 25.9375V34.6875H23.125V24.6875C23.125 23.3614 22.5982 22.0896 21.6605 21.152C20.7229 20.2143 19.4511 19.6875 18.125 19.6875H11.875Z" fill="#EAEAF0"/>
<path d="M3.75 34.6875V29.0625C3.75 28.8967 3.81585 28.7378 3.93306 28.6206C4.05027 28.5033 4.20924 28.4375 4.375 28.4375C4.54076 28.4375 4.69973 28.5033 4.81694 28.6206C4.93415 28.7378 5 28.8967 5 29.0625V34.6875H3.75Z" fill="#D6D6E6"/>
<path d="M11.25 34.6875V19.6875C11.25 19.5217 11.3158 19.3628 11.4331 19.2456C11.5503 19.1283 11.7092 19.0625 11.875 19.0625C12.0408 19.0625 12.1997 19.1283 12.3169 19.2456C12.4342 19.3628 12.5 19.5217 12.5 19.6875V34.6875H11.25Z" fill="#3F72DE"/>
<path d="M9.6875 16.5625H14.0625V20C14.0625 20.5802 13.832 21.1366 13.4218 21.5468C13.0116 21.957 12.4552 22.1875 11.875 22.1875C11.2948 22.1875 10.7384 21.957 10.3282 21.5468C9.91797 21.1366 9.6875 20.5802 9.6875 20V16.5625Z" fill="#F9BE8A"/>
<path d="M6.25 4.6875V7.1875H17.5V4.6875C17.5 3.8587 17.1708 3.06384 16.5847 2.47779C15.9987 1.89174 15.2038 1.5625 14.375 1.5625H9.375C8.5462 1.5625 7.75134 1.89174 7.16529 2.47779C6.57924 3.06384 6.25 3.8587 6.25 4.6875V4.6875Z" fill="#EAEAF0"/>
<path d="M6.25 7.1875H17.5V10.3125C17.5 11.8043 16.9074 13.2351 15.8525 14.29C14.7976 15.3449 13.3668 15.9375 11.875 15.9375C10.3832 15.9375 8.95242 15.3449 7.89752 14.29C6.84263 13.2351 6.25 11.8043 6.25 10.3125V7.1875Z" fill="#FFD2A6"/>
<path d="M6.25 9.6875V10.3125C6.25 11.8043 6.84263 13.2351 7.89752 14.29C8.95242 15.3449 10.3832 15.9375 11.875 15.9375C13.3668 15.9375 14.7976 15.3449 15.8525 14.29C16.9074 13.2351 17.5 11.8043 17.5 10.3125V13.75C17.5 15.2418 16.9074 16.6726 15.8525 17.7275C14.7976 18.7824 13.3668 19.375 11.875 19.375C10.3832 19.375 8.95242 18.7824 7.89752 17.7275C6.84263 16.6726 6.25 15.2418 6.25 13.75V9.6875Z" fill="#5B5555"/>
<path d="M18.125 24.6875V34.6875H39.375V24.6875C39.375 23.3614 38.8482 22.0896 37.9105 21.152C36.9729 20.2143 35.7011 19.6875 34.375 19.6875H23.125C21.7989 19.6875 20.5271 20.2143 19.5895 21.152C18.6518 22.0896 18.125 23.3614 18.125 24.6875V24.6875Z" fill="#FF527D"/>
<path d="M36.3834 20.1106C35.7508 19.8314 35.0668 19.6873 34.3753 19.6875H23.1253C22.4338 19.6873 21.7498 19.8314 21.1172 20.1106C21.9805 21.332 23.1243 22.3284 24.4525 23.0161C25.7808 23.7037 27.2546 24.0627 28.7503 24.0627C30.246 24.0627 31.7199 23.7037 33.0481 23.0161C34.3763 22.3284 35.5201 21.332 36.3834 20.1106V20.1106Z" fill="#F7376E"/>
<path d="M36.25 9.6875C36.25 5.54536 32.8921 2.1875 28.75 2.1875C24.6079 2.1875 21.25 5.54536 21.25 9.6875V14.6875C21.25 18.8296 24.6079 22.1875 28.75 22.1875C32.8921 22.1875 36.25 18.8296 36.25 14.6875V9.6875Z" fill="#FF7597"/>
<path d="M36.25 10.3125C36.2516 9.17343 35.9925 8.0491 35.4925 7.02562C33.0581 2.04875 25.6919 2.04875 23.2575 7.02562C22.7575 8.0491 22.4984 9.17343 22.5 10.3125V14.6875C22.5013 16.5675 23.2086 18.3785 24.4819 19.7618C25.7552 21.145 27.5015 21.9996 29.375 22.1562C31.2485 21.9996 32.9948 21.145 34.2681 19.7618C35.5414 18.3785 36.2487 16.5675 36.25 14.6875V10.3125Z" fill="#FF527D"/>
<path d="M23.75 9.6875H33.75V9.0625C33.75 8.56522 33.5525 8.08831 33.2008 7.73667C32.8492 7.38504 32.3723 7.1875 31.875 7.1875H25.625C25.1277 7.1875 24.6508 7.38504 24.2992 7.73667C23.9475 8.08831 23.75 8.56522 23.75 9.0625V9.6875Z" fill="#5B5555"/>
<path d="M23.75 9.6875V13.4375C23.75 14.7636 24.2768 16.0354 25.2145 16.973C26.1521 17.9107 27.4239 18.4375 28.75 18.4375C30.0761 18.4375 31.3479 17.9107 32.2855 16.973C33.2232 16.0354 33.75 14.7636 33.75 13.4375V9.6875H23.75Z" fill="#FFD2A6"/>
<path d="M31.25 13.125C31.0842 13.125 30.9253 13.0592 30.8081 12.9419C30.6908 12.8247 30.625 12.6658 30.625 12.5V11.875C30.625 11.7092 30.6908 11.5503 30.8081 11.4331C30.9253 11.3158 31.0842 11.25 31.25 11.25C31.4158 11.25 31.5747 11.3158 31.6919 11.4331C31.8092 11.5503 31.875 11.7092 31.875 11.875V12.5C31.875 12.6658 31.8092 12.8247 31.6919 12.9419C31.5747 13.0592 31.4158 13.125 31.25 13.125Z" fill="#FFD2A6"/>
<path d="M26.25 13.125C26.0842 13.125 25.9253 13.0592 25.8081 12.9419C25.6908 12.8247 25.625 12.6658 25.625 12.5V11.875C25.625 11.7092 25.6908 11.5503 25.8081 11.4331C25.9253 11.3158 26.0842 11.25 26.25 11.25C26.4158 11.25 26.5747 11.3158 26.6919 11.4331C26.8092 11.5503 26.875 11.7092 26.875 11.875V12.5C26.875 12.6658 26.8092 12.8247 26.6919 12.9419C26.5747 13.0592 26.4158 13.125 26.25 13.125Z" fill="#FFD2A6"/>
<path d="M35 34.6875V29.0625C35 28.8967 35.0658 28.7378 35.1831 28.6206C35.3003 28.5033 35.4592 28.4375 35.625 28.4375C35.7908 28.4375 35.9497 28.5033 36.0669 28.6206C36.1842 28.7378 36.25 28.8967 36.25 29.0625V34.6875H35Z" fill="#F7376E"/>
<path d="M11.25 35V38.75H28.75V35C28.75 33.6739 28.2232 32.4021 27.2855 31.4645C26.3479 30.5268 25.0761 30 23.75 30H16.25C14.9239 30 13.6521 30.5268 12.7145 31.4645C11.7768 32.4021 11.25 33.6739 11.25 35V35Z" fill="#6DE6CB"/>
<path d="M13.125 35.625V38.75H28.75V35C28.75 33.6739 28.2232 32.4021 27.2855 31.4645C26.3479 30.5268 25.0761 30 23.75 30H20V31.25H17.5C16.3397 31.25 15.2269 31.7109 14.4064 32.5314C13.5859 33.3519 13.125 34.4647 13.125 35.625V35.625Z" fill="#0BD6A8"/>
<path d="M19.375 30H20.625V38.75H19.375V30Z" fill="#FF527D"/>
<path d="M18.125 28.125H21.875V30C21.875 30.4973 21.6775 30.9742 21.3258 31.3258C20.9742 31.6775 20.4973 31.875 20 31.875C19.5027 31.875 19.0258 31.6775 18.6742 31.3258C18.3225 30.9742 18.125 30.4973 18.125 30V28.125Z" fill="#F9BE8A"/>
<path d="M23.75 25.4688L16.25 25.4688L16.25 22.3438C16.25 21.3492 16.6451 20.3954 17.3483 19.6921C18.0516 18.9888 19.0054 18.5938 20 18.5938C20.9946 18.5938 21.9484 18.9888 22.6517 19.6921C23.3549 20.3954 23.75 21.3492 23.75 22.3438L23.75 25.4688Z" fill="#D6D6E0"/>
<path d="M28.7501 16.5637C28.494 16.5641 28.2402 16.5139 28.0035 16.416C27.7668 16.318 27.5518 16.1743 27.3708 15.9931C27.3127 15.9351 27.2666 15.8662 27.2352 15.7903C27.2037 15.7145 27.1875 15.6332 27.1875 15.5511C27.1875 15.469 27.2036 15.3877 27.235 15.3119C27.2664 15.236 27.3124 15.1671 27.3704 15.109C27.4285 15.051 27.4974 15.0049 27.5732 14.9735C27.649 14.942 27.7303 14.9258 27.8124 14.9258C27.8945 14.9258 27.9758 14.9419 28.0516 14.9733C28.1275 15.0047 28.1964 15.0507 28.2545 15.1087C28.3196 15.1738 28.3968 15.2255 28.4819 15.2607C28.5669 15.296 28.6581 15.3141 28.7501 15.3141C28.8422 15.3141 28.9333 15.296 29.0184 15.2607C29.1034 15.2255 29.1807 15.1738 29.2458 15.1087C29.3038 15.0507 29.3727 15.0047 29.4486 14.9733C29.5245 14.9419 29.6058 14.9258 29.6878 14.9258C29.7699 14.9258 29.8512 14.942 29.9271 14.9735C30.0029 15.0049 30.0718 15.051 30.1298 15.109C30.1878 15.1671 30.2339 15.236 30.2653 15.3119C30.2966 15.3877 30.3128 15.469 30.3128 15.5511C30.3127 15.6332 30.2965 15.7145 30.2651 15.7903C30.2336 15.8662 30.1876 15.9351 30.1295 15.9931C29.9485 16.1743 29.7334 16.318 29.4967 16.416C29.26 16.5139 29.0063 16.5641 28.7501 16.5637V16.5637Z" fill="#FFD2A6"/>
<path d="M14.6875 10.625C14.5217 10.625 14.3628 10.5592 14.2456 10.4419C14.1283 10.3247 14.0625 10.1658 14.0625 10V9.375C14.0625 9.20924 14.1283 9.05027 14.2456 8.93306C14.3628 8.81585 14.5217 8.75 14.6875 8.75C14.8533 8.75 15.0122 8.81585 15.1294 8.93306C15.2467 9.05027 15.3125 9.20924 15.3125 9.375V10C15.3125 10.1658 15.2467 10.3247 15.1294 10.4419C15.0122 10.5592 14.8533 10.625 14.6875 10.625Z" fill="#FFD2A6"/>
<path d="M9.0625 10.625C8.89674 10.625 8.73777 10.5592 8.62056 10.4419C8.50335 10.3247 8.4375 10.1658 8.4375 10V9.375C8.4375 9.20924 8.50335 9.05027 8.62056 8.93306C8.73777 8.81585 8.89674 8.75 9.0625 8.75C9.22826 8.75 9.38723 8.81585 9.50444 8.93306C9.62165 9.05027 9.6875 9.20924 9.6875 9.375V10C9.6875 10.1658 9.62165 10.3247 9.50444 10.4419C9.38723 10.5592 9.22826 10.625 9.0625 10.625Z" fill="#FFD2A6"/>
<path d="M11.8751 14.0637C11.619 14.0641 11.3652 14.0139 11.1285 13.916C10.8918 13.818 10.6768 13.6743 10.4958 13.4931C10.4377 13.4351 10.3916 13.3662 10.3602 13.2903C10.3287 13.2145 10.3125 13.1332 10.3125 13.0511C10.3125 12.969 10.3286 12.8877 10.36 12.8119C10.3914 12.736 10.4374 12.6671 10.4954 12.609C10.5535 12.551 10.6224 12.5049 10.6982 12.4735C10.774 12.442 10.8553 12.4258 10.9374 12.4258C11.0195 12.4258 11.1008 12.4419 11.1766 12.4733C11.2525 12.5047 11.3214 12.5507 11.3795 12.6087C11.4446 12.6738 11.5218 12.7255 11.6069 12.7607C11.6919 12.796 11.7831 12.8141 11.8751 12.8141C11.9672 12.8141 12.0583 12.796 12.1434 12.7607C12.2284 12.7255 12.3057 12.6738 12.3708 12.6087C12.4288 12.5507 12.4977 12.5047 12.5736 12.4733C12.6495 12.4419 12.7308 12.4258 12.8128 12.4258C12.8949 12.4258 12.9762 12.442 13.0521 12.4735C13.1279 12.5049 13.1968 12.551 13.2548 12.609C13.3128 12.6671 13.3589 12.736 13.3903 12.8119C13.4216 12.8877 13.4378 12.969 13.4378 13.0511C13.4377 13.1332 13.4215 13.2145 13.3901 13.2903C13.3586 13.3662 13.3126 13.4351 13.2545 13.4931C13.0735 13.6743 12.8584 13.818 12.6217 13.916C12.385 14.0139 12.1313 14.0641 11.8751 14.0637V14.0637Z" fill="#FFD2A6"/>
<path d="M16.25 21.875H23.75V25C23.75 25.9946 23.3549 26.9484 22.6517 27.6517C21.9484 28.3549 20.9946 28.75 20 28.75C19.0054 28.75 18.0516 28.3549 17.3483 27.6517C16.6451 26.9484 16.25 25.9946 16.25 25V21.875Z" fill="#FFD2A6"/>
</svg>