<svg xmlns:xlink="http://www.w3.org/1999/xlink" xmlns="http://www.w3.org/2000/svg" width="40" height="40" viewBox="0 0 40 40" fill="none">
<g clip-path="url(#clip0_1547_13850)">
<path d="M40.0002 20.1036C40.0002 20.4876 39.6243 20.7549 39.2594 20.6353C38.3059 20.3227 37.6152 19.4246 37.6152 18.368V15.9336H38.7368V18.368C38.7368 18.9273 39.102 19.4028 39.6061 19.5689C39.8396 19.6454 40.0002 19.858 40.0002 20.1036V20.1036Z" fill="#934532"/>
<path d="M35.8531 24.1588C35.0515 23.5537 34.6675 22.1156 34.4838 20.9023C34.0613 21.0893 33.4659 21.3527 32.6432 21.5397C32.8139 22.3189 33.2347 24.2408 33.9212 24.7601C34.579 25.259 34.982 26.0242 34.982 26.8511L33.7176 32.1908H33.4835C32.6201 32.1908 31.9199 32.8906 31.9199 33.754V33.9797H33.2942L33.2913 33.9917H34.7686L36.8856 25.8824C36.7865 25.1991 36.4131 24.5813 35.8531 24.1588Z" fill="#C2653D"/>
<path d="M7.55937 9.32145C7.55937 8.21546 7.02767 6.91989 6.09144 6.16641C5.95616 6.0578 5.73633 6.14072 5.73633 6.30007V9.32145H7.55937Z" fill="#C2653D"/>
<path d="M34.3981 18.8242C33.7721 19.1351 31.9732 19.7923 30.4301 19.7923C29.2555 19.7923 28.212 19.619 27.3895 19.4095C26.8113 19.2616 26.3213 19.0769 25.9307 18.9117C25.838 18.8727 25.7447 18.9627 25.7802 19.0564C25.9678 19.5481 26.1902 20.3282 26.1733 21.2914C27.0751 21.5266 28.4172 21.787 30.4522 21.787C31.4993 21.787 32.3761 21.6683 33.1068 21.5022C33.7168 21.3636 34.2248 21.191 34.6472 21.0251C34.4788 19.9887 34.4502 19.0743 34.4459 18.8518C34.445 18.8278 34.4199 18.8128 34.3981 18.8242Z" fill="#934532"/>
<path d="M38.8802 23.1402C38.0744 22.5961 37.8276 20.6059 37.8276 19.633L38.4773 17.6499L38.6412 16.7794C39.2097 13.7671 37.436 10.9792 34.3704 10.9792C34.2169 10.9792 34.0683 10.9379 33.9399 10.8602C33.8131 10.7844 33.7061 10.6739 33.6355 10.5376C32.9591 9.23 31.5877 8.15523 30.2723 7.44273C29.1517 6.83624 28.0717 6.49219 27.4981 6.49219C26.8633 6.49219 25.4435 6.92957 24.0797 7.70679L22.7711 8.58741C22.0895 9.13504 21.509 9.77502 21.1728 10.4927C20.9666 10.9327 20.5318 11.2202 20.0469 11.2381C19.4157 11.2615 18.7878 11.3389 18.1719 11.4677C16.7234 11.7711 15.5349 12.7977 15.0266 14.1847C14.7446 14.955 14.1056 15.5547 13.3034 15.7245C13.2022 15.7462 13.1014 15.7609 13.0003 15.7677C12.094 15.8418 11.2348 15.383 10.788 14.6038L8.03262 9.79941C7.63849 9.11195 6.90615 8.6866 6.11333 8.6866C5.55269 8.6866 4.99726 8.79164 4.4763 8.99521L0.55218 10.5246C0.221782 10.6394 0 10.95 0 11.3002C0 12.0634 0.61917 12.6829 1.3837 12.6829H2.43505C2.8422 12.9278 3.82819 13.4435 5.18425 13.4367C5.26099 13.4367 5.33676 13.4341 5.41188 13.4305C5.50001 13.4263 5.58619 13.4205 5.66976 13.4117L5.70879 13.4081H5.86651C5.9839 13.4081 6.09252 13.4702 6.15203 13.5704L8.04043 16.7293C9.37112 18.6252 11.5424 19.7543 13.8595 19.7543C14.277 19.7543 14.6936 19.7907 15.1033 19.8639C15.4578 19.926 15.808 20.0167 16.1504 20.1331C16.2041 20.1513 16.2565 20.1702 16.3101 20.19L18.7744 21.095L18.8187 21.1071L19.2369 21.2235L21.7272 21.9152L25.6751 32.2944C25.0731 32.5116 24.6419 33.0866 24.6419 33.7636V33.989H28.2122L26.0936 28.408C26.0936 28.408 25.2026 25.9834 25.1915 24.7333C25.5157 24.3281 26.2663 23.279 26.4136 21.7314C26.4276 21.5832 26.4354 21.4391 26.4376 21.2993C26.4533 20.3868 26.2429 19.6473 26.0653 19.1816C26.0315 19.0928 26.1203 19.0073 26.2074 19.0444C26.5775 19.2014 27.0425 19.3757 27.5901 19.5162C28.369 19.7146 29.3576 19.8785 30.4714 19.8785C31.6684 19.8785 33.0297 19.4603 33.8088 19.1471C34.0173 19.0635 34.2485 19.2031 34.2683 19.4284C34.3064 19.8408 34.3711 20.4651 34.466 21.0476C34.6582 22.2277 35.0423 23.575 35.8107 24.1564C36.4696 24.6533 36.8702 25.4201 36.8702 26.2455V32.3022C36.2946 32.5331 35.8881 33.095 35.8881 33.7529V33.9783H36.8702V33.9893H38.5752V28.2383L39.0841 23.9639C39.1485 23.5294 39.0562 23.2595 38.8802 23.1402V23.1402Z" fill="#E77E52"/>
<path d="M19.2371 21.2274L18.8189 21.111L18.7746 21.0986L16.3103 20.1939C16.2567 20.1741 16.2043 20.1549 16.1506 20.137C15.8082 20.0203 15.458 19.9299 15.1035 19.8677C14.6938 19.7943 14.2772 19.7582 13.8597 19.7582C11.5426 19.7582 9.37165 18.6291 8.04063 16.7329L6.15222 13.5743C6.09271 13.4741 5.9841 13.412 5.8667 13.412H5.70898L5.78313 13.4052C6.12751 13.3723 6.46376 13.2852 6.7805 13.1453L7.12553 12.9935C7.53007 12.8556 7.97266 13.0497 8.14697 13.4403C8.83183 14.9768 10.8656 18.566 15.1624 19.3165C15.1624 19.3165 17.4485 19.4665 18.1298 18.3556L18.7932 18.8291C19.0491 19.6521 19.2078 20.9744 19.2371 21.2274Z" fill="#934532"/>
<path d="M30.272 7.44273C30.0942 7.40793 29.9371 7.39005 29.807 7.39005C29.1644 7.39005 27.7274 7.83231 26.3469 8.61928L25.0231 9.51129C24.3327 10.0651 23.7454 10.7129 23.4046 11.44C23.1961 11.8842 22.7568 12.1756 22.2651 12.1938C21.6261 12.2172 20.991 12.2956 20.3676 12.426C18.8795 12.7375 17.6623 13.8035 17.1622 15.2406C16.835 16.1758 15.9336 16.7872 14.9443 16.7872C14.1635 16.7872 13.439 16.4035 13 15.7677C13.1008 15.7609 13.2019 15.7462 13.3028 15.7245C14.105 15.5547 14.744 14.955 15.0263 14.185C15.5342 12.7977 16.7231 11.7714 18.1712 11.4677C18.7872 11.3389 19.4151 11.2615 20.0466 11.2381C20.5315 11.2199 20.966 10.9327 21.1721 10.4927C21.5087 9.77502 22.0892 9.13504 22.7705 8.58741L24.079 7.70646C25.4429 6.92925 26.8627 6.49219 27.4978 6.49219C28.0715 6.49219 29.1514 6.83624 30.272 7.44273V7.44273Z" fill="#ED9E7E"/>
<path d="M21.8277 22.7544C21.814 22.3937 21.7942 22.0321 21.7682 21.9219C21.6342 21.3437 21.3386 20.8224 20.9321 20.4003L20.9334 20.4013L19.258 18.6189C18.9692 18.3112 18.524 18.2075 18.1289 18.3558L18.8183 21.1108L19.8654 25.2971L19.5194 32.2139C18.7373 32.3001 18.1289 32.9625 18.1289 33.7674V33.9931H19.4307V33.994H21.0765L21.8478 26.2375V23.5771C21.8475 23.4737 21.8407 23.1147 21.8277 22.7544V22.7544Z" fill="#C2653D"/>
</g>
<defs>
<clipPath id="clip0_1547_13850">
<rect width="40" height="40" fill="white"/>
</clipPath>
</defs>
</svg>