<svg xmlns:xlink="http://www.w3.org/1999/xlink" xmlns="http://www.w3.org/2000/svg" width="40" height="40" viewBox="0 0 40 40" fill="none">
<path d="M35.9675 19.8214H35.995C37.2675 18.4703 37.9945 16.6958 38.0358 14.8402C37.9739 7.69375 25.7821 4.47175 23.7501 1.25C21.7181 4.47175 9.52629 7.69375 9.46441 14.8401C9.50572 16.6957 10.2327 18.4702 11.5052 19.8214H11.5327C10.6496 20.6423 9.94644 21.6375 9.4675 22.744C8.98857 23.8505 8.74429 25.0443 8.7501 26.25V37.5H38.7501V26.25C38.7559 25.0443 38.5116 23.8505 38.0327 22.744C37.5537 21.6375 36.8506 20.6424 35.9675 19.8214V19.8214Z" fill="#5882DC"/>
<path d="M38.75 38.1256H8.75002C8.58426 38.1256 8.42529 38.0597 8.30808 37.9425C8.19087 37.8253 8.12502 37.6664 8.12502 37.5006V26.2506C8.12017 23.8536 9.03027 21.545 10.6696 19.7962C9.51441 18.4001 8.86896 16.6524 8.83946 14.8407C8.88277 9.82728 14.2374 6.73585 18.5401 4.25228C20.625 3.04872 22.5938 1.9116 23.2215 0.917345C23.2814 0.832996 23.3607 0.764218 23.4526 0.716757C23.5446 0.669296 23.6465 0.644531 23.75 0.644531C23.8535 0.644531 23.9555 0.669296 24.0474 0.716757C24.1394 0.764218 24.2186 0.832996 24.2786 0.917345C24.9063 1.9116 26.875 3.04872 28.96 4.25228C33.2626 6.73585 38.6173 9.82728 38.6606 14.8352C38.632 16.6488 37.9865 18.3985 36.8305 19.7962C38.4698 21.545 39.3799 23.8536 39.375 26.2506V37.5006C39.375 37.6664 39.3092 37.8253 39.192 37.9425C39.0748 38.0597 38.9158 38.1256 38.75 38.1256V38.1256ZM9.37502 36.8756H38.125V26.2506C38.1288 25.1315 37.9015 24.0237 37.4574 22.9966C37.0132 21.9694 36.3617 21.0451 35.5438 20.2813C35.4746 20.2175 35.4207 20.1388 35.3861 20.0512C35.3516 19.9636 35.3373 19.8693 35.3443 19.7754C35.3513 19.6815 35.3795 19.5904 35.4266 19.5089C35.4738 19.4274 35.5388 19.3576 35.6167 19.3048C36.7333 18.0816 37.3704 16.4963 37.4108 14.8407C37.374 10.5532 32.362 7.65941 28.3352 5.33441C26.4261 4.23278 24.7313 3.25441 23.75 2.24241C22.7688 3.25441 21.074 4.23278 19.1651 5.33447C15.1383 7.65947 10.1263 10.5532 10.0895 14.8462C10.1325 16.5187 10.7831 18.1183 11.9196 19.3462C12.0001 19.412 12.0625 19.4973 12.1008 19.594C12.149 19.7097 12.161 19.8374 12.1353 19.9601C12.1095 20.0828 12.0472 20.1949 11.9565 20.2815C11.1385 21.0451 10.487 21.9695 10.0428 22.9966C9.59861 24.0238 9.37127 25.1315 9.37502 26.2506V36.8756Z" fill="#EBBE28"/>
<path d="M8.72381 5.92088C8.38471 6.2582 7.97601 6.51738 7.52631 6.6803C7.0766 6.84322 6.59673 6.90595 6.12026 6.8641C5.64379 6.82226 5.1822 6.67684 4.76778 6.43803C4.35335 6.19921 3.99609 5.87276 3.72097 5.4815C3.44585 5.09023 3.25952 4.64359 3.17499 4.17281C3.09045 3.70203 3.10977 3.21847 3.23159 2.75594C3.3534 2.2934 3.57478 1.86305 3.88023 1.49498C4.18569 1.12691 4.56785 0.829995 5 0.625C4.13471 0.625 3.28885 0.881589 2.56938 1.36232C1.84992 1.84305 1.28916 2.52633 0.958029 3.32576C0.626896 4.12519 0.540256 5.00485 0.709066 5.85352C0.877877 6.70219 1.29455 7.48174 1.90641 8.09359C2.51826 8.70545 3.29782 9.12213 4.14648 9.29094C4.99515 9.45975 5.87482 9.37311 6.67424 9.04197C7.47367 8.71084 8.15695 8.15008 8.63768 7.43062C9.11841 6.71115 9.375 5.86529 9.375 5C9.21218 5.34193 8.99192 5.6534 8.72381 5.92088V5.92088Z" fill="#FADC14"/>
<path d="M25.625 34.375C26.6196 34.375 27.5734 33.9799 28.2767 33.2767C28.9799 32.5734 29.375 31.6196 29.375 30.625V26.4905C29.375 25.4235 29.1648 24.367 28.7565 23.3812C28.3482 22.3954 27.7497 21.4997 26.9953 20.7453L26.25 20L23.125 20.9375C22.3397 21.6246 21.7104 22.4717 21.2792 23.4219C20.8481 24.3721 20.625 25.4035 20.625 26.4469V29.375L16.5103 31.4324C15.8686 31.7532 15.3289 32.2464 14.9518 32.8566C14.5747 33.4669 14.3749 34.1701 14.375 34.8875C14.375 35.9119 14.7819 36.8943 15.5063 37.6187C16.2307 38.3431 17.2131 38.75 18.2375 38.75H29.375V34.375H25.625Z" fill="#F7F6F5"/>
<path d="M29.375 38.75H34.5721C34.7103 38.75 34.8473 38.7228 34.975 38.6699C35.1028 38.617 35.2188 38.5394 35.3166 38.4416C35.4144 38.3438 35.492 38.2278 35.5449 38.1C35.5978 37.9723 35.625 37.8353 35.625 37.6971C35.625 37.4622 35.5465 37.2342 35.402 37.0491C35.2575 36.864 35.0552 36.7326 34.8274 36.6756L33.125 36.25L32.6008 35.4636C32.3775 35.1287 32.075 34.8542 31.7202 34.6643C31.3653 34.4744 30.9691 34.375 30.5666 34.375H29.375V38.75Z" fill="#F0D5C5"/>
<path d="M20.9825 31.0779C21.4203 31.079 21.854 30.9933 22.2584 30.8257C22.6629 30.6581 23.0301 30.4118 23.3387 30.1013L26.2852 27.1551C26.8088 26.627 27.1018 25.9129 27.1001 25.1693C27.0985 24.4256 26.8024 23.7129 26.2766 23.187C25.7508 22.6611 25.038 22.365 24.2944 22.3633C23.5507 22.3616 22.8367 22.6546 22.3085 23.1781L20.9825 24.5044L20.9164 24.4383C20.7264 25.0908 20.6285 25.7667 20.6254 26.4463V29.3744L18.832 30.2711C19.429 30.7891 20.1921 31.0754 20.9825 31.0779V31.0779Z" fill="#E8E4E0"/>
<path d="M20.9824 26.273L23.1924 24.063C23.4854 23.77 23.8828 23.6055 24.2971 23.6055C24.7115 23.6055 25.1088 23.77 25.4018 24.063C25.6948 24.356 25.8593 24.7534 25.8593 25.1677C25.8593 25.582 25.6948 25.9794 25.4018 26.2724L22.4553 29.2192C22.0646 29.6098 21.5348 29.8293 20.9823 29.8293C20.4298 29.8293 19.9 29.6098 19.5093 29.2192L16.1943 25.9042L18.4038 23.6942L20.9824 26.273Z" fill="#F7F6F5"/>
<path d="M17.667 22.9575L18.4035 23.694L16.194 25.9035L15.4575 25.167C15.1646 24.874 15 24.4766 15 24.0623C15 23.6479 15.1646 23.2506 15.4575 22.9575C15.7506 22.6646 16.1479 22.5 16.5623 22.5C16.9766 22.5 17.374 22.6646 17.667 22.9575V22.9575Z" fill="#F0D5C5"/>
<path d="M20.625 13.75V16.25C20.6251 16.9703 20.8739 17.6684 21.3295 18.2264C21.785 18.7843 22.4193 19.1678 23.125 19.312V20.9375L26.25 20V18.9483C27.7267 18.2457 28.125 17.3693 28.125 15.625V13.75H20.625Z" fill="#F0D5C5"/>
<path d="M28.125 13.75H20.625C20.625 12.7554 21.0201 11.8016 21.7233 11.0983C22.4266 10.3951 23.3804 10 24.375 10C25.3696 10 26.3234 10.3951 27.0267 11.0983C27.7299 11.8016 28.125 12.7554 28.125 13.75Z" fill="#F7F6F5"/>
<path d="M20.625 34.375C20.4592 34.375 20.3003 34.4408 20.1831 34.5581C20.0658 34.6753 20 34.8342 20 35C20 35.1658 20.0658 35.3247 20.1831 35.4419C20.3003 35.5592 20.4592 35.625 20.625 35.625H29.375V34.375H20.625Z" fill="#E8E4E0"/>
<path d="M5.625 21.875C5.97018 21.875 6.25 21.5952 6.25 21.25C6.25 20.9048 5.97018 20.625 5.625 20.625C5.27982 20.625 5 20.9048 5 21.25C5 21.5952 5.27982 21.875 5.625 21.875Z" fill="#FADC14"/>
<path d="M31.25 11.25C31.5952 11.25 31.875 10.9702 31.875 10.625C31.875 10.2798 31.5952 10 31.25 10C30.9048 10 30.625 10.2798 30.625 10.625C30.625 10.9702 30.9048 11.25 31.25 11.25Z" fill="#FADC14"/>
<path d="M34.375 25.625C34.7202 25.625 35 25.3452 35 25C35 24.6548 34.7202 24.375 34.375 24.375C34.0298 24.375 33.75 24.6548 33.75 25C33.75 25.3452 34.0298 25.625 34.375 25.625Z" fill="#FADC14"/>
<path d="M15 14.375C14.8342 14.375 14.6753 14.3092 14.5581 14.1919C14.4408 14.0747 14.375 13.9158 14.375 13.75V13.125C14.375 12.9592 14.4408 12.8003 14.5581 12.6831C14.6753 12.5658 14.8342 12.5 15 12.5C15.1658 12.5 15.3247 12.5658 15.4419 12.6831C15.5592 12.8003 15.625 12.9592 15.625 13.125V13.75C15.625 13.9158 15.5592 14.0747 15.4419 14.1919C15.3247 14.3092 15.1658 14.375 15 14.375Z" fill="#FADC14"/>
<path d="M15 17.5C14.8342 17.5 14.6753 17.4342 14.5581 17.3169C14.4408 17.1997 14.375 17.0408 14.375 16.875V16.25C14.375 16.0842 14.4408 15.9253 14.5581 15.8081C14.6753 15.6908 14.8342 15.625 15 15.625C15.1658 15.625 15.3247 15.6908 15.4419 15.8081C15.5592 15.9253 15.625 16.0842 15.625 16.25V16.875C15.625 17.0408 15.5592 17.1997 15.4419 17.3169C15.3247 17.4342 15.1658 17.5 15 17.5Z" fill="#FADC14"/>
<path d="M13.75 15.625H13.125C12.9592 15.625 12.8003 15.5592 12.6831 15.4419C12.5658 15.3247 12.5 15.1658 12.5 15C12.5 14.8342 12.5658 14.6753 12.6831 14.5581C12.8003 14.4408 12.9592 14.375 13.125 14.375H13.75C13.9158 14.375 14.0747 14.4408 14.1919 14.5581C14.3092 14.6753 14.375 14.8342 14.375 15C14.375 15.1658 14.3092 15.3247 14.1919 15.4419C14.0747 15.5592 13.9158 15.625 13.75 15.625Z" fill="#FADC14"/>
<path d="M16.875 15.625H16.25C16.0842 15.625 15.9253 15.5592 15.8081 15.4419C15.6908 15.3247 15.625 15.1658 15.625 15C15.625 14.8342 15.6908 14.6753 15.8081 14.5581C15.9253 14.4408 16.0842 14.375 16.25 14.375H16.875C17.0408 14.375 17.1997 14.4408 17.3169 14.5581C17.4342 14.6753 17.5 14.8342 17.5 15C17.5 15.1658 17.4342 15.3247 17.3169 15.4419C17.1997 15.5592 17.0408 15.625 16.875 15.625Z" fill="#FADC14"/>
<path d="M36.875 2.5C36.7092 2.5 36.5503 2.43415 36.4331 2.31694C36.3158 2.19973 36.25 2.04076 36.25 1.875V1.25C36.25 1.08424 36.3158 0.925268 36.4331 0.808058C36.5503 0.690848 36.7092 0.625 36.875 0.625C37.0408 0.625 37.1997 0.690848 37.3169 0.808058C37.4342 0.925268 37.5 1.08424 37.5 1.25V1.875C37.5 2.04076 37.4342 2.19973 37.3169 2.31694C37.1997 2.43415 37.0408 2.5 36.875 2.5Z" fill="#FADC14"/>
<path d="M36.875 5.625C36.7092 5.625 36.5503 5.55915 36.4331 5.44194C36.3158 5.32473 36.25 5.16576 36.25 5V4.375C36.25 4.20924 36.3158 4.05027 36.4331 3.93306C36.5503 3.81585 36.7092 3.75 36.875 3.75C37.0408 3.75 37.1997 3.81585 37.3169 3.93306C37.4342 4.05027 37.5 4.20924 37.5 4.375V5C37.5 5.16576 37.4342 5.32473 37.3169 5.44194C37.1997 5.55915 37.0408 5.625 36.875 5.625Z" fill="#FADC14"/>
<path d="M35.625 3.75H35C34.8342 3.75 34.6753 3.68415 34.5581 3.56694C34.4408 3.44973 34.375 3.29076 34.375 3.125C34.375 2.95924 34.4408 2.80027 34.5581 2.68306C34.6753 2.56585 34.8342 2.5 35 2.5H35.625C35.7908 2.5 35.9497 2.56585 36.0669 2.68306C36.1842 2.80027 36.25 2.95924 36.25 3.125C36.25 3.29076 36.1842 3.44973 36.0669 3.56694C35.9497 3.68415 35.7908 3.75 35.625 3.75Z" fill="#FADC14"/>
<path d="M38.75 3.75H38.125C37.9592 3.75 37.8003 3.68415 37.6831 3.56694C37.5658 3.44973 37.5 3.29076 37.5 3.125C37.5 2.95924 37.5658 2.80027 37.6831 2.68306C37.8003 2.56585 37.9592 2.5 38.125 2.5H38.75C38.9158 2.5 39.0747 2.56585 39.1919 2.68306C39.3092 2.80027 39.375 2.95924 39.375 3.125C39.375 3.29076 39.3092 3.44973 39.1919 3.56694C39.0747 3.68415 38.9158 3.75 38.75 3.75Z" fill="#FADC14"/>
<path d="M3.125 33.75C2.95924 33.75 2.80027 33.6842 2.68306 33.5669C2.56585 33.4497 2.5 33.2908 2.5 33.125V32.5C2.5 32.3342 2.56585 32.1753 2.68306 32.0581C2.80027 31.9408 2.95924 31.875 3.125 31.875C3.29076 31.875 3.44973 31.9408 3.56694 32.0581C3.68415 32.1753 3.75 32.3342 3.75 32.5V33.125C3.75 33.2908 3.68415 33.4497 3.56694 33.5669C3.44973 33.6842 3.29076 33.75 3.125 33.75Z" fill="#FADC14"/>
<path d="M3.125 36.875C2.95924 36.875 2.80027 36.8092 2.68306 36.6919C2.56585 36.5747 2.5 36.4158 2.5 36.25V35.625C2.5 35.4592 2.56585 35.3003 2.68306 35.1831C2.80027 35.0658 2.95924 35 3.125 35C3.29076 35 3.44973 35.0658 3.56694 35.1831C3.68415 35.3003 3.75 35.4592 3.75 35.625V36.25C3.75 36.4158 3.68415 36.5747 3.56694 36.6919C3.44973 36.8092 3.29076 36.875 3.125 36.875Z" fill="#FADC14"/>
<path d="M1.875 35H1.25C1.08424 35 0.925268 34.9342 0.808058 34.8169C0.690848 34.6997 0.625 34.5408 0.625 34.375C0.625 34.2092 0.690848 34.0503 0.808058 33.9331C0.925268 33.8158 1.08424 33.75 1.25 33.75H1.875C2.04076 33.75 2.19973 33.8158 2.31694 33.9331C2.43415 34.0503 2.5 34.2092 2.5 34.375C2.5 34.5408 2.43415 34.6997 2.31694 34.8169C2.19973 34.9342 2.04076 35 1.875 35Z" fill="#FADC14"/>
<path d="M5 35H4.375C4.20924 35 4.05027 34.9342 3.93306 34.8169C3.81585 34.6997 3.75 34.5408 3.75 34.375C3.75 34.2092 3.81585 34.0503 3.93306 33.9331C4.05027 33.8158 4.20924 33.75 4.375 33.75H5C5.16576 33.75 5.32473 33.8158 5.44194 33.9331C5.55915 34.0503 5.625 34.2092 5.625 34.375C5.625 34.5408 5.55915 34.6997 5.44194 34.8169C5.32473 34.9342 5.16576 35 5 35V35Z" fill="#FADC14"/>
<path d="M20.625 13.75H28.125V15H20.625V13.75Z" fill="#EBC4A6"/>
</svg>