<svg xmlns:xlink="http://www.w3.org/1999/xlink" xmlns="http://www.w3.org/2000/svg" width="40" height="40" viewBox="0 0 40 40" fill="none">
<path d="M29.1797 12.7972C28.3461 11.8871 27.0502 10.6587 26.4989 13.4323C26.3114 14.3754 25.8733 15.1023 25.4979 15.6877C25.0933 13.6398 23.876 11.5202 22.729 10.0911C22.2997 9.5564 20.7768 7.43085 20.4842 3.87492C20.4405 3.34421 19.8101 3.09499 19.4158 3.45296C15.6477 6.87359 13.5794 11.5781 13.5026 16.8744C13.5026 16.8744 11.9336 15.5519 11.0811 13.0914C10.8516 12.4288 9.96334 12.3024 9.57794 12.8883C9.50396 13.0008 9.43537 13.1134 9.37349 13.2228C6.46623 18.3634 5.06771 24.606 6.3606 30.4138C8.52232 40.1402 22.8219 42.8594 30.3921 36.7462C37.7987 30.7652 35.4444 19.6333 29.1797 12.7972Z" fill="#ED694A"/>
<path d="M8.37271 31.0225C7.09482 25.1526 8.44748 18.8492 11.2865 13.6281C11.2147 13.4549 11.1456 13.2758 11.0811 13.0896C10.8515 12.427 9.96326 12.3006 9.57787 12.8864C9.50388 12.9989 9.43537 13.1116 9.37349 13.221C6.46623 18.3616 5.06771 24.6042 6.3606 30.412C7.34662 34.8484 10.8582 37.826 15.1044 39.1736C11.7919 37.569 9.19779 34.8183 8.37271 31.0225Z" fill="#D8553A"/>
<path d="M15.525 16.7765C15.682 11.9697 17.4206 7.65954 20.5323 4.34844C20.5109 4.1661 20.495 4.00305 20.4848 3.8793C20.4402 3.34407 19.8329 3.07563 19.4403 3.43047C15.8008 6.72094 13.5825 11.3779 13.5029 16.8738L14.1841 17.4028C14.5196 17.6634 14.9741 17.652 15.2945 17.4134C15.4857 17.2513 15.5131 17.0068 15.525 16.7765Z" fill="#D8553A"/>
<path d="M26.8944 19.9086C26.2787 19.2364 25.3215 18.3291 24.9143 20.3778C24.7758 21.0743 24.4522 21.6113 24.1751 22.0436C23.8762 20.5311 22.977 18.9654 22.1298 17.9099C21.8128 17.515 20.688 15.945 20.4718 13.3184C20.4395 12.9264 19.974 12.7424 19.6827 13.0068C16.8995 15.5332 15.3718 19.0082 15.3151 22.9201C15.3151 22.9201 14.1562 21.9432 13.5266 20.1259C13.3571 19.6365 12.7009 19.5432 12.4163 19.9759C12.3617 20.0589 12.311 20.1422 12.2653 20.223C10.1179 24.02 9.08491 28.6308 10.0398 32.9207C11.6365 40.1047 22.1984 42.1132 27.79 37.5979C33.2606 33.1803 31.5216 24.958 26.8944 19.9086Z" fill="#F4A32C"/>
<path d="M12.0303 33.4842C11.1849 29.2908 12.0606 24.7912 13.9172 21.0443C13.7757 20.7673 13.6417 20.461 13.5256 20.126C13.356 19.6367 12.6999 19.5432 12.4153 19.976C12.3607 20.059 12.3099 20.1423 12.2642 20.2231C10.1169 24.0201 9.08401 28.631 10.0388 32.9207C10.7814 36.262 13.4635 38.4829 16.6826 39.4494C14.3955 38.3024 12.5947 36.2873 12.0303 33.4842Z" fill="#E89528"/>
<path d="M24.8077 26.4006C24.3909 25.9456 23.7428 25.3313 23.4672 26.7182C23.3735 27.1897 23.1544 27.5532 22.9667 27.8458C22.7644 26.8218 22.1558 25.7621 21.5822 25.0475C21.3677 24.7802 20.6062 23.7175 20.4598 21.9394C20.4379 21.674 20.1228 21.5494 19.9256 21.7285C18.0416 23.4388 17.0074 25.7911 16.9691 28.4392C16.9691 28.4392 16.1845 27.7779 15.7584 26.5477C15.6436 26.2165 15.1995 26.1533 15.0068 26.4461C14.9698 26.5023 14.9355 26.5587 14.9045 26.6134C13.4509 29.1837 12.7516 32.305 13.398 35.209C14.4789 40.0722 21.6287 41.4318 25.4137 38.3751C26.7099 37.3284 27.5136 35.8535 27.6766 34.222C27.9226 31.7509 26.9716 28.7619 24.8077 26.4006Z" fill="#F4D44E"/>
<path d="M22.8711 32.4232C22.6389 32.1697 22.2779 31.8275 22.1243 32.6001C22.0721 32.8628 21.9501 33.0653 21.8455 33.2283C21.7327 32.6579 21.3937 32.0674 21.0741 31.6694C20.9546 31.5204 20.5303 30.9283 20.4487 29.9377C20.4366 29.7898 20.2609 29.7205 20.1512 29.8201C19.1016 30.773 18.5253 32.0836 18.504 33.5589C18.504 33.5589 18.0669 33.1904 17.8295 32.5051C17.7655 32.3204 17.518 32.2852 17.4108 32.4485C17.3902 32.4798 17.3711 32.5112 17.3539 32.5417C16.5441 33.9737 16.1545 35.7126 16.5146 37.3305C17.3348 41.0204 24.0573 40.9086 24.4696 36.7806C24.6065 35.404 24.0766 33.7387 22.8711 32.4232Z" fill="#EAE9E8"/>
<path d="M18.0755 38.0627C17.7153 36.6154 18.1049 35.0599 18.9148 33.779C18.932 33.7517 18.9511 33.7237 18.9716 33.6956C19.079 33.5496 19.3264 33.5811 19.3903 33.7462C19.6277 34.3593 20.0648 34.6889 20.0648 34.6889C20.0824 33.6045 20.4752 32.6201 21.1967 31.8306C21.0354 31.6072 20.5418 31.0684 20.4487 29.9377C20.4366 29.7898 20.2609 29.7205 20.1512 29.8201C19.1016 30.773 18.5253 32.0836 18.504 33.5589C18.504 33.5589 18.0669 33.1905 17.8295 32.5051C17.7655 32.3205 17.518 32.2853 17.4108 32.4486C17.3902 32.4799 17.3711 32.5113 17.3539 32.5418C16.5441 33.9737 16.1545 35.7127 16.5146 37.3306C16.8479 38.8302 18.2171 39.7315 19.7309 39.949C18.9143 39.548 18.2867 38.9129 18.0755 38.0627Z" fill="#F7E7A1"/>
<path d="M14.421 5.31602C16.1104 3.94187 16.1067 1.37102 14.421 0C12.7315 1.37406 12.7352 3.945 14.421 5.31602Z" fill="#D8553A"/>
<path d="M34.6704 16.3434C36.3598 14.9692 36.3561 12.3984 34.6704 11.0273C33.8982 11.6553 32.9847 14.9723 34.6704 16.3434Z" fill="#D8553A"/>
<path d="M4.74834 17.3899C5.96592 16.3995 5.96326 14.5468 4.74834 13.5586C4.19186 14.0112 3.53342 16.4018 4.74834 17.3899Z" fill="#D8553A"/>
<path d="M25.836 9.14773C27.0536 8.15734 27.0509 6.30461 25.836 5.31641C24.6184 6.30672 24.6211 8.15961 25.836 9.14773Z" fill="#D8553A"/>
<path d="M16.868 22.2918C17.1476 18.9909 18.4081 16.0558 20.5247 13.8182C20.5033 13.6561 20.4852 13.4896 20.4712 13.3184C20.4389 12.9264 19.9734 12.7424 19.6821 13.0068C17.4766 15.0088 16.0612 17.6069 15.5398 20.5456L15.539 20.5454C15.5003 20.7633 15.4523 21.0808 15.422 21.3303C15.4221 21.3305 15.4222 21.3307 15.4223 21.3309C15.359 21.8515 15.3223 22.3815 15.3145 22.9202C15.3734 22.9317 16.7068 23.6171 16.868 22.2918Z" fill="#E89528"/>
<path d="M15.3464 35.8979C14.7718 33.185 15.2612 30.292 16.398 27.7854C16.1778 27.4765 15.9368 27.0617 15.7584 26.5467C15.6436 26.2155 15.1995 26.1522 15.0068 26.4451C14.9698 26.5013 14.9355 26.5577 14.9045 26.6124C13.4509 29.1827 12.7516 32.304 13.398 35.2079C13.9043 37.4854 15.7416 38.9945 17.9409 39.6415C16.6607 38.7916 15.6923 37.5337 15.3464 35.8979Z" fill="#E8C842"/>
<path d="M19.0437 27.2537C19.2342 25.8924 19.791 24.3925 20.6675 23.1385C20.572 22.7844 20.4969 22.3843 20.4603 21.9394C20.4384 21.674 20.1232 21.5494 19.9261 21.7285C18.7522 22.7942 17.9096 24.1097 17.431 25.59L17.4297 25.5897C17.3544 25.8223 17.2479 26.2076 17.1834 26.5118C17.1839 26.5116 17.1845 26.5116 17.185 26.5114C17.0529 27.132 16.9793 27.7761 16.9697 28.4391C18.0238 28.5707 18.8957 28.3097 19.0437 27.2537Z" fill="#E8C842"/>
</svg>