<svg xmlns:xlink="http://www.w3.org/1999/xlink" xmlns="http://www.w3.org/2000/svg" width="40" height="40" viewBox="0 0 40 40" fill="none">
<path d="M23.9328 8.77736L14.2189 8.99619L14.1348 5.19148C14.1348 4.40219 15.0704 3.39054 15.0704 3.39054C15.319 3.27951 15.5883 3.2223 15.8606 3.22266H22.4574C22.9716 3.22266 23.4647 3.42693 23.8283 3.79053C24.1919 4.15413 24.3962 4.64727 24.3962 5.16148V5.99019L23.9328 8.77736Z" fill="#F74F73"/>
<path d="M24.3961 5.98804C23.372 6.30345 21.7071 6.62333 19.1589 6.62333C16.0554 6.62333 15.2402 4.79345 15.0709 3.39062C14.7289 3.54304 14.4384 3.79127 14.2345 4.1053C14.0306 4.41934 13.922 4.78572 13.9219 5.16015V9.5098H24.3961V5.98804Z" fill="#CC3B5E"/>
<path d="M10.9836 10.3074C10.4128 9.93783 9.76366 9.70655 9.08781 9.6319C8.41196 9.55724 7.72801 9.64128 7.09034 9.87732C6.45266 10.1134 5.87884 10.4949 5.41448 10.9916C4.95013 11.4883 4.60804 12.0865 4.41541 12.7386C4.22279 13.3907 4.18493 14.0787 4.30486 14.748C4.42479 15.4173 4.6992 16.0494 5.10626 16.5941C5.51333 17.1387 6.04184 17.5809 6.64977 17.8855C7.25771 18.19 7.92831 18.3486 8.60827 18.3485H13.7217V11.8512L10.9836 10.3074Z" fill="#87A574"/>
<path d="M12.3668 9.385C12.4039 9.20115 12.4778 9.0267 12.5841 8.87216C12.6903 8.71762 12.8268 8.58618 12.9852 8.48577C13.1436 8.38535 13.3207 8.31802 13.5058 8.28785C13.6909 8.25767 13.8802 8.26527 14.0623 8.31018C16.2719 8.8276 18.5341 9.08694 20.8035 9.083C23.0656 9.09022 25.3155 8.75229 27.4756 8.08088C27.6269 8.03106 27.7875 8.01574 27.9455 8.03605C28.1035 8.05636 28.2549 8.11178 28.3887 8.19824C28.5225 8.28471 28.6352 8.40002 28.7187 8.53574C28.8021 8.67145 28.8541 8.82411 28.8708 8.98253C28.9517 9.84359 29.0454 10.9966 29.0879 12.0939C29.0879 12.0939 28.5291 15.8616 25.1921 15.5963L13.4661 15.6416L12.5367 14.371C12.4714 13.8022 12.1143 12.2937 12.1143 12.2937C12.1116 11.3185 12.196 10.3451 12.3668 9.385V9.385Z" fill="#7AAEED"/>
<path d="M7.73499 16.0478C7.64207 16.0479 7.54938 16.0387 7.45828 16.0204C6.22357 15.7744 5.52946 14.802 5.73075 13.6007C5.78973 13.2482 5.91758 12.9108 6.10698 12.6076C6.29638 12.3045 6.54364 12.0417 6.83462 11.8341C7.12561 11.6265 7.45463 11.4783 7.8029 11.3979C8.15117 11.3175 8.51187 11.3065 8.8644 11.3654C9.74216 11.5124 10.4512 11.9603 10.8605 12.6265C11.3128 13.3625 11.3809 14.2982 11.0577 15.3324C11.0416 15.384 11.0154 15.4319 10.9808 15.4735C10.9461 15.515 10.9036 15.5493 10.8557 15.5743C10.8078 15.5994 10.7554 15.6149 10.7016 15.6197C10.6477 15.6246 10.5934 15.6188 10.5418 15.6026C10.4902 15.5865 10.4423 15.5604 10.4007 15.5257C10.3592 15.491 10.3249 15.4486 10.2998 15.4007C10.2748 15.3527 10.2593 15.3004 10.2545 15.2465C10.2496 15.1926 10.2554 15.1384 10.2716 15.0867C10.5217 14.2867 10.4827 13.5846 10.1589 13.0576C9.87193 12.5905 9.37722 12.2862 8.7284 12.1776C8.23188 12.0945 7.72271 12.2121 7.31287 12.5044C6.90303 12.7967 6.6261 13.2399 6.54299 13.7364C6.41499 14.5011 6.81746 15.0524 7.61934 15.2123C7.98522 15.2862 8.35581 14.9726 8.48851 14.6409C8.55348 14.5114 8.56541 14.3618 8.52178 14.2237C8.47815 14.0857 8.3824 13.97 8.25487 13.9014C8.20917 13.8725 8.16961 13.8349 8.13845 13.7907C8.10729 13.7465 8.08514 13.6966 8.07327 13.6439C8.04928 13.5373 8.06861 13.4256 8.12699 13.3333C8.18536 13.241 8.27802 13.1757 8.38456 13.1517C8.4911 13.1277 8.60281 13.1471 8.6951 13.2054C8.98459 13.3776 9.20114 13.6496 9.30394 13.9703C9.40674 14.291 9.3887 14.6383 9.25322 14.9466C9.02546 15.5166 8.43722 16.0478 7.73499 16.0478V16.0478Z" fill="#526D3A"/>
<path d="M29.0411 14.5918C29.1225 13.9509 29.1235 13.0432 29.0874 12.0938C26.6881 13.5126 23.5969 13.513 23.5969 13.513H14.6977C13.2729 13.513 12.5076 12.8542 12.1137 12.294C12.1087 13.0536 12.1472 13.8129 12.2289 14.5681C12.397 16.0341 13.3818 15.921 13.3818 15.921H25.2937C28.6302 16.1866 29.0411 14.5918 29.0411 14.5918V14.5918Z" fill="#497FCE"/>
<path d="M18.3556 7.94922C18.6063 7.94922 18.8468 8.04882 19.0241 8.22612C19.2014 8.40342 19.301 8.64389 19.301 8.89463V16.0358H17.4102V8.89463C17.4102 8.77048 17.4346 8.64754 17.4821 8.53284C17.5296 8.41813 17.5993 8.31391 17.6871 8.22612C17.7749 8.13833 17.8791 8.0687 17.9938 8.02118C18.1085 7.97367 18.2314 7.94922 18.3556 7.94922V7.94922Z" fill="#4A4A60"/>
<path d="M23.4503 7.94922C23.701 7.94922 23.9415 8.04882 24.1188 8.22612C24.2961 8.40342 24.3957 8.64389 24.3957 8.89463V16.0358H22.5049V8.89463C22.5049 8.77048 22.5293 8.64754 22.5768 8.53284C22.6244 8.41813 22.694 8.31391 22.7818 8.22612C22.8696 8.13833 22.9738 8.0687 23.0885 8.02118C23.2032 7.97367 23.3261 7.94922 23.4503 7.94922V7.94922Z" fill="#4A4A60"/>
<path d="M6.26529 19.5354L4.99749 19.2834C4.06905 19.0988 3.1668 19.7019 2.98224 20.6303L1.6988 27.087C1.51425 28.0155 2.11729 28.9177 3.04573 29.1023L4.31353 29.3543C5.24196 29.5388 6.14422 28.9358 6.32877 28.0073L7.61222 21.5506C7.79677 20.6222 7.19373 19.7199 6.26529 19.5354Z" fill="#4A4A60"/>
<path d="M38.3377 28.6317V26.2048L35.446 22.43L32.262 22.3429C31.8698 22.3291 31.488 22.2131 31.1545 22.0065C30.8209 21.7998 30.5471 21.5096 30.3601 21.1646C29.6821 19.8936 28.9085 18.6761 28.046 17.5223C27.6378 16.989 27.1124 16.5566 26.5105 16.2588C25.9085 15.9609 25.2461 15.8056 24.5744 15.8047H14.0136C13.4114 15.8041 12.815 15.9231 12.2591 16.1549C11.7032 16.3866 11.1989 16.7265 10.7754 17.1547C9.34515 18.5982 8.14334 20.2514 7.21139 22.0572L5.64056 26.8606C5.49772 27.7881 5.44375 28.7271 5.47939 29.6648L7.30562 30.7589H37.2467L38.3377 28.6317Z" fill="#FFB655"/>
<path d="M35.4463 22.4297V24.2757C35.4463 24.7587 35.6323 25.2232 35.9657 25.5727C36.2991 25.9222 36.7544 26.1299 37.2369 26.1526L38.3381 26.2045C38.3381 26.2045 38.6842 22.4297 35.4463 22.4297V22.4297Z" fill="#FFEEDC"/>
<path d="M7.21145 22.0547C7.39072 22.1247 7.56272 22.212 7.72498 22.3155C8.02251 22.5043 8.26175 22.772 8.41603 23.0889C8.57031 23.4057 8.63356 23.7591 8.59874 24.1097L8.50792 25.0405C8.47828 25.3447 8.38399 25.6392 8.23135 25.904C8.07871 26.1689 7.87126 26.3981 7.62287 26.5764C7.37448 26.7546 7.09088 26.8777 6.79106 26.9374C6.49125 26.9972 6.18212 26.9922 5.88439 26.9228C5.80423 26.9042 5.72298 26.8827 5.64062 26.8582C5.64062 26.8582 6.13957 23.8908 7.21145 22.0547V22.0547Z" fill="#F74F73"/>
<path d="M13.3409 18.0273C13.1464 18.135 12.9655 18.2653 12.8018 18.4156C11.9292 19.239 11.2228 20.2223 10.7209 21.312C10.651 21.4602 10.6197 21.6236 10.6298 21.7871C10.6399 21.9506 10.6912 22.1089 10.7789 22.2473C10.8666 22.3856 10.9878 22.4996 11.1313 22.5786C11.2747 22.6576 11.4359 22.6991 11.5997 22.6992H12.4976C12.7211 22.6992 12.9355 22.6104 13.0936 22.4524C13.2516 22.2943 13.3405 22.0799 13.3405 21.8564L13.3409 18.0273Z" fill="#4A4A60"/>
<path d="M19.0347 17.6641H15.8734C15.452 17.6641 15.1104 18.0057 15.1104 18.4271V21.9369C15.1104 22.3583 15.452 22.6999 15.8734 22.6999H19.0347C19.4561 22.6999 19.7978 22.3583 19.7978 21.9369V18.4271C19.7978 18.0057 19.4561 17.6641 19.0347 17.6641Z" fill="#4A4A60"/>
<path d="M27.6318 21.3783C27.2448 20.3613 26.7351 19.3952 26.1142 18.5016C25.9269 18.2419 25.6805 18.0304 25.3954 17.8848C25.1102 17.7392 24.7945 17.6635 24.4743 17.6641H22.4049C22.1825 17.6641 21.9693 17.7524 21.812 17.9096C21.6548 18.0668 21.5664 18.2801 21.5664 18.5024V21.8615C21.5664 22.0839 21.6547 22.2971 21.812 22.4544C21.9692 22.6116 22.1825 22.6999 22.4049 22.6999H26.7252C26.8831 22.7002 27.0387 22.6619 27.1785 22.5885C27.3182 22.515 27.4379 22.4085 27.5273 22.2783C27.6166 22.1481 27.6728 21.9981 27.691 21.8413C27.7092 21.6844 27.6889 21.5255 27.6318 21.3783Z" fill="#4A4A60"/>
<path d="M16.3053 25.0774H15.11C15.0008 25.0774 14.8961 25.0341 14.8188 24.9568C14.7416 24.8796 14.6982 24.7749 14.6982 24.6657C14.6982 24.5565 14.7416 24.4517 14.8188 24.3745C14.8961 24.2973 15.0008 24.2539 15.11 24.2539H16.3053C16.4145 24.2539 16.5192 24.2973 16.5965 24.3745C16.6737 24.4517 16.7171 24.5565 16.7171 24.6657C16.7171 24.7749 16.6737 24.8796 16.5965 24.9568C16.5192 25.0341 16.4145 25.0774 16.3053 25.0774Z" fill="#E87B31"/>
<path d="M22.7615 25.0774H21.5661C21.4569 25.0774 21.3521 25.0341 21.2749 24.9568C21.1977 24.8796 21.1543 24.7749 21.1543 24.6657C21.1543 24.5565 21.1977 24.4517 21.2749 24.3745C21.3521 24.2973 21.4569 24.2539 21.5661 24.2539H22.7615C22.8707 24.2539 22.9754 24.2973 23.0526 24.3745C23.1299 24.4517 23.1732 24.5565 23.1732 24.6657C23.1732 24.7749 23.1299 24.8796 23.0526 24.9568C22.9754 25.0341 22.8707 25.0774 22.7615 25.0774V25.0774Z" fill="#E87B31"/>
<path d="M36.3698 31.868C36.8918 31.8679 37.3925 31.6605 37.7616 31.2914C38.1307 30.9222 38.3381 30.4215 38.3381 29.8995V28.6289C37.3812 29.569 36.0958 29.6623 36.0958 29.6623H5.48047C5.48482 29.7762 5.48965 29.8903 5.49659 30.0054C5.52505 30.5081 5.74446 30.9809 6.10996 31.3272C6.47546 31.6735 6.95944 31.8671 7.46294 31.8684L36.3698 31.868Z" fill="#E87B31"/>
<path d="M12.7813 36.7794C15.4646 36.7794 17.6398 34.6042 17.6398 31.921C17.6398 29.2377 15.4646 27.0625 12.7813 27.0625C10.0981 27.0625 7.92285 29.2377 7.92285 31.921C7.92285 34.6042 10.0981 36.7794 12.7813 36.7794Z" fill="#4A4A60"/>
<path d="M12.7817 34.1786C14.0284 34.1786 15.039 33.168 15.039 31.9214C15.039 30.6747 14.0284 29.6641 12.7817 29.6641C11.535 29.6641 10.5244 30.6747 10.5244 31.9214C10.5244 33.168 11.535 34.1786 12.7817 34.1786Z" fill="white"/>
<path d="M30.8155 36.7794C33.4988 36.7794 35.674 34.6042 35.674 31.921C35.674 29.2377 33.4988 27.0625 30.8155 27.0625C28.1322 27.0625 25.957 29.2377 25.957 31.921C25.957 34.6042 28.1322 36.7794 30.8155 36.7794Z" fill="#4A4A60"/>
<path d="M30.8149 34.1786C32.0616 34.1786 33.0722 33.168 33.0722 31.9214C33.0722 30.6747 32.0616 29.6641 30.8149 29.6641C29.5682 29.6641 28.5576 30.6747 28.5576 31.9214C28.5576 33.168 29.5682 34.1786 30.8149 34.1786Z" fill="white"/>
</svg>