<svg xmlns:xlink="http://www.w3.org/1999/xlink" xmlns="http://www.w3.org/2000/svg" width="40" height="40" viewBox="0 0 40 40" fill="none">
<path d="M11.25 13.7511V12.4999C11.25 6.24396 19.9995 7.49514 19.9995 4.36719C19.9995 7.49514 28.7491 6.24396 28.7491 12.4999V13.7511H11.25Z" fill="#FFCA28"/>
<path d="M20 4.36719C20 5.0143 19.6126 5.46915 19.0186 5.84665C20.4796 8.00059 27.4997 7.81656 27.4997 13.1244V13.7506H28.7496V12.4994C28.7496 6.24346 20 7.49514 20 4.36719V4.36719Z" fill="#ECB200"/>
<path d="M11.25 12.5V13.75H28.7493V12.5H11.25Z" fill="#ECB200"/>
<path d="M28.75 31.875V32.5C28.75 38.1249 20.0007 35.0087 20.0005 38.1337C20.0003 35.0087 11.251 38.1249 11.251 32.5V31.875H28.75Z" fill="#FFCA28"/>
<path d="M27.4533 31.875C26.8125 36.5717 18.949 33.9452 18.7598 36.7736C19.5035 37.0128 19.9999 37.3965 20 38.1334C20.0001 35.0085 28.7496 38.1249 28.7496 32.5V31.875H27.4533Z" fill="#ECB200"/>
<path d="M11.25 15H28.7493V30.6247H11.25V15Z" fill="#FFCA28"/>
<path d="M11.25 15V16.25H27.4994V29.3748H28.7493V15H11.25Z" fill="#ECB200"/>
<path d="M11.25 29.375V30.625H28.7493V29.375H11.25Z" fill="#ECB200"/>
<path d="M11.25 31.875V32.5C11.25 32.7235 11.2686 32.9282 11.2952 33.125H28.7042C28.7307 32.9281 28.7493 32.7235 28.7493 32.5V31.875H11.25Z" fill="#ECB200"/>
<path d="M16.875 30.6248V22.4999C16.8722 19.6518 19.9999 18.125 19.9999 18.125C19.9999 18.125 23.1275 19.6518 23.1248 22.4999V30.6248H16.875Z" fill="#E4EFF8"/>
<path d="M19.9999 18.125C19.9999 18.125 16.8722 19.6518 16.875 22.4999V30.6248H18.125V23.1249C18.1223 20.51 20.6582 19.071 21.0899 18.8428C20.4961 18.3749 19.9999 18.125 19.9999 18.125Z" fill="#C4DCF0"/>
<path d="M28.7499 18.125C28.7499 18.125 25.6222 19.6518 25.625 22.4999V30.6248H28.7499V18.125Z" fill="#E4EFF8"/>
<path d="M28.7499 18.125C28.7499 18.125 25.6222 19.6518 25.625 22.4999V30.6248H26.875V23.1249C26.8733 21.4643 27.8931 20.282 28.7499 19.5788V18.125Z" fill="#C4DCF0"/>
<path d="M11.25 18.125C11.25 18.125 14.3777 19.6518 14.3749 22.4999V30.6248H11.25V18.125Z" fill="#E4EFF8"/>
<path d="M11.25 18.125V30.6248H12.5V18.9783C11.8379 18.426 11.25 18.125 11.25 18.125V18.125Z" fill="#C4DCF0"/>
<path d="M11.25 13.125H28.7493C29.0956 13.125 29.3743 13.4037 29.3743 13.75V15C29.3743 15.3462 29.0956 15.625 28.7493 15.625H11.25C10.9037 15.625 10.625 15.3462 10.625 15V13.75C10.625 13.4037 10.9037 13.125 11.25 13.125Z" fill="#FFCA28"/>
<path d="M16.875 29.375V30.625H23.1248V29.375H16.875Z" fill="#C4DCF0"/>
<path d="M11.25 29.375V30.625H14.3749V29.375H11.25Z" fill="#C4DCF0"/>
<path d="M25.625 29.375V30.625H28.7499V29.375H25.625Z" fill="#C4DCF0"/>
<path d="M11.25 30H28.7493C29.0956 30 29.3743 30.2787 29.3743 30.625V31.875C29.3743 32.2212 29.0956 32.5 28.7493 32.5H11.25C10.9037 32.5 10.625 32.2212 10.625 31.875V30.625C10.625 30.2787 10.9037 30 11.25 30Z" fill="#FFCA28"/>
<path d="M20.0024 1.25C18.9602 1.25 18.125 2.08467 18.125 3.12619C18.125 4.16433 18.961 4.99994 20.0024 4.99994C21.0437 4.99994 21.8749 4.16433 21.8749 3.12619C21.8749 2.08467 21.0445 1.25 20.0024 1.25ZM20.0024 2.49998C20.3318 2.49998 20.6249 2.75005 20.6249 3.12619C20.6249 3.49838 20.331 3.74996 20.0024 3.74996C19.6737 3.74996 19.375 3.49838 19.375 3.12619C19.375 2.75005 19.6729 2.49998 20.0024 2.49998Z" fill="#FFCA28"/>
<path d="M20.0029 1.25C19.8957 1.25 19.7926 1.26474 19.6904 1.28174C20.5804 1.42989 21.2504 2.19186 21.2504 3.12619C21.2504 4.05749 20.5799 4.81992 19.6904 4.9682C19.7926 4.98521 19.8957 4.99994 20.0029 4.99994C21.0443 4.99994 21.8754 4.16433 21.8754 3.12619C21.8754 2.08467 21.0451 1.25 20.0029 1.25V1.25Z" fill="#ECB200"/>
<path d="M4.99994 30.6289C4.56444 32.1544 3.38215 33.5763 1.875 34.3524C3.50682 35.1645 4.56592 36.707 4.99994 38.1245C5.40984 36.8032 6.31002 35.2473 8.1249 34.3767C6.44267 33.5618 5.39682 32.0404 4.99994 30.6289V30.6289Z" fill="#FFCA28"/>
<path d="M4.99998 30.6289C4.84456 31.1736 4.5906 31.7027 4.26392 32.1963C4.63182 33.0671 5.18928 33.8626 6.24992 34.3764C5.13528 34.9111 4.60367 35.7045 4.2627 36.5431C4.59162 37.0583 4.83945 37.5996 4.99998 38.1239C5.40988 36.8027 6.30997 35.247 8.12485 34.3764C6.44262 33.5616 5.39687 32.0404 4.99998 30.6289V30.6289Z" fill="#FFCA28"/>
<path d="M5.0003 30C4.7206 30.0006 4.4751 30.1893 4.39973 30.459C4.04862 31.7077 3.10212 33.0873 1.60322 33.8134C1.13226 34.0409 1.13226 34.7114 1.60322 34.9389C3.22885 35.7187 4.03443 37.1183 4.40462 38.3116C4.49603 38.6051 4.74724 38.7516 5.0003 38.7511C5.2534 38.7516 5.50456 38.6051 5.59598 38.3116C5.96619 37.1183 6.77177 35.7187 8.3974 34.9389C8.86836 34.7114 8.86836 34.0409 8.3974 33.8134C6.89849 33.0873 5.95195 31.7077 5.60087 30.459C5.52551 30.1893 5.28004 30.0006 5.0003 30Z" fill="#FFCA28"/>
<path d="M4.40031 30.459C4.39322 30.4828 4.38377 30.5071 4.37598 30.531C4.74262 31.7605 5.67779 33.1012 7.14809 33.8134C7.61904 34.0409 7.61904 34.7114 7.14809 34.9389C5.55951 35.701 4.75734 37.0537 4.37598 38.2286C4.38543 38.256 4.39724 38.2844 4.40527 38.3116C4.49668 38.6051 4.74789 38.7516 5.00095 38.7511C5.25405 38.7516 5.50521 38.6051 5.59662 38.3116C5.96684 37.1183 6.77242 35.7188 8.39805 34.9389C8.86901 34.7114 8.86901 34.0409 8.39805 33.8134C6.89914 33.0873 5.9526 31.7077 5.60151 30.459C5.52616 30.1893 5.28069 30.0006 5.0009 30C4.72115 30.0006 4.47568 30.1893 4.40031 30.459V30.459Z" fill="#ECB200"/>
<path d="M34.998 30.6289C34.5625 32.1544 33.3802 33.5763 31.873 34.3524C33.5049 35.1645 34.564 36.707 34.998 38.1245C35.4079 36.8032 36.3081 35.2473 38.1229 34.3767C36.4407 33.5618 35.3949 32.0404 34.998 30.6289V30.6289Z" fill="#FFCA28"/>
<path d="M34.998 30.6289C34.8426 31.1736 34.5886 31.7027 34.262 32.1963C34.6299 33.0671 35.1873 33.8626 36.248 34.3764C35.1333 34.9111 34.6017 35.7045 34.2607 36.5431C34.5897 37.0583 34.8375 37.5996 34.998 38.1239C35.4079 36.8027 36.308 35.247 38.1229 34.3764C36.4407 33.5616 35.3949 32.0404 34.998 30.6289V30.6289Z" fill="#FFCA28"/>
<path d="M34.9993 30C34.7196 30.0006 34.4741 30.1893 34.3988 30.459C34.0476 31.7077 33.1011 33.0873 31.6022 33.8134C31.1313 34.0409 31.1313 34.7114 31.6022 34.9389C33.2279 35.7187 34.0334 37.1183 34.4036 38.3116C34.4951 38.6051 34.7463 38.7516 34.9993 38.7511C35.2524 38.7516 35.5036 38.6051 35.595 38.3116C35.9652 37.1183 36.7708 35.7187 38.3964 34.9389C38.8674 34.7114 38.8674 34.0409 38.3964 33.8134C36.8975 33.0873 35.951 31.7077 35.5999 30.459C35.5245 30.1893 35.2791 30.0006 34.9993 30Z" fill="#FFCA28"/>
<path d="M34.3993 30.459C34.3922 30.4828 34.3828 30.5071 34.375 30.531C34.7416 31.7605 35.6768 33.1012 37.1471 33.8134C37.6181 34.0409 37.6181 34.7114 37.1471 34.9389C35.5585 35.701 34.7564 37.0537 34.375 38.2286C34.3844 38.256 34.3963 38.2844 34.4043 38.3116C34.4957 38.6051 34.7469 38.7516 35 38.7511C35.2531 38.7516 35.5042 38.6051 35.5956 38.3116C35.9659 37.1183 36.7714 35.7188 38.3971 34.9389C38.868 34.7114 38.868 34.0409 38.3971 33.8134C36.8982 33.0873 35.9516 31.7077 35.6005 30.459C35.5252 30.1893 35.2797 30.0006 34.9999 30C34.7202 30.0006 34.4747 30.1893 34.3993 30.459V30.459Z" fill="#ECB200"/>
<path d="M35.9365 1.875C35.6316 3.01987 34.804 4.08695 33.749 4.66942C34.8913 5.27885 35.6327 6.43648 35.9365 7.50022C36.2234 6.50867 36.8535 5.34098 38.124 4.68761C36.9464 4.0761 36.2143 2.93427 35.9365 1.875V1.875Z" fill="#FFCA28"/>
<path d="M35.3342 1.71142C35.0968 2.61666 34.4509 3.61467 33.4617 4.12836C33.0046 4.37036 33.0194 5.00458 33.4665 5.23674C34.5286 5.78303 35.0835 6.7844 35.3389 7.66712C35.4266 7.96556 35.6819 8.1154 35.9371 8.11633C36.1922 8.11571 36.4476 7.96555 36.5352 7.66712C36.7906 6.7844 37.3455 5.78303 38.4077 5.23674C38.8552 5.00459 38.87 4.37036 38.4124 4.12836C37.4233 3.61467 36.7773 2.61666 36.5399 1.71142C36.4683 1.43495 36.2176 1.25167 35.9371 1.25C35.6565 1.25187 35.4058 1.43496 35.3342 1.71142Z" fill="#FFCA28"/>
<path d="M35.3342 1.71142C35.3271 1.73481 35.3176 1.75869 35.3105 1.78221C35.5623 2.66843 36.1974 3.6279 37.1611 4.12837C37.6186 4.37036 37.6049 5.0046 37.1563 5.23674C36.1225 5.76846 35.575 6.73018 35.3107 7.5951C35.3178 7.61882 35.3296 7.64358 35.3376 7.66712C35.4253 7.96557 35.6806 8.1154 35.9358 8.11634C36.1909 8.11571 36.4463 7.96556 36.5339 7.66712C36.7893 6.7844 37.3442 5.78304 38.4064 5.23675C38.8539 5.00459 38.8676 4.37036 38.4111 4.12837C37.422 3.61468 36.776 2.61666 36.5386 1.71142C36.467 1.43536 36.217 1.2522 35.9364 1.25C35.6557 1.25236 35.4056 1.43536 35.3342 1.71142V1.71142Z" fill="#ECB200"/>
<path d="M4.06246 1.875C3.75761 3.01987 2.92999 4.08695 1.875 4.66942C3.01725 5.27885 3.75865 6.43648 4.06246 7.50022C4.34941 6.50867 4.97951 5.34098 6.24995 4.68761C5.07239 4.0761 4.34027 2.93427 4.06246 1.875V1.875Z" fill="#FFCA28"/>
<path d="M3.46021 1.71142C3.22281 2.61666 2.57685 3.61467 1.58771 4.12836C1.13062 4.37036 1.14538 5.00458 1.59243 5.23674C2.65458 5.78303 3.20947 6.7844 3.46491 7.66712C3.55254 7.96556 3.80789 8.1154 4.06304 8.11633C4.31815 8.11571 4.57359 7.96555 4.66115 7.66712C4.91659 6.7844 5.4715 5.78303 6.53365 5.23674C6.98115 5.00459 6.99594 4.37036 6.53838 4.12836C5.54926 3.61467 4.90329 2.61666 4.66588 1.71142C4.59431 1.43495 4.34357 1.25167 4.06304 1.25C3.78249 1.25187 3.5318 1.43496 3.46021 1.71142V1.71142Z" fill="#FFCA28"/>
<path d="M3.46015 1.71142C3.45306 1.73481 3.44361 1.75869 3.43652 1.78221C3.68828 2.66843 4.3234 3.6279 5.28703 4.12837C5.7446 4.37036 5.73087 5.0046 5.28231 5.23674C4.24852 5.76846 3.70101 6.73017 3.43669 7.5951C3.44378 7.61882 3.45559 7.64357 3.46362 7.66712C3.55125 7.96557 3.8066 8.1154 4.06175 8.11634C4.31686 8.11571 4.5723 7.96556 4.65986 7.66712C4.9153 6.7844 5.47021 5.78304 6.53236 5.23675C6.97987 5.00459 6.99359 4.37036 6.53709 4.12837C5.54797 3.61468 4.90201 2.61666 4.66459 1.71142C4.59302 1.43536 4.34301 1.2522 4.06237 1.25C3.7817 1.25236 3.53162 1.43536 3.46015 1.71142V1.71142Z" fill="#ECB200"/>
<path d="M5.62502 17.5C5.36373 18.5177 4.65431 19.4662 3.75 19.9839C4.72912 20.5257 5.3646 21.5547 5.62502 22.5002C5.87099 21.6188 6.41109 20.5809 7.50007 20.0001C6.49069 19.4565 5.86315 18.4416 5.62502 17.5V17.5Z" fill="#FFCA28"/>
<path d="M5.62586 16.875C5.3422 16.8754 5.09068 17.0621 5.0204 17.3413C4.8201 18.1333 4.27409 19.0037 3.45553 19.4445C3.01482 19.68 3.01482 20.3126 3.45553 20.548C4.34732 21.0237 4.80767 21.8891 5.02407 22.6647C5.11005 22.9682 5.36813 23.12 5.62586 23.12C5.88357 23.12 6.14177 22.9682 6.22764 22.6647C6.44401 21.8891 6.90438 21.0237 7.7962 20.548C8.23688 20.3126 8.23688 19.68 7.7962 19.4445C6.97758 19.0037 6.4316 18.1333 6.2313 17.3413C6.16091 17.0621 5.90951 16.8754 5.62586 16.875V16.875Z" fill="#E4EFF8"/>
<path d="M5.02085 17.3413C5.01613 17.3595 5.00668 17.3781 5.00195 17.3962C5.21313 18.1734 5.74739 19.0138 6.5473 19.4445C6.98797 19.68 6.98797 20.3126 6.5473 20.548C5.67993 21.0106 5.22553 21.8412 5.00195 22.6C5.00904 22.6213 5.01849 22.6435 5.02558 22.6647C5.11156 22.9682 5.36962 23.1201 5.62735 23.12C5.88506 23.1201 6.14326 22.9682 6.22912 22.6647C6.44549 21.8891 6.90587 21.0237 7.79768 20.548C8.23836 20.3126 8.23836 19.68 7.79768 19.4445C6.97907 19.0037 6.43311 18.1333 6.23281 17.3413C6.16241 17.0621 5.91099 16.8754 5.62683 16.875C5.34264 16.8754 5.09112 17.0621 5.02085 17.3413V17.3413Z" fill="#C4DCF0"/>
<path d="M34.375 17.5C34.1137 18.5177 33.4043 19.4662 32.5 19.9839C33.4791 20.5257 34.1146 21.5547 34.375 22.5002C34.621 21.6188 35.1611 20.5809 36.2501 20.0001C35.2407 19.4565 34.6131 18.4416 34.375 17.5V17.5Z" fill="#FFCA28"/>
<path d="M34.3759 16.875C34.0922 16.8754 33.8407 17.0621 33.7704 17.3413C33.5701 18.1333 33.0241 19.0037 32.2055 19.4445C31.7648 19.68 31.7648 20.3126 32.2055 20.548C33.0973 21.0237 33.5577 21.8891 33.7741 22.6647C33.8601 22.9682 34.1181 23.12 34.3759 23.12C34.6336 23.12 34.8918 22.9682 34.9776 22.6647C35.194 21.8891 35.6544 21.0237 36.5462 20.548C36.9869 20.3126 36.9869 19.68 36.5462 19.4445C35.7276 19.0037 35.1816 18.1333 34.9813 17.3413C34.9109 17.0621 34.6595 16.8754 34.3759 16.875Z" fill="#E4EFF8"/>
<path d="M33.7699 17.3413C33.7651 17.3595 33.7557 17.3781 33.751 17.3962C33.9622 18.1734 34.4964 19.0138 35.2963 19.4445C35.737 19.68 35.737 20.3126 35.2963 20.548C34.429 21.0106 33.9746 21.8412 33.751 22.6C33.7581 22.6213 33.7675 22.6435 33.7746 22.6647C33.8606 22.9682 34.1186 23.1201 34.3764 23.12C34.6341 23.1201 34.8923 22.9682 34.9781 22.6647C35.1945 21.8891 35.6549 21.0237 36.5467 20.548C36.9874 20.3126 36.9874 19.68 36.5467 19.4445C35.7281 19.0037 35.1821 18.1333 34.9818 17.3413C34.9114 17.0621 34.66 16.8754 34.3758 16.875C34.0917 16.8754 33.8401 17.0621 33.7699 17.3413V17.3413Z" fill="#C4DCF0"/>
<path d="M28.1243 1.87514C28.1243 1.04162 26.874 1.04162 26.874 1.87514V2.50013C26.874 3.33366 28.1243 3.33366 28.1243 2.50013V1.87514Z" fill="#E4EFF8"/>
<path d="M28.1243 5.00014C28.1243 4.16662 26.874 4.16662 26.874 5.00014V5.62513C26.874 6.45866 28.1243 6.45866 28.1243 5.62513V5.00014Z" fill="#E4EFF8"/>
<path d="M29.3741 4.37529C30.2076 4.37529 30.2076 3.125 29.3741 3.125H28.7492C27.9156 3.125 27.9156 4.37529 28.7492 4.37529H29.3741Z" fill="#E4EFF8"/>
<path d="M26.2491 4.37529C27.0826 4.37529 27.0826 3.125 26.2491 3.125H25.6242C24.7906 3.125 24.7906 4.37529 25.6242 4.37529H26.2491Z" fill="#E4EFF8"/>
<path d="M13.1253 1.87514C13.1253 1.04162 11.875 1.04162 11.875 1.87514V2.50013C11.875 3.33366 13.1253 3.33366 13.1253 2.50013V1.87514Z" fill="#E4EFF8"/>
<path d="M13.1253 5.00014C13.1253 4.16662 11.875 4.16662 11.875 5.00014V5.62513C11.875 6.45866 13.1253 6.45866 13.1253 5.62513V5.00014Z" fill="#E4EFF8"/>
<path d="M14.3751 4.37529C15.2086 4.37529 15.2086 3.125 14.3751 3.125H13.7501C12.9166 3.125 12.9166 4.37529 13.7501 4.37529H14.3751Z" fill="#E4EFF8"/>
<path d="M11.2501 4.37529C12.0836 4.37529 12.0836 3.125 11.2501 3.125H10.6251C9.79162 3.125 9.79162 4.37529 10.6251 4.37529H11.2501Z" fill="#E4EFF8"/>
</svg>