<svg xmlns:xlink="http://www.w3.org/1999/xlink" xmlns="http://www.w3.org/2000/svg" width="40" height="40" viewBox="0 0 40 40" fill="none">
<g clip-path="url(#clip0_1540_13537)">
<path d="M16.375 16.9805L20.0734 20.6789L13.1388 27.6135L9.44038 23.9151L16.375 16.9805Z" fill="#FFD18D"/>
<path d="M17.6045 21.1306L19.0772 22.6033L20.002 21.6785L18.5293 20.2059C18.1048 19.7814 17.5292 19.543 16.929 19.543H15.08C14.8287 19.543 14.6016 19.6927 14.5026 19.9237C14.3279 20.3313 14.6192 20.7868 15.0626 20.7991L16.929 20.8507C17.1841 20.8508 17.4241 20.9502 17.6045 21.1306Z" fill="#FBBD80"/>
<path d="M31.2559 22.9413L31.5047 22.1952C31.9492 20.8618 32.6981 19.6501 33.692 18.6562L34.5455 17.8027L29.1097 9.375L26.8073 11.6774C25.7962 12.6885 24.4816 13.3403 23.0648 13.533L21.0177 13.8114C20.0259 13.9463 19.1057 14.4026 18.398 15.1103L16.4492 17.0591L27.4695 28.0794L29.0685 26.4804C30.0625 25.4864 30.8114 24.2748 31.2559 22.9413V22.9413Z" fill="#F4AA73"/>
<path d="M20.6572 14.5721L22.703 14.2938C24.4034 14.0625 25.9812 13.2802 27.1948 12.0667C27.6402 11.6213 28.3623 11.6213 28.8077 12.0667L34.5449 17.804L36.0409 16.308L28.5727 8.83984L26.2703 11.1422C25.2592 12.1533 23.9445 12.8052 22.5277 12.9978L20.4806 13.2762C19.4888 13.4112 18.5687 13.8674 17.8609 14.5752L15.9121 16.5239L16.8369 17.4487L18.7854 15.5002C19.2911 14.9945 19.9485 14.6685 20.6572 14.5721V14.5721Z" fill="#E29A6C"/>
<path d="M19.703 19.3867L11.8288 27.261L11.332 28.9938C11.9003 29.7307 12.9627 29.7811 13.5987 29.1452L13.4659 31.1275C13.5062 31.1802 13.5505 31.2308 13.5987 31.279C14.1879 31.8682 15.1432 31.8682 15.7324 31.279L15.5996 33.2613C15.6399 33.314 15.6842 33.3645 15.7325 33.4127C16.3217 34.002 17.277 34.002 17.8663 33.4127L18.8621 32.4169L20.0285 33.5833L26.9641 26.6477L19.703 19.3867Z" fill="#F4AA73"/>
<path d="M20.3209 20.0068L19.3962 19.082L11.5218 26.9564C10.9903 27.4879 10.8609 28.3436 11.3002 28.9535C11.3107 28.9682 11.321 28.9817 11.3319 28.9958L20.3209 20.0068Z" fill="#E29A6C"/>
<path d="M18.7557 24.9142C18.5003 24.6588 18.0863 24.6588 17.8309 24.9142L13.6556 29.0895C13.1117 29.6334 12.9889 30.5169 13.4657 31.1289L18.7557 25.8389C19.011 25.5837 19.011 25.1696 18.7557 24.9142Z" fill="#E29A6C"/>
<path d="M20.8894 27.047C20.6341 26.7916 20.2201 26.7916 19.9647 27.047L15.7894 31.2223C15.2455 31.7662 15.1226 32.6497 15.5994 33.2617L20.8894 27.9717C21.1448 27.7165 21.1448 27.3024 20.8894 27.047Z" fill="#E29A6C"/>
<path d="M24.2675 21.6764L12.9231 10.332L4.06543 15.5246L6.80402 18.2632C7.79777 19.257 8.54652 20.4684 8.99098 21.8018L9.23965 22.5479C9.6841 23.8812 10.4329 25.0927 11.4266 26.0865L14.6655 19.5427H16.9287C17.529 19.5427 18.1046 19.7811 18.529 20.2055L21.0668 22.7433C21.9506 23.6271 23.3836 23.6271 24.2674 22.7433C24.562 22.4486 24.5621 21.971 24.2675 21.6764Z" fill="#FFD18D"/>
<path d="M21.2662 32.5432L21.0672 32.3443C20.478 31.755 19.5227 31.755 18.9334 32.3443C18.8852 32.3925 18.841 32.4431 18.8008 32.4957L19.5326 34.0765L21.1147 34.8098C21.1674 34.7695 21.218 34.7252 21.2662 34.6771C21.8554 34.0878 21.8554 33.1325 21.2662 32.5432V32.5432Z" fill="#FFD18D"/>
<path d="M23.996 31.0064L23.201 30.2114C22.6118 29.6222 21.6564 29.6222 21.0672 30.2114C21.0191 30.2596 20.9748 30.3102 20.9346 30.3629L21.9803 32.3127L23.8443 33.2725C23.897 33.2322 23.9478 33.1883 23.996 33.1401C24.5852 32.551 24.5852 31.5957 23.996 31.0064Z" fill="#FFD18D"/>
<path d="M26.4016 29.1455L25.3348 28.0786C24.7455 27.4894 23.7902 27.4894 23.201 28.0786C23.1529 28.1268 23.1087 28.1774 23.0684 28.23L24.3643 30.3708L26.2499 31.4117C26.3026 31.3714 26.3534 31.3275 26.4016 31.2793C26.9909 30.69 26.9909 29.7347 26.4016 29.1455V29.1455Z" fill="#FFD18D"/>
<path d="M30.6695 5.53133L27.7891 8.4118L36.3952 17.0179C36.6898 17.3125 37.1674 17.3125 37.462 17.0179L39.8091 14.6709C40.0645 14.4155 40.0645 14.0015 39.8091 13.7461L31.5943 5.53133C31.3389 5.27602 30.9249 5.27602 30.6695 5.53133Z" fill="#ECEAEC"/>
<path d="M29.7089 7.41764L31.5936 5.53295L31.1311 5.07045C30.8757 4.81506 30.4617 4.81506 30.2063 5.07045L27.468 7.80873C27.1734 8.10334 27.1734 8.58107 27.468 8.87568L36.0031 17.4108C36.2977 17.7054 36.7754 17.7054 37.07 17.4108L37.4612 17.0195L29.7089 9.26717C29.1982 8.75639 29.1982 7.92834 29.7089 7.41764V7.41764Z" fill="#DBD8DB"/>
<path d="M12.3896 26.088L11.8559 25.5543C11.006 24.7045 10.3657 23.6684 9.98563 22.5282L9.73649 21.7808C9.22789 20.255 8.37102 18.8685 7.23367 17.7312C6.76211 17.2596 6.76211 16.495 7.23367 16.0234L12.9232 10.3339L11.0385 8.44922L3.57031 15.9174L6.30914 18.6562C7.30289 19.65 8.05156 20.8614 8.49586 22.1946L8.74453 22.9407C9.18883 24.2739 9.9375 25.4853 10.9313 26.4791L11.465 27.0128L12.3896 26.088Z" fill="#FBBD80"/>
<path d="M12.5317 7.80732L10.2558 5.53139C10.0004 5.276 9.58639 5.276 9.331 5.53139L1.04506 13.8173C0.789668 14.0727 0.789668 14.4867 1.04506 14.7421L3.32092 17.0179C3.61553 17.3126 4.09326 17.3126 4.38787 17.0179L12.5317 8.87412C12.8263 8.57959 12.8263 8.10193 12.5317 7.80732V7.80732Z" fill="#ECEAEC"/>
<path d="M2.5035 15.1348C1.99279 14.6241 1.99279 13.7961 2.5035 13.2853L10.256 5.53279L9.79365 5.07045C9.53826 4.81506 9.12428 4.81506 8.86889 5.07045L0.191543 13.7476C-0.0638477 14.003 -0.0638477 14.417 0.191543 14.6724L2.92982 17.4107C3.22443 17.7053 3.70217 17.7053 3.99678 17.4107L4.38803 17.0194L2.5035 15.1348Z" fill="#DBD8DB"/>
<path d="M23.0683 28.2305C22.617 28.822 22.6604 29.6723 23.201 30.2129L24.2679 31.2798C24.8085 31.8204 25.6585 31.8635 26.25 31.4123L23.0683 28.2305Z" fill="#FBBD80"/>
<path d="M23.8443 33.273L20.9345 30.3633C20.4833 30.9548 20.5266 31.8051 21.0672 32.3456L21.8622 33.1406C22.4028 33.6812 23.2528 33.7243 23.8443 33.273V33.273Z" fill="#FBBD80"/>
<path d="M21.1146 34.8138L18.8008 32.5C18.3496 33.0915 18.3927 33.9416 18.9332 34.4821L19.1322 34.6811C19.6728 35.2216 20.5232 35.265 21.1146 34.8138Z" fill="#FBBD80"/>
<path d="M28.5354 27.0127L27.4686 25.9458C26.8793 25.3566 25.924 25.3566 25.3348 25.9458C25.2867 25.9939 25.2425 26.0446 25.2021 26.0972L26.4981 28.238L28.3837 29.2789C28.4364 29.2386 28.4872 29.1946 28.5354 29.1464C29.1246 28.5572 29.1246 27.6019 28.5354 27.0127V27.0127Z" fill="#FFD18D"/>
<path d="M25.202 26.0977C24.7508 26.6891 24.7942 27.5395 25.3348 28.0801L26.4017 29.147C26.9423 29.6876 27.7923 29.7307 28.3838 29.2795L25.202 26.0977Z" fill="#FBBD80"/>
</g>
<defs>
<clipPath id="clip0_1540_13537">
<rect width="40" height="40" fill="white"/>
</clipPath>
</defs>
</svg>