<svg xmlns:xlink="http://www.w3.org/1999/xlink" xmlns="http://www.w3.org/2000/svg" width="40" height="40" viewBox="0 0 40 40" fill="none">
<path d="M20.417 5.55738C20.1781 5.55738 19.9893 5.36293 19.9893 5.1296V3.71293C19.9893 3.47405 20.1837 3.28516 20.417 3.28516C20.6504 3.28516 20.8448 3.4796 20.8448 3.71293V5.1296C20.8448 5.36293 20.6559 5.55738 20.417 5.55738Z" fill="#E6E6E6"/>
<path d="M20.417 9.0691C20.1781 9.0691 19.9893 8.87465 19.9893 8.64132V7.22465C19.9893 6.98576 20.1837 6.79688 20.417 6.79688C20.6504 6.79688 20.8448 6.99132 20.8448 7.22465V8.64132C20.8448 8.87465 20.6559 9.0691 20.417 9.0691Z" fill="#E6E6E6"/>
<path d="M22.8786 6.60556H21.462C21.2231 6.60556 21.0342 6.41111 21.0342 6.17778C21.0342 5.94444 21.2286 5.75 21.462 5.75H22.8786C23.1175 5.75 23.3064 5.94444 23.3064 6.17778C23.3064 6.41111 23.1175 6.60556 22.8786 6.60556Z" fill="#E6E6E6"/>
<path d="M19.3728 6.60556H17.9561C17.7172 6.60556 17.5283 6.41111 17.5283 6.17778C17.5283 5.94444 17.7228 5.75 17.9561 5.75H19.3728C19.6117 5.75 19.8005 5.94444 19.8005 6.17778C19.8005 6.41111 19.6061 6.60556 19.3728 6.60556Z" fill="#E6E6E6"/>
<path d="M31.8565 8.01832C31.6176 8.01832 31.4287 7.82387 31.4287 7.59054V6.17387C31.4287 5.93498 31.6232 5.74609 31.8565 5.74609C32.0898 5.74609 32.2843 5.94054 32.2843 6.17387V7.59054C32.2898 7.82943 32.0954 8.01832 31.8565 8.01832Z" fill="#E6E6E6"/>
<path d="M31.8565 11.53C31.6176 11.53 31.4287 11.3356 31.4287 11.1023V9.68559C31.4287 9.4467 31.6232 9.25781 31.8565 9.25781C32.0898 9.25781 32.2843 9.45226 32.2843 9.68559V11.1023C32.2898 11.3356 32.0954 11.53 31.8565 11.53Z" fill="#E6E6E6"/>
<path d="M34.3171 9.0704H32.9004C32.6615 9.0704 32.4727 8.87596 32.4727 8.64262C32.4727 8.40929 32.6671 8.21484 32.9004 8.21484H34.3171C34.556 8.21484 34.7449 8.40929 34.7449 8.64262C34.7449 8.87596 34.556 9.0704 34.3171 9.0704Z" fill="#E6E6E6"/>
<path d="M30.8112 9.0704H29.3946C29.1557 9.0704 28.9668 8.87596 28.9668 8.64262C28.9668 8.40929 29.1612 8.21484 29.3946 8.21484H30.8112C31.0501 8.21484 31.239 8.40929 31.239 8.64262C31.239 8.87596 31.0501 9.0704 30.8112 9.0704Z" fill="#E6E6E6"/>
<path d="M9.0059 7.31128C8.76701 7.31128 8.57812 7.11684 8.57812 6.88351V5.46684C8.57812 5.22795 8.77257 5.03906 9.0059 5.03906C9.24479 5.03906 9.43368 5.23351 9.43368 5.46684V6.88351C9.43924 7.11684 9.24479 7.31128 9.0059 7.31128Z" fill="#E6E6E6"/>
<path d="M9.0059 10.823C8.76701 10.823 8.57812 10.6286 8.57812 10.3952V8.97856C8.57812 8.73967 8.77257 8.55078 9.0059 8.55078C9.24479 8.55078 9.43368 8.74523 9.43368 8.97856V10.3952C9.43924 10.6286 9.24479 10.823 9.0059 10.823Z" fill="#E6E6E6"/>
<path d="M11.4668 8.35556H10.0557C9.81682 8.35556 9.62793 8.16111 9.62793 7.92778C9.62793 7.69444 9.82237 7.5 10.0557 7.5H11.4724C11.7113 7.5 11.9002 7.69444 11.9002 7.92778C11.9002 8.16111 11.7057 8.35556 11.4668 8.35556Z" fill="#E6E6E6"/>
<path d="M7.96163 8.35556H6.54496C6.30608 8.35556 6.11719 8.16111 6.11719 7.92778C6.11719 7.69444 6.31163 7.5 6.54496 7.5H7.96163C8.20052 7.5 8.38941 7.69444 8.38941 7.92778C8.38941 8.16111 8.19496 8.35556 7.96163 8.35556V8.35556Z" fill="#E6E6E6"/>
<path d="M37.7785 34.2741L29.8118 36.7241L29.334 33.4352C29.334 33.4352 27.4729 31.3241 25.9729 29.6019C24.6118 28.0407 24.0174 26.2296 24.0785 25.7852V25.7796C24.084 25.7407 24.0896 25.7185 24.0896 25.7185C24.0896 25.7185 24.0507 25.663 23.9729 25.563V25.5574C23.9396 25.5074 23.8951 25.4407 23.8396 25.3741C23.6618 25.1296 23.4118 24.7685 23.1285 24.3407C22.1896 22.9352 20.9174 20.8241 21.0118 19.8685C21.0674 19.2963 21.2562 18.9296 21.4729 18.6963C21.8174 18.3296 22.2118 18.3019 22.2118 18.3019C22.2118 18.3019 22.2007 18.2907 22.1896 18.263L22.1229 18.1574C21.8451 17.6907 21.1007 16.2241 22.2396 15.3796C22.434 15.2352 22.6729 15.1074 22.9896 15.013L23.0396 14.9963C23.0396 14.9963 21.6174 13.2407 23.5562 12.463C23.7729 12.3796 24.0174 12.3685 24.2396 12.4352C24.3174 12.4574 24.4174 12.5019 24.5285 12.5685L24.7174 12.6852C24.834 12.7519 24.9451 12.8296 25.0674 12.9019C25.0674 12.9019 25.034 12.5574 25.2007 12.2296C25.3729 11.8741 25.784 11.5407 26.7229 11.7019C28.0007 11.913 30.434 14.8796 31.7174 16.5519C31.784 16.6463 31.8507 16.7296 31.9118 16.8074C31.9896 16.9185 32.0674 17.013 32.134 17.1074C32.234 17.2407 32.3174 17.3519 32.3785 17.4463C32.4007 17.4685 32.4174 17.4907 32.4285 17.513C32.5118 17.6296 32.5618 17.6907 32.5618 17.6907C32.5562 17.613 32.5507 17.5352 32.5451 17.4574C32.5451 17.4352 32.5396 17.413 32.5396 17.3852V17.213L32.6896 16.1407C32.6896 16.1296 32.6951 16.1241 32.6951 16.113C32.7229 16.0296 32.7507 15.9463 32.7951 15.8741L32.8062 15.8574C32.8729 15.7241 32.9618 15.613 33.0674 15.5241L33.2007 15.4241L33.2062 15.4185C33.2396 15.4019 33.2729 15.3852 33.3174 15.3741C34.2896 15.0019 35.3396 15.4463 35.5674 17.3963C35.7896 19.3463 36.7674 25.0407 36.7674 25.0407L35.8896 30.213L37.7785 34.2741Z" fill="#F9DFA6"/>
<path d="M22.7896 14.3498C22.9841 14.2054 23.223 14.0776 23.5396 13.9832C23.5563 13.9776 23.573 13.972 23.5896 13.9665C23.5896 13.9665 23.1063 13.3665 23.0896 12.7109C22.373 13.2165 22.4841 13.9276 22.7007 14.422C22.7341 14.3998 22.7563 14.372 22.7896 14.3498V14.3498Z" fill="#F9DFA6"/>
<path d="M25.5557 11.8286C25.5779 11.8397 25.5946 11.8508 25.6112 11.8674C25.6112 11.8674 25.6112 11.8397 25.6112 11.8008C25.5946 11.8063 25.5779 11.8174 25.5557 11.8286Z" fill="#F9DFA6"/>
<path d="M32.9277 16.4124C32.9499 16.4346 32.9666 16.4569 32.9777 16.4791C33.061 16.5957 33.111 16.6569 33.111 16.6569C33.1054 16.5791 33.0999 16.5013 33.0943 16.4235C33.0943 16.4013 33.0888 16.3791 33.0888 16.3513V16.1791L33.1943 15.418L33.061 15.5124C32.9499 15.5957 32.8666 15.7124 32.7999 15.8457L32.7888 15.8624C32.7499 15.9346 32.7221 16.0124 32.6943 16.0902C32.7888 16.218 32.8666 16.3291 32.9277 16.4124V16.4124Z" fill="#F9DFA6"/>
<path d="M29.9836 33.0742C29.9225 32.6409 29.7336 32.2298 29.4447 31.902C28.8003 31.1742 27.5781 29.7798 26.5281 28.5742C25.1669 27.0131 24.5725 25.202 24.6336 24.7576V24.752C24.6392 24.7131 24.6447 24.6909 24.6447 24.6909C24.6447 24.6909 24.6058 24.6353 24.5281 24.5353V24.5298C24.4947 24.4798 24.4503 24.4131 24.3947 24.3464C24.2169 24.102 23.9669 23.7409 23.6836 23.3131C22.7447 21.9076 21.4725 19.7964 21.5669 18.8409C21.5781 18.7409 21.5947 18.6576 21.6114 18.5742C21.5669 18.6131 21.5169 18.652 21.4725 18.702C21.2614 18.9298 21.0725 19.2964 21.0114 19.8742C20.9114 20.8298 22.1892 22.9409 23.1281 24.3464C23.4114 24.7687 23.6614 25.1298 23.8392 25.3798C23.8892 25.4464 23.9392 25.5131 23.9725 25.5631V25.5687C24.0447 25.6687 24.0892 25.7242 24.0892 25.7242C24.0892 25.7242 24.0836 25.7464 24.0781 25.7853V25.7909C24.0225 26.2298 24.6169 28.0464 25.9725 29.6076C27.4725 31.3353 29.3336 33.4409 29.3336 33.4409L29.8114 36.7298L37.7781 34.2742L37.4281 33.5242L32.8947 34.9187C31.5669 35.3242 30.1836 34.4464 29.9836 33.0742V33.0742Z" fill="#F4D189"/>
<path d="M22.0277 17.6624C22.3721 17.2957 22.7666 17.268 22.7666 17.268C22.7666 17.268 22.7555 17.2569 22.7443 17.2291L22.6777 17.1235C22.4999 16.8235 22.1332 16.1124 22.1888 15.418C21.3332 16.1013 21.6388 17.1624 21.9277 17.7902C21.961 17.7457 21.9943 17.7013 22.0277 17.6624V17.6624Z" fill="#F9DFA6"/>
<path d="M32.6943 16.0341C32.6999 15.9397 32.7388 15.9897 32.6943 16.0341V16.0341Z" fill="#F0CA8C"/>
<path d="M32.7333 21.996C32.7333 22.1571 32.6666 22.3071 32.5444 22.396C32.5277 22.4127 30.6333 24.2682 30.5166 26.1405C30.5833 24.1571 31.7666 22.4238 32.2944 21.9571L32.1333 17.1016C32.4055 17.4627 32.561 17.6849 32.561 17.6849L32.7333 21.996Z" fill="#F0CA8C"/>
<path d="M33.1942 15.418L32.7998 15.8457C32.8665 15.7124 32.9554 15.6013 33.0609 15.5124L33.1942 15.418Z" fill="#F0CA8C"/>
<path d="M2.22266 34.2741L10.1893 36.7241L10.6671 33.4352C10.6671 33.4352 12.5282 31.3241 14.0282 29.6019C15.3893 28.0407 15.9838 26.2296 15.9227 25.7852V25.7796C15.9171 25.7407 15.9115 25.7185 15.9115 25.7185C15.9115 25.7185 15.9504 25.663 16.0282 25.563V25.5574C16.0615 25.5074 16.106 25.4407 16.1615 25.3741C16.3393 25.1296 16.5893 24.7685 16.8727 24.3407C17.8115 22.9352 19.0838 20.8241 18.9893 19.8685C18.9338 19.2963 18.7449 18.9296 18.5282 18.6963C18.1838 18.3296 17.7893 18.3019 17.7893 18.3019C17.7893 18.3019 17.8004 18.2907 17.8115 18.263L17.8782 18.1574C18.156 17.6907 18.9004 16.2241 17.7615 15.3796C17.5671 15.2352 17.3282 15.1074 17.0115 15.013C16.9949 15.0074 16.9782 15.0019 16.9615 14.9963C16.9615 14.9963 18.3838 13.2407 16.4449 12.463C16.2282 12.3796 15.9838 12.3685 15.7615 12.4352C15.6838 12.4574 15.5838 12.5019 15.4727 12.5685L15.2838 12.6852C15.1671 12.7519 15.056 12.8296 14.9338 12.9019C14.9338 12.9019 14.9671 12.5574 14.8004 12.2296C14.6282 11.8741 14.2171 11.5407 13.2782 11.7019C12.0004 11.913 9.5671 14.8796 8.28377 16.5519C8.2171 16.6463 8.15043 16.7296 8.08932 16.8074C8.01155 16.9185 7.93377 17.013 7.8671 17.1074C7.7671 17.2407 7.68377 17.3519 7.62266 17.4463C7.60043 17.4685 7.58377 17.4907 7.57266 17.513C7.48932 17.6296 7.43932 17.6907 7.43932 17.6907C7.44488 17.613 7.45043 17.5352 7.45599 17.4574C7.45599 17.4352 7.46155 17.413 7.46155 17.3852V17.213L7.31155 16.1407C7.31155 16.1296 7.30599 16.1241 7.30599 16.113C7.27821 16.0296 7.25043 15.9463 7.20599 15.8741L7.19488 15.8574C7.12821 15.7241 7.03932 15.613 6.93377 15.5241L6.80043 15.4241L6.79488 15.4185C6.76155 15.4019 6.72821 15.3852 6.68377 15.3741C5.7171 14.9963 4.6671 15.4407 4.44488 17.3907C4.22266 19.3407 3.24488 25.0352 3.24488 25.0352L4.12266 30.2074L2.22266 34.2741Z" fill="#F9DFA6"/>
<path d="M14.506 11.8691C14.4671 11.8413 14.4282 11.8191 14.3838 11.7969C14.3893 11.8802 14.3838 11.9413 14.3838 11.9413C14.4282 11.9191 14.4671 11.8969 14.506 11.8691V11.8691Z" fill="#F9DFA6"/>
<path d="M16.4111 14.0482C16.4278 14.0537 16.4445 14.0593 16.4611 14.0648C16.7778 14.1648 17.0167 14.2871 17.2111 14.4315C17.2334 14.4482 17.25 14.4648 17.2722 14.4815C17.5 13.9871 17.6556 13.2426 16.9056 12.7148C16.9278 13.3982 16.4111 14.0482 16.4111 14.0482Z" fill="#F9DFA6"/>
<path d="M17.3281 17.2007L17.2615 17.3063C17.2504 17.334 17.2393 17.3451 17.2393 17.3451C17.2393 17.3451 17.6337 17.3729 17.9781 17.7396C18.0059 17.7674 18.0281 17.8062 18.0504 17.834C18.3504 17.2118 18.6948 16.1118 17.8059 15.4062C17.9004 16.134 17.5115 16.8896 17.3281 17.2007V17.2007Z" fill="#F9DFA6"/>
<path d="M6.91159 16.2585V16.4307C6.91159 16.4585 6.90603 16.4807 6.90603 16.503C6.90048 16.5807 6.89492 16.6585 6.88937 16.7363C6.88937 16.7363 6.93381 16.6752 7.0227 16.5585C7.03381 16.5363 7.05048 16.5141 7.0727 16.4918C7.13381 16.403 7.2227 16.2863 7.31714 16.153V16.1363C7.31714 16.1252 7.31159 16.1196 7.31159 16.1085C7.28381 16.0252 7.25603 15.9418 7.21159 15.8696L7.20048 15.853C7.13381 15.7196 7.04492 15.6085 6.93937 15.5196L6.80603 15.4196L6.80048 15.4141H6.79492L6.91159 16.2585Z" fill="#F9DFA6"/>
<path d="M18.5282 18.6975C18.4782 18.6419 18.4282 18.5975 18.3727 18.5586C18.4004 18.6697 18.4171 18.7864 18.4338 18.9141C18.5338 19.8697 17.256 21.9808 16.3171 23.3864C16.0338 23.8086 15.7838 24.1697 15.606 24.4197C15.556 24.4864 15.506 24.553 15.4727 24.603V24.6086C15.4004 24.7086 15.356 24.7641 15.356 24.7641C15.356 24.7641 15.3615 24.7864 15.3671 24.8253V24.8308C15.4227 25.2697 14.8282 27.0864 13.4727 28.6475C12.4227 29.853 11.1949 31.2475 10.556 31.9753C10.2671 32.303 10.0782 32.7141 10.0171 33.1475C9.8171 34.5253 8.43932 35.3975 7.10599 34.9864L2.53932 33.5808L2.22266 34.2753L10.1893 36.7253L10.6671 33.4364C10.6671 33.4364 12.5282 31.3253 14.0282 29.603C15.3893 28.0419 15.9838 26.2308 15.9227 25.7864V25.7808C15.9171 25.7419 15.9115 25.7197 15.9115 25.7197C15.9115 25.7197 15.9504 25.6641 16.0282 25.5641V25.5586C16.0615 25.5086 16.106 25.4419 16.1615 25.3753C16.3393 25.1308 16.5893 24.7697 16.8727 24.3419C17.8115 22.9364 19.0838 20.8253 18.9893 19.8697C18.9282 19.2919 18.7393 18.9253 18.5282 18.6975V18.6975Z" fill="#F4D189"/>
<path d="M8.75619 16.6585V16.8307C8.75619 16.8585 8.75063 16.8807 8.75063 16.903C8.74507 16.9807 8.73952 17.0585 8.73396 17.1363C8.73396 17.1363 8.77841 17.0752 8.8673 16.9585C8.87841 16.9363 8.89507 16.9141 8.9173 16.8918C8.97841 16.7974 9.0673 16.6863 9.16174 16.553C9.22841 16.4585 9.30618 16.3641 9.38396 16.253C9.44507 16.1752 9.51174 16.0863 9.57841 15.9974C10.5729 14.6974 12.2562 12.6307 13.5617 11.6641C13.4729 11.6696 13.384 11.6807 13.284 11.6974C12.1229 11.8918 10.0117 14.353 8.67285 16.0585L8.75619 16.6585Z" fill="#F9DFA6"/>
<path d="M17.2111 14.3498C17.0167 14.2054 16.7778 14.0776 16.4611 13.9832C16.4445 13.9776 16.4278 13.972 16.4111 13.9665C16.4111 13.9665 16.8945 13.3665 16.9111 12.7109C17.6278 13.2165 17.5167 13.9276 17.3 14.422C17.2667 14.3998 17.2445 14.372 17.2111 14.3498V14.3498Z" fill="#F9DFA6"/>
<path d="M14.4442 11.8286C14.422 11.8397 14.4053 11.8508 14.3887 11.8674C14.3887 11.8674 14.3887 11.8397 14.3887 11.8008C14.4053 11.8063 14.422 11.8174 14.4442 11.8286Z" fill="#F9DFA6"/>
<path d="M7.07233 16.4124C7.05011 16.4346 7.03344 16.4569 7.02233 16.4791C6.939 16.5957 6.889 16.6569 6.889 16.6569C6.89455 16.5791 6.90011 16.5013 6.90566 16.4235C6.90566 16.4013 6.91122 16.3791 6.91122 16.3513V16.1791L6.80566 15.418L6.939 15.5124C7.05011 15.5957 7.13344 15.7124 7.20011 15.8457L7.21122 15.8624C7.25011 15.9346 7.27789 16.0124 7.30566 16.0902C7.21122 16.218 7.13344 16.3291 7.07233 16.4124V16.4124Z" fill="#F9DFA6"/>
<path d="M17.9723 17.6624C17.6278 17.2957 17.2334 17.268 17.2334 17.268C17.2334 17.268 17.2445 17.2569 17.2556 17.2291L17.3223 17.1235C17.5001 16.8235 17.8667 16.1124 17.8112 15.418C18.6667 16.1013 18.3612 17.1624 18.0723 17.7902C18.039 17.7457 18.0056 17.7013 17.9723 17.6624V17.6624Z" fill="#F9DFA6"/>
<path d="M7.3062 16.0341C7.30065 15.9397 7.26176 15.9897 7.3062 16.0341V16.0341Z" fill="#F0CA8C"/>
<path d="M7.26758 21.996C7.26758 22.1571 7.33424 22.3071 7.45647 22.396C7.47313 22.4127 9.36758 24.2682 9.48424 26.1405C9.41758 24.1571 8.23424 22.4238 7.70647 21.9571L7.86758 17.1016C7.59536 17.4627 7.4398 17.6849 7.4398 17.6849L7.26758 21.996Z" fill="#F0CA8C"/>
<path d="M6.80566 15.418L7.20011 15.8457C7.13344 15.7124 7.04455 15.6013 6.939 15.5124L6.80566 15.418Z" fill="#F0CA8C"/>
<path d="M30.1011 18.8422C30.0122 18.8422 29.9233 18.7977 29.8677 18.72C28.4622 16.72 25.3344 13.37 24.9566 13.1588C24.8011 13.1311 24.7233 12.9866 24.7566 12.8311C24.7844 12.6755 24.9677 12.5866 25.1177 12.6088C25.6066 12.7033 29.14 16.6755 30.34 18.3866C30.4289 18.5144 30.4011 18.6977 30.2677 18.7866C30.2177 18.8255 30.1622 18.8422 30.1011 18.8422V18.8422Z" fill="#F0CA8C"/>
<path d="M28.2567 21.176C28.1678 21.176 28.0789 21.1316 28.0234 21.0538C26.5678 18.9649 23.3234 15.4871 22.94 15.276C22.7845 15.2483 22.7067 15.1038 22.74 14.9483C22.7678 14.7927 22.94 14.7038 23.1012 14.726C23.6067 14.826 27.2567 18.9483 28.4956 20.726C28.5845 20.8538 28.5567 21.0371 28.4234 21.126C28.3678 21.1594 28.3123 21.176 28.2567 21.176V21.176Z" fill="#F0CA8C"/>
<path d="M25.6508 22.286C25.5619 22.286 25.4785 22.2471 25.4174 22.1693C24.4785 20.8971 22.4063 18.786 22.0896 18.5804C21.9619 18.5304 21.8841 18.3971 21.9119 18.2638C21.9396 18.1082 22.0896 18.0082 22.2452 18.0304C22.6619 18.1082 25.1619 20.8582 25.8785 21.8249C25.973 21.9526 25.9452 22.1304 25.8174 22.2249C25.7674 22.2638 25.7119 22.286 25.6508 22.286V22.286Z" fill="#F0CA8C"/>
<path d="M9.60618 18.8418C9.55063 18.8418 9.48952 18.8251 9.43952 18.7918C9.31174 18.7029 9.2784 18.5251 9.36729 18.3918C10.5673 16.6807 14.0951 12.7084 14.5895 12.614C14.7395 12.5862 14.8951 12.6862 14.9228 12.8418C14.9506 12.9807 14.8673 13.1196 14.7395 13.164C14.3284 13.4196 11.234 16.7307 9.83952 18.7196C9.78952 18.8029 9.70063 18.8418 9.60618 18.8418Z" fill="#F0CA8C"/>
<path d="M11.4558 21.1734C11.4002 21.1734 11.3391 21.1567 11.2891 21.1234C11.1613 21.0345 11.128 20.8567 11.2169 20.7234C12.4558 18.9512 16.1113 14.8234 16.6113 14.7234C16.7613 14.6956 16.9169 14.7956 16.9447 14.9512C16.9725 15.0956 16.8891 15.2289 16.7558 15.2734C16.3336 15.5345 13.128 18.9734 11.678 21.0456C11.6391 21.1345 11.5447 21.1734 11.4558 21.1734V21.1734Z" fill="#F0CA8C"/>
<path d="M14.0619 22.2845C14.0008 22.2845 13.9452 22.2678 13.8897 22.2289C13.7619 22.1345 13.7341 21.9567 13.8286 21.8289C14.5452 20.8567 17.0452 18.1067 17.4619 18.0345C17.6119 18.0122 17.7674 18.1067 17.7952 18.2678C17.8174 18.4067 17.7397 18.54 17.6174 18.5845C17.3063 18.7845 15.2341 20.9011 14.2897 22.1734C14.2341 22.24 14.1508 22.2845 14.0619 22.2845V22.2845Z" fill="#F0CA8C"/>
</svg>