<svg xmlns:xlink="http://www.w3.org/1999/xlink" xmlns="http://www.w3.org/2000/svg" width="40" height="40" viewBox="0 0 40 40" fill="none">
<path d="M21.3324 8.66797H18.666V11.3344H21.3324V8.66797Z" fill="#E6AF78"/>
<path d="M18.6671 8.66803V10.0014C18.6671 10.1436 18.618 10.2762 18.5381 10.3874C18.9917 10.5664 19.4839 10.668 20.0004 10.668C20.5168 10.668 21.009 10.5664 21.4626 10.3874C21.3828 10.2762 21.3336 10.1436 21.3336 10.0014V8.66803C21.3336 8.66795 18.6671 8.66795 18.6671 8.66803Z" fill="#D29B6E"/>
<path d="M23.263 11.3776L22.047 10.7695C21.5578 11.3611 20 11.3341 20 11.3341C20 11.3341 18.4422 11.3612 17.953 10.7695L16.737 11.3776C16.2853 11.6034 16 12.0651 16 12.5702V16.447C16 17.8948 16.4286 19.3102 17.2317 20.5148L17.3334 20.6673H22.6669L22.7687 20.5146C23.5715 19.3101 23.9999 17.8949 23.9999 16.4473V12.5701C24 12.0651 23.7147 11.6034 23.263 11.3776Z" fill="#E2E7F2"/>
<path d="M22.6676 20.668H17.334V32.0016H22.6676V20.668Z" fill="#7F8499"/>
<path d="M17.3334 20.6656V13.378C17.3334 12.9584 17.1358 12.5632 16.8 12.3114L16.2025 11.8633C16.073 12.071 16 12.314 16 12.5684V16.4453C16 17.8931 16.4286 19.3085 17.2316 20.5132L17.3334 20.6656Z" fill="#C7CFE2"/>
<path d="M22.667 20.6656V13.378C22.667 12.9584 22.8646 12.5632 23.2004 12.3114L23.7979 11.8633C23.9274 12.071 24.0004 12.314 24.0004 12.5684V16.4453C24.0004 17.8931 23.5718 19.3085 22.7687 20.5132L22.667 20.6656Z" fill="#C7CFE2"/>
<path d="M21.479 10.0531C21.4347 9.99722 21.3516 9.9923 21.301 10.0425L20.0001 11.3338L18.6991 10.0425C18.6485 9.9923 18.5655 9.99722 18.5212 10.0531L17.9531 10.7693L18.8552 11.893C18.9578 12.0208 19.1452 12.04 19.2716 11.9356L19.6667 11.6091V20.6671H20.3334V11.6091L20.7285 11.9356C20.8549 12.04 21.0423 12.0208 21.1449 11.893L22.047 10.7693L21.479 10.0531Z" fill="#C7CFE2"/>
<path d="M20.0004 22C19.8162 22 19.667 22.1492 19.667 22.3334V32H20.3336V22.3334C20.3337 22.1492 20.1844 22 20.0004 22Z" fill="#707487"/>
<path d="M19.9996 9.33203C18.5269 9.33203 17.333 8.13812 17.333 6.66539V5.33203C17.333 4.2275 18.2285 3.33203 19.333 3.33203H20.6664C21.7709 3.33203 22.6664 4.2275 22.6664 5.33203V6.66539C22.6663 8.13812 21.4724 9.33203 19.9996 9.33203Z" fill="#F0C087"/>
<path d="M19.3331 6.66531V5.33203C19.3331 4.34164 20.0546 3.52508 20.9997 3.36563C20.8907 3.34727 20.7806 3.33203 20.6664 3.33203H19.333C18.2284 3.33203 17.333 4.22742 17.333 5.33203V6.66539C17.333 8.13812 18.5269 9.33203 19.9996 9.33203C20.3539 9.33203 20.6904 9.25969 20.9996 9.1343C20.0232 8.73828 19.3331 7.78391 19.3331 6.66531Z" fill="#E6AF78"/>
<path d="M17.333 5.33203C17.333 5.33203 19.333 5.99867 22.6664 5.99867V5.33203C22.6664 4.2275 21.771 3.33203 20.6664 3.33203H19.333C18.2284 3.33203 17.333 4.22742 17.333 5.33203Z" fill="#694B4B"/>
<path d="M19.3331 5.33203C19.3331 4.34164 20.0546 3.52508 20.9997 3.36563C20.8907 3.34727 20.7806 3.33203 20.6664 3.33203H19.333C18.2284 3.33203 17.333 4.22742 17.333 5.33203C17.333 5.33203 18.05 5.56914 19.333 5.76055V5.33203H19.3331Z" fill="#5A4146"/>
<path d="M32.0004 8.66797H29.334V11.3344H32.0004V8.66797Z" fill="#E6AF78"/>
<path d="M29.3331 8.66803V10.0014C29.3331 10.1436 29.284 10.2762 29.2041 10.3874C29.6577 10.5664 30.15 10.668 30.6664 10.668C31.1828 10.668 31.675 10.5664 32.1286 10.3874C32.0488 10.2762 31.9996 10.1436 31.9996 10.0014V8.66803C31.9996 8.66795 29.3331 8.66795 29.3331 8.66803Z" fill="#D29B6E"/>
<path d="M33.93 11.3776L32.7139 10.7695C32.2248 11.3611 30.667 11.3341 30.667 11.3341C30.667 11.3341 29.1092 11.3612 28.62 10.7695L27.404 11.3776C26.9523 11.6034 26.667 12.0651 26.667 12.5702V16.447C26.667 17.8948 27.0956 19.3102 27.8987 20.5148L28.0004 20.6673H33.3339L33.4357 20.5146C34.2385 19.3101 34.6669 17.8949 34.6669 16.4473V12.5701C34.667 12.0651 34.3817 11.6034 33.93 11.3776Z" fill="#B4E66E"/>
<path d="M33.3336 20.668H28V32.0016H33.3336V20.668Z" fill="#707487"/>
<path d="M28.0004 20.6656V13.378C28.0004 12.9584 27.8028 12.5632 27.467 12.3114L26.8695 11.8633C26.74 12.071 26.667 12.314 26.667 12.5684V16.4453C26.667 17.8931 27.0956 19.3085 27.8986 20.5132L28.0004 20.6656Z" fill="#A0D755"/>
<path d="M33.334 20.6656V13.378C33.334 12.9584 33.5316 12.5632 33.8673 12.3114L34.4648 11.8633C34.5944 12.071 34.6673 12.314 34.6673 12.5684V16.4453C34.6673 17.8931 34.2388 19.3085 33.4357 20.5132L33.334 20.6656Z" fill="#A0D755"/>
<path d="M32.146 10.0531C32.1017 9.99722 32.0186 9.9923 31.968 10.0425L30.6671 11.3338L29.3661 10.0425C29.3155 9.9923 29.2325 9.99722 29.1882 10.0531L28.6201 10.7693L29.5221 11.893C29.6248 12.0208 29.8122 12.04 29.9386 11.9356L30.3337 11.6091V20.6671H31.0003V11.6091L31.3955 11.9356C31.5219 12.04 31.7093 12.0208 31.8119 11.893L32.7139 10.7693L32.146 10.0531Z" fill="#A0D755"/>
<path d="M30.6664 22C30.4822 22 30.333 22.1492 30.333 22.3334V32H30.9997V22.3334C30.9997 22.1492 30.8505 22 30.6664 22Z" fill="#5B5D6E"/>
<path d="M30.6666 9.33203C29.1939 9.33203 28 8.13812 28 6.66539V5.33203C28 4.2275 28.8955 3.33203 30 3.33203H31.3334C32.4379 3.33203 33.3334 4.2275 33.3334 5.33203V6.66539C33.3334 8.13812 32.1395 9.33203 30.6666 9.33203Z" fill="#F0C087"/>
<path d="M30 6.66531V5.33203C30 4.34164 30.7216 3.52508 31.6666 3.36563C31.5577 3.34727 31.4475 3.33203 31.3333 3.33203H30C28.8954 3.33203 28 4.22742 28 5.33203V6.66539C28 8.13812 29.1939 9.33203 30.6666 9.33203C31.0209 9.33203 31.3574 9.25969 31.6666 9.1343C30.6902 8.73828 30 7.78391 30 6.66531Z" fill="#E6AF78"/>
<path d="M28 5.33203C28 5.33203 30 5.99867 33.3334 5.99867V5.33203C33.3334 4.2275 32.438 3.33203 31.3334 3.33203H30C28.8955 3.33203 28 4.22742 28 5.33203Z" fill="#694B4B"/>
<path d="M30 5.33203C30 4.34164 30.7216 3.52508 31.6666 3.36563C31.5577 3.34727 31.4475 3.33203 31.3333 3.33203H30C28.8954 3.33203 28 4.22742 28 5.33203C28 5.33203 28.717 5.56914 30 5.76055V5.33203Z" fill="#5A4146"/>
<path d="M10.6664 8.66797H8V11.3344H10.6664V8.66797Z" fill="#E6AF78"/>
<path d="M8.00008 8.66803V10.0014C8.00008 10.1436 7.95102 10.2762 7.87109 10.3874C8.32469 10.5664 8.81695 10.668 9.33336 10.668C9.84977 10.668 10.342 10.5664 10.7956 10.3874C10.7158 10.2762 10.6666 10.1436 10.6666 10.0014V8.66803C10.6666 8.66795 8.00008 8.66795 8.00008 8.66803Z" fill="#D29B6E"/>
<path d="M12.596 11.3776L11.38 10.7695C10.8908 11.3611 9.33301 11.3341 9.33301 11.3341C9.33301 11.3341 7.7752 11.3612 7.28605 10.7695L6.07004 11.3776C5.61832 11.6034 5.33301 12.0651 5.33301 12.5702V16.447C5.33301 17.8948 5.7616 19.3102 6.56473 20.5148L6.66637 20.6673H11.9999L12.1017 20.5146C12.9045 19.3101 13.3329 17.8949 13.3329 16.4473V12.5701C13.333 12.0651 13.0476 11.6034 12.596 11.3776Z" fill="#FFF082"/>
<path d="M11.9996 20.668H6.66602V32.0016H11.9996V20.668Z" fill="#707487"/>
<path d="M6.66637 20.6656V13.378C6.66637 12.9584 6.46879 12.5632 6.13301 12.3114L5.53551 11.8633C5.40598 12.071 5.33301 12.314 5.33301 12.5684V16.4453C5.33301 17.8931 5.7616 19.3085 6.56465 20.5132L6.66637 20.6656Z" fill="#FFDC64"/>
<path d="M12 20.6656V13.378C12 12.9584 12.1976 12.5632 12.5334 12.3114L13.1309 11.8633C13.2604 12.071 13.3334 12.314 13.3334 12.5684V16.4453C13.3334 17.8931 12.9048 19.3085 12.1017 20.5132L12 20.6656Z" fill="#FFDC64"/>
<path d="M10.812 10.0531C10.7677 9.99722 10.6846 9.9923 10.634 10.0425L9.33309 11.3338L8.03215 10.0425C7.98152 9.9923 7.89848 9.99722 7.85418 10.0531L7.28613 10.7693L8.18816 11.893C8.29082 12.0208 8.47824 12.04 8.60457 11.9356L8.99973 11.6091V20.6671H9.66637V11.6091L10.0615 11.9356C10.1879 12.04 10.3754 12.0208 10.4779 11.893L11.38 10.7693L10.812 10.0531Z" fill="#FFDC64"/>
<path d="M9.33336 22C9.14922 22 9 22.1492 9 22.3334V32H9.66664V22.3334C9.66664 22.1492 9.51742 22 9.33336 22Z" fill="#5B5D6E"/>
<path d="M9.33363 9.33203C7.8609 9.33203 6.66699 8.13812 6.66699 6.66539V5.33203C6.66699 4.2275 7.56246 3.33203 8.66699 3.33203H10.0003C11.1048 3.33203 12.0003 4.2275 12.0003 5.33203V6.66539C12.0003 8.13812 10.8064 9.33203 9.33363 9.33203Z" fill="#F0C087"/>
<path d="M8.66707 6.66531V5.33203C8.66707 4.34164 9.38863 3.52508 10.3337 3.36563C10.2247 3.34727 10.1146 3.33203 10.0004 3.33203H8.66699C7.56238 3.33203 6.66699 4.22742 6.66699 5.33203V6.66539C6.66699 8.13812 7.8609 9.33203 9.33363 9.33203C9.68785 9.33203 10.0244 9.25969 10.3336 9.1343C9.3573 8.73828 8.66707 7.78391 8.66707 6.66531Z" fill="#E6AF78"/>
<path d="M6.66699 5.33203C6.66699 5.33203 8.66699 5.99867 12.0004 5.99867V5.33203C12.0004 4.2275 11.105 3.33203 10.0004 3.33203H8.66699C7.56246 3.33203 6.66699 4.22742 6.66699 5.33203Z" fill="#694B4B"/>
<path d="M8.66707 5.33203C8.66707 4.34164 9.38863 3.52508 10.3337 3.36563C10.2247 3.34727 10.1146 3.33203 10.0004 3.33203H8.66699C7.56238 3.33203 6.66699 4.22742 6.66699 5.33203C6.66699 5.33203 7.38402 5.56914 8.66699 5.76055V5.33203H8.66707Z" fill="#5A4146"/>
<path d="M5.33242 20H2.66602V22.6664H5.33242V20Z" fill="#E6AF78"/>
<path d="M2.66707 20V21.3334C2.66707 21.4755 2.61801 21.6081 2.53809 21.7194C2.99168 21.8984 3.48395 22 4.00035 22C4.51676 22 5.00902 21.8984 5.46262 21.7194C5.38277 21.6081 5.33363 21.4755 5.33363 21.3334V20H2.66707Z" fill="#D29B6E"/>
<path d="M7.26297 22.7096L6.04695 22.1016C5.55781 22.6931 4 22.6661 4 22.6661C4 22.6661 2.44219 22.6932 1.95305 22.1016L0.737031 22.7096C0.285312 22.9355 0 23.3972 0 23.9021V27.7789C0 29.2267 0.428594 30.6422 1.23172 31.8468L1.33336 31.9993H6.66687L6.76867 31.8466C7.57148 30.642 7.99992 29.2269 7.99992 27.7793V23.902C8 23.3972 7.71469 22.9355 7.26297 22.7096Z" fill="#00C3FF"/>
<path d="M6.66629 32H1.33301V36C1.33301 36.3682 1.63152 36.6666 1.99965 36.6666H5.99965C6.36785 36.6666 6.66629 36.3681 6.66629 36V32V32Z" fill="#7F8499"/>
<path d="M1.33336 31.9977V24.7101C1.33336 24.2904 1.13578 23.8952 0.8 23.6434L0.2025 23.1953C0.0729688 23.403 0 23.646 0 23.9003V27.7773C0 29.2251 0.428594 30.6405 1.23164 31.8452L1.33336 31.9977Z" fill="#00AAF0"/>
<path d="M6.66699 31.9977V24.7101C6.66699 24.2904 6.86457 23.8952 7.20035 23.6434L7.79785 23.1953C7.92738 23.403 8.00035 23.646 8.00035 23.9004V27.7773C8.00035 29.2252 7.57176 30.6405 6.76871 31.8452L6.66699 31.9977Z" fill="#00AAF0"/>
<path d="M5.47898 21.3852C5.43469 21.3293 5.35164 21.3244 5.30102 21.3746L4.00008 22.6658L2.69914 21.3746C2.64852 21.3243 2.56547 21.3293 2.52117 21.3851L1.95312 22.1013L2.85516 23.225C2.95781 23.3528 3.14516 23.3721 3.27156 23.2676L3.66672 22.9411V31.9992H4.33336V22.9412L4.72852 23.2677C4.85492 23.3721 5.04234 23.3529 5.14492 23.2251L6.04695 22.1013L5.47898 21.3852Z" fill="#00AAF0"/>
<path d="M4.00035 33.332C3.81621 33.332 3.66699 33.4812 3.66699 33.6654V36.6654H4.33363V33.6654C4.33371 33.4812 4.18441 33.332 4.00035 33.332Z" fill="#707487"/>
<path d="M3.99965 20.668C2.52691 20.668 1.33301 19.4741 1.33301 18.0013V16.668C1.33301 15.5634 2.22848 14.668 3.33301 14.668H4.66637C5.7709 14.668 6.66637 15.5634 6.66637 16.668V18.0013C6.66629 19.4741 5.47238 20.668 3.99965 20.668Z" fill="#F0C087"/>
<path d="M3.33301 18.0013V16.668C3.33301 15.6776 4.05457 14.861 4.99965 14.7016C4.89066 14.6832 4.78051 14.668 4.66629 14.668H3.33301C2.2284 14.668 1.33301 15.5634 1.33301 16.668V18.0013C1.33301 19.4741 2.52691 20.668 3.99965 20.668C4.35387 20.668 4.69043 20.5956 4.99965 20.4702C4.02316 20.0742 3.33301 19.1198 3.33301 18.0013Z" fill="#E6AF78"/>
<path d="M1.33301 16.668C1.33301 16.668 3.33301 17.3346 6.66637 17.3346V16.668C6.66637 15.5634 5.77098 14.668 4.66637 14.668H3.33301C2.2284 14.668 1.33301 15.5634 1.33301 16.668Z" fill="#694B4B"/>
<path d="M3.33301 16.668C3.33301 15.6776 4.05457 14.861 4.99965 14.7016C4.89066 14.6832 4.78051 14.668 4.66629 14.668H3.33301C2.2284 14.668 1.33301 15.5634 1.33301 16.668C1.33301 16.668 2.05004 16.9051 3.33301 17.0965V16.668Z" fill="#5A4146"/>
<path d="M16.0004 20H13.334V22.6664H16.0004V20Z" fill="#E6AF78"/>
<path d="M13.3331 20V21.3334C13.3331 21.4755 13.284 21.6081 13.2041 21.7194C13.6577 21.8984 14.15 22 14.6664 22C15.1828 22 15.675 21.8984 16.1286 21.7194C16.0488 21.6081 15.9996 21.4755 15.9996 21.3334V20H13.3331Z" fill="#D29B6E"/>
<path d="M17.93 22.7096L16.7139 22.1016C16.2248 22.6931 14.667 22.6661 14.667 22.6661C14.667 22.6661 13.1092 22.6932 12.62 22.1016L11.404 22.7096C10.9523 22.9355 10.667 23.3971 10.667 23.9022V27.779C10.667 29.2268 11.0956 30.6423 11.8987 31.8469L12.0004 31.9994H17.3339L17.4357 31.8466C18.2385 30.6421 18.6669 29.227 18.6669 27.7794V23.9021C18.667 23.3972 18.3817 22.9355 17.93 22.7096Z" fill="#AFB9D2"/>
<path d="M14.6666 20.668C13.1939 20.668 12 19.4741 12 18.0013V16.668C12 15.5634 12.8955 14.668 14 14.668H15.3334C16.4379 14.668 17.3334 15.5634 17.3334 16.668V18.0013C17.3334 19.4741 16.1395 20.668 14.6666 20.668Z" fill="#F0C087"/>
<path d="M14 18.0013V16.668C14 15.6776 14.7216 14.861 15.6666 14.7016C15.5577 14.6832 15.4475 14.668 15.3333 14.668H14C12.8954 14.668 12 15.5634 12 16.668V18.0013C12 19.4741 13.1939 20.668 14.6666 20.668C15.0209 20.668 15.3574 20.5956 15.6666 20.4702C14.6902 20.0742 14 19.1198 14 18.0013Z" fill="#E6AF78"/>
<path d="M17.3334 32H12V36C12 36.3682 12.2984 36.6666 12.6666 36.6666H16.6666C17.0348 36.6666 17.3333 36.3681 17.3333 36L17.3334 32Z" fill="#707487"/>
<path d="M12.0004 31.9977V24.7101C12.0004 24.2904 11.8028 23.8952 11.467 23.6434L10.8695 23.1953C10.74 23.403 10.667 23.646 10.667 23.9004V27.7773C10.667 29.2252 11.0956 30.6405 11.8986 31.8452L12.0004 31.9977Z" fill="#959CB5"/>
<path d="M17.334 31.9977V24.7101C17.334 24.2904 17.5316 23.8952 17.8673 23.6434L18.4648 23.1953C18.5944 23.403 18.6673 23.646 18.6673 23.9004V27.7773C18.6673 29.2252 18.2388 30.6405 17.4357 31.8452L17.334 31.9977Z" fill="#959CB5"/>
<path d="M16.146 21.3851C16.1017 21.3293 16.0186 21.3243 15.968 21.3746L14.6671 22.6658L13.3661 21.3746C13.3155 21.3243 13.2325 21.3293 13.1882 21.3851L12.6201 22.1013L13.5221 23.225C13.6248 23.3528 13.8121 23.3721 13.9386 23.2676L14.3337 22.9411V31.9991H15.0004V22.9411L15.3955 23.2676C15.5219 23.372 15.7093 23.3528 15.8119 23.225L16.7139 22.1013L16.146 21.3851Z" fill="#959CB5"/>
<path d="M14.6664 33.332C14.4822 33.332 14.333 33.4812 14.333 33.6654V36.6654H14.9997V33.6654C14.9997 33.4812 14.8505 33.332 14.6664 33.332Z" fill="#5B5D6E"/>
<path d="M12 16.668C12 16.668 14 17.3346 17.3334 17.3346V16.668C17.3334 15.5634 16.4379 14.668 15.3334 14.668H14C12.8954 14.668 12 15.5634 12 16.668Z" fill="#694B4B"/>
<path d="M14 16.668C14 15.6776 14.7216 14.861 15.6666 14.7016C15.5577 14.6832 15.4475 14.668 15.3333 14.668H14C12.8954 14.668 12 15.5634 12 16.668C12 16.668 12.717 16.9051 14 17.0965V16.668Z" fill="#5A4146"/>
<path d="M26.6664 20H24V22.6664H26.6664V20Z" fill="#E6AF78"/>
<path d="M24.0001 20V21.3334C24.0001 21.4755 23.951 21.6081 23.8711 21.7194C24.3247 21.8984 24.817 22 25.3334 22C25.8498 22 26.342 21.8984 26.7956 21.7194C26.7158 21.6081 26.6666 21.4755 26.6666 21.3334V20H24.0001Z" fill="#D29B6E"/>
<path d="M28.596 22.7096L27.38 22.1016C26.8908 22.6931 25.333 22.6661 25.333 22.6661C25.333 22.6661 23.7752 22.6932 23.2861 22.1016L22.07 22.7096C21.6183 22.9355 21.333 23.3971 21.333 23.9022V27.779C21.333 29.2268 21.7616 30.6423 22.5647 31.8469L22.6664 31.9994H27.9999L28.1017 31.8466C28.9045 30.6421 29.3329 29.227 29.3329 27.7794V23.9021C29.333 23.3972 29.0476 22.9355 28.596 22.7096Z" fill="#FF507D"/>
<path d="M28.0004 32H22.667V36C22.667 36.3682 22.9654 36.6666 23.3336 36.6666H27.3336C27.7018 36.6666 28.0003 36.3681 28.0003 36V32H28.0004Z" fill="#7F8499"/>
<path d="M22.6664 31.9977V24.7101C22.6664 24.2904 22.4688 23.8952 22.133 23.6434L21.5355 23.1953C21.406 23.403 21.333 23.646 21.333 23.9004V27.7773C21.333 29.2252 21.7616 30.6405 22.5646 31.8452L22.6664 31.9977Z" fill="#D23C69"/>
<path d="M28 31.9977V24.7101C28 24.2904 28.1976 23.8952 28.5334 23.6434L29.1309 23.1953C29.2604 23.403 29.3334 23.646 29.3334 23.9004V27.7773C29.3334 29.2252 28.9048 30.6405 28.1017 31.8452L28 31.9977Z" fill="#D23C69"/>
<path d="M26.812 21.3851C26.7677 21.3293 26.6846 21.3243 26.634 21.3746L25.3331 22.6658L24.0321 21.3746C23.9815 21.3243 23.8985 21.3293 23.8542 21.3851L23.2861 22.1013L24.1882 23.225C24.2908 23.3528 24.4782 23.3721 24.6046 23.2676L24.9997 22.9411V31.9991H25.6664V22.9411L26.0615 23.2676C26.1879 23.372 26.3754 23.3528 26.4779 23.225L27.38 22.1013L26.812 21.3851Z" fill="#D23C69"/>
<path d="M25.3334 33.332C25.1492 33.332 25 33.4812 25 33.6654V36.6654H25.6666V33.6654C25.6666 33.4812 25.5174 33.332 25.3334 33.332Z" fill="#707487"/>
<path d="M25.3336 20.668C23.8609 20.668 22.667 19.4741 22.667 18.0013V16.668C22.667 15.5634 23.5625 14.668 24.667 14.668H26.0003C27.1048 14.668 28.0003 15.5634 28.0003 16.668V18.0013C28.0003 19.4741 26.8064 20.668 25.3336 20.668Z" fill="#F0C087"/>
<path d="M24.6671 18.0013V16.668C24.6671 15.6776 25.3886 14.861 26.3337 14.7016C26.2247 14.6832 26.1146 14.668 26.0004 14.668H24.667C23.5624 14.668 22.667 15.5634 22.667 16.668V18.0013C22.667 19.4741 23.8609 20.668 25.3336 20.668C25.6879 20.668 26.0244 20.5956 26.3336 20.4702C25.3573 20.0742 24.6671 19.1198 24.6671 18.0013Z" fill="#E6AF78"/>
<path d="M22.667 16.668C22.667 16.668 24.667 17.3346 28.0004 17.3346V16.668C28.0004 15.5634 27.105 14.668 26.0004 14.668H24.667C23.5625 14.668 22.667 15.5634 22.667 16.668Z" fill="#694B4B"/>
<path d="M24.6671 16.668C24.6671 15.6776 25.3886 14.861 26.3337 14.7016C26.2247 14.6832 26.1146 14.668 26.0004 14.668H24.667C23.5624 14.668 22.667 15.5634 22.667 16.668C22.667 16.668 23.384 16.9051 24.667 17.0965L24.6671 16.668Z" fill="#5A4146"/>
<path d="M37.3324 20H34.666V22.6664H37.3324V20Z" fill="#E6AF78"/>
<path d="M34.6671 20V21.3334C34.6671 21.4755 34.618 21.6081 34.5381 21.7194C34.9917 21.8984 35.4839 22 36.0004 22C36.5168 22 37.009 21.8984 37.4626 21.7194C37.3828 21.6081 37.3336 21.4755 37.3336 21.3334V20H34.6671Z" fill="#D29B6E"/>
<path d="M39.263 22.7096L38.047 22.1016C37.5578 22.6931 36 22.6661 36 22.6661C36 22.6661 34.4422 22.6932 33.953 22.1016L32.737 22.7096C32.2853 22.9355 32 23.3971 32 23.9022V27.779C32 29.2268 32.4286 30.6423 33.2317 31.8469L33.3334 31.9994H38.667L38.7687 31.8466C39.5716 30.6421 40 29.227 40 27.7794V23.9021C40 23.3972 39.7147 22.9355 39.263 22.7096Z" fill="#C7CFE2"/>
<path d="M38.6664 32H33.333V36C33.333 36.3682 33.6315 36.6666 33.9997 36.6666H37.9996C38.3679 36.6666 38.6663 36.3681 38.6663 36V32H38.6664Z" fill="#7F8499"/>
<path d="M33.3334 31.9977V24.7101C33.3334 24.2904 33.1358 23.8952 32.8 23.6434L32.2025 23.1953C32.073 23.403 32 23.646 32 23.9004V27.7773C32 29.2252 32.4286 30.6405 33.2316 31.8452L33.3334 31.9977Z" fill="#AFB9D2"/>
<path d="M38.667 31.9977V24.7101C38.667 24.2904 38.8646 23.8952 39.2004 23.6434L39.7978 23.1953C39.9274 23.403 40.0004 23.646 40.0004 23.9004V27.7773C40.0004 29.2252 39.5718 30.6405 38.7687 31.8452L38.667 31.9977Z" fill="#AFB9D2"/>
<path d="M37.479 21.3852C37.4347 21.3293 37.3516 21.3244 37.301 21.3746L36.0001 22.6658L34.6991 21.3746C34.6485 21.3243 34.5655 21.3293 34.5212 21.3851L33.9531 22.1013L34.8552 23.225C34.9578 23.3528 35.1452 23.3721 35.2716 23.2676L35.6667 22.9411V31.9992H36.3334V22.9412L36.7285 23.2677C36.8549 23.3721 37.0423 23.3529 37.1449 23.2251L38.047 22.1013L37.479 21.3852Z" fill="#AFB9D2"/>
<path d="M36.0004 33.332C35.8162 33.332 35.667 33.4812 35.667 33.6654V36.6654H36.3336V33.6654C36.3337 33.4812 36.1844 33.332 36.0004 33.332Z" fill="#707487"/>
<path d="M35.9996 20.668C34.5269 20.668 33.333 19.4741 33.333 18.0013V16.668C33.333 15.5634 34.2285 14.668 35.333 14.668H36.6664C37.7709 14.668 38.6664 15.5634 38.6664 16.668V18.0013C38.6663 19.4741 37.4724 20.668 35.9996 20.668Z" fill="#F0C087"/>
<path d="M35.3331 18.0013V16.668C35.3331 15.6776 36.0547 14.861 36.9997 14.7016C36.8907 14.6832 36.7806 14.668 36.6664 14.668H35.333C34.2284 14.668 33.333 15.5634 33.333 16.668V18.0013C33.333 19.4741 34.5269 20.668 35.9997 20.668C36.3539 20.668 36.6904 20.5956 36.9996 20.4702C36.0232 20.0742 35.3331 19.1198 35.3331 18.0013Z" fill="#E6AF78"/>
<path d="M33.333 16.668C33.333 16.668 35.333 17.3346 38.6664 17.3346V16.668C38.6664 15.5634 37.771 14.668 36.6664 14.668H35.333C34.2284 14.668 33.333 15.5634 33.333 16.668Z" fill="#694B4B"/>
<path d="M35.3331 16.668C35.3331 15.6776 36.0547 14.861 36.9997 14.7016C36.8907 14.6832 36.7806 14.668 36.6664 14.668H35.333C34.2284 14.668 33.333 15.5634 33.333 16.668C33.333 16.668 34.05 16.9051 35.333 17.0965L35.3331 16.668Z" fill="#5A4146"/>
</svg>