<svg xmlns:xlink="http://www.w3.org/1999/xlink" xmlns="http://www.w3.org/2000/svg" width="40" height="40" viewBox="0 0 40 40" fill="none">
<path d="M17.5 1.875H22.5V8.125H17.5V1.875Z" fill="#5CAA26"/>
<path d="M20 33.0044L23.5356 29.4688L29.2806 35.2137H25.745V38.7494L20 33.0044Z" fill="#5CAA26"/>
<path d="M16.4647 29.4688L20.0004 33.0044L14.2554 38.7494V35.2137H10.7197L16.4647 29.4688Z" fill="#5CAA26"/>
<path d="M22.5 8.12644V5.46819C21.8141 4.84996 20.9234 4.50781 20 4.50781C19.0766 4.50781 18.1859 4.84996 17.5 5.46819V8.12644H22.5Z" fill="#4D9B1E"/>
<path d="M19.9941 33.0039L23.5291 29.4689L24.4129 30.3527L20.8779 33.8877L19.9941 33.0039Z" fill="#4D9B1E"/>
<path d="M15.5752 30.3516L16.4589 29.4678L19.9939 33.0028L19.1102 33.8866L15.5752 30.3516Z" fill="#4D9B1E"/>
<path d="M32.3746 17.0963L21.7679 6.49003C21.2991 6.0212 20.6632 5.75781 20.0002 5.75781C19.3371 5.75781 18.7013 6.0212 18.2324 6.49003L7.6258 17.0963C7.39365 17.3284 7.2095 17.604 7.08386 17.9073C6.95822 18.2107 6.89355 18.5358 6.89355 18.8641C6.89355 19.1924 6.95822 19.5175 7.08386 19.8208C7.2095 20.1241 7.39365 20.3997 7.6258 20.6318L20.0002 33.0062L32.3746 20.6318C32.6067 20.3997 32.7909 20.1241 32.9165 19.8208C33.0421 19.5175 33.1068 19.1924 33.1068 18.8641C33.1068 18.5358 33.0421 18.2107 32.9165 17.9073C32.7909 17.604 32.6067 17.3284 32.3746 17.0963Z" fill="#5CAA26"/>
<path d="M20.4458 29.0268L30.1675 19.3052C30.4115 19.0611 30.4115 18.6654 30.1675 18.4214L20.4458 8.69971C20.2018 8.45567 19.8061 8.45567 19.5621 8.69971L9.84037 18.4214C9.59633 18.6654 9.59633 19.0611 9.84037 19.3052L19.5621 29.0268C19.8061 29.2709 20.2018 29.2709 20.4458 29.0268Z" fill="#6FB638"/>
<path d="M27.0752 18.8633L23.5402 22.3983L20.0052 18.8633L23.5402 15.3283L27.0752 18.8633Z" fill="#82C349"/>
<path d="M23.54 22.3984L20.005 25.9334L16.47 22.3984L20.005 18.8634L23.54 22.3984Z" fill="#82C349"/>
<path d="M23.5391 15.3281L20.0041 18.8631L16.4691 15.3281L20.0041 11.7931L23.5391 15.3281Z" fill="#82C349"/>
<path d="M20.0039 18.8633L16.4689 22.3983L12.9339 18.8633L16.4689 15.3283L20.0039 18.8633Z" fill="#82C349"/>
<path d="M30.1644 14.8839L27.0706 17.9777L24.4189 15.3257L27.5127 12.2319L26.6289 11.3482L23.5352 14.4419L20.8835 11.7901L23.9773 8.69631L23.0935 7.81256L19.9995 10.9063L16.9058 7.8125L16.022 8.69625L19.1157 11.79L16.4641 14.4419L13.3704 11.3481L12.4866 12.2319L15.5804 15.3256L12.9287 17.9776L9.83492 14.8839L8.95117 15.7677L12.0449 18.8614L8.95117 21.9548L9.83498 22.8386L12.9287 19.7452L15.5804 22.3967L12.4867 25.4904L13.3704 26.3742L16.4642 23.2804L19.1158 25.9324L16.022 29.0261L16.9058 29.9098L19.9995 26.8161L23.0933 29.9098L23.9771 29.0261L20.8834 25.9323L23.535 23.2804L26.6287 26.3741L27.5125 25.4903L24.4188 22.3966L27.0705 19.7451L30.1642 22.8385L31.048 21.9547L27.9543 18.8613L31.048 15.7676L30.1644 14.8839ZM19.9995 12.6737L22.6512 15.3256L19.9995 17.9778L17.3479 15.3258L19.9995 12.6737ZM13.8124 18.8612L16.4641 16.2093L19.1157 18.8612L16.4641 21.5126L13.8124 18.8612ZM19.9995 25.0487L17.3479 22.3968L19.9995 19.7454L22.6512 22.3968L19.9995 25.0487ZM23.535 21.513L20.8834 18.8616L23.535 16.2097L26.1867 18.8616L23.535 21.513Z" fill="#4D9B1E"/>
<path d="M11.25 4.375C11.5952 4.375 11.875 4.09518 11.875 3.75C11.875 3.40482 11.5952 3.125 11.25 3.125C10.9048 3.125 10.625 3.40482 10.625 3.75C10.625 4.09518 10.9048 4.375 11.25 4.375Z" fill="#FADC14"/>
<path d="M5 27.5C5.34518 27.5 5.625 27.2202 5.625 26.875C5.625 26.5298 5.34518 26.25 5 26.25C4.65482 26.25 4.375 26.5298 4.375 26.875C4.375 27.2202 4.65482 27.5 5 27.5Z" fill="#FADC14"/>
<path d="M35 10.625C35.3452 10.625 35.625 10.3452 35.625 10C35.625 9.65482 35.3452 9.375 35 9.375C34.6548 9.375 34.375 9.65482 34.375 10C34.375 10.3452 34.6548 10.625 35 10.625Z" fill="#FADC14"/>
<path d="M3.125 8.75C2.95924 8.75 2.80027 8.68415 2.68306 8.56694C2.56585 8.44973 2.5 8.29076 2.5 8.125V7.5C2.5 7.33424 2.56585 7.17527 2.68306 7.05806C2.80027 6.94085 2.95924 6.875 3.125 6.875C3.29076 6.875 3.44973 6.94085 3.56694 7.05806C3.68415 7.17527 3.75 7.33424 3.75 7.5V8.125C3.75 8.29076 3.68415 8.44973 3.56694 8.56694C3.44973 8.68415 3.29076 8.75 3.125 8.75Z" fill="#FADC14"/>
<path d="M3.125 11.875C2.95924 11.875 2.80027 11.8092 2.68306 11.6919C2.56585 11.5747 2.5 11.4158 2.5 11.25V10.625C2.5 10.4592 2.56585 10.3003 2.68306 10.1831C2.80027 10.0658 2.95924 10 3.125 10C3.29076 10 3.44973 10.0658 3.56694 10.1831C3.68415 10.3003 3.75 10.4592 3.75 10.625V11.25C3.75 11.4158 3.68415 11.5747 3.56694 11.6919C3.44973 11.8092 3.29076 11.875 3.125 11.875Z" fill="#FADC14"/>
<path d="M1.875 10H1.25C1.08424 10 0.925268 9.93415 0.808058 9.81694C0.690848 9.69973 0.625 9.54076 0.625 9.375C0.625 9.20924 0.690848 9.05027 0.808058 8.93306C0.925268 8.81585 1.08424 8.75 1.25 8.75H1.875C2.04076 8.75 2.19973 8.81585 2.31694 8.93306C2.43415 9.05027 2.5 9.20924 2.5 9.375C2.5 9.54076 2.43415 9.69973 2.31694 9.81694C2.19973 9.93415 2.04076 10 1.875 10Z" fill="#FADC14"/>
<path d="M5 10H4.375C4.20924 10 4.05027 9.93415 3.93306 9.81694C3.81585 9.69973 3.75 9.54076 3.75 9.375C3.75 9.20924 3.81585 9.05027 3.93306 8.93306C4.05027 8.81585 4.20924 8.75 4.375 8.75H5C5.16576 8.75 5.32473 8.81585 5.44194 8.93306C5.55915 9.05027 5.625 9.20924 5.625 9.375C5.625 9.54076 5.55915 9.69973 5.44194 9.81694C5.32473 9.93415 5.16576 10 5 10V10Z" fill="#FADC14"/>
<path d="M36.25 25.625C36.0842 25.625 35.9253 25.5592 35.8081 25.4419C35.6908 25.3247 35.625 25.1658 35.625 25V24.375C35.625 24.2092 35.6908 24.0503 35.8081 23.9331C35.9253 23.8158 36.0842 23.75 36.25 23.75C36.4158 23.75 36.5747 23.8158 36.6919 23.9331C36.8092 24.0503 36.875 24.2092 36.875 24.375V25C36.875 25.1658 36.8092 25.3247 36.6919 25.4419C36.5747 25.5592 36.4158 25.625 36.25 25.625Z" fill="#FADC14"/>
<path d="M36.25 28.75C36.0842 28.75 35.9253 28.6842 35.8081 28.5669C35.6908 28.4497 35.625 28.2908 35.625 28.125V27.5C35.625 27.3342 35.6908 27.1753 35.8081 27.0581C35.9253 26.9408 36.0842 26.875 36.25 26.875C36.4158 26.875 36.5747 26.9408 36.6919 27.0581C36.8092 27.1753 36.875 27.3342 36.875 27.5V28.125C36.875 28.2908 36.8092 28.4497 36.6919 28.5669C36.5747 28.6842 36.4158 28.75 36.25 28.75Z" fill="#FADC14"/>
<path d="M35 26.875H34.375C34.2092 26.875 34.0503 26.8092 33.9331 26.6919C33.8158 26.5747 33.75 26.4158 33.75 26.25C33.75 26.0842 33.8158 25.9253 33.9331 25.8081C34.0503 25.6908 34.2092 25.625 34.375 25.625H35C35.1658 25.625 35.3247 25.6908 35.4419 25.8081C35.5592 25.9253 35.625 26.0842 35.625 26.25C35.625 26.4158 35.5592 26.5747 35.4419 26.6919C35.3247 26.8092 35.1658 26.875 35 26.875Z" fill="#FADC14"/>
<path d="M38.125 26.875H37.5C37.3342 26.875 37.1753 26.8092 37.0581 26.6919C36.9408 26.5747 36.875 26.4158 36.875 26.25C36.875 26.0842 36.9408 25.9253 37.0581 25.8081C37.1753 25.6908 37.3342 25.625 37.5 25.625H38.125C38.2908 25.625 38.4497 25.6908 38.5669 25.8081C38.6842 25.9253 38.75 26.0842 38.75 26.25C38.75 26.4158 38.6842 26.5747 38.5669 26.6919C38.4497 26.8092 38.2908 26.875 38.125 26.875Z" fill="#FADC14"/>
<path d="M30 3.125C29.8342 3.125 29.6753 3.05915 29.5581 2.94194C29.4408 2.82473 29.375 2.66576 29.375 2.5V1.875C29.375 1.70924 29.4408 1.55027 29.5581 1.43306C29.6753 1.31585 29.8342 1.25 30 1.25C30.1658 1.25 30.3247 1.31585 30.4419 1.43306C30.5592 1.55027 30.625 1.70924 30.625 1.875V2.5C30.625 2.66576 30.5592 2.82473 30.4419 2.94194C30.3247 3.05915 30.1658 3.125 30 3.125Z" fill="#FADC14"/>
<path d="M30 6.25C29.8342 6.25 29.6753 6.18415 29.5581 6.06694C29.4408 5.94973 29.375 5.79076 29.375 5.625V5C29.375 4.83424 29.4408 4.67527 29.5581 4.55806C29.6753 4.44085 29.8342 4.375 30 4.375C30.1658 4.375 30.3247 4.44085 30.4419 4.55806C30.5592 4.67527 30.625 4.83424 30.625 5V5.625C30.625 5.79076 30.5592 5.94973 30.4419 6.06694C30.3247 6.18415 30.1658 6.25 30 6.25Z" fill="#FADC14"/>
<path d="M28.75 4.375H28.125C27.9592 4.375 27.8003 4.30915 27.6831 4.19194C27.5658 4.07473 27.5 3.91576 27.5 3.75C27.5 3.58424 27.5658 3.42527 27.6831 3.30806C27.8003 3.19085 27.9592 3.125 28.125 3.125H28.75C28.9158 3.125 29.0747 3.19085 29.1919 3.30806C29.3092 3.42527 29.375 3.58424 29.375 3.75C29.375 3.91576 29.3092 4.07473 29.1919 4.19194C29.0747 4.30915 28.9158 4.375 28.75 4.375Z" fill="#FADC14"/>
<path d="M31.875 4.375H31.25C31.0842 4.375 30.9253 4.30915 30.8081 4.19194C30.6908 4.07473 30.625 3.91576 30.625 3.75C30.625 3.58424 30.6908 3.42527 30.8081 3.30806C30.9253 3.19085 31.0842 3.125 31.25 3.125H31.875C32.0408 3.125 32.1997 3.19085 32.3169 3.30806C32.4342 3.42527 32.5 3.58424 32.5 3.75C32.5 3.91576 32.4342 4.07473 32.3169 4.19194C32.1997 4.30915 32.0408 4.375 31.875 4.375Z" fill="#FADC14"/>
</svg>