<svg xmlns:xlink="http://www.w3.org/1999/xlink" xmlns="http://www.w3.org/2000/svg" width="40" height="40" viewBox="0 0 40 40" fill="none">
<g clip-path="url(#clip0_1540_12728)">
<path d="M18.0883 6.61914C18.1187 6.60945 18.1504 6.60453 18.1826 6.60453C18.2147 6.60453 18.2464 6.60945 18.2769 6.61914C18.4448 6.67258 18.6086 6.73023 18.7686 6.79148V4.39844C18.7686 4.07477 18.5063 3.8125 18.1826 3.8125C17.8589 3.8125 17.5967 4.07477 17.5967 4.39844V6.79148C17.7567 6.73023 17.9204 6.67258 18.0883 6.61914Z" fill="#4FC123"/>
<path d="M21.7034 13.5359C22.2766 12.8199 22.6031 12.0005 22.6031 11.1291C22.6031 9.10312 20.8432 7.35508 18.3009 6.54562C18.2244 6.52125 18.1414 6.52125 18.0649 6.54562C15.5225 7.35508 13.7627 9.10312 13.7627 11.1291C13.7627 12.0005 14.0892 12.8199 14.6624 13.5359H21.7034Z" fill="#4FC123"/>
<path d="M17.1363 13.4577C16.601 12.7606 16.2979 11.969 16.2979 11.1291C16.2979 9.42547 17.5429 7.91906 19.4505 7.00125C19.0895 6.82758 18.7054 6.67445 18.3009 6.54562C18.2244 6.52125 18.1414 6.52125 18.0649 6.54562C15.5225 7.35508 13.7627 9.10312 13.7627 11.1291C13.7627 11.9688 14.0652 12.7606 14.6001 13.4577H17.1363Z" fill="#47A920"/>
<path d="M14.9404 14.5508V29.113C16.8521 30.4003 19.0536 31.2887 21.4246 31.6581V14.5508H14.9404Z" fill="#FEF1DA"/>
<path d="M14.9404 14.6289V29.027C15.7322 29.563 16.575 30.0291 17.4592 30.4186V14.6289H14.9404Z" fill="#FAE2C0"/>
<path d="M19.0742 20.2235H17.2908C17.2019 20.2235 17.1299 20.1515 17.1299 20.0626V17.7323C17.1299 17.151 17.6011 16.6797 18.1825 16.6797C18.7639 16.6797 19.2352 17.1509 19.2352 17.7323V20.0626C19.2351 20.1514 19.1631 20.2235 19.0742 20.2235V20.2235Z" fill="#80D261"/>
<path d="M17.975 20.0626V17.7323C17.975 17.3014 18.2343 16.9314 18.605 16.7686C18.4757 16.7118 18.3329 16.6797 18.1825 16.6797C17.6012 16.6797 17.1299 17.1509 17.1299 17.7323V20.0626C17.1299 20.1515 17.2019 20.2235 17.2908 20.2235H18.1359C18.047 20.2236 17.975 20.1515 17.975 20.0626V20.0626Z" fill="#4FC123"/>
<path d="M19.0742 26.4618H17.2908C17.2019 26.4618 17.1299 26.3897 17.1299 26.3009V23.9706C17.1299 23.3893 17.6011 22.918 18.1825 22.918C18.7639 22.918 19.2352 23.3892 19.2352 23.9706V26.3009C19.2351 26.3897 19.1631 26.4618 19.0742 26.4618V26.4618Z" fill="#80D261"/>
<path d="M17.975 26.3009V23.9706C17.975 23.5397 18.2343 23.1697 18.605 23.0069C18.4757 22.9501 18.3329 22.918 18.1825 22.918C17.6012 22.918 17.1299 23.3892 17.1299 23.9706V26.3009C17.1299 26.3898 17.2019 26.4618 17.2908 26.4618H18.1359C18.047 26.4619 17.975 26.3898 17.975 26.3009V26.3009Z" fill="#4FC123"/>
<path d="M22.3093 14.6289H14.0566C13.733 14.6289 13.4707 14.3666 13.4707 14.043C13.4707 13.7193 13.733 13.457 14.0566 13.457H22.3093C22.633 13.457 22.8952 13.7193 22.8952 14.043C22.8952 14.3666 22.6329 14.6289 22.3093 14.6289Z" fill="#80D261"/>
<path d="M27.4399 14.4512C27.4703 14.4415 27.502 14.4366 27.5342 14.4366C27.5664 14.4366 27.5981 14.4415 27.6286 14.4512C27.7964 14.5046 27.9602 14.5623 28.1201 14.6235V12.2305C28.1201 11.9068 27.8579 11.6445 27.5342 11.6445C27.2105 11.6445 26.9482 11.9068 26.9482 12.2305V14.6235C27.1082 14.5623 27.272 14.5046 27.4399 14.4512Z" fill="#4FC123"/>
<path d="M31.055 21.3679C31.6282 20.652 31.9546 19.8325 31.9546 18.9612C31.9546 16.9352 30.1948 15.1871 27.6525 14.3777C27.576 14.3533 27.4929 14.3533 27.4164 14.3777C24.8741 15.1871 23.1143 16.9352 23.1143 18.9612C23.1143 19.8325 23.4407 20.652 24.0139 21.3679H31.055Z" fill="#4FC123"/>
<path d="M26.4736 21.2898C25.9379 20.5927 25.6337 19.8012 25.6337 18.9612C25.6337 17.2552 26.8821 15.747 28.7942 14.8295C28.4355 14.6574 28.0539 14.5056 27.6525 14.3777C27.576 14.3533 27.493 14.3533 27.4164 14.3777C24.8741 15.1871 23.1143 16.9352 23.1143 18.9612C23.1143 19.801 23.4179 20.5926 23.9532 21.2898H26.4736Z" fill="#47A920"/>
<path d="M24.292 22.3828V31.8466C26.5566 31.7939 28.7611 31.2673 30.7762 30.3178V22.3828H24.292Z" fill="#FEF1DA"/>
<path d="M24.292 22.4609V31.7686C25.1446 31.7488 25.9804 31.6616 26.795 31.5138V22.4609H24.292Z" fill="#FAE2C0"/>
<path d="M28.4257 27.9305H26.6424C26.5535 27.9305 26.4814 27.8585 26.4814 27.7696V25.4394C26.4814 24.858 26.9527 24.3867 27.5341 24.3867C28.1154 24.3867 28.5868 24.858 28.5868 25.4394V27.7696C28.5867 27.8584 28.5146 27.9305 28.4257 27.9305Z" fill="#80D261"/>
<path d="M27.3107 27.7696V25.4394C27.3107 25.0053 27.5736 24.6328 27.9487 24.4718C27.8214 24.4172 27.6814 24.3867 27.5341 24.3867C26.9528 24.3867 26.4814 24.858 26.4814 25.4394V27.7696C26.4814 27.8585 26.5536 27.9305 26.6424 27.9305H27.4717C27.3828 27.9306 27.3107 27.8585 27.3107 27.7696Z" fill="#4FC123"/>
<path d="M31.6609 22.4609H23.4082C23.0845 22.4609 22.8223 22.1987 22.8223 21.875C22.8223 21.5513 23.0845 21.2891 23.4082 21.2891H31.6609C31.9845 21.2891 32.2468 21.5513 32.2468 21.875C32.2468 22.1987 31.9845 22.4609 31.6609 22.4609Z" fill="#80D261"/>
<path d="M32.4166 8.75621C32.7813 9.87145 33.1862 10.2763 34.3015 10.6411C34.4505 10.6899 34.4505 10.899 34.3015 10.9478C33.1862 11.3125 32.7814 11.7174 32.4166 12.8327C32.3678 12.9817 32.1587 12.9817 32.1099 12.8327C31.7452 11.7174 31.3403 11.3126 30.225 10.9478C30.076 10.899 30.076 10.6899 30.225 10.6411C31.3403 10.2764 31.7451 9.87152 32.1099 8.75621C32.1587 8.6073 32.3678 8.6073 32.4166 8.75621V8.75621Z" fill="#FED402"/>
<path d="M31.2633 10.1406C31.0018 10.342 30.6707 10.4951 30.225 10.6409C30.0761 10.6897 30.0761 10.8988 30.225 10.9476C31.3403 11.3123 31.7451 11.7172 32.1099 12.8325C32.1586 12.9815 32.3678 12.9815 32.4165 12.8325C32.5447 12.4405 32.6786 12.1376 32.8459 11.892C32.5178 10.9026 32.1506 10.4799 31.2633 10.1406Z" fill="#FAC600"/>
<path d="M31.3609 1.57268C31.7257 2.68799 32.1305 3.09275 33.2458 3.4576C33.3948 3.50635 33.3948 3.71549 33.2458 3.76424C32.1305 4.129 31.7258 4.53385 31.3609 5.64916C31.3122 5.79814 31.103 5.79814 31.0543 5.64916C30.6895 4.53393 30.2847 4.12908 29.1694 3.76424C29.0204 3.71549 29.0204 3.50635 29.1694 3.4576C30.2847 3.09283 30.6894 2.68799 31.0543 1.57268C31.1029 1.42369 31.3122 1.42369 31.3609 1.57268Z" fill="#FED402"/>
<path d="M30.1566 2.99609C29.9033 3.17844 29.586 3.32039 29.1694 3.45672C29.0204 3.50547 29.0204 3.71461 29.1694 3.76336C30.2847 4.1282 30.6895 4.53297 31.0543 5.64828C31.103 5.79727 31.3122 5.79727 31.3609 5.64828C31.4916 5.24883 31.628 4.94164 31.7997 4.69367C31.4678 3.73539 31.0834 3.33148 30.1566 2.99609V2.99609Z" fill="#FAC600"/>
<path d="M25.9794 5.37914L24.7776 6.58094C24.7147 6.64383 24.7147 6.7457 24.7776 6.80859L25.9794 8.01039C26.0423 8.07328 26.1442 8.07328 26.2071 8.01039L27.409 6.80859C27.4719 6.7457 27.4719 6.64383 27.409 6.58094L26.2071 5.37914C26.1443 5.31633 26.0423 5.31633 25.9794 5.37914Z" fill="#FED402"/>
<path d="M25.8289 6.80859C25.766 6.7457 25.766 6.64383 25.8289 6.58094L26.6189 5.79094L26.2071 5.37914C26.1443 5.31633 26.0423 5.31633 25.9794 5.37914L24.7776 6.58102C24.7147 6.64391 24.7147 6.74578 24.7776 6.80867L25.9794 8.01047C26.0423 8.07336 26.1442 8.07336 26.2071 8.01047L26.6189 7.59867L25.8289 6.80859Z" fill="#FAC600"/>
<path d="M39.8458 17.5066C38.9676 25.529 32.1704 31.7714 23.9142 31.7714C15.0619 31.7714 7.88562 24.5952 7.88562 15.7428C7.88562 7.95344 13.4423 1.46281 20.8077 0.0161719C20.5398 0.00554687 20.2705 0 20 0C8.9543 0 0 8.9543 0 20C0 31.0457 8.9543 40 20 40C31.0457 40 40 31.0457 40 20C40 19.1556 39.9474 18.3235 39.8458 17.5066Z" fill="#FED402"/>
<path d="M22.4548 37.5444C11.4091 37.5444 2.45477 28.5901 2.45477 17.5444C2.45477 12.6465 4.21641 8.1607 7.1393 4.68359C2.77477 8.35242 0 13.8513 0 19.9991C0 31.0448 8.9543 39.9991 20 39.9991C26.1478 39.9991 31.6467 37.2244 35.3155 32.8599C31.8384 35.7828 27.3527 37.5444 22.4548 37.5444Z" fill="#FAC600"/>
</g>
<defs>
<clipPath id="clip0_1540_12728">
<rect width="40" height="40" fill="white"/>
</clipPath>
</defs>
</svg>