<svg xmlns:xlink="http://www.w3.org/1999/xlink" xmlns="http://www.w3.org/2000/svg" width="40" height="40" viewBox="0 0 40 40" fill="none">
<g clip-path="url(#clip0_1540_13503)">
<path d="M22.0584 23.7305L30.4979 25.7293C32.6561 26.2404 34.18 28.1676 34.18 30.3853V39.2061C34.18 39.644 33.825 39.9989 33.3872 39.9989H19.5064H5.62582C5.18793 39.9989 4.83301 39.6439 4.83301 39.2061V30.3853C4.83301 28.1675 6.35699 26.2404 8.51512 25.7293L16.9546 23.7305H22.0584Z" fill="#B9EA6A"/>
<path d="M30.708 25.7852C31.3392 26.6013 31.7083 27.6211 31.7083 28.7116V39.9999H33.3876C33.8255 39.9999 34.1804 39.6449 34.1804 39.2071V30.3863C34.1804 28.2411 32.7544 26.368 30.708 25.7852Z" fill="#95D528"/>
<path d="M22.0585 23.7305H16.9546L14.5947 24.2894C14.8733 26.7534 16.9693 28.6748 19.5066 28.6748C22.0439 28.6748 24.1398 26.7534 24.4185 24.2894L22.0585 23.7305Z" fill="#95D528"/>
<path d="M16.9541 23.7296C16.9541 25.139 18.0966 26.2816 19.506 26.2816C20.9154 26.2816 22.0579 25.1391 22.0579 23.7296V20.6992H16.9541V23.7296Z" fill="#FCD0A3"/>
<path d="M16.9541 22.4337C17.7557 22.7051 18.6139 22.8523 19.5061 22.8523C20.3981 22.8523 21.2564 22.7051 22.058 22.4337V20.6992H16.9542V22.4337H16.9541Z" fill="#FFB983"/>
<path d="M13.127 9.73438V14.7972C13.127 18.315 15.9407 21.2308 19.4584 21.2569C23.004 21.2831 25.8865 18.4168 25.8865 14.8773C25.8865 13.7148 25.8865 10.8968 25.8865 9.73438H13.127Z" fill="#FCD0A3"/>
<path d="M23.653 9.73438V14.8773C23.653 18.0196 21.3805 20.6295 18.3896 21.1577C18.7524 21.2217 19.125 21.257 19.5061 21.257C23.0296 21.257 25.8859 18.4007 25.8859 14.8773C25.8859 13.7148 25.8859 10.8968 25.8859 9.73438H23.653Z" fill="#FFB983"/>
<path d="M27.6541 14.8774H25.8867V11.6875H27.6541C27.9993 11.6875 28.2791 11.9673 28.2791 12.3125V14.2524C28.2791 14.5976 27.9993 14.8774 27.6541 14.8774V14.8774Z" fill="#FCD0A3"/>
<path d="M11.3594 14.8774H13.1268V11.6875H11.3594C11.0142 11.6875 10.7344 11.9673 10.7344 12.3125V14.2524C10.7344 14.5976 11.0142 14.8774 11.3594 14.8774V14.8774Z" fill="#FCD0A3"/>
<path d="M22.138 9.73578C22.138 9.73578 20.4633 11.6888 13.1265 11.6888H11.3721V8.77883C11.3721 4.81492 14.5854 1.60156 18.5493 1.60156H20.543C21.4239 1.60156 22.1379 2.31562 22.1379 3.19648V9.73578H22.138Z" fill="#586B76"/>
<path d="M22.1377 9.7375C22.1377 9.7375 23.0946 11.6905 25.8858 11.6905H27.6403V8.265C27.6403 5.46508 25.3705 3.19531 22.5706 3.19531H22.1377V9.7375Z" fill="#465961"/>
<path d="M35.0206 5.88473L35.3798 5.72145C35.6277 5.60879 35.6277 5.25668 35.3798 5.14402L35.0206 4.98074C34.6792 4.82551 34.417 4.53629 34.296 4.18121L34.0024 3.32027C33.9048 3.03387 33.4997 3.03387 33.4021 3.32027L33.1086 4.18121C32.9876 4.53621 32.7253 4.82551 32.3839 4.98074L32.0248 5.14402C31.7769 5.25668 31.7769 5.60879 32.0248 5.72145L32.3839 5.88473C32.7254 6.03996 32.9876 6.32918 33.1086 6.68426L33.4021 7.5452C33.4998 7.8316 33.9049 7.8316 34.0024 7.5452L34.296 6.68426C34.417 6.32918 34.6792 6.03988 35.0206 5.88473V5.88473Z" fill="#FDF3AC"/>
<path d="M7.82631 15.9277L8.18545 15.7644C8.43334 15.6518 8.43334 15.2996 8.18545 15.187L7.82631 15.0237C7.48482 14.8685 7.22264 14.5793 7.10162 14.2242L6.80811 13.3632C6.71045 13.0768 6.30537 13.0768 6.20779 13.3632L5.91428 14.2242C5.79326 14.5792 5.531 14.8685 5.18959 15.0237L4.83045 15.187C4.58256 15.2996 4.58256 15.6518 4.83045 15.7644L5.18959 15.9277C5.53107 16.0829 5.79326 16.3721 5.91428 16.7272L6.20779 17.5882C6.30545 17.8746 6.71053 17.8746 6.80811 17.5882L7.10162 16.7272C7.22264 16.3722 7.4849 16.0829 7.82631 15.9277Z" fill="#FDF3AC"/>
<path d="M32.1073 14.8806C32.7679 14.8806 33.3035 14.3451 33.3035 13.6845C33.3035 13.0238 32.7679 12.4883 32.1073 12.4883C31.4467 12.4883 30.9111 13.0238 30.9111 13.6845C30.9111 14.3451 31.4467 14.8806 32.1073 14.8806Z" fill="#90D8F9"/>
<path d="M5.63074 6.90406C6.29137 6.90406 6.82691 6.36852 6.82691 5.70789C6.82691 5.04726 6.29137 4.51172 5.63074 4.51172C4.97011 4.51172 4.43457 5.04726 4.43457 5.70789C4.43457 6.36852 4.97011 6.90406 5.63074 6.90406Z" fill="#90D8F9"/>
<path d="M30.1238 36.1727V40.0005H28.9346V36.1727C28.9346 35.8445 29.201 35.5781 29.5292 35.5781C29.8574 35.5781 30.1238 35.8445 30.1238 36.1727Z" fill="#95D528"/>
<path d="M10.0789 36.1727V40.0005H8.88965V36.1727C8.88965 35.8445 9.15605 35.5781 9.48426 35.5781C9.81246 35.5781 10.0789 35.8445 10.0789 36.1727Z" fill="#95D528"/>
<path d="M29.902 7.12186C29.6357 6.93006 29.2639 6.99037 29.072 7.25686C28.88 7.52334 28.9405 7.89491 29.207 8.08686C30.2969 8.87178 30.5071 9.286 30.5471 9.40592C30.3319 9.54717 29.3722 9.75084 26.8912 9.31991C25.2684 9.03811 23.3441 8.54616 21.3136 7.90037C24.1419 6.82983 26.7075 5.63303 28.6041 4.49545C31.0486 3.02936 32.0261 1.90412 31.6805 0.954358C31.329 -0.0112666 29.87 -0.0418916 28.8029 0.019124C28.475 0.037874 28.2243 0.318811 28.2431 0.646624C28.2619 0.974593 28.545 1.22342 28.8707 1.20639C30.0564 1.13819 30.4462 1.30569 30.5484 1.36834C30.4745 1.61483 29.8702 2.38772 27.6926 3.65241C25.7106 4.80358 23.0216 6.01889 20.1211 7.07459C19.9157 7.14936 19.7109 7.22241 19.5063 7.29451C19.3017 7.22241 19.0968 7.14936 18.8914 7.07459C15.991 6.01889 13.3021 4.80358 11.32 3.65248C9.14231 2.38764 8.53809 1.61491 8.46418 1.36834C8.56645 1.30569 8.95668 1.13834 10.1418 1.20639C10.4692 1.2235 10.7507 0.974515 10.7694 0.646624C10.7882 0.318811 10.5375 0.0377959 10.2097 0.019124C9.1427 -0.0416572 7.68355 -0.0111885 7.33207 0.95428C6.98637 1.90412 7.96387 3.02936 10.4085 4.49545C12.305 5.63303 14.8706 6.82983 17.6989 7.90037C15.6685 8.54616 13.7442 9.03811 12.1214 9.31991C9.64004 9.75084 8.68043 9.54725 8.46543 9.40584C8.50543 9.286 8.71566 8.87178 9.80551 8.08686C10.072 7.89491 10.1325 7.52334 9.94051 7.25686C9.74863 6.99045 9.37699 6.9299 9.11051 7.12186C8.17207 7.7978 6.9666 8.81241 7.33207 9.81639C7.56512 10.4565 8.3098 10.7714 9.63254 10.7714C10.2723 10.7714 11.0473 10.6978 11.965 10.5516C14.0896 10.2133 16.7357 9.51061 19.5062 8.55397C22.2767 9.51061 24.9228 10.2133 27.0475 10.5516C27.9654 10.6977 28.74 10.7715 29.3799 10.7714C30.7025 10.7713 31.4475 10.4565 31.6804 9.81631C32.0459 8.81241 30.8404 7.79772 29.902 7.12186V7.12186Z" fill="#C7EEFB"/>
</g>
<defs>
<clipPath id="clip0_1540_13503">
<rect width="40" height="40" fill="white"/>
</clipPath>
</defs>
</svg>