<svg xmlns:xlink="http://www.w3.org/1999/xlink" xmlns="http://www.w3.org/2000/svg" width="40" height="40" viewBox="0 0 40 40" fill="none">
<g clip-path="url(#clip0_1540_13075)">
<path d="M26.0115 22.4219C18.6098 22.4337 12.5338 16.4087 12.4859 9.00726C12.4736 7.09944 12.8569 5.28249 13.5586 3.63374C13.9258 2.77108 12.9879 1.93023 12.1816 2.40866C7.54091 5.1621 4.41442 10.199 4.35153 15.9716C4.25536 24.8017 11.4871 32.1161 20.3176 32.1161C27.53 32.1161 33.6253 27.3339 35.6061 20.7675C35.8749 19.8763 34.8402 19.1595 34.0961 19.7189C31.844 21.4119 29.0451 22.4171 26.0115 22.4219V22.4219Z" fill="#EEC06B"/>
<path d="M35.0042 19.5836C32.5668 25.2837 26.9091 29.2782 20.3176 29.2783C12.0254 29.2784 5.14349 22.8284 4.41482 14.7305C4.37864 15.1407 4.35614 15.5548 4.35153 15.9734C4.25536 24.8034 11.4871 32.1178 20.3176 32.1178C27.5301 32.1178 33.6252 27.3356 35.6061 20.7692C35.77 20.2255 35.4486 19.7473 35.0042 19.5836V19.5836Z" fill="#E9A52D"/>
<path d="M21.1218 21.9662V32.0973C26.3327 31.8387 30.8858 29.0826 33.6089 25.0007C33.5709 23.4623 32.9439 22.0709 31.9437 21.043C30.1537 21.9238 28.1405 22.4205 26.0116 22.4239C24.2781 22.4266 22.6174 22.0983 21.0898 21.4988C21.1102 21.6527 21.1218 21.8087 21.1218 21.9662V21.9662Z" fill="#E9A52D"/>
<path d="M16.2988 18.3014C16.7199 18.7365 17.1701 19.1435 17.646 19.5193C18.5135 20.2043 19.027 21.2427 19.027 22.348V38.8668C19.027 39.4926 19.5344 40 20.1602 40H22.9933C25.2552 40 27.0888 38.1663 27.0888 35.9044V34.8236H28.4452C30.1422 34.8236 31.5179 33.4479 31.5179 31.7508V25.5304C31.5179 22.2776 28.8809 19.6407 25.6281 19.6407H23.1627V19.4297C23.1627 17.6358 21.3701 16.3947 19.6909 17.026L16.2988 18.3014Z" fill="#DDEBFD"/>
<path d="M25.6284 19.6406H23.6016C26.8544 19.6406 29.4913 22.2776 29.4913 25.5304V31.7508C29.4913 33.4478 28.1156 34.8235 26.4186 34.8235H26.1432C25.5462 34.8235 25.0623 35.3074 25.0623 35.9044C25.0623 38.1662 23.2287 39.9999 20.9668 39.9999H22.9937C25.2555 39.9999 27.0892 38.1663 27.0892 35.9044V34.8235H28.4455C30.1426 34.8235 31.5183 33.4478 31.5183 31.7508V25.5304C31.5183 22.2776 28.8813 19.6406 25.6284 19.6406V19.6406Z" fill="#BED9FD"/>
<path d="M23.7181 25.3945C24.0246 25.3945 24.2731 25.1461 24.2731 24.8395V19.6406H23.1631V24.8395C23.1631 25.1461 23.4115 25.3945 23.7181 25.3945V25.3945Z" fill="#BED9FD"/>
<path d="M27.6439 28.6875C27.3373 28.6875 27.0889 28.9359 27.0889 29.2425V34.8235H28.1989V29.2425C28.1989 28.9359 27.9504 28.6875 27.6439 28.6875V28.6875Z" fill="#BED9FD"/>
<path d="M26.5736 14.4446H24.3171C24.0253 14.4446 23.7562 14.2859 23.615 14.0306C23.4736 13.7752 23.4822 13.463 23.6373 13.2158L25.4982 10.2517H23.9413C23.6129 10.2517 23.3467 9.98547 23.3467 9.65711C23.3467 9.32875 23.6129 9.0625 23.9413 9.0625H26.1979C26.4897 9.0625 26.7588 9.22117 26.9 9.47664C27.0413 9.73211 27.0326 10.0444 26.8774 10.2916L25.0167 13.2554H26.5736C26.902 13.2554 27.1682 13.5216 27.1682 13.85C27.1682 14.1784 26.902 14.4446 26.5736 14.4446V14.4446ZM26.1979 10.2517H26.1986H26.1979Z" fill="#8C818F"/>
<path d="M23.1976 5.38219H20.9411C20.6493 5.38219 20.3802 5.22352 20.239 4.9682C20.0977 4.71281 20.1062 4.40055 20.2613 4.15336L22.1222 1.1893H20.5653C20.2369 1.1893 19.9707 0.923047 19.9707 0.594687C19.9707 0.266328 20.2369 0 20.5653 0H22.8219C23.1137 0 23.3828 0.158672 23.5241 0.414141C23.6653 0.669609 23.6566 0.981875 23.5014 1.22906L21.6407 4.19289H23.1976C23.526 4.19289 23.7923 4.45914 23.7923 4.7875C23.7923 5.11586 23.526 5.38219 23.1976 5.38219ZM22.8219 1.1893H22.8227H22.8219Z" fill="#8C818F"/>
<path d="M33.6127 9.38602H31.3562C31.0643 9.38602 30.7952 9.22734 30.6539 8.97188C30.5127 8.71641 30.5214 8.40422 30.6766 8.15695L32.5373 5.19312H30.9804C30.652 5.19312 30.3857 4.92688 30.3857 4.59852C30.3857 4.27016 30.6519 4.00391 30.9804 4.00391H33.237C33.5289 4.00391 33.7979 4.16258 33.9392 4.41805C34.0804 4.67352 34.0718 4.98578 33.9165 5.23297L32.0558 8.1968H33.6127C33.9411 8.1968 34.2074 8.46305 34.2074 8.79141C34.2074 9.11977 33.9411 9.38602 33.6127 9.38602V9.38602ZM33.237 5.19312H33.2378H33.237Z" fill="#8C818F"/>
</g>
<defs>
<clipPath id="clip0_1540_13075">
<rect width="40" height="40" fill="white"/>
</clipPath>
</defs>
</svg>