<svg xmlns:xlink="http://www.w3.org/1999/xlink" xmlns="http://www.w3.org/2000/svg" width="40" height="40" viewBox="0 0 40 40" fill="none">
<g clip-path="url(#clip0_1540_13429)">
<path d="M2.93359 6.15162C2.93403 5.77745 3.17512 5.44606 3.53071 5.3307L19.6752 0.0845873C20.0265 -0.0294774 20.4049 -0.0281812 20.7553 0.0884759L36.4755 5.32681C36.8285 5.44433 37.0666 5.77443 37.0666 6.14644V33.8443C37.0662 34.2185 36.8251 34.5499 36.4695 34.6652L20.7558 39.9087C20.4054 40.0254 20.0269 40.0271 19.6756 39.9131L3.52466 34.6691C3.17166 34.5516 2.93359 34.2211 2.93359 33.849V6.15162Z" fill="#1E2F59"/>
<path d="M37.0663 6.14631V33.8459C37.065 34.2192 36.8248 34.5497 36.47 34.6668L20.7559 39.9077C20.5822 39.9678 20.3994 39.9985 20.2158 39.9985V11.478C20.4042 11.4784 20.5913 11.446 20.7689 11.3829L37.0447 5.96484C37.0581 6.02447 37.0654 6.08539 37.0663 6.14631Z" fill="#2D3C6B"/>
<path d="M20.216 17.0962V19.6886H20.2073C19.57 19.6341 18.9453 19.4825 18.3538 19.2392C18.1762 19.1813 18.0557 19.0158 18.0557 18.8287V17.0098C18.0557 16.7713 18.2492 16.5777 18.4882 16.5781C18.5335 16.5781 18.5785 16.5855 18.6217 16.5993L20.0648 17.0702C20.1136 17.0871 20.1646 17.0962 20.216 17.0962Z" fill="#E0B95E"/>
<path d="M14.301 15.2002L11.2765 14.2194C11.0471 14.1472 10.803 14.2747 10.7308 14.5041C10.7179 14.5452 10.7114 14.5875 10.7109 14.6303V16.445C10.7109 16.632 10.8315 16.798 11.0095 16.8558L14.0339 17.8366C14.0771 17.8509 14.1221 17.8578 14.1674 17.8578C14.4055 17.8565 14.5982 17.6638 14.5995 17.4257V15.6111C14.5995 15.424 14.479 15.2581 14.301 15.2002Z" fill="#E0B95E"/>
<path d="M6.82216 13.0868V14.9015C6.82 15.1391 6.62774 15.3314 6.3901 15.3336C6.34473 15.3327 6.29937 15.3253 6.25616 15.312L2.93359 14.2318V11.5314C2.97939 11.5301 3.02476 11.5374 3.06753 11.553L6.52404 12.6764C6.70162 12.7343 6.82216 12.8997 6.82216 13.0868Z" fill="#E0B95E"/>
<path d="M22.3761 16.998V18.8213C22.3748 19.008 22.2552 19.173 22.078 19.2318C21.4844 19.4781 20.8561 19.6328 20.2158 19.6898V17.0974C20.2616 17.097 20.307 17.0883 20.3498 17.0715L21.8058 16.5876C22.0352 16.5137 22.2811 16.6394 22.355 16.8688C22.3684 16.9108 22.3757 16.9544 22.3761 16.998Z" fill="#F9DD64"/>
<path d="M29.7216 14.5527V16.3717C29.7203 16.5571 29.6028 16.7212 29.4278 16.7822L26.4033 17.7889C26.3584 17.8023 26.3117 17.8096 26.2651 17.8105C26.0274 17.8083 25.8352 17.616 25.833 17.3784V15.5594C25.8343 15.3741 25.9518 15.2099 26.1268 15.149L29.1513 14.1423C29.3807 14.0684 29.6265 14.1941 29.7004 14.4235C29.7138 14.4654 29.7211 14.5091 29.7216 14.5527Z" fill="#F9DD64"/>
<path d="M37.0669 11.5313V14.236L34.1764 15.1952C34.1331 15.209 34.0878 15.2164 34.0424 15.2168C33.8048 15.2147 33.6125 15.0224 33.6104 14.7848V12.9701C33.6116 12.7847 33.7292 12.6206 33.9042 12.5596L36.9286 11.5529C36.9731 11.5378 37.0198 11.5305 37.0669 11.5313Z" fill="#F9DD64"/>
<path d="M31.8819 26.8629V36.1955L25.833 38.2132V28.9001C25.8326 28.5276 26.0706 28.1967 26.4241 28.0792L31.3133 26.452C31.5397 26.3764 31.7842 26.4991 31.8599 26.7255C31.8745 26.7696 31.8819 26.8162 31.8819 26.8629Z" fill="#F9DD64"/>
<path d="M37.0454 5.9653L20.7696 11.3834C20.4119 11.5078 20.0226 11.5095 19.6635 11.3877L2.95996 5.9653C3.02218 5.66674 3.23994 5.42435 3.53028 5.33016L19.6765 0.0853472C20.0278 -0.0300137 20.4067 -0.0282855 20.7567 0.0896679L36.4751 5.32628C36.765 5.42349 36.9815 5.66631 37.0454 5.9653Z" fill="#3C5082"/>
<path d="M37.0666 9.82854V10.7359L20.9031 16.1155C20.681 16.1928 20.4473 16.2326 20.2118 16.2322C19.9781 16.2317 19.7465 16.1937 19.5248 16.1198L2.93359 10.7316V9.82422L19.797 15.2985C20.0675 15.3892 20.3604 15.3892 20.6309 15.2985L37.0666 9.82854Z" fill="#E0B95E"/>
<path d="M37.0666 15.0212V15.9199L20.9031 21.2995C20.681 21.3768 20.4473 21.4166 20.2118 21.4162C19.9781 21.4157 19.7465 21.3777 19.5248 21.3038L2.93359 15.9156V15.0039L19.797 20.4825C20.0675 20.5732 20.3604 20.5732 20.6309 20.4825L37.0666 15.0212Z" fill="#E0B95E"/>
<path d="M37.0663 9.82812V10.7355L20.9028 16.1151C20.682 16.1924 20.4496 16.2322 20.2158 16.2317V15.3676C20.3567 15.3659 20.4967 15.3426 20.6306 15.2985L37.0663 9.82812Z" fill="#F9DD64"/>
<path d="M34.0419 12.9676V14.7823L37.0663 13.7799V11.9609L34.0419 12.9676ZM26.2647 15.5557V17.3747L29.2892 16.368V14.549L26.2647 15.5557ZM20.488 17.4784C20.4007 17.5091 20.3087 17.5251 20.2158 17.5259V19.2542C20.4967 19.2542 20.7758 19.2075 21.0411 19.1159L21.9441 18.8178V16.9945L20.488 17.4784Z" fill="#F9DD64"/>
<path d="M37.0663 15.0234V15.9221L20.9028 21.3018C20.682 21.3791 20.4496 21.4188 20.2158 21.4184V20.5543C20.3567 20.5526 20.4967 20.5292 20.6306 20.4852L37.0663 15.0234Z" fill="#F9DD64"/>
</g>
<defs>
<clipPath id="clip0_1540_13429">
<rect width="40" height="40" fill="white"/>
</clipPath>
</defs>
</svg>