<svg xmlns:xlink="http://www.w3.org/1999/xlink" xmlns="http://www.w3.org/2000/svg" width="40" height="40" viewBox="0 0 40 40" fill="none">
<g clip-path="url(#clip0_1544_13754)">
<path d="M13.3789 39.0938L16.2578 32.3958L18.4114 33.3214L15.5325 40.0194L13.3789 39.0938Z" fill="#AED0FF"/>
<path d="M19.2041 39.0938L22.083 32.3958L24.2365 33.3214L21.3577 40.0194L19.2041 39.0938Z" fill="#AED0FF"/>
<path d="M22.0671 32.3789L21.7061 33.2198V39.1597L24.2203 33.3034L22.0671 32.3789Z" fill="#6AA9FF"/>
<path d="M25.0293 39.0938L27.9082 32.3958L30.0617 33.3214L27.1828 40.0194L25.0293 39.0938Z" fill="#AED0FF"/>
<path d="M25.0293 39.0938L27.9082 32.3958L30.0617 33.3214L27.1828 40.0194L25.0293 39.0938Z" fill="#6AA9FF"/>
<path d="M25.9705 14.1562C25.7161 11.787 24.5987 9.59886 22.8242 7.99467C21.0363 6.37845 18.7233 5.48828 16.3113 5.48828C10.9541 5.48828 6.5957 9.84671 6.5957 15.204C6.5957 18.1782 7.93189 20.9487 10.2617 22.8051L10.8728 23.292L26.0538 14.9315L25.9705 14.1562Z" fill="#FED943"/>
<path d="M25.9707 14.1562C25.7163 11.787 24.5989 9.59886 22.8244 7.99467C21.0365 6.37845 18.7235 5.48828 16.3115 5.48828V20.2968L26.054 14.9314L25.9707 14.1562Z" fill="#FCBE2C"/>
<path d="M15.1416 0H17.485V3.33172H15.1416V0Z" fill="#FCBE2C"/>
<path d="M7.69629 2.62109L9.72564 1.44941L11.3915 4.33468L9.36215 5.50636L7.69629 2.62109Z" fill="#FCBE2C"/>
<path d="M2.55957 8.61719L3.73125 6.58783L6.61652 8.25369L5.44484 10.283L2.55957 8.61719Z" fill="#FCBE2C"/>
<path d="M1.1084 14.0312H4.4402V16.3746H1.1084V14.0312Z" fill="#FCBE2C"/>
<path d="M2.55859 21.7852L5.44386 20.1193L6.61555 22.1487L3.73028 23.8145L2.55859 21.7852Z" fill="#FCBE2C"/>
<path d="M26.0068 8.25391L28.8921 6.58805L30.0638 8.6174L27.1785 10.2833L26.0068 8.25391Z" fill="#FCBE2C"/>
<path d="M21.2334 4.33984L22.8993 1.45451L24.9287 2.62619L23.2628 5.51153L21.2334 4.33984Z" fill="#FCBE2C"/>
<path d="M33.8791 20.6595C33.5407 18.7112 32.5777 16.9252 31.1132 15.5584C29.4182 13.9767 27.2073 13.1055 24.8877 13.1055C23.0314 13.1055 21.2447 13.6598 19.7205 14.7084C18.48 15.5619 17.4801 16.6937 16.7923 18.0143C16.6736 18.009 16.555 18.0064 16.4366 18.0064C13.0352 18.0064 10.0521 20.1324 8.91544 23.2696C7.82336 23.4671 6.81954 23.9955 6.02693 24.8019C5.02593 25.8203 4.47461 27.1678 4.47461 28.596C4.47461 31.5817 6.90366 34.0107 9.88935 34.0107H32.0971C35.8437 34.0107 38.8918 30.9626 38.8918 27.216C38.8917 24.1225 36.7927 21.4499 33.8791 20.6595Z" fill="#EBEBF0"/>
<path d="M26.0068 8.25391L28.8921 6.58805L30.0638 8.6174L27.1785 10.2833L26.0068 8.25391Z" fill="#F7AA00"/>
<path d="M21.2334 4.33984L22.8993 1.45451L24.9287 2.62619L23.2628 5.51153L21.2334 4.33984Z" fill="#F7AA00"/>
<path d="M16.3115 0H17.4848V3.33172H16.3115V0Z" fill="#F7AA00"/>
<path d="M33.8798 20.6595C33.5414 18.7112 32.5783 16.9252 31.1139 15.5584C29.4188 13.9767 27.208 13.1055 24.8883 13.1055C23.7897 13.1055 22.716 13.3011 21.7061 13.6771V34.0108H32.0977C35.8443 34.0108 38.8924 30.9627 38.8924 27.216C38.8924 24.1225 36.7934 21.4499 33.8798 20.6595Z" fill="#D2D2D7"/>
</g>
<defs>
<clipPath id="clip0_1544_13754">
<rect width="40" height="40" fill="white"/>
</clipPath>
</defs>
</svg>