<svg xmlns:xlink="http://www.w3.org/1999/xlink" xmlns="http://www.w3.org/2000/svg" width="40" height="40" viewBox="0 0 40 40" fill="none">
<g clip-path="url(#clip0_1540_13562)">
<path d="M18.9036 39.9988H18.1059C17.6451 39.9988 17.2715 39.6252 17.2715 39.1644V27.9844H19.738V39.1645C19.738 39.6252 19.3644 39.9988 18.9036 39.9988V39.9988Z" fill="#26A6FE"/>
<path d="M36.8914 20.6769L37.8804 14.0449C38.0607 12.8356 37.6767 11.6109 36.8387 10.7206C34.1945 7.91165 29.6808 3.2061 18.0744 1.03478C17.222 0.875322 15.1102 0.687978 14.0004 0.596025C13.6192 0.564463 13.293 0.865322 13.293 1.24774V2.68868C13.293 3.0347 13.5624 3.32212 13.9078 3.34142C14.9948 3.4022 17.4896 3.68743 21.1234 4.96446L36.8914 20.6769Z" fill="#B3DAFE"/>
<path d="M36.8387 10.723C34.1945 7.91398 29.6808 3.20844 18.0744 1.03711C17.9617 1.01602 17.8264 0.994453 17.6748 0.972656C27.5727 3.36953 31.6508 8.11016 34.1104 10.723C34.9484 11.6132 35.3324 12.8379 35.1521 14.0472L34.5895 17.8197L36.8914 20.6792L37.8804 14.0472C38.0608 12.8379 37.6768 11.6132 36.8387 10.723V10.723Z" fill="#92D2FC"/>
<path d="M30.3396 0.024197L24.6425 1.30646C23.2258 1.62529 22.0575 2.62224 21.5197 3.97107L19.6199 8.73646C19.3962 9.2974 18.7886 9.60435 18.2054 9.44787C17.075 9.14459 15.8541 9.29584 14.8176 9.89771C13.4464 10.694 12.6025 12.1599 12.6025 13.7456V21.2732C12.6025 23.2949 13.5544 25.1987 15.1718 26.4117L17.2714 27.9863L23.5461 28.4897V12.2158L31.5287 3.31982V0.975369C31.5287 0.350525 30.9493 -0.112991 30.3396 0.024197V0.024197Z" fill="#FDB4BA"/>
<path d="M28.8006 1.47289V3.31984L29.1565 5.96375L31.5289 3.31984V0.975391C31.5289 0.350547 30.9494 -0.113047 30.3399 0.0242187L28.0811 0.532578C28.4881 0.64375 28.8006 1.01437 28.8006 1.47289V1.47289Z" fill="#FE99A0"/>
<path d="M36.8915 20.6761L30.1229 20.4314L23.5459 12.2141L25.3205 6.11669C25.6038 5.14443 26.3982 4.40724 27.3882 4.19716L32.7443 3.05997L34.5133 2.6849C35.0976 2.56091 35.6473 3.00599 35.6473 3.60318V4.91904C35.6473 5.30216 35.4147 5.6474 35.0589 5.7899L30.6533 7.56458C30.4311 7.65388 30.2823 7.86396 30.2711 8.10302L30.1012 11.736C30.0875 12.0305 30.2364 12.3098 30.4883 12.4636L33.2071 14.1199C35.4952 15.5131 36.8915 17.9976 36.8915 20.6761V20.6761Z" fill="#26A6FE"/>
<path d="M36.8921 20.6761L34.0535 19.3835C33.6832 17.2153 32.3939 15.2853 30.4792 14.1199L27.787 12.4797C27.5182 12.3163 27.3605 12.0185 27.3749 11.7046L27.5198 8.60193C27.5456 8.05951 27.8852 7.5806 28.389 7.37779L32.331 5.78982C32.6867 5.6474 32.9194 5.30208 32.9194 4.91896V3.60326C32.9194 3.3988 32.8534 3.21294 32.7448 3.05997L34.5138 2.6849C35.0981 2.56091 35.6478 3.00599 35.6478 3.60318V4.91904C35.6478 5.30216 35.4152 5.6474 35.0594 5.7899L30.6538 7.56458C30.4316 7.65388 30.2827 7.86396 30.2715 8.10302L30.1017 11.736C30.088 12.0305 30.2369 12.3098 30.4888 12.4636L33.2075 14.1199C35.4958 15.5131 36.8921 17.9976 36.8921 20.6761Z" fill="#0593FC"/>
<path d="M36.8924 20.6769V25.2668C36.8924 28.557 35.6385 31.7239 33.3866 34.1231L28.5101 39.3183C27.6578 40.2261 26.2171 40.2261 25.3648 39.3183L20.4883 34.1231C18.2364 31.7239 16.9824 28.557 16.9824 25.2668V20.5931C16.9824 17.9597 18.3321 15.5106 20.5583 14.1037L22.5534 12.8426L23.5466 12.2148C23.5466 12.2148 28.5326 13.0527 29.8984 19.1227C29.9201 19.2168 29.9402 19.3126 29.9595 19.4091C30.0183 19.7013 30.2589 19.8928 30.5262 19.9154L30.5374 19.9162C30.659 19.9242 30.7853 19.8977 30.902 19.8301C30.9359 19.8108 30.9705 19.7906 31.0066 19.7721C32.0683 19.2 34.0667 18.7364 36.8924 20.6769V20.6769Z" fill="#FE646F"/>
<path d="M30.5263 19.9155L29.1186 19.8953C28.1311 19.8953 27.2586 19.2313 27.0164 18.2744C26.1287 14.7613 24.0845 13.6201 22.5537 12.8426L23.5469 12.2148C23.5469 12.2148 28.6889 13.0792 29.9598 19.4092C30.0185 19.7013 30.2591 19.8929 30.5263 19.9155V19.9155Z" fill="#FD4755"/>
<path d="M34.0536 19.3828L34.1638 25.2653C34.1638 28.5553 32.91 31.7221 30.6584 34.1214L25.7817 39.317C25.7157 39.3873 25.6458 39.4514 25.5732 39.5109C26.437 40.2185 27.7239 40.1543 28.51 39.317L33.3868 34.1214C35.6384 31.7221 36.8921 28.5553 36.8921 25.2653V20.6755C35.8262 19.9432 34.8783 19.5538 34.0536 19.3828V19.3828Z" fill="#FD4755"/>
<path d="M18.7809 21.2153H4.03807C2.49158 21.2153 1.5551 19.5073 2.38658 18.2034L9.75799 6.64385C10.528 5.43643 12.291 5.43643 13.061 6.64385L20.4324 18.2034C21.2639 19.5073 20.3274 21.2153 18.7809 21.2153Z" fill="#FFE177"/>
<path d="M20.4323 18.2035L13.0609 6.64385C12.2909 5.43643 10.5279 5.43643 9.75785 6.64385L9.36621 7.25807C9.92613 7.31791 10.4642 7.61541 10.8063 8.15182L17.0973 18.2035C17.9288 19.5074 16.9922 21.2153 15.4457 21.2153H18.7808C20.3272 21.2153 21.2638 19.5074 20.4323 18.2035Z" fill="#FFD15B"/>
<path d="M30.7269 28.1648C30.9072 28.4457 30.8259 28.8191 30.545 28.9995C30.4444 29.0638 30.3309 29.0952 30.2198 29.0952C30.0211 29.0952 29.8263 28.997 29.7112 28.8176L29.1688 27.9725L27.4698 31.1548C27.3611 31.3584 27.1519 31.4743 26.9362 31.4743C26.8404 31.4743 26.743 31.4518 26.6529 31.4034C26.3584 31.2457 26.2473 30.8803 26.4042 30.5866L28.5402 26.5858L29.898 19.125C29.9197 19.2191 29.9398 19.3149 29.9591 19.4115C30.0179 19.7037 30.2585 19.8952 30.5258 19.9177L30.537 19.9185C30.6586 19.9266 30.7849 19.9 30.9016 19.8324C30.9355 19.8131 30.9701 19.793 31.0063 19.7745L29.7572 26.6541L30.7269 28.1648Z" fill="#FD4755"/>
<path d="M11.4096 18.3758C11.742 18.3758 12.0115 18.1063 12.0115 17.7738C12.0115 17.4414 11.742 17.1719 11.4096 17.1719C11.0771 17.1719 10.8076 17.4414 10.8076 17.7738C10.8076 18.1063 11.0771 18.3758 11.4096 18.3758Z" fill="#FE646F"/>
<path d="M11.4093 15.478C11.0758 15.478 10.8057 15.2078 10.8057 14.8745V10.4239C10.8057 10.0905 11.0759 9.82031 11.4093 9.82031C11.7427 9.82031 12.0129 10.0905 12.0129 10.4239V14.8745C12.0129 15.2078 11.7427 15.478 11.4093 15.478V15.478Z" fill="#FE646F"/>
</g>
<defs>
<clipPath id="clip0_1540_13562">
<rect width="40" height="40" fill="white"/>
</clipPath>
</defs>
</svg>