<svg xmlns:xlink="http://www.w3.org/1999/xlink" xmlns="http://www.w3.org/2000/svg" width="40" height="40" viewBox="0 0 40 40" fill="none">
<g clip-path="url(#clip0_1540_13088)">
<path d="M33.4923 17.4766L28.5717 18.7464C28.5717 18.7464 31.2702 24.6591 31.1114 27.0004C30.8967 30.1677 29.2066 33.9845 29.2066 33.9845H28.8521C28.3055 33.9845 27.8202 34.3343 27.6474 34.8528L27.468 35.3913C27.3862 35.6363 27.5687 35.8893 27.8269 35.8893H30.2243C30.377 35.8893 30.5148 35.7974 30.5736 35.6564L33.6512 28.2702L33.4923 17.4766Z" fill="#E6A078"/>
<path d="M19.3933 34.854L19.2139 35.3924C19.1321 35.6374 19.3146 35.8905 19.5729 35.8905H22.4466C22.6678 35.8905 22.8418 35.7016 22.8237 35.4811L22.2224 28.1523L20.1589 20.6523L17.3018 20.9698C19.405 26.1285 20.9525 33.9856 20.9525 33.9856H20.598C20.0514 33.9857 19.5662 34.3355 19.3933 34.854Z" fill="#E6A078"/>
<path d="M39.3647 23.825C39.2023 23.825 39.0398 23.763 38.9158 23.639L38.839 23.5621C38.359 23.0819 38.0949 22.4442 38.0949 21.7662V18.8349C38.0949 18.1963 37.778 17.6042 37.2467 17.2501L34.5681 15.4644C34.2761 15.27 34.1973 14.8756 34.392 14.5839C34.5854 14.2922 34.9798 14.2125 35.2725 14.4078L37.9511 16.1935C38.8365 16.7832 39.3647 17.7706 39.3647 18.8349V21.7662C39.3647 22.105 39.4968 22.4241 39.7368 22.6643L39.8136 22.7412C40.0617 22.9892 40.0617 23.391 39.8136 23.639C39.6897 23.7631 39.5272 23.825 39.3647 23.825Z" fill="#FFB47D"/>
<path d="M37.252 25.1018C36.9738 24.6845 36.8254 24.1943 36.8254 23.6928V16.843C36.8254 13.1922 32.7777 11.3668 30.7937 9.62078C28.4457 7.55461 27.1429 4.9382 24.5238 4.9382C22.516 4.9382 22.2223 6.68422 20.9524 7.79531C18.9094 9.58297 17.5104 10.292 15.6349 11.6048C14.4227 12.4534 13.8482 13.4666 13.5764 14.2567C13.3077 15.0375 12.5916 15.5731 11.7658 15.5731H11.4286C10.0259 15.5731 8.88891 14.4361 8.88891 13.0334V4.14453H5.86836C5.3632 4.14453 4.87867 4.34523 4.52148 4.70242L3.80953 5.41438L1.59164 5.78406C0.673125 5.93711 0 6.73172 0 7.66289V7.95406C0 8.30469 0.284297 8.58898 0.634922 8.58898H5.66141V14.0912C5.66141 17.6373 9.22492 20.9437 14.5884 20.946C14.9445 20.9462 15.238 21.2233 15.238 21.5795V33.9858H14.8834C14.3369 33.9858 13.8516 34.3355 13.6788 34.854L13.598 35.0963C13.4678 35.487 13.7586 35.8905 14.1705 35.8905H16.581C16.8976 35.8905 17.1603 35.6459 17.1829 35.3302L18.1306 22.0618C21.4502 22.0223 27.2152 21.3059 31.1392 18.5566L31.4738 20.0615C31.6546 20.875 31.9488 21.659 32.3479 22.3906L35.5556 28.2714V33.9857H35.201C34.6545 33.9857 34.1692 34.3355 33.9964 34.8539L33.9156 35.0963C33.7854 35.487 34.0762 35.8905 34.488 35.8905H36.8959C37.2136 35.8905 37.4769 35.6442 37.498 35.3273L38.0674 26.7854C38.0855 26.5138 38.0135 26.2439 37.8626 26.0175L37.252 25.1018Z" fill="#FFC88C"/>
<path d="M7.50323 5.04309L8.06128 5.9052C8.22683 6.16098 8.57878 6.2145 8.81284 6.01942L9.89933 5.11395C10.0511 4.98747 10.0619 4.75716 9.91784 4.62192C9.56988 4.29536 8.84261 3.84974 7.72503 4.30044C7.43534 4.41731 7.33347 4.78083 7.50323 5.04309Z" fill="#FFB47D"/>
<path d="M13.3331 18.7486C10.1771 18.7486 7.61879 16.1902 7.61879 13.0343V10.4946C7.61879 9.44266 6.76598 8.58984 5.71402 8.58984H5.66113V14.0921C5.66113 17.6382 9.22465 20.9446 14.5882 20.947C14.8451 20.947 15.0654 21.0941 15.1705 21.3083C15.2137 21.2955 15.2378 21.2883 15.2378 21.2883V20.6534C15.2379 19.6014 14.385 18.7486 13.3331 18.7486Z" fill="#FFB47D"/>
<path d="M2.53969 7.31695V6.68203C2.53969 6.31781 2.46008 5.97328 2.32203 5.66016L1.59164 5.78187C0.673203 5.93492 0 6.72953 0 7.6607V7.95187C0 8.3025 0.284297 8.5868 0.634922 8.5868H2.18742C2.40563 8.21195 2.53969 7.78188 2.53969 7.31695Z" fill="#FFB47D"/>
<path d="M18.1309 21.2047V22.0599C21.4505 22.0204 27.2154 21.3039 31.1395 18.5547L31.127 18.4193C31.067 17.7712 30.4137 17.3663 29.7994 17.5816C26.4739 18.7474 22.257 19.1598 19.9113 19.3042C18.9084 19.366 18.1309 20.1999 18.1309 21.2047Z" fill="#FFB47D"/>
</g>
<defs>
<clipPath id="clip0_1540_13088">
<rect width="40" height="40" fill="white"/>
</clipPath>
</defs>
</svg>