<svg xmlns:xlink="http://www.w3.org/1999/xlink" xmlns="http://www.w3.org/2000/svg" width="40" height="40" viewBox="0 0 40 40" fill="none">
<g clip-path="url(#clip0_1540_13204)">
<path d="M26.4368 5.41412C26.0215 4.02984 25.171 2.81633 24.0115 1.95362C22.852 1.09092 21.4452 0.625003 20 0.625C18.5548 0.625003 17.148 1.09092 15.9885 1.95362C14.829 2.81633 13.9785 4.02984 13.5633 5.41412C13.4366 5.83634 13.1772 6.20648 12.8235 6.46964C12.4699 6.73279 12.0408 6.87494 11.6 6.875H10C9.33696 6.875 8.70107 7.13839 8.23223 7.60723C7.76339 8.07607 7.5 8.71196 7.5 9.375V31.875H32.5V9.375C32.5 8.71196 32.2366 8.07607 31.7678 7.60723C31.2989 7.13839 30.663 6.875 30 6.875H28.4C27.9592 6.87494 27.5301 6.73279 27.1765 6.46964C26.8228 6.20648 26.5634 5.83634 26.4368 5.41412V5.41412Z" fill="#D3D4D5"/>
<path d="M30 6.87501H28.3625C27.9225 6.86834 27.4964 6.71968 27.1477 6.45118C26.799 6.18269 26.5464 5.80872 26.4276 5.38501C26.1919 4.61625 25.8197 3.89619 25.3289 3.25926C24.4797 2.60872 23.4874 2.1705 22.4345 1.98109C21.3817 1.79168 20.2988 1.85657 19.2761 2.17034C18.2534 2.48412 17.3205 3.03771 16.5551 3.785C15.7896 4.53229 15.2138 5.45165 14.8756 6.46651C14.7065 6.9541 14.3888 7.37639 13.9671 7.67391C13.5454 7.97143 13.0411 8.12921 12.525 8.12501H10.8984C9.58687 8.12501 8.75 8.96445 8.75 10V31.875H32.5V9.37501C32.5 8.71197 32.2366 8.07609 31.7678 7.60724C31.2989 7.1384 30.663 6.87501 30 6.87501V6.87501Z" fill="#C4C5C7"/>
<path d="M10 31.8752V9.37517H11.6C12.5797 9.37975 13.5344 9.06602 14.3204 8.48119C15.1063 7.89635 15.6811 7.07206 15.9582 6.13236C16.219 5.26308 16.7531 4.50105 17.4812 3.95931C18.2093 3.41757 19.0927 3.125 20.0003 3.125C20.9078 3.125 21.7912 3.41757 22.5193 3.95931C23.2474 4.50105 23.7815 5.26308 24.0423 6.13236C24.3194 7.07197 24.8941 7.89619 25.68 8.48101C26.4659 9.06583 27.4204 9.37962 28.4 9.37517H30V31.8752H10Z" fill="#DDE5E8"/>
<path d="M11.25 10.6266V31.8766H30V9.37659H28.4C27.4204 9.38118 26.4657 9.06748 25.6797 8.48271C24.8938 7.89794 24.319 7.07373 24.0418 6.13409C23.8188 5.37718 23.3864 4.69865 22.7947 4.17666C22.2029 3.65467 21.4757 3.31043 20.6969 3.18359C19.9087 3.31611 19.1739 3.66868 18.5774 4.20066C17.9809 4.73265 17.5469 5.42238 17.3254 6.19034C16.9081 7.47489 16.0963 8.59512 15.0056 9.3916C13.9148 10.1881 12.6006 10.6202 11.25 10.6266V10.6266Z" fill="#EBEFF0"/>
<path d="M5 35.625H35C35.663 35.625 36.2989 35.8884 36.7678 36.3572C37.2366 36.8261 37.5 37.462 37.5 38.125V39.375H2.5V38.125C2.5 37.462 2.76339 36.8261 3.23223 36.3572C3.70107 35.8884 4.33696 35.625 5 35.625V35.625Z" fill="#8B8F91"/>
<path d="M37.5 39.375V38.125C37.4989 37.7712 37.4222 37.4217 37.275 37.1C36.9533 36.9528 36.6038 36.8761 36.25 36.875H5.625C5.12772 36.875 4.65081 37.0725 4.29917 37.4242C3.94754 37.7758 3.75 38.2527 3.75 38.75V39.375H37.5Z" fill="#6E7376"/>
<path d="M7.5 31.875H32.5C33.163 31.875 33.7989 32.1384 34.2678 32.6072C34.7366 33.0761 35 33.712 35 34.375V35.625H5V34.375C5 33.712 5.26339 33.0761 5.73223 32.6072C6.20107 32.1384 6.83696 31.875 7.5 31.875V31.875Z" fill="#8B8F91"/>
<path d="M35 35.625V34.375C34.9989 34.0212 34.9222 33.6717 34.775 33.35C34.4533 33.2028 34.1038 33.1261 33.75 33.125H8.125C7.62772 33.125 7.15081 33.3225 6.79917 33.6742C6.44754 34.0258 6.25 34.5027 6.25 35V35.625H35Z" fill="#6E7376"/>
<path d="M26.25 16.875H13.75C13.5842 16.875 13.4253 16.8092 13.3081 16.6919C13.1908 16.5747 13.125 16.4158 13.125 16.25C13.125 16.0842 13.1908 15.9253 13.3081 15.8081C13.4253 15.6908 13.5842 15.625 13.75 15.625H26.25C26.4158 15.625 26.5747 15.6908 26.6919 15.8081C26.8092 15.9253 26.875 16.0842 26.875 16.25C26.875 16.4158 26.8092 16.5747 26.6919 16.6919C26.5747 16.8092 26.4158 16.875 26.25 16.875Z" fill="#8B8F91"/>
<path d="M26.25 20H13.75C13.5842 20 13.4253 19.9342 13.3081 19.8169C13.1908 19.6997 13.125 19.5408 13.125 19.375C13.125 19.2092 13.1908 19.0503 13.3081 18.9331C13.4253 18.8158 13.5842 18.75 13.75 18.75H26.25C26.4158 18.75 26.5747 18.8158 26.6919 18.9331C26.8092 19.0503 26.875 19.2092 26.875 19.375C26.875 19.5408 26.8092 19.6997 26.6919 19.8169C26.5747 19.9342 26.4158 20 26.25 20Z" fill="#8B8F91"/>
<path d="M39.375 40H0.625C0.45924 40 0.300269 39.9342 0.183058 39.8169C0.065848 39.6997 0 39.5408 0 39.375C0 39.2092 0.065848 39.0503 0.183058 38.9331C0.300269 38.8158 0.45924 38.75 0.625 38.75H39.375C39.5408 38.75 39.6997 38.8158 39.8169 38.9331C39.9342 39.0503 40 39.2092 40 39.375C40 39.5408 39.9342 39.6997 39.8169 39.8169C39.6997 39.9342 39.5408 40 39.375 40Z" fill="#A9D284"/>
<path d="M20 13.125C21.3807 13.125 22.5 12.0057 22.5 10.625C22.5 9.24429 21.3807 8.125 20 8.125C18.6193 8.125 17.5 9.24429 17.5 10.625C17.5 12.0057 18.6193 13.125 20 13.125Z" fill="#B5B7B9"/>
<path d="M18.75 11.8746C18.7511 12.2284 18.8278 12.5779 18.975 12.8996C19.4369 13.1101 19.952 13.1745 20.4514 13.0842C20.9509 12.9939 21.4108 12.7532 21.7697 12.3943C22.1286 12.0354 22.3693 11.5755 22.4596 11.076C22.5499 10.5766 22.4855 10.0615 22.275 9.59964C21.8949 9.42625 21.4772 9.35126 21.0605 9.38156C20.6438 9.41187 20.2414 9.5465 19.8903 9.77307C19.5393 9.99964 19.2508 10.3109 19.0516 10.6781C18.8523 11.0454 18.7486 11.4568 18.75 11.8746V11.8746Z" fill="#C4C5C7"/>
<path d="M25.625 22.5H24.375C23.2147 22.5 22.1019 22.9609 21.2814 23.7814C20.4609 24.6019 20 25.7147 20 26.875V30.625C20 30.625 22.104 28.0617 22.5 27.9437C23.4029 27.6742 24.1947 27.1205 24.7578 26.3649C25.3208 25.6094 25.6249 24.6923 25.625 23.75V22.5Z" fill="#A9D284"/>
<path d="M14.375 22.5H15.625C16.7853 22.5 17.8981 22.9609 18.7186 23.7814C19.5391 24.6019 20 25.7147 20 26.875V30.625C20 30.625 17.896 28.0617 17.5 27.9437C16.5971 27.6742 15.8053 27.1205 15.2422 26.3649C14.6792 25.6094 14.3751 24.6923 14.375 23.75V22.5Z" fill="#A9D284"/>
<path d="M21.1275 27.5C21.3049 27.1942 21.5887 26.9645 21.9248 26.8547C22.2608 26.745 22.6255 26.7629 22.9492 26.9051C22.9872 26.5535 23.1538 26.2283 23.417 25.992C23.6802 25.7557 24.0215 25.625 24.3752 25.625C24.7289 25.625 25.0701 25.7557 25.3333 25.992C25.5965 26.2283 25.7631 26.5535 25.8012 26.9051C26.1247 26.7621 26.4897 26.7438 26.826 26.8536C27.1623 26.9633 27.4461 27.1935 27.623 27.4999C27.7998 27.8062 27.8573 28.1671 27.7842 28.5133C27.7111 28.8594 27.5127 29.1663 27.2271 29.375C27.5127 29.5837 27.7111 29.8906 27.7842 30.2367C27.8573 30.5828 27.7998 30.9437 27.623 31.2501C27.4461 31.5565 27.1623 31.7866 26.826 31.8964C26.4897 32.0062 26.1247 31.9878 25.8012 31.8449C25.7631 32.1965 25.5965 32.5217 25.3333 32.758C25.0701 32.9943 24.7289 33.125 24.3752 33.125C24.0215 33.125 23.6802 32.9943 23.417 32.758C23.1538 32.5217 22.9872 32.1965 22.9492 31.8449C22.6255 31.987 22.2608 32.005 21.9248 31.8952C21.5887 31.7855 21.3049 31.5558 21.1275 31.25L21.0397 28.75C20.9583 28.5487 20.9238 28.3315 20.9391 28.1148C20.9543 27.8982 21.0187 27.6879 21.1275 27.5V27.5Z" fill="#E04E57"/>
<path d="M18.8722 27.5C18.6948 27.1942 18.411 26.9645 18.0749 26.8547C17.7389 26.745 17.3742 26.7629 17.0505 26.9051C17.0125 26.5535 16.8459 26.2283 16.5827 25.992C16.3195 25.7557 15.9782 25.625 15.6245 25.625C15.2708 25.625 14.9296 25.7557 14.6664 25.992C14.4032 26.2283 14.2366 26.5535 14.1985 26.9051C13.875 26.7621 13.51 26.7438 13.1737 26.8536C12.8374 26.9633 12.5536 27.1935 12.3767 27.4999C12.1998 27.8062 12.1424 28.1671 12.2155 28.5133C12.2886 28.8594 12.487 29.1663 12.7726 29.375C12.487 29.5837 12.2886 29.8906 12.2155 30.2367C12.1424 30.5828 12.1998 30.9437 12.3767 31.2501C12.5536 31.5565 12.8374 31.7866 13.1737 31.8964C13.51 32.0062 13.875 31.9878 14.1985 31.8449C14.2366 32.1965 14.4032 32.5217 14.6664 32.758C14.9296 32.9943 15.2708 33.125 15.6245 33.125C15.9782 33.125 16.3195 32.9943 16.5827 32.758C16.8459 32.5217 17.0125 32.1965 17.0505 31.8449C17.3742 31.987 17.7389 32.005 18.0749 31.8952C18.411 31.7855 18.6948 31.5558 18.8722 31.25L18.9597 28.75C19.0412 28.5487 19.0756 28.3315 19.0605 28.1149C19.0453 27.8983 18.9809 27.688 18.8722 27.5V27.5Z" fill="#E04E57"/>
<path d="M22.8515 31.8749C23.137 31.6662 23.3353 31.3593 23.4084 31.0132C23.4814 30.6671 23.424 30.3063 23.2471 30C23.0703 29.6936 22.7865 29.4635 22.4502 29.3537C22.114 29.2439 21.7491 29.2622 21.4255 29.4051C21.3875 29.0535 21.2209 28.7283 20.9577 28.492C20.6945 28.2557 20.3532 28.125 19.9995 28.125C19.6458 28.125 19.3046 28.2557 19.0414 28.492C18.7782 28.7283 18.6116 29.0535 18.5735 29.4051C18.25 29.2622 17.885 29.2439 17.5488 29.3537C17.2126 29.4635 16.9288 29.6936 16.7519 30C16.5751 30.3063 16.5177 30.6671 16.5907 31.0132C16.6637 31.3593 16.8621 31.6662 17.1476 31.8749C16.862 32.0836 16.6636 32.3905 16.5905 32.7367C16.5174 33.0828 16.5748 33.4437 16.7517 33.75C16.9286 34.0564 17.2124 34.2866 17.5487 34.3964C17.885 34.5061 18.25 34.4878 18.5735 34.3448C18.6116 34.6965 18.7782 35.0217 19.0414 35.2579C19.3046 35.4942 19.6458 35.6249 19.9995 35.6249C20.3532 35.6249 20.6945 35.4942 20.9577 35.2579C21.2209 35.0217 21.3875 34.6965 21.4255 34.3448C21.7491 34.4878 22.1141 34.5061 22.4504 34.3964C22.7866 34.2866 23.0705 34.0564 23.2473 33.75C23.4242 33.4437 23.4816 33.0828 23.4086 32.7367C23.3355 32.3905 23.1371 32.0836 22.8515 31.8749V31.8749Z" fill="#F06370"/>
</g>
<defs>
<clipPath id="clip0_1540_13204">
<rect width="40" height="40" fill="white"/>
</clipPath>
</defs>
</svg>