<svg xmlns:xlink="http://www.w3.org/1999/xlink" xmlns="http://www.w3.org/2000/svg" width="40" height="40" viewBox="0 0 40 40" fill="none">
<g clip-path="url(#clip0_1540_13005)">
<path d="M14.3808 4.79134C13.9625 4.67384 13.5408 4.56395 13.1243 4.46658C12.1196 4.23158 11.1146 4.85564 10.8796 5.86036C10.8137 6.14222 10.8155 6.42409 10.8742 6.6889L12.2734 8.10504C11.2687 7.87003 10.2637 8.4941 10.0287 9.49881C9.98591 9.68204 9.97188 9.8652 9.9833 10.0437C10.3025 10.7579 11.7451 11.4472 13.4877 12.3063C12.5109 11.9738 11.4495 12.4962 11.117 13.473C11.0564 13.6511 11.0245 13.8321 11.0183 14.0108C11.4714 15.6532 14.3189 15.1786 19.6623 18.9142C23.2371 21.4133 35.1467 18.2969 35.1467 18.2969C36.038 16.8885 36.212 15.5427 35.9968 13.89L35.8606 12.844C35.6642 11.3351 35.9198 9.80177 36.5951 8.43812L37.9912 5.61869C38.7461 4.09417 37.8774 3.38298 37.8774 3.38298C36.3732 2.63816 34.3527 4.70769 33.0882 7.26111C32.3235 8.80537 31.311 11.485 31.311 11.485C31.311 11.485 28.5778 8.41663 25.8956 6.72696C24.2146 5.66801 20.3928 3.75546 16.6725 2.88545C15.6678 2.65045 14.6629 3.27451 14.4279 4.27923C14.3876 4.45128 14.3731 4.62317 14.3808 4.79134V4.79134Z" fill="#EBAE9D"/>
<path d="M12.2733 8.10363C15.8975 8.95121 18.7399 10.3162 20.8049 11.7583C21.0741 11.9464 21.4449 11.8805 21.6329 11.6113C21.8209 11.342 21.7551 10.9713 21.4858 10.7833C18.8215 8.92266 15.649 7.6188 11.5328 6.83553C11.3133 6.79374 11.0921 6.74554 10.874 6.6875C11.0246 7.36691 11.5503 7.9346 12.2733 8.10363V8.10363Z" fill="#E09380"/>
<path d="M21.5308 15.84C21.7324 15.5808 21.6858 15.2072 21.4266 15.0055C18.8617 13.01 15.7267 11.6004 11.6468 10.6463C11.0714 10.5117 10.4848 10.3329 9.9834 10.043C10.0345 10.8436 10.6011 11.5505 11.4226 11.7427C15.5025 12.6968 18.5917 14.3068 20.6963 15.9442C20.9555 16.1459 21.3291 16.0992 21.5308 15.84Z" fill="#E09380"/>
<path d="M37.8778 3.38281C37.8778 3.38281 38.0992 3.96033 37.5165 5.1371L35.8819 8.43796C35.2066 9.8016 34.9511 11.3348 35.1475 12.8438L35.2836 13.8898C35.4988 15.5426 35.3247 16.8884 34.4336 18.2967L31.8825 16.4549C30.6767 15.5269 29.7732 14.2619 29.2864 12.8202L28.9377 11.7874C28.4604 10.3736 27.659 9.65191 26.6381 9.99657C26.4378 10.0642 26.1877 10.1475 26.1877 10.1475C26.1877 10.1475 25.9587 9.88969 25.8261 9.78646C23.2612 7.79098 20.1262 6.38135 16.0463 5.42721C15.2436 5.23946 14.4319 4.81758 14.3813 4.7911C14.4187 5.60521 14.9894 6.32894 15.8221 6.52366C19.8491 7.46543 22.9101 9.04608 25.0126 10.6614C24.3325 11.1155 24.0345 11.8622 24.5932 13.5173C25.1444 15.1499 25.9061 17.4295 25.9061 17.4295C25.9061 17.4295 23.9782 18.363 19.9707 18.448C17.9637 16.9791 15.5613 15.7771 12.6149 14.7742C12.0554 14.5838 11.4893 14.3483 11.0187 14.0105C10.9909 14.8123 11.4855 15.5714 12.2841 15.8433C16.2506 17.1934 19.1669 19.0988 21.1005 20.9349C21.3359 21.1584 33.2811 24.2294 33.2811 24.2294L35.8231 20.2124C36.7144 18.804 37.0845 17.1281 36.8693 15.4754L36.507 12.6923C36.3106 11.1834 36.5661 9.65009 37.2414 8.28644L38.2374 6.27502C38.8998 4.93786 38.8434 3.86091 37.8778 3.38281V3.38281Z" fill="#E09380"/>
<path d="M39.6729 29.167L35.75 27.1935C35.75 27.1935 34.5583 22.0009 32.0973 18.4663L29.8732 16.7546C28.6673 15.8265 27.7638 14.5616 27.277 13.1199L26.559 10.9932C26.0816 9.5794 25.2803 8.85773 24.2594 9.20239C22.6691 9.73932 22.7038 12.6314 23.6153 15.3311C24.1665 16.9637 25.9059 19.0139 25.9059 19.0139C25.9059 19.0139 23.7918 20.0393 19.385 20.0393C16.7276 20.0393 13.3152 19.4174 9.52487 17.6789C8.66414 17.2841 7.62493 17.561 7.12241 18.3637C6.97962 18.5918 6.89391 18.8351 6.85688 19.0798C7.01181 20.1484 7.92297 21.0552 7.92297 21.0552C6.98564 20.6237 5.87603 21.0337 5.44455 21.971C5.38969 22.0902 5.34862 22.2121 5.32031 22.3351C5.32031 22.3351 5.524 23.6866 7.3108 24.3109C6.90493 24.4877 6.56004 24.8085 6.36039 25.2422C6.30196 25.3691 6.25946 25.4992 6.23115 25.6305C6.23115 25.6305 6.33684 27.0682 8.99952 28.4479C8.82842 28.6717 8.71607 28.922 8.6593 29.1801C8.6593 29.1801 12.9847 34.1471 23.0778 34.1471C26.7112 34.1471 30.7188 33.6596 30.7188 33.6596L40.0003 37.6283V29.6982C40.0003 29.4735 39.8736 29.268 39.6729 29.167V29.167Z" fill="#FFCDBE"/>
<path d="M30.5962 32.8971C30.5962 32.8971 27.6335 33.3538 23.0773 33.3538C19.021 33.3538 11.7901 31.6691 9.03137 29.56C8.88596 29.4489 8.76179 29.3202 8.6588 29.1797C8.50768 29.8669 8.7526 30.6109 9.34851 31.0665C12.1072 33.1756 19.021 34.9395 23.0773 34.9395C27.6335 34.9395 30.5962 34.4828 30.5962 34.4828L39.1378 38.7801C39.5332 38.979 39.9997 38.6916 39.9997 38.2489V37.628L30.5962 32.8971Z" fill="#EBAE9D"/>
<path d="M16.6708 26.8901C16.7172 26.565 16.4913 26.2638 16.1662 26.2175C14.218 25.9394 10.0332 24.9938 6.61368 23.2897C6.14748 23.0574 5.64456 22.7239 5.31973 22.332C5.12539 23.1764 5.54165 24.0697 6.35981 24.4464C9.83033 26.0441 13.1096 26.9827 15.9982 27.3949C16.3233 27.4412 16.6245 27.2153 16.6708 26.8901V26.8901Z" fill="#EBAE9D"/>
<path d="M7.92284 21.0535C11.3934 22.6512 15.5744 23.6848 17.5612 23.6848C17.8896 23.6848 18.1559 23.4186 18.1559 23.0902C18.1559 22.7618 17.8896 22.4955 17.5612 22.4955C15.5933 22.4955 11.3934 21.4619 7.92284 19.8642C7.50674 19.6726 7.12038 19.4019 6.85675 19.0781C6.73568 19.8797 7.14955 20.6974 7.92284 21.0535V21.0535Z" fill="#EBAE9D"/>
<path d="M17.1257 29.7507C15.1893 29.3999 10.5867 28.1447 7.20376 26.3691C6.79678 26.1555 6.44903 25.9129 6.23036 25.6289C6.04943 26.4661 6.46513 27.346 7.27544 27.7191C10.746 29.3168 14.3251 30.4521 16.9138 30.921C17.237 30.9795 17.5464 30.765 17.605 30.4418C17.6634 30.1187 17.4489 29.8092 17.1257 29.7507V29.7507Z" fill="#EBAE9D"/>
<path d="M32.0967 18.4648C32.5024 19.5167 32.926 20.366 33.3708 22.3438L34.4428 27.1107C34.5361 27.5258 35.0223 27.7114 35.3686 27.4641L35.7494 27.1921L34.7064 22.5541C34.3407 20.9281 33.4174 19.4814 32.0967 18.4648Z" fill="#EBAE9D"/>
<path d="M4.43156 15.8299H0.594648C0.266244 15.8299 0 15.5637 0 15.2353C0 14.9069 0.266244 14.6406 0.594648 14.6406H4.43156C4.75996 14.6406 5.0262 14.9069 5.0262 15.2353C5.0262 15.5637 4.75996 15.8299 4.43156 15.8299Z" fill="#F8E883"/>
<path d="M5.71261 10.0642C5.63674 10.0642 5.55975 10.0496 5.4853 10.0188L1.94048 8.55045C1.63705 8.42478 1.49299 8.07687 1.61866 7.77352C1.74433 7.4701 2.09216 7.32595 2.39559 7.4517L5.9404 8.92001C6.24383 9.04568 6.3879 9.39358 6.26223 9.69693C6.1674 9.92591 5.94595 10.0642 5.71261 10.0642V10.0642Z" fill="#F8E883"/>
<path d="M8.83312 5.05863C8.68097 5.05863 8.52874 5.00059 8.41267 4.88444L5.69956 2.17133C5.46733 1.9391 5.46733 1.56257 5.69956 1.33042C5.93179 1.09827 6.30832 1.09811 6.54048 1.33042L9.2535 4.04352C9.48573 4.27575 9.48573 4.65229 9.2535 4.88444C9.1375 5.00051 8.98527 5.05863 8.83312 5.05863V5.05863Z" fill="#F8E883"/>
</g>
<defs>
<clipPath id="clip0_1540_13005">
<rect width="40" height="40" fill="white"/>
</clipPath>
</defs>
</svg>