<svg xmlns:xlink="http://www.w3.org/1999/xlink" xmlns="http://www.w3.org/2000/svg" width="40" height="40" viewBox="0 0 40 40" fill="none">
<g clip-path="url(#clip0_1540_13298)">
<path d="M13.6371 34.5664H10.2018L9.16823 39.0289C9.05326 39.5253 9.43019 39.9995 9.93981 39.9995H11.0278C11.3568 39.9995 11.6515 39.7962 11.7683 39.4886L13.6371 34.5664Z" fill="#FFE266"/>
<path d="M25.6514 34.5664H29.0865L30.1201 39.0289C30.2351 39.5253 29.8582 39.9995 29.3485 39.9995H28.2605C27.9315 39.9995 27.6368 39.7962 27.5201 39.4886L25.6514 34.5664Z" fill="#FFE266"/>
<path d="M4.82284 23.7505C3.98167 23.7505 3.2998 23.0686 3.2998 22.2275V8.88695C3.2998 5.6064 5.96871 2.9375 9.24925 2.9375C12.5298 2.9375 15.1988 5.6064 15.1988 8.88695C15.1988 9.72812 14.5168 10.41 13.6757 10.41C12.8346 10.41 12.1527 9.72812 12.1527 8.88695C12.1527 7.28602 10.8503 5.98365 9.24941 5.98365C7.64849 5.98365 6.34603 7.28602 6.34603 8.88695V22.2275C6.34595 23.0686 5.66401 23.7505 4.82284 23.7505V23.7505Z" fill="#B2E7F1"/>
<path d="M17.9599 13.2216H9.76995C9.26233 13.2216 8.87678 12.7591 8.97408 12.2609C9.42179 9.96839 11.4413 8.23828 13.8649 8.23828C16.2885 8.23828 18.308 9.96839 18.7557 12.2609C18.853 12.7592 18.4676 13.2216 17.9599 13.2216V13.2216Z" fill="#FFE266"/>
<path d="M18.7558 12.2609C18.3081 9.96839 16.2885 8.23828 13.865 8.23828C13.7662 8.23828 13.6684 8.2422 13.571 8.24787C15.0043 8.35492 16.1721 9.41459 16.4419 10.7963C16.5038 11.1131 16.2587 11.4072 15.9358 11.4072H10.7279C10.4051 11.4072 10.16 11.1131 10.2218 10.7963C10.3742 10.016 10.8132 9.33845 11.4243 8.87693C10.1743 9.5806 9.25793 10.8073 8.97408 12.2609C8.87678 12.7592 9.26233 13.2216 9.76995 13.2216H17.9599C18.4676 13.2216 18.8531 12.7592 18.7558 12.2609V12.2609Z" fill="#EFAA66"/>
<path d="M26.8191 36.4501H12.4691C7.33004 36.4501 3.16406 32.2841 3.16406 27.1451V22.5078H36.124V27.1451C36.1241 32.2841 31.9581 36.4501 26.8191 36.4501Z" fill="#B2E7F1"/>
<path d="M3.16406 22.5078V27.1451C3.16406 27.2961 3.16798 27.4462 3.17509 27.5956H25.1413V30.3949C25.1413 33.7391 22.4303 36.4501 19.0862 36.4501H26.819C31.958 36.4501 36.124 32.2841 36.124 27.1451V22.5079H3.16406V22.5078Z" fill="#A7ADF1"/>
<path d="M9.42852 32.2158C9.27146 32.2158 9.11288 32.1696 8.97403 32.0734C8.83709 31.9785 8.70248 31.8788 8.57401 31.7772C8.22785 31.5036 8.16913 31.0012 8.44267 30.6551C8.7163 30.3089 9.21865 30.2502 9.56482 30.5237C9.66732 30.6047 9.77485 30.6844 9.88446 30.7604C10.247 31.0118 10.3372 31.5096 10.0858 31.8721C9.93064 32.0957 9.68162 32.2158 9.42852 32.2158V32.2158Z" fill="white"/>
<path d="M14.5916 33.5659C13.7022 33.5659 12.7095 33.5538 11.7317 33.3227C11.3023 33.2213 11.0364 32.791 11.1378 32.3616C11.2392 31.9321 11.6694 31.6663 12.0989 31.7677C12.9531 31.9694 13.8652 31.9685 14.7479 31.9679H14.7485C15.1894 31.9679 15.547 32.3252 15.5474 32.7662C15.5478 33.2074 15.1904 33.5654 14.7491 33.5658C14.6971 33.5658 14.6445 33.5659 14.5916 33.5659Z" fill="white"/>
<path d="M36.239 24.9436H3.0001C1.90144 24.9436 1.01074 24.0529 1.01074 22.9542C1.01074 21.8555 1.90144 20.9648 3.0001 20.9648H36.239C37.3378 20.9648 38.2284 21.8555 38.2284 22.9542C38.2284 24.0529 37.3378 24.9436 36.239 24.9436Z" fill="#FFE266"/>
<path d="M30.0799 30.7728H23.3652C22.5503 30.7728 21.8896 30.1122 21.8896 29.2973V20.9912C21.8896 20.1762 22.5503 19.5156 23.3652 19.5156H30.0799C30.8948 19.5156 31.5554 20.1762 31.5554 20.9912V29.2973C31.5554 30.1122 30.8948 30.7728 30.0799 30.7728V30.7728Z" fill="#F7C4DB"/>
<path d="M21.8896 25.8984H31.5554V28.0088H21.8896V25.8984Z" fill="#EF8BBD"/>
<path d="M30.0799 19.5156H27.9684C28.5733 19.5156 29.0636 20.0059 29.0636 20.6108V26.7756C29.0636 27.3805 28.5732 27.8707 27.9684 27.8707H22.9848C22.3799 27.8707 21.8896 27.3804 21.8896 26.7756V29.2973C21.8896 30.1122 22.5503 30.7728 23.3652 30.7728H30.0799C30.8948 30.7728 31.5554 30.1122 31.5554 29.2973V20.9911C31.5554 20.1762 30.8948 19.5156 30.0799 19.5156V19.5156Z" fill="#E893DB"/>
<path d="M29.0636 26.7784C29.0636 27.3831 28.5733 27.8735 27.9684 27.8735H22.9848C22.38 27.8735 21.8897 27.3832 21.8896 26.7784V28.0088H31.5554V25.8984H29.0637V26.7784H29.0636Z" fill="#E068BD"/>
<path d="M24.6756 23.2585C24.411 23.2585 24.1963 23.0438 24.1963 22.7791V21.8739C24.1963 21.6091 24.411 21.3945 24.6756 21.3945C24.9403 21.3945 25.155 21.6091 25.155 21.8739V22.7791C25.155 23.0439 24.9403 23.2585 24.6756 23.2585Z" fill="#C56CB7"/>
<path d="M27.4881 24.4537C27.2235 24.4537 27.0088 24.2391 27.0088 23.9743V23.0692C27.0088 22.8045 27.2235 22.5898 27.4881 22.5898C27.7529 22.5898 27.9675 22.8045 27.9675 23.0692V23.9744C27.9675 24.2391 27.7528 24.4537 27.4881 24.4537V24.4537Z" fill="#C56CB7"/>
<path d="M25.0858 0.195512L25.7421 2.04082C25.7702 2.11984 25.8258 2.18247 25.896 2.21403L27.5354 2.95269C27.767 3.05703 27.767 3.42605 27.5354 3.53046L25.896 4.26913C25.8258 4.30077 25.7702 4.3634 25.7421 4.44233L25.0858 6.28765C24.9931 6.54833 24.6653 6.54833 24.5725 6.28765L23.9163 4.44233C23.8882 4.36332 23.8326 4.30069 23.7624 4.26913L22.1229 3.53046C21.8913 3.42613 21.8913 3.05711 22.1229 2.95269L23.7624 2.21403C23.8326 2.18239 23.8882 2.11976 23.9163 2.04082L24.5725 0.195512C24.6653 -0.0651707 24.9931 -0.0651707 25.0858 0.195512V0.195512Z" fill="#B2E7F1"/>
<path d="M34.8774 11.8247L35.3642 13.1935C35.385 13.2522 35.4262 13.2986 35.4783 13.3221L36.6944 13.8699C36.8663 13.9474 36.8663 14.2211 36.6944 14.2985L35.4783 14.8464C35.4262 14.8699 35.385 14.9163 35.3642 14.9749L34.8774 16.3437C34.8086 16.5371 34.5654 16.5371 34.4966 16.3437L34.0099 14.9749C33.989 14.9163 33.9478 14.8699 33.8957 14.8464L32.6796 14.2985C32.5078 14.2211 32.5078 13.9474 32.6796 13.8699L33.8957 13.3221C33.9478 13.2986 33.989 13.2522 34.0099 13.1935L34.4966 11.8247C34.5653 11.6313 34.8086 11.6313 34.8774 11.8247Z" fill="#B2E7F1"/>
<path d="M38.959 5.37034C39.141 4.60029 38.6644 3.82847 37.8943 3.64645C37.1243 3.46442 36.3524 3.94111 36.1704 4.71116C35.9884 5.48122 36.4651 6.25303 37.2351 6.43506C38.0052 6.61709 38.777 6.14039 38.959 5.37034Z" fill="#8BB6EF"/>
<path d="M27.4882 11.6815C27.8296 11.6815 28.1063 11.4048 28.1063 11.0634C28.1063 10.7221 27.8296 10.4453 27.4882 10.4453C27.1469 10.4453 26.8701 10.7221 26.8701 11.0634C26.8701 11.4048 27.1469 11.6815 27.4882 11.6815Z" fill="#8BB6EF"/>
</g>
<defs>
<clipPath id="clip0_1540_13298">
<rect width="40" height="40" fill="white"/>
</clipPath>
</defs>
</svg>