<svg xmlns:xlink="http://www.w3.org/1999/xlink" xmlns="http://www.w3.org/2000/svg" width="40" height="40" viewBox="0 0 40 40" fill="none">
<g clip-path="url(#clip0_1540_13021)">
<path d="M38.1514 40.002C37.8278 40.002 37.5654 39.7396 37.5654 39.416V36.8906C37.5654 36.567 37.8278 36.3047 38.1514 36.3047C38.475 36.3047 38.7373 36.567 38.7373 36.8906V39.416C38.7373 39.7396 38.475 40.002 38.1514 40.002Z" fill="#365E7D"/>
<path d="M37.3574 0.585938H38.9453C39.2042 0.585938 39.4141 0.795781 39.4141 1.05469V36.4199C39.4141 36.6788 39.2042 36.8887 38.9453 36.8887H37.3574C37.0985 36.8887 36.8887 36.6788 36.8887 36.4199V1.05469C36.8887 0.795781 37.0985 0.585938 37.3574 0.585938Z" fill="#407093"/>
<path d="M39.4141 40H36.8887C36.5651 40 36.3027 39.7377 36.3027 39.4141C36.3027 39.0905 36.5651 38.8281 36.8887 38.8281H39.4141C39.7377 38.8281 40 39.0905 40 39.4141C40 39.7377 39.7377 40 39.4141 40Z" fill="#407093"/>
<path d="M1.84863 40.002C1.52504 40.002 1.2627 39.7396 1.2627 39.416V36.8906C1.2627 36.567 1.52504 36.3047 1.84863 36.3047C2.17223 36.3047 2.43457 36.567 2.43457 36.8906V39.416C2.43457 39.7396 2.17223 40.002 1.84863 40.002Z" fill="#365E7D"/>
<path d="M37.5654 3.69531H3.11133C2.78773 3.69531 2.52539 3.43297 2.52539 3.10938C2.52539 2.78578 2.78773 2.52344 3.11133 2.52344H37.5654C37.889 2.52344 38.1513 2.78578 38.1513 3.10938C38.1513 3.43297 37.889 3.69531 37.5654 3.69531Z" fill="#D3EFFB"/>
<path d="M33.8661 13.2141L31.4983 15.582C31.1932 15.887 30.6986 15.887 30.3935 15.582L29.8412 15.0297V24.7445C29.8412 25.176 29.4914 25.5258 29.06 25.5258H17.8459V15.0297L16.7412 16.1344L13.2686 12.6617L16.085 9.84531H20.1029L21.9092 8.16406H29.5982C29.8048 8.16406 30.0029 8.24609 30.149 8.39219L33.8661 12.1093C34.1712 12.4144 34.1712 12.9091 33.8661 13.2141V13.2141Z" fill="#DD636E"/>
<path d="M13.2686 12.6624L16.741 16.1348L17.8458 15.03V25.5263H24.048V18.0243L28.2938 13.7785C28.9102 13.1621 28.9102 12.1627 28.2938 11.5463L24.9115 8.16406H18.0905C17.8833 8.16406 17.6846 8.24641 17.5381 8.39289L13.2686 12.6624Z" fill="#DA4A54"/>
<path d="M21.9092 8.16406V10.6556C22.444 11.0721 23.116 11.3209 23.8464 11.3209C25.5898 11.3209 27.0031 9.9075 27.0031 8.16406H21.9092Z" fill="#365E7D"/>
<path d="M22.1537 24.7449V15.03L22.7061 15.5824C23.0112 15.8875 23.5058 15.8875 23.8109 15.5824L26.1785 13.2148C26.4836 12.9098 26.4836 12.4151 26.1785 12.11L22.4614 8.39289C22.3149 8.24641 22.1162 8.16406 21.909 8.16406H10.4026C10.1954 8.16406 9.9967 8.24641 9.85021 8.39289L6.13311 12.11C5.82803 12.4151 5.82803 12.9098 6.13311 13.2148L8.50068 15.5824C8.80576 15.8875 9.30045 15.8875 9.60553 15.5824L10.1579 15.03V24.745C10.1579 25.1765 10.5077 25.5263 10.9392 25.5263H21.3724C21.8039 25.5262 22.1537 25.1764 22.1537 24.7449Z" fill="#B3E59F"/>
<path d="M17.6502 18.9162C16.02 20.3039 12.6498 21.8607 10.1582 21.8607V24.7435C10.1582 25.175 10.508 25.5248 10.9395 25.5248H21.3727C21.8041 25.5248 22.1539 25.175 22.1539 24.7435V15.0286L22.7063 15.581C23.0114 15.8861 23.5061 15.8861 23.8112 15.581L26.1787 13.2134C26.4838 12.9084 26.4838 12.4137 26.1787 12.1086L23.0389 8.96875C22.2966 11.9764 20.9222 16.1309 17.6502 18.9162V18.9162Z" fill="#95D6A4"/>
<path d="M13.002 8.16406C13.002 9.9075 14.4153 11.3209 16.1587 11.3209C17.9022 11.3209 19.3155 9.9075 19.3155 8.16406H13.002Z" fill="#407093"/>
<path d="M1.05469 0.585938H2.64258C2.90148 0.585938 3.11133 0.795781 3.11133 1.05469V36.4199C3.11133 36.6788 2.90148 36.8887 2.64258 36.8887H1.05469C0.795781 36.8887 0.585938 36.6788 0.585938 36.4199V1.05469C0.585938 0.795781 0.795781 0.585938 1.05469 0.585938V0.585938Z" fill="#407093"/>
<path d="M18.7373 28.0508H8.63578C7.93844 28.0508 7.37305 28.6161 7.37305 29.3135C7.37305 30.0109 7.93836 30.5763 8.63578 30.5763H18.7374C19.4348 30.5763 20.0002 30.0109 20.0002 29.3135C20.0001 28.6161 19.4348 28.0508 18.7373 28.0508Z" fill="#BC95E2"/>
<path d="M20.0001 26.7862C20.0001 26.0888 19.4348 25.5234 18.7373 25.5234H8.63578C7.93844 25.5234 7.37305 26.0887 7.37305 26.7862C7.37305 27.4835 7.93836 28.0489 8.63578 28.0489H18.7374C19.4348 28.0489 20.0001 27.4835 20.0001 26.7862V26.7862Z" fill="#9DC6FB"/>
<path d="M31.3643 28.0508H21.2627C20.5654 28.0508 20 28.6161 20 29.3135C20 30.0109 20.5653 30.5763 21.2627 30.5763H31.3644C32.0617 30.5763 32.6271 30.0109 32.6271 29.3135C32.627 28.6161 32.0617 28.0508 31.3643 28.0508Z" fill="#B3E59F"/>
<path d="M32.627 26.7862C32.627 26.0888 32.0617 25.5234 31.3643 25.5234H21.2627C20.5654 25.5234 20 26.0887 20 26.7862C20 27.4835 20.5653 28.0489 21.2627 28.0489H31.3644C32.0617 28.0489 32.627 27.4835 32.627 26.7862V26.7862Z" fill="#FFE07D"/>
<path d="M33.7395 39.4131H6.25977C5.82828 39.4131 5.47852 39.0634 5.47852 38.6319V31.3555C5.47852 30.924 5.82828 30.5742 6.25977 30.5742H33.7395C34.1709 30.5742 34.5207 30.924 34.5207 31.3555V38.6319C34.5207 39.0634 34.1709 39.4131 33.7395 39.4131Z" fill="#C38959"/>
<path d="M33.7398 39.4131H32.627V30.5742H33.7398C34.1712 30.5742 34.521 30.924 34.521 31.3555V38.6319C34.521 39.0634 34.1712 39.4131 33.7398 39.4131Z" fill="#B17A4A"/>
<path d="M8.00391 36.1084V33.8828C8.00391 33.4513 8.35367 33.1016 8.78516 33.1016H31.214C31.6455 33.1016 31.9952 33.4513 31.9952 33.8828V36.1084C31.9952 36.5399 31.6455 36.8897 31.214 36.8897H8.78516C8.35367 36.8897 8.00391 36.5399 8.00391 36.1084V36.1084Z" fill="#E4F6FF"/>
<path d="M14.3076 2.52539V1.84859C14.3076 0.829297 15.1369 0 16.1563 0C17.1757 0 18.005 0.829297 18.005 1.84867V4.37406C18.005 5.18875 17.4754 5.88195 16.7422 6.12758V8.16219H15.5704V5.63672C15.5704 5.31313 15.8327 5.05078 16.1563 5.05078C16.5294 5.05078 16.8331 4.74719 16.8331 4.37398V1.84867C16.8331 1.47555 16.5295 1.17188 16.1563 1.17188C15.7831 1.17188 15.4795 1.47547 15.4795 1.84867V2.52547H14.3076V2.52539Z" fill="#365E7D"/>
<path d="M21.998 2.52539V1.84859C21.998 0.829297 22.8273 0 23.8466 0C24.8659 0 25.6953 0.829297 25.6953 1.84867V4.37406C25.6953 5.18875 25.1657 5.88195 24.4326 6.12758V8.16219H23.2607V5.63672C23.2607 5.31313 23.523 5.05078 23.8466 5.05078C24.2198 5.05078 24.5234 4.74719 24.5234 4.37398V1.84867C24.5234 1.47555 24.2198 1.17188 23.8466 1.17188C23.4734 1.17188 23.1698 1.47547 23.1698 1.84867V2.52547H21.998V2.52539Z" fill="#365E7D"/>
<path d="M3.11133 40H0.585938C0.262344 40 0 39.7377 0 39.4141C0 39.0905 0.262344 38.8281 0.585938 38.8281H3.11133C3.43492 38.8281 3.69727 39.0905 3.69727 39.4141C3.69727 39.7377 3.43492 40 3.11133 40Z" fill="#407093"/>
</g>
<defs>
<clipPath id="clip0_1540_13021">
<rect width="40" height="40" fill="white"/>
</clipPath>
</defs>
</svg>