<svg xmlns:xlink="http://www.w3.org/1999/xlink" xmlns="http://www.w3.org/2000/svg" width="40" height="40" viewBox="0 0 40 40" fill="none">
<path d="M20.0005 14.5769L4.74414 4.92463L6.02047 3.00892C6.25992 2.64955 6.74125 2.54502 7.1082 2.77267L8.51117 3.64322C11.2223 5.32548 13.6615 4.3972 15.8784 5.78377C19.4073 7.99095 20.0005 10.7722 20.0005 10.7722C20.0005 10.7722 20.5937 7.99095 24.1225 5.78384C26.3394 4.39728 28.7785 5.32556 31.4897 3.6433L32.8927 2.77275C33.2596 2.54509 33.7409 2.64963 33.9804 3.009L35.2567 4.9247L20.0005 14.5769Z" fill="#F4F8F8"/>
<path d="M20.334 14.3654C20.9736 13.9607 35.256 4.92463 35.256 4.92463L33.9797 3.00892C33.7402 2.64955 33.2589 2.54502 32.892 2.77267L31.489 3.64322C31.1185 3.87314 30.7533 4.05291 30.3928 4.19783C30.1323 5.44838 29.4659 6.66384 28.0013 7.35377C24.7561 8.88267 21.3865 9.30595 20.334 14.3654Z" fill="#D6E4EA"/>
<path d="M39.6248 6.05134C40.3043 7.12009 40.0367 8.53283 39.0133 9.27892L8.17598 31.7607C7.85871 31.992 7.41309 31.7654 7.41309 31.3728V28.4486C7.41309 26.5872 8.37988 24.8593 9.96629 23.8856L39.1854 5.94986C39.335 5.85806 39.5306 5.90322 39.6248 6.05134V6.05134Z" fill="#A95E2C"/>
<path d="M0.374989 6.05134C-0.304542 7.12009 -0.036886 8.53283 0.986473 9.27892L31.8238 31.7607C32.1411 31.992 32.5867 31.7654 32.5867 31.3728V28.4486C32.5867 26.5872 31.6199 24.8593 30.0335 23.8856L0.814442 5.94986C0.664833 5.85806 0.469208 5.90322 0.374989 6.05134V6.05134Z" fill="#D57E4B"/>
<path d="M19.9997 21.1517C20.4461 21.1517 20.808 20.7898 20.808 20.3434C20.808 19.897 20.4461 19.5352 19.9997 19.5352C19.5533 19.5352 19.1914 19.897 19.1914 20.3434C19.1914 20.7898 19.5533 21.1517 19.9997 21.1517Z" fill="#FCEE56"/>
<path d="M38.2662 34.5996H1.7334V32.6328C1.7334 32.2013 2.08316 31.8516 2.51465 31.8516H37.485C37.9164 31.8516 38.2662 32.2013 38.2662 32.6328V34.5996Z" fill="#BEBEBE"/>
<path d="M1.7334 33.3086H38.2662V34.6018H1.7334V33.3086Z" fill="#9B9B9B"/>
<path d="M39.1017 37.3496H0.898438C0.466953 37.3496 0.117188 36.9998 0.117188 36.5684V35.3828C0.117188 34.9513 0.466953 34.6016 0.898438 34.6016H39.1017C39.5332 34.6016 39.883 34.9513 39.883 35.3828V36.5684C39.883 36.9998 39.5332 37.3496 39.1017 37.3496Z" fill="#BEBEBE"/>
<path d="M27.192 8.01155C27.0654 7.7053 26.7143 7.5596 26.4081 7.6864C22.6211 9.25312 20.8052 11.3926 19.9997 12.6922C19.1943 11.3926 17.3784 9.25312 13.5914 7.6864C13.285 7.55983 12.9341 7.7053 12.8075 8.01155C12.6808 8.3178 12.8263 8.66874 13.1325 8.79546C18.2567 10.9153 19.4139 14.1629 19.43 14.2099C19.5097 14.4503 19.7464 14.6212 19.9996 14.6216C20.2563 14.6219 20.4873 14.4525 20.5693 14.2102C20.5803 14.1776 21.7311 10.9201 26.8668 8.79546C27.1732 8.66874 27.3186 8.3178 27.192 8.01155V8.01155Z" fill="#A8D0D5"/>
<path d="M20.0001 17.7261L37.8684 6.75815L36.5337 4.98667C36.283 4.65394 35.8189 4.56925 35.4669 4.79198L20.0001 14.5774L4.53332 4.79198C4.18129 4.56925 3.71715 4.65394 3.46652 4.98667L2.13184 6.75815L20.0001 17.7261Z" fill="#B9EA6A"/>
<path d="M19.5758 15.968C17.0706 14.4173 4.27566 6.49773 2.94293 5.67969L2.13184 6.75617L20.0001 17.7241L37.8684 6.75617L37.0573 5.67969C35.7246 6.49773 22.9296 14.4173 20.4243 15.968C20.1641 16.1291 19.8361 16.1291 19.5758 15.968V15.968Z" fill="#A1E42C"/>
</svg>