<svg xmlns:xlink="http://www.w3.org/1999/xlink" xmlns="http://www.w3.org/2000/svg" width="40" height="40" viewBox="0 0 40 40" fill="none">
<g clip-path="url(#clip0_1540_13190)">
<path d="M4.1931 25.5186H4.13793C1.85261 25.5186 0 23.666 0 21.3807V6.20824C0 3.92293 1.85261 2.07031 4.13793 2.07031H31.0345C33.3198 2.07031 35.1724 3.92293 35.1724 6.20824V21.3807C35.1724 23.666 33.3198 25.5186 31.0345 25.5186H4.1931Z" fill="#F29C1F"/>
<path d="M0 14.4844H35.1724V20.0016H0V14.4844Z" fill="#464F5D"/>
<path d="M9.65494 5.51953H6.89632C5.37277 5.51953 4.1377 6.75461 4.1377 8.27815C4.1377 9.8017 5.37277 11.0368 6.89632 11.0368H9.65494C11.1785 11.0368 12.4136 9.8017 12.4136 8.27815C12.4136 6.75461 11.1785 5.51953 9.65494 5.51953Z" fill="#F3D55B"/>
<path d="M30.3445 7.58634H15.1721C14.7912 7.58634 14.4824 7.27757 14.4824 6.89669C14.4824 6.5158 14.7912 6.20703 15.1721 6.20703H30.3445C30.7254 6.20703 31.0341 6.5158 31.0341 6.89669C31.0341 7.27757 30.7254 7.58634 30.3445 7.58634Z" fill="#FAC176"/>
<path d="M23.4479 10.3481H15.1721C14.7912 10.3481 14.4824 10.0393 14.4824 9.65841C14.4824 9.27752 14.7912 8.96875 15.1721 8.96875H23.4479C23.8288 8.96875 24.1376 9.27752 24.1376 9.65841C24.1376 10.0393 23.8288 10.3481 23.4479 10.3481Z" fill="#FAC176"/>
<path d="M37.931 24.1406H8.96545C7.82279 24.1406 6.89648 25.0669 6.89648 26.2096V35.8648C6.89648 37.0074 7.82279 37.9337 8.96545 37.9337H37.931C39.0736 37.9337 39.9999 37.0074 39.9999 35.8648V26.2096C39.9999 25.0669 39.0736 24.1406 37.931 24.1406Z" fill="#E64C3C"/>
<path d="M12.4139 26.207H10.3449C9.96404 26.207 9.65527 26.5158 9.65527 26.8967V35.1725C9.65527 35.5534 9.96404 35.8622 10.3449 35.8622H12.4139C14.3174 35.8599 15.8599 34.3174 15.8622 32.4139V29.6553C15.8599 27.7518 14.3174 26.2093 12.4139 26.207ZM14.4829 32.4139C14.4829 33.5566 13.5566 34.4829 12.4139 34.4829H11.0346V27.5863H12.4139C13.5566 27.5863 14.4829 28.5126 14.4829 29.6553V32.4139Z" fill="white"/>
<path d="M22.0688 27.5863C22.4497 27.5863 22.7585 27.2776 22.7585 26.8967C22.7585 26.5158 22.4497 26.207 22.0688 26.207H17.9309C17.55 26.207 17.2412 26.5158 17.2412 26.8967V35.1725C17.2412 35.5534 17.55 35.8622 17.9309 35.8622H22.0688C22.4497 35.8622 22.7585 35.5534 22.7585 35.1725C22.7585 34.7917 22.4497 34.4829 22.0688 34.4829H18.6205V31.7243H22.0688C22.4497 31.7243 22.7585 31.4155 22.7585 31.0346C22.7585 30.6537 22.4497 30.345 22.0688 30.345H18.6205V27.5863H22.0688Z" fill="white"/>
<path d="M30.3446 28.9657C30.3446 27.4421 29.1095 26.207 27.586 26.207H24.8274C24.4465 26.207 24.1377 26.5158 24.1377 26.8967V35.1725C24.1377 35.5534 24.4465 35.8622 24.8274 35.8622H27.586C28.7363 35.8673 29.768 35.1551 30.171 34.0776C30.574 33.0001 30.2629 31.7856 29.3915 31.0346C29.9942 30.5159 30.342 29.7609 30.3446 28.9657ZM28.9653 33.1036C28.9653 33.8654 28.3477 34.4829 27.586 34.4829H25.517V31.7243H27.586C28.3477 31.7243 28.9653 32.3418 28.9653 33.1036ZM25.517 30.345V27.5863H27.586C28.3477 27.5863 28.9653 28.2039 28.9653 28.9657C28.9653 29.7274 28.3477 30.345 27.586 30.345H25.517Z" fill="white"/>
<path d="M37.2411 26.207H31.7238C31.3429 26.207 31.0342 26.5158 31.0342 26.8967C31.0342 27.2776 31.3429 27.5863 31.7238 27.5863H33.7928V35.1725C33.7928 35.5534 34.1016 35.8622 34.4825 35.8622C34.8633 35.8622 35.1721 35.5534 35.1721 35.1725V27.5863H37.2411C37.622 27.5863 37.9307 27.2776 37.9307 26.8967C37.9307 26.5158 37.622 26.207 37.2411 26.207Z" fill="white"/>
</g>
<defs>
<clipPath id="clip0_1540_13190">
<rect width="40" height="40" fill="white"/>
</clipPath>
</defs>
</svg>