<svg xmlns:xlink="http://www.w3.org/1999/xlink" xmlns="http://www.w3.org/2000/svg" width="40" height="40" viewBox="0 0 40 40" fill="none">
<path d="M34.3727 27.1326C34.3727 27.1326 34.1393 27.1715 33.7616 27.2104C32.7893 27.316 30.9005 27.3993 29.7671 26.666C28.7616 26.016 27.2282 25.1437 26.2782 22.9715C25.756 21.7715 25.4171 20.1715 25.4393 17.9882C25.4449 17.5326 25.4449 17.0882 25.4449 16.6493V16.5549C25.4449 16.3049 25.4449 16.0549 25.4393 15.816C25.4393 15.5104 25.4338 15.216 25.4282 14.9271C25.4282 14.6771 25.4227 14.4271 25.4171 14.1938C25.4116 13.9493 25.406 13.7104 25.4005 13.4826C25.3949 13.3271 25.3949 13.1715 25.3893 13.0271C25.3782 12.7493 25.3727 12.4993 25.3616 12.2604C25.3616 12.1771 25.356 12.0938 25.356 12.0104C25.3449 11.7549 25.3338 11.5215 25.3282 11.316V11.3104C25.306 10.816 25.2838 10.4771 25.2782 10.3271C25.2727 10.2771 25.2727 10.2493 25.2727 10.2493C25.2171 10.2104 25.156 10.1771 25.0949 10.1438C25.0282 10.1104 24.9505 10.0826 24.8782 10.066C24.7949 10.0438 24.706 10.0271 24.606 10.0271H24.6005C24.5282 10.0215 24.4505 10.0215 24.3838 10.0271C24.2005 10.0438 24.0116 10.0826 23.8282 10.1493C22.9782 10.4382 22.2282 11.0938 22.2282 11.0938C22.206 11.0771 22.1838 11.066 22.1616 11.0493C21.9449 10.916 21.7282 10.8104 21.5171 10.7215C21.4616 10.6938 21.406 10.6715 21.3505 10.6493H21.3449C21.3227 10.6438 21.306 10.6382 21.2893 10.6326C21.1893 10.5993 21.0893 10.5715 20.9949 10.5382H20.9893C20.8282 10.4993 20.6838 10.4715 20.5338 10.4438C20.4171 10.4271 20.306 10.4215 20.1949 10.416C20.0727 10.4104 19.956 10.4104 19.8393 10.416C19.4616 10.4326 19.1282 10.4993 18.8338 10.5882H18.8282C18.7227 10.6215 18.6282 10.6493 18.5393 10.6882C18.4727 10.716 18.4005 10.7382 18.3449 10.7604C18.0338 10.8993 17.8171 11.0382 17.7171 11.0993C17.6727 11.1326 17.6505 11.1493 17.6505 11.1493C17.2949 10.8104 16.9227 10.5993 16.5782 10.466C16.4949 10.4326 16.406 10.4049 16.3227 10.3826C16.256 10.3604 16.1893 10.3493 16.1282 10.3382C15.8449 10.2771 15.6005 10.266 15.406 10.2771C15.3338 10.2771 15.2671 10.2826 15.2116 10.2882H15.1671C15.0282 10.3049 14.9505 10.3271 14.9505 10.3271C14.9505 10.3271 14.9393 10.3993 14.9227 10.5326V10.5382C14.9116 10.6382 14.8949 10.7604 14.8782 10.916C14.8616 11.066 14.8393 11.2382 14.8227 11.4382V11.4493C14.806 11.5882 14.7949 11.7382 14.7782 11.8993C14.7727 11.9715 14.7671 12.0549 14.7616 12.1326C14.756 12.2382 14.7505 12.3438 14.7393 12.4549C14.7338 12.5826 14.7227 12.7049 14.7171 12.8438C14.7116 12.966 14.706 13.0938 14.7005 13.2271C14.6949 13.2549 14.6949 13.2826 14.6949 13.3104C14.6893 13.3771 14.6893 13.4549 14.6893 13.5271V13.5326C14.6782 13.7271 14.6727 13.9326 14.6727 14.1382V14.1438C14.6616 14.416 14.656 14.6938 14.6616 14.9882C14.6616 15.0993 14.6616 15.2104 14.6671 15.3271C14.6671 15.4604 14.6671 15.5826 14.6727 15.7215V15.7549C14.6782 16.016 14.6893 16.2826 14.7005 16.5604C14.7005 16.5882 14.7005 16.6215 14.706 16.6549C14.7227 17.0882 14.7616 17.5382 14.806 17.9938C15.0171 20.1826 14.7338 21.7938 14.2005 22.9882C13.2449 25.1604 11.4893 26.0215 10.4838 26.6715C10.2893 26.7993 10.0838 26.8993 9.85046 26.9826H9.8449C9.5449 27.0882 9.23379 27.1604 8.90601 27.2049C8.48934 27.266 8.05601 27.2826 7.66157 27.2826C7.40046 27.2826 7.15046 27.2715 6.92823 27.2493C6.76712 27.2438 6.62268 27.2271 6.4949 27.216C6.11712 27.1771 5.88379 27.1382 5.88379 27.1382C8.72823 25.416 10.3616 21.5271 10.6282 16.6604C10.6505 16.3993 10.6616 16.1326 10.6671 15.8715L10.6838 15.3493V15.3326C10.6893 15.1104 10.7005 14.8882 10.7116 14.6771C10.7338 14.3771 10.7616 14.0993 10.7949 13.8215C10.806 13.7271 10.8171 13.6438 10.8282 13.5604C10.8671 13.266 10.9227 12.9938 10.9727 12.7271C11.0116 12.5326 11.056 12.3438 11.106 12.1604C11.1393 12.0104 11.1782 11.866 11.2282 11.7326C11.2505 11.6382 11.2727 11.5549 11.3005 11.4715C11.3782 11.2326 11.4616 10.9993 11.5393 10.7882C11.5949 10.6382 11.6616 10.4993 11.7171 10.3715C11.8005 10.1826 11.8893 10.0049 11.9727 9.84375C12.0005 9.79375 12.0227 9.74375 12.0505 9.69931C12.1782 9.47153 12.3005 9.27153 12.4227 9.09931C12.4505 9.04375 12.4893 8.9882 12.5282 8.94375C12.7116 8.6882 12.8671 8.51597 12.9616 8.41042C13.0338 8.33264 13.0838 8.2882 13.0838 8.2882H13.0505C13.0505 8.16597 13.056 8.04931 13.0616 7.93264C13.0727 7.71597 13.0893 7.49931 13.1227 7.28819C13.156 7.04931 13.206 6.80486 13.2782 6.58264V6.57708C13.3116 6.44931 13.3505 6.33819 13.3949 6.22153C13.4116 6.16597 13.4338 6.11042 13.456 6.06042C13.5393 5.83264 13.6505 5.60486 13.7727 5.39931C14.1116 4.79375 14.5727 4.27708 15.1227 3.84931C15.3782 3.64931 15.6505 3.47153 15.9449 3.31042C16.156 3.19375 16.3727 3.09375 16.6005 2.99375C16.706 2.94931 16.8116 2.91042 16.9227 2.86597C17.156 2.78264 17.406 2.70486 17.6616 2.63819C17.7171 2.62153 17.7838 2.61042 17.8449 2.59931H17.8505C17.8838 2.58819 17.9116 2.57708 17.9505 2.57153C18.1393 2.53264 18.3338 2.49375 18.5338 2.46042C18.606 2.44931 18.6782 2.43819 18.7505 2.42708C18.8116 2.42153 18.8838 2.41042 18.9449 2.40486C19.1616 2.38264 19.3893 2.36597 19.6116 2.35486C19.6838 2.34931 19.7616 2.34931 19.8393 2.34931C19.9338 2.34375 20.0227 2.34375 20.1227 2.34375H20.2282C20.306 2.34375 20.3838 2.34375 20.456 2.34931H20.4616C20.6005 2.35486 20.7338 2.36042 20.8671 2.36597C20.9727 2.37708 21.0727 2.38264 21.1782 2.39375C21.306 2.40486 21.4282 2.42153 21.556 2.43819C21.6727 2.45486 21.7838 2.47153 21.9005 2.48819C21.9782 2.50486 22.0616 2.52153 22.1393 2.53264C22.2227 2.55486 22.3116 2.57153 22.3893 2.59375H22.3949C22.656 2.64931 22.906 2.72708 23.1505 2.80486C23.2449 2.83264 23.3338 2.86597 23.4227 2.90486C23.4727 2.92708 23.5282 2.94375 23.5782 2.96597C23.7393 3.02708 23.8949 3.09931 24.0505 3.17153C24.106 3.20486 24.1671 3.23264 24.2227 3.26597C24.3005 3.30486 24.3782 3.34931 24.4505 3.39931C24.656 3.52153 24.8505 3.64375 25.0338 3.78264C25.1005 3.83264 25.1671 3.89375 25.2338 3.94375C25.4116 4.09375 25.5782 4.24931 25.7338 4.41597C25.7505 4.43264 25.7671 4.44931 25.7838 4.47153C25.9393 4.63819 26.0838 4.81597 26.2116 5.00486C26.3782 5.23819 26.5227 5.49931 26.6449 5.76597C26.6505 5.77708 26.656 5.79375 26.6616 5.80486C26.6949 5.87708 26.7282 5.95486 26.7616 6.03264V6.03819C26.8616 6.27153 26.9393 6.51597 26.9949 6.77153C27.0171 6.83264 27.0282 6.90486 27.0393 6.96597C27.0505 7.01042 27.0616 7.06597 27.0671 7.11042C27.0893 7.23264 27.106 7.35486 27.1227 7.48264C27.1393 7.61597 27.1505 7.74375 27.156 7.88264C27.1616 7.99931 27.1671 8.11042 27.1671 8.23264V8.27153C27.1671 8.27153 27.3449 8.42708 27.6005 8.76597C27.6505 8.82153 27.7005 8.8882 27.7449 8.95486C27.7671 8.98264 27.7838 9.01042 27.806 9.0382C27.9393 9.22708 28.0838 9.45486 28.2282 9.72708V9.73264C28.3338 9.92708 28.4393 10.1438 28.5449 10.3826C28.5782 10.4604 28.6171 10.5549 28.6616 10.6382C28.7227 10.8049 28.7893 10.9771 28.8505 11.1604C28.9116 11.3326 28.9727 11.5049 29.0227 11.6938L29.1838 12.2938C29.2116 12.3993 29.2338 12.4993 29.256 12.6104C29.2782 12.7382 29.306 12.8604 29.3282 12.9938C29.3449 13.0993 29.3671 13.2049 29.3838 13.316V13.3382C29.406 13.4771 29.4282 13.6104 29.4449 13.7493C29.4671 13.9271 29.4838 14.116 29.506 14.3049V14.3104C29.5171 14.466 29.5282 14.6215 29.5393 14.7826C29.556 15.0549 29.5671 15.3326 29.5727 15.6215C29.5727 15.6493 29.5727 15.6826 29.5782 15.716C29.5838 16.0271 29.5949 16.3382 29.6171 16.6382C29.8949 21.5215 31.5282 25.4104 34.3727 27.1326V27.1326Z" fill="#F9485E"/>
<path d="M19.5895 2.34766L19.234 2.70321L18.9229 2.39766C19.1451 2.37543 19.3673 2.35877 19.5895 2.34766Z" fill="#E6E6E6"/>
<path d="M17.9284 2.56641L17.8673 2.62752L17.834 2.59418C17.8618 2.58307 17.8951 2.57196 17.9284 2.56641V2.56641Z" fill="#E6E6E6"/>
<path d="M17.4365 3.34375L17.9236 2.85663L18.4108 3.34375L17.9236 3.83087L17.4365 3.34375Z" fill="#E6E6E6"/>
<path d="M17.7115 2.70339L17.2282 3.19227L16.9004 2.8645C17.1337 2.78116 17.3837 2.70339 17.6393 2.63672L17.7115 2.70339Z" fill="#E6E6E6"/>
<path d="M18.1504 2.82031L18.6375 2.3332L19.1246 2.82031L18.6375 3.30743L18.1504 2.82031Z" fill="#E6E6E6"/>
<path d="M18.8037 3.49609L19.2908 3.00898L19.7779 3.49609L19.2908 3.98321L18.8037 3.49609Z" fill="#E6E6E6"/>
<path d="M19.5215 3.91797L20.0086 3.43085L20.4957 3.91797L20.0086 4.40509L19.5215 3.91797Z" fill="#E6E6E6"/>
<path d="M18.7441 4.69531L19.2313 4.20819L19.7184 4.69531L19.2313 5.18243L18.7441 4.69531Z" fill="#E6E6E6"/>
<path d="M18.0439 4.05859L18.5311 3.57148L19.0182 4.05859L18.5311 4.54571L18.0439 4.05859Z" fill="#E6E6E6"/>
<path d="M17.375 4.625L17.8621 4.13788L18.3492 4.625L17.8621 5.11212L17.375 4.625Z" fill="#E6E6E6"/>
<path d="M16.6777 3.98047L17.1649 3.49335L17.652 3.98047L17.1649 4.46759L16.6777 3.98047Z" fill="#E6E6E6"/>
<path d="M16.0078 4.62109L16.4949 4.13398L16.982 4.62109L16.4949 5.10821L16.0078 4.62109Z" fill="#E6E6E6"/>
<path d="M15.3066 3.98438L15.7938 3.49726L16.2809 3.98438L15.7938 4.47149L15.3066 3.98438Z" fill="#E6E6E6"/>
<path d="M16.8951 3.30495L16.4062 3.78828L15.9229 3.30495C16.134 3.18828 16.3506 3.08828 16.5784 2.98828L16.8951 3.30495Z" fill="#E6E6E6"/>
<path d="M14.6387 4.54297L15.1258 4.05585L15.6129 4.54297L15.1258 5.03009L14.6387 4.54297Z" fill="#E6E6E6"/>
<path d="M22.96 3.34766L23.4471 2.86054L23.9342 3.34766L23.4471 3.83477L22.96 3.34766Z" fill="#E6E6E6"/>
<path d="M23.1339 2.81042L22.7506 3.19375L22.2617 2.70486L22.3728 2.59375H22.3784C22.6395 2.65486 22.8895 2.72708 23.1339 2.81042Z" fill="#E6E6E6"/>
<path d="M22.1224 2.53273L22.0224 2.63273L21.8779 2.48828C21.9613 2.50495 22.039 2.52161 22.1224 2.53273Z" fill="#E6E6E6"/>
<path d="M20.845 2.36042L20.6506 2.55486L20.4395 2.34375C20.5783 2.34931 20.7117 2.35486 20.845 2.36042V2.36042Z" fill="#E6E6E6"/>
<path d="M20.2227 3.27344L20.7098 2.78632L21.1969 3.27344L20.7098 3.76056L20.2227 3.27344Z" fill="#E6E6E6"/>
<path d="M20.4947 2.63038L20.0114 3.11927L19.5225 2.63038L19.8169 2.34149C19.9113 2.33594 20.0002 2.33594 20.1002 2.33594H20.2058L20.4947 2.63038Z" fill="#E6E6E6"/>
<path d="M24.2005 3.26632L24.1617 3.30521L24.0283 3.17188C24.0894 3.21076 24.145 3.23854 24.2005 3.26632Z" fill="#E6E6E6"/>
<path d="M25.0173 3.78342L24.8229 3.97786L24.334 3.49453L24.434 3.39453C24.6395 3.52231 24.834 3.64453 25.0173 3.78342V3.78342Z" fill="#E6E6E6"/>
<path d="M25.7173 4.41753L25.4784 4.65642L24.9951 4.17309L25.2173 3.94531C25.3951 4.09531 25.5618 4.25087 25.7173 4.41753Z" fill="#E6E6E6"/>
<path d="M24.2705 4.69531L24.7576 4.2082L25.2447 4.69531L24.7576 5.18243L24.2705 4.69531Z" fill="#E6E6E6"/>
<path d="M23.5703 4.05469L24.0574 3.56757L24.5445 4.05469L24.0574 4.54181L23.5703 4.05469Z" fill="#E6E6E6"/>
<path d="M22.9014 4.625L23.3885 4.13788L23.8756 4.625L23.3885 5.11212L22.9014 4.625Z" fill="#E6E6E6"/>
<path d="M22.2012 3.98438L22.6883 3.49726L23.1754 3.98438L22.6883 4.47149L22.2012 3.98438Z" fill="#E6E6E6"/>
<path d="M21.5342 4.62109L22.0213 4.13398L22.5084 4.62109L22.0213 5.10821L21.5342 4.62109Z" fill="#E6E6E6"/>
<path d="M20.834 3.98438L21.3211 3.49726L21.8082 3.98437L21.3211 4.47149L20.834 3.98438Z" fill="#E6E6E6"/>
<path d="M21.4443 3.30859L21.9315 2.82148L22.4186 3.30859L21.9315 3.79571L21.4443 3.30859Z" fill="#E6E6E6"/>
<path d="M20.835 2.71094L21.3221 2.22382L21.8092 2.71094L21.3221 3.19806L20.835 2.71094Z" fill="#E6E6E6"/>
<path d="M20.1611 4.54688L20.6483 4.05976L21.1354 4.54687L20.6483 5.03399L20.1611 4.54688Z" fill="#E6E6E6"/>
<path d="M26.2009 5.00599L26.1786 5.02821L25.6953 4.54488L25.7675 4.47266C25.9231 4.63932 26.0675 4.8171 26.2009 5.00599V5.00599Z" fill="#E6E6E6"/>
<path d="M14.095 5.73898L13.6117 6.22786L13.4395 6.05564C13.5228 5.82786 13.6339 5.60009 13.7561 5.39453L14.095 5.73898Z" fill="#E6E6E6"/>
<path d="M13.5009 6.33707L13.2676 6.5704C13.3009 6.44262 13.3398 6.33151 13.3842 6.21484L13.5009 6.33707Z" fill="#E6E6E6"/>
<path d="M13.1855 7.01562L13.6727 6.52851L14.1598 7.01562L13.6727 7.50274L13.1855 7.01562Z" fill="#E6E6E6"/>
<path d="M13.8428 7.6875L14.3299 7.20038L14.817 7.6875L14.3299 8.17462L13.8428 7.6875Z" fill="#E6E6E6"/>
<path d="M13.1211 8.21094L13.6082 7.72382L14.0953 8.21094L13.6082 8.69806L13.1211 8.21094Z" fill="#E6E6E6"/>
<path d="M13.3949 7.57569L13.0449 7.92569C13.056 7.70903 13.0727 7.49236 13.106 7.28125L13.3949 7.57569Z" fill="#E6E6E6"/>
<path d="M18.7432 5.94531L19.2303 5.45819L19.7174 5.94531L19.2303 6.43243L18.7432 5.94531Z" fill="#E6E6E6"/>
<path d="M18.0469 5.3125L18.534 4.82538L19.0211 5.3125L18.534 5.79962L18.0469 5.3125Z" fill="#E6E6E6"/>
<path d="M17.373 5.875L17.8602 5.38788L18.3473 5.875L17.8602 6.36212L17.373 5.875Z" fill="#E6E6E6"/>
<path d="M16.6777 5.23047L17.1649 4.74335L17.652 5.23047L17.1649 5.71759L16.6777 5.23047Z" fill="#E6E6E6"/>
<path d="M17.4395 7.07031L17.9266 6.58319L18.4137 7.07031L17.9266 7.55743L17.4395 7.07031Z" fill="#E6E6E6"/>
<path d="M16.7393 6.43359L17.2264 5.94648L17.7135 6.43359L17.2264 6.92071L16.7393 6.43359Z" fill="#E6E6E6"/>
<path d="M16.0059 5.87109L16.493 5.38398L16.9801 5.87109L16.493 6.35821L16.0059 5.87109Z" fill="#E6E6E6"/>
<path d="M15.3066 5.23438L15.7938 4.74726L16.2809 5.23438L15.7938 5.72149L15.3066 5.23438Z" fill="#E6E6E6"/>
<path d="M14.6367 5.79297L15.1238 5.30585L15.611 5.79297L15.1238 6.28009L14.6367 5.79297Z" fill="#E6E6E6"/>
<path d="M13.9414 5.16016L14.4285 4.67304L14.9156 5.16016L14.4285 5.64727L13.9414 5.16016Z" fill="#E6E6E6"/>
<path d="M14.6992 6.99219L15.1863 6.50507L15.6735 6.99219L15.1863 7.47931L14.6992 6.99219Z" fill="#E6E6E6"/>
<path d="M13.999 6.35547L14.4861 5.86835L14.9733 6.35547L14.4861 6.84259L13.999 6.35547Z" fill="#E6E6E6"/>
<path d="M18.1494 6.54297L18.6365 6.05585L19.1236 6.54297L18.6365 7.03009L18.1494 6.54297Z" fill="#E6E6E6"/>
<path d="M18.8672 7.18359L19.3543 6.69648L19.8414 7.18359L19.3543 7.67071L18.8672 7.18359Z" fill="#E6E6E6"/>
<path d="M19.5225 7.78516L20.0096 7.29804L20.4967 7.78516L20.0096 8.27227L19.5225 7.78516Z" fill="#E6E6E6"/>
<path d="M18.7422 8.41797L19.2293 7.93085L19.7164 8.41797L19.2293 8.90509L18.7422 8.41797Z" fill="#E6E6E6"/>
<path d="M18.0459 7.78125L18.533 7.29413L19.0201 7.78125L18.533 8.26837L18.0459 7.78125Z" fill="#E6E6E6"/>
<path d="M17.374 8.34766L17.8611 7.86054L18.3483 8.34766L17.8611 8.83477L17.374 8.34766Z" fill="#E6E6E6"/>
<path d="M16.6768 7.70312L17.1639 7.21601L17.651 7.70312L17.1639 8.19024L16.6768 7.70312Z" fill="#E6E6E6"/>
<path d="M16.0059 8.34375L16.493 7.85663L16.9801 8.34375L16.493 8.83087L16.0059 8.34375Z" fill="#E6E6E6"/>
<path d="M15.3057 7.70703L15.7928 7.21991L16.2799 7.70703L15.7928 8.19415L15.3057 7.70703Z" fill="#E6E6E6"/>
<path d="M15.9199 7.02734L16.407 6.54023L16.8942 7.02734L16.407 7.51446L15.9199 7.02734Z" fill="#E6E6E6"/>
<path d="M15.3066 6.43359L15.7938 5.94648L16.2809 6.43359L15.7938 6.92071L15.3066 6.43359Z" fill="#E6E6E6"/>
<path d="M14.6367 8.26562L15.1238 7.77851L15.611 8.26562L15.1238 8.75274L14.6367 8.26562Z" fill="#E6E6E6"/>
<path d="M24.2695 5.94531L24.7566 5.4582L25.2438 5.94531L24.7566 6.43243L24.2695 5.94531Z" fill="#E6E6E6"/>
<path d="M23.5732 5.30859L24.0604 4.82148L24.5475 5.30859L24.0604 5.79571L23.5732 5.30859Z" fill="#E6E6E6"/>
<path d="M22.9004 5.875L23.3875 5.38788L23.8746 5.875L23.3875 6.36212L22.9004 5.875Z" fill="#E6E6E6"/>
<path d="M22.2002 5.23438L22.6873 4.74726L23.1744 5.23438L22.6873 5.72149L22.2002 5.23438Z" fill="#E6E6E6"/>
<path d="M22.9629 7.07422L23.45 6.5871L23.9371 7.07422L23.45 7.56134L22.9629 7.07422Z" fill="#E6E6E6"/>
<path d="M22.2617 6.43359L22.7488 5.94648L23.236 6.43359L22.7488 6.92071L22.2617 6.43359Z" fill="#E6E6E6"/>
<path d="M21.5332 5.87109L22.0203 5.38398L22.5074 5.87109L22.0203 6.35821L21.5332 5.87109Z" fill="#E6E6E6"/>
<path d="M20.833 5.23438L21.3201 4.74726L21.8072 5.23437L21.3201 5.72149L20.833 5.23438Z" fill="#E6E6E6"/>
<path d="M20.1592 5.79688L20.6463 5.30976L21.1334 5.79687L20.6463 6.28399L20.1592 5.79688Z" fill="#E6E6E6"/>
<path d="M19.4639 5.16406L19.951 4.67695L20.4381 5.16406L19.951 5.65118L19.4639 5.16406Z" fill="#E6E6E6"/>
<path d="M20.2217 6.99609L20.7088 6.50898L21.1959 6.99609L20.7088 7.48321L20.2217 6.99609Z" fill="#E6E6E6"/>
<path d="M19.5215 6.35938L20.0086 5.87226L20.4957 6.35938L20.0086 6.84649L19.5215 6.35938Z" fill="#E6E6E6"/>
<path d="M23.6719 6.54688L24.159 6.05976L24.6461 6.54687L24.159 7.03399L23.6719 6.54688Z" fill="#E6E6E6"/>
<path d="M24.333 7.22266L24.8201 6.73554L25.3072 7.22266L24.8201 7.70977L24.333 7.22266Z" fill="#E6E6E6"/>
<path d="M24.9873 7.89453L25.4744 7.40741L25.9615 7.89453L25.4744 8.38165L24.9873 7.89453Z" fill="#E6E6E6"/>
<path d="M24.2686 8.41797L24.7557 7.93085L25.2428 8.41797L24.7557 8.90509L24.2686 8.41797Z" fill="#E6E6E6"/>
<path d="M23.5732 7.78125L24.0604 7.29413L24.5475 7.78125L24.0604 8.26837L23.5732 7.78125Z" fill="#E6E6E6"/>
<path d="M22.9004 8.34375L23.3875 7.85663L23.8746 8.34375L23.3875 8.83087L22.9004 8.34375Z" fill="#E6E6E6"/>
<path d="M22.2002 7.70703L22.6873 7.21991L23.1744 7.70703L22.6873 8.19415L22.2002 7.70703Z" fill="#E6E6E6"/>
<path d="M21.5322 8.34375L22.0193 7.85663L22.5065 8.34375L22.0193 8.83087L21.5322 8.34375Z" fill="#E6E6E6"/>
<path d="M20.833 7.70703L21.3201 7.21991L21.8072 7.70703L21.3201 8.19415L20.833 7.70703Z" fill="#E6E6E6"/>
<path d="M21.4434 7.03125L21.9305 6.54413L22.4176 7.03125L21.9305 7.51837L21.4434 7.03125Z" fill="#E6E6E6"/>
<path d="M20.834 6.43359L21.3211 5.94648L21.8082 6.43359L21.3211 6.92071L20.834 6.43359Z" fill="#E6E6E6"/>
<path d="M20.1602 8.26953L20.6473 7.78241L21.1344 8.26953L20.6473 8.75665L20.1602 8.26953Z" fill="#E6E6E6"/>
<path d="M25.6865 5.79688L26.1736 5.30976L26.6608 5.79687L26.1736 6.28399L25.6865 5.79688Z" fill="#E6E6E6"/>
<path d="M24.9902 5.16016L25.4774 4.67304L25.9645 5.16016L25.4774 5.64727L24.9902 5.16016Z" fill="#E6E6E6"/>
<path d="M25.748 6.99609L26.2352 6.50898L26.7223 6.99609L26.2352 7.48321L25.748 6.99609Z" fill="#E6E6E6"/>
<path d="M25.0488 6.35938L25.5359 5.87226L26.0231 6.35937L25.5359 6.84649L25.0488 6.35938Z" fill="#E6E6E6"/>
<path d="M27.6004 8.76936L27.5504 8.81936L27.0615 8.33602L27.1671 8.23047V8.26936C27.1615 8.28047 27.3393 8.43602 27.6004 8.76936V8.76936Z" fill="#E6E6E6"/>
<path d="M27.1509 7.88932L26.8453 8.18932L26.3564 7.70599L26.8453 7.22266L27.1176 7.49488C27.1342 7.62266 27.1453 7.75599 27.1509 7.88932V7.88932Z" fill="#E6E6E6"/>
<path d="M27.0618 7.11545L26.9785 7.03212L27.0341 6.97656C27.0396 7.01545 27.0563 7.07101 27.0618 7.11545Z" fill="#E6E6E6"/>
<path d="M26.9842 6.7763L26.8453 6.91519L26.3564 6.4263L26.7453 6.04297C26.8453 6.2763 26.9287 6.52075 26.9842 6.7763Z" fill="#E6E6E6"/>
<path d="M25.6865 8.26953L26.1736 7.78241L26.6608 8.26953L26.1736 8.75665L25.6865 8.26953Z" fill="#E6E6E6"/>
<path d="M13.124 9.48828L13.6111 9.00116L14.0983 9.48828L13.6111 9.9754L13.124 9.48828Z" fill="#E6E6E6"/>
<path d="M13.3951 8.85069L12.9117 9.33403L12.5117 8.93958C12.6951 8.68403 12.8506 8.51181 12.9451 8.40625L13.3951 8.85069Z" fill="#E6E6E6"/>
<path d="M12.7286 9.41042L12.2397 9.8993L12.0342 9.69375C12.162 9.46597 12.2842 9.26597 12.4064 9.09375L12.7286 9.41042Z" fill="#E6E6E6"/>
<path d="M11.8174 10.6094L12.3045 10.1223L12.7916 10.6094L12.3045 11.0965L11.8174 10.6094Z" fill="#E6E6E6"/>
<path d="M12.0901 9.97483L11.7012 10.3637C11.7845 10.1748 11.8734 9.99705 11.9567 9.83594L12.0901 9.97483Z" fill="#E6E6E6"/>
<path d="M12.5264 10.0859L13.0135 9.59882L13.5006 10.0859L13.0135 10.5731L12.5264 10.0859Z" fill="#E6E6E6"/>
<path d="M13.1846 10.7617L13.6717 10.2746L14.1588 10.7617L13.6717 11.2488L13.1846 10.7617Z" fill="#E6E6E6"/>
<path d="M14.8169 11.4381L14.8114 11.4437L14.3281 11.9159L13.8447 11.4381L14.3281 10.9492L14.8114 11.427L14.8169 11.4381Z" fill="#E6E6E6"/>
<path d="M13.124 11.9609L13.6111 11.4738L14.0983 11.9609L13.6111 12.4481L13.124 11.9609Z" fill="#E6E6E6"/>
<path d="M12.4238 11.3242L12.9109 10.8371L13.3981 11.3242L12.9109 11.8113L12.4238 11.3242Z" fill="#E6E6E6"/>
<path d="M11.7549 11.8828L12.242 11.3957L12.7291 11.8828L12.242 12.3699L11.7549 11.8828Z" fill="#E6E6E6"/>
<path d="M12.0283 11.2451L11.5394 11.7284L11.2783 11.4673C11.3561 11.2284 11.4394 10.9951 11.5172 10.7839L11.5394 10.7617L12.0283 11.2451Z" fill="#E6E6E6"/>
<path d="M11.1162 12.4453L11.6033 11.9582L12.0904 12.4453L11.6033 12.9324L11.1162 12.4453Z" fill="#E6E6E6"/>
<path d="M11.3559 11.8844L11.0781 12.1622C11.1115 12.0122 11.1503 11.8677 11.2003 11.7344L11.3559 11.8844Z" fill="#E6E6E6"/>
<path d="M18.7461 9.69531L19.2332 9.20819L19.7203 9.69531L19.2332 10.1824L18.7461 9.69531Z" fill="#E6E6E6"/>
<path d="M18.0449 9.05859L18.532 8.57148L19.0192 9.05859L18.532 9.54571L18.0449 9.05859Z" fill="#E6E6E6"/>
<path d="M17.373 9.62109L17.8602 9.13398L18.3473 9.62109L17.8602 10.1082L17.373 9.62109Z" fill="#E6E6E6"/>
<path d="M16.6758 8.97656L17.1629 8.48944L17.65 8.97656L17.1629 9.46368L16.6758 8.97656Z" fill="#E6E6E6"/>
<path d="M18.3457 10.7559C18.0346 10.8948 17.8179 11.0337 17.7179 11.0948L17.4346 10.817L17.9235 10.3281L18.3457 10.7559Z" fill="#E6E6E6"/>
<path d="M16.7383 10.1797L17.2254 9.69257L17.7125 10.1797L17.2254 10.6668L16.7383 10.1797Z" fill="#E6E6E6"/>
<path d="M16.0059 9.61719L16.493 9.13007L16.9801 9.61719L16.493 10.1043L16.0059 9.61719Z" fill="#E6E6E6"/>
<path d="M15.3047 8.98047L15.7918 8.49335L16.2789 8.98047L15.7918 9.46759L15.3047 8.98047Z" fill="#E6E6E6"/>
<path d="M14.6396 9.54297L15.1268 9.05585L15.6139 9.54297L15.1268 10.0301L14.6396 9.54297Z" fill="#E6E6E6"/>
<path d="M13.9395 8.90625L14.4266 8.41913L14.9137 8.90625L14.4266 9.39337L13.9395 8.90625Z" fill="#E6E6E6"/>
<path d="M14.9172 10.5273C14.9061 10.6273 14.8894 10.7496 14.8727 10.9051L14.7061 10.7385L14.9172 10.5273Z" fill="#E6E6E6"/>
<path d="M15.2066 10.28H15.1621L15.1843 10.2578L15.2066 10.28Z" fill="#E6E6E6"/>
<path d="M14.002 10.1055L14.4891 9.61835L14.9762 10.1055L14.4891 10.5926L14.002 10.1055Z" fill="#E6E6E6"/>
<path d="M19.1226 10.288L18.8337 10.5825H18.8282C18.7226 10.6158 18.6282 10.6436 18.5393 10.6825L18.1504 10.2936L18.6393 9.80469L19.1226 10.288Z" fill="#E6E6E6"/>
<path d="M16.5788 10.4635C16.4955 10.4302 16.4066 10.4024 16.3232 10.3802L16.4066 10.2969L16.5788 10.4635Z" fill="#E6E6E6"/>
<path d="M16.2789 10.1747L16.1233 10.3303C15.84 10.2692 15.5955 10.2581 15.4011 10.2692L15.3066 10.1747L15.79 9.69141L16.2789 10.1747Z" fill="#E6E6E6"/>
<path d="M14.7674 11.8906C14.7619 11.9628 14.7563 12.0462 14.7508 12.124L14.6396 12.0128L14.7674 11.8906Z" fill="#E6E6E6"/>
<path d="M25.2454 9.69592L24.8731 10.0626C24.7898 10.0404 24.7009 10.0237 24.6009 10.0237H24.5954L24.2676 9.69592L24.7565 9.20703L25.2454 9.69592Z" fill="#E6E6E6"/>
<path d="M23.5723 9.05859L24.0594 8.57148L24.5465 9.05859L24.0594 9.54571L23.5723 9.05859Z" fill="#E6E6E6"/>
<path d="M22.8994 9.62109L23.3865 9.13398L23.8737 9.62109L23.3865 10.1082L22.8994 9.62109Z" fill="#E6E6E6"/>
<path d="M22.1992 8.98047L22.6863 8.49335L23.1735 8.98047L22.6863 9.46759L22.1992 8.98047Z" fill="#E6E6E6"/>
<path d="M22.2607 10.1797L22.7479 9.69257L23.235 10.1797L22.7479 10.6668L22.2607 10.1797Z" fill="#E6E6E6"/>
<path d="M21.5322 9.61719L22.0193 9.13007L22.5065 9.61719L22.0193 10.1043L21.5322 9.61719Z" fill="#E6E6E6"/>
<path d="M20.8311 8.98047L21.3182 8.49335L21.8053 8.98047L21.3182 9.46759L20.8311 8.98047Z" fill="#E6E6E6"/>
<path d="M20.1631 9.54688L20.6502 9.05976L21.1373 9.54687L20.6502 10.034L20.1631 9.54688Z" fill="#E6E6E6"/>
<path d="M19.4619 8.91016L19.949 8.42304L20.4361 8.91016L19.949 9.39727L19.4619 8.91016Z" fill="#E6E6E6"/>
<path d="M20.9839 10.5278C20.8228 10.4889 20.6783 10.4611 20.5283 10.4333L20.7117 10.25L20.9839 10.5278Z" fill="#E6E6E6"/>
<path d="M20.4957 10.1005L20.1901 10.4116C20.0679 10.4061 19.9512 10.4061 19.8345 10.4116L19.5234 10.1005L20.0123 9.61719L20.4957 10.1005Z" fill="#E6E6E6"/>
<path d="M24.3788 10.0174C24.1955 10.0341 24.0066 10.073 23.8232 10.1397L24.1621 9.80078L24.3788 10.0174Z" fill="#E6E6E6"/>
<path d="M26.0344 11.399L25.5455 11.8824L25.4233 11.7602C25.4122 11.5046 25.4011 11.2713 25.3955 11.0657V11.0602L25.5455 10.9102L26.0344 11.399Z" fill="#E6E6E6"/>
<path d="M22.4173 10.778L22.1562 11.0391C21.9395 10.9057 21.7228 10.8002 21.5117 10.7113L21.9339 10.2891L22.4173 10.778Z" fill="#E6E6E6"/>
<path d="M21.8062 10.1731L21.3451 10.6398H21.3395L21.3229 10.662L21.284 10.6231L20.834 10.1731L21.3229 9.69531L21.8062 10.1731Z" fill="#E6E6E6"/>
<path d="M27.8066 9.05208L27.7344 8.97986L27.7455 8.96875C27.7677 8.99653 27.7844 9.02431 27.8066 9.05208Z" fill="#E6E6E6"/>
<path d="M28.8507 11.1746L28.4951 10.819L28.6618 10.6523C28.7229 10.819 28.784 10.9912 28.8507 11.1746Z" fill="#E6E6E6"/>
<path d="M28.5456 10.3944L28.2734 10.6667L27.79 10.1778L28.2234 9.75C28.3345 9.93889 28.44 10.1556 28.5456 10.3944Z" fill="#E6E6E6"/>
<path d="M27.0547 9.62109L27.5418 9.13398L28.0289 9.62109L27.5418 10.1082L27.0547 9.62109Z" fill="#E6E6E6"/>
<path d="M26.3584 8.98047L26.8455 8.49335L27.3326 8.98047L26.8455 9.46759L26.3584 8.98047Z" fill="#E6E6E6"/>
<path d="M25.6895 9.54688L26.1766 9.05976L26.6637 9.54687L26.1766 10.034L25.6895 9.54688Z" fill="#E6E6E6"/>
<path d="M24.9893 8.90625L25.4764 8.41913L25.9635 8.90625L25.4764 9.39337L24.9893 8.90625Z" fill="#E6E6E6"/>
<path d="M25.7471 10.7422L26.2342 10.2551L26.7213 10.7422L26.2342 11.2293L25.7471 10.7422Z" fill="#E6E6E6"/>
<path d="M26.0286 10.1005L25.5397 10.5894L25.273 10.3227L25.0508 10.1005L25.5397 9.61719L26.0286 10.1005Z" fill="#E6E6E6"/>
<path d="M29.1843 12.3071L28.9176 12.5738L28.4287 12.0905L28.9176 11.6016L29.0232 11.7071L29.1843 12.3071Z" fill="#E6E6E6"/>
<path d="M27.7256 11.4531L28.2127 10.966L28.6998 11.4531L28.2127 11.9402L27.7256 11.4531Z" fill="#E6E6E6"/>
<path d="M27.0547 12.0938L27.5418 11.6066L28.0289 12.0937L27.5418 12.5809L27.0547 12.0938Z" fill="#E6E6E6"/>
<path d="M26.3584 11.4531L26.8455 10.966L27.3326 11.4531L26.8455 11.9402L26.3584 11.4531Z" fill="#E6E6E6"/>
<path d="M26.9727 10.7812L27.4598 10.2941L27.9469 10.7813L27.4598 11.2684L26.9727 10.7812Z" fill="#E6E6E6"/>
<path d="M26.3594 10.1797L26.8465 9.69257L27.3336 10.1797L26.8465 10.6668L26.3594 10.1797Z" fill="#E6E6E6"/>
<path d="M25.6885 12.0195L26.1756 11.5324L26.6627 12.0195L26.1756 12.5066L25.6885 12.0195Z" fill="#E6E6E6"/>
<path d="M13.123 13.2109L13.6102 12.7238L14.0973 13.2109L13.6102 13.6981L13.123 13.2109Z" fill="#E6E6E6"/>
<path d="M12.4229 12.5742L12.91 12.0871L13.3971 12.5742L12.91 13.0613L12.4229 12.5742Z" fill="#E6E6E6"/>
<path d="M11.7539 13.1328L12.241 12.6457L12.7281 13.1328L12.241 13.6199L11.7539 13.1328Z" fill="#E6E6E6"/>
<path d="M11.8154 14.332L12.3025 13.8449L12.7897 14.332L12.3025 14.8191L11.8154 14.332Z" fill="#E6E6E6"/>
<path d="M11.1162 13.6953L11.6033 13.2082L12.0904 13.6953L11.6033 14.1824L11.1162 13.6953Z" fill="#E6E6E6"/>
<path d="M11.3566 13.1321L10.8678 13.621L10.8066 13.5599C10.8455 13.2655 10.9011 12.9932 10.9511 12.7266L11.3566 13.1321Z" fill="#E6E6E6"/>
<path d="M12.5293 13.8086L13.0164 13.3215L13.5035 13.8086L13.0164 14.2957L12.5293 13.8086Z" fill="#E6E6E6"/>
<path d="M13.1826 14.4844L13.6697 13.9973L14.1569 14.4844L13.6697 14.9715L13.1826 14.4844Z" fill="#E6E6E6"/>
<path d="M14.651 15.3274L14.3287 15.6497L13.8398 15.1608L14.3287 14.6719L14.6454 14.9885C14.6454 15.0941 14.6454 15.2108 14.651 15.3274V15.3274Z" fill="#E6E6E6"/>
<path d="M13.123 15.6836L13.6102 15.1965L14.0973 15.6836L13.6102 16.1707L13.123 15.6836Z" fill="#E6E6E6"/>
<path d="M12.4219 15.0469L12.909 14.5598L13.3961 15.0469L12.909 15.534L12.4219 15.0469Z" fill="#E6E6E6"/>
<path d="M11.7539 15.6055L12.241 15.1184L12.7281 15.6055L12.241 16.0926L11.7539 15.6055Z" fill="#E6E6E6"/>
<path d="M11.0566 14.9727L11.5438 14.4855L12.0309 14.9727L11.5438 15.4598L11.0566 14.9727Z" fill="#E6E6E6"/>
<path d="M10.6619 15.3394V15.3339L10.873 15.1172L11.3563 15.6061L10.873 16.095L10.6396 15.8616L10.6619 15.3394Z" fill="#E6E6E6"/>
<path d="M11.2735 14.2936L10.7901 14.7825L10.6846 14.6769C10.7068 14.3769 10.7346 14.0991 10.7679 13.8214L10.7846 13.8047L11.2735 14.2936Z" fill="#E6E6E6"/>
<path d="M14.6841 13.2227C14.6785 13.2504 14.6785 13.2782 14.6785 13.306L14.6396 13.2671L14.6841 13.2227Z" fill="#E6E6E6"/>
<path d="M14.7283 12.4462C14.7228 12.574 14.7117 12.6962 14.7061 12.8351L14.4283 13.1128L13.9395 12.6295L14.4283 12.1406L14.7283 12.4462Z" fill="#E6E6E6"/>
<path d="M14.6732 13.5248V13.5304C14.6621 13.7248 14.6565 13.9304 14.6565 14.1359V14.1415L14.4843 14.3082L14.001 13.8193L14.4843 13.3359L14.6732 13.5248Z" fill="#E6E6E6"/>
<path d="M14.6563 15.7227V15.756L14.6396 15.7393L14.6563 15.7227Z" fill="#E6E6E6"/>
<path d="M25.962 15.0302L25.4732 15.5135L25.4398 15.4802C25.4398 15.1747 25.4343 14.8802 25.4287 14.5913L25.4732 14.5469L25.962 15.0302Z" fill="#E6E6E6"/>
<path d="M29.3284 13.0044L29.1006 12.7766L29.2561 12.6211C29.2784 12.7489 29.3061 12.8766 29.3284 13.0044V13.0044Z" fill="#E6E6E6"/>
<path d="M28.4248 13.3398L28.9119 12.8527L29.399 13.3398L28.9119 13.827L28.4248 13.3398Z" fill="#E6E6E6"/>
<path d="M27.7285 12.707L28.2156 12.2199L28.7028 12.707L28.2156 13.1941L27.7285 12.707Z" fill="#E6E6E6"/>
<path d="M28.4863 14.5391L28.9734 14.0519L29.4606 14.5391L28.9734 15.0262L28.4863 14.5391Z" fill="#E6E6E6"/>
<path d="M27.7871 13.9023L28.2742 13.4152L28.7613 13.9023L28.2742 14.3895L27.7871 13.9023Z" fill="#E6E6E6"/>
<path d="M27.0537 13.3438L27.5408 12.8566L28.0279 13.3437L27.5408 13.8309L27.0537 13.3438Z" fill="#E6E6E6"/>
<path d="M26.3613 12.7031L26.8484 12.216L27.3356 12.7031L26.8484 13.1902L26.3613 12.7031Z" fill="#E6E6E6"/>
<path d="M25.6885 13.2695L26.1756 12.7824L26.6627 13.2695L26.1756 13.7566L25.6885 13.2695Z" fill="#E6E6E6"/>
<path d="M25.9623 12.6279L25.4734 13.1112L25.3901 13.0279C25.379 12.7501 25.3734 12.5001 25.3623 12.2612L25.479 12.1445L25.9623 12.6279Z" fill="#E6E6E6"/>
<path d="M25.75 14.4688L26.2371 13.9816L26.7242 14.4688L26.2371 14.9559L25.75 14.4688Z" fill="#E6E6E6"/>
<path d="M26.0282 13.8232L25.5393 14.3121L25.4171 14.1898C25.4115 13.9454 25.4059 13.7065 25.4004 13.4787L25.5393 13.3398L26.0282 13.8232Z" fill="#E6E6E6"/>
<path d="M29.5123 14.3212L29.2012 14.0101L29.4456 13.7656C29.4734 13.9434 29.4901 14.1323 29.5123 14.3212V14.3212Z" fill="#E6E6E6"/>
<path d="M29.5895 15.7302L29.5839 15.7358L29.1006 15.2524L29.5506 14.7969C29.5673 15.0691 29.5784 15.3469 29.5839 15.6358C29.5839 15.6691 29.5839 15.7024 29.5895 15.7302V15.7302Z" fill="#E6E6E6"/>
<path d="M28.4248 15.8125L28.9119 15.3254L29.399 15.8125L28.9119 16.2996L28.4248 15.8125Z" fill="#E6E6E6"/>
<path d="M27.7285 15.1797L28.2156 14.6926L28.7028 15.1797L28.2156 15.6668L27.7285 15.1797Z" fill="#E6E6E6"/>
<path d="M27.0527 15.8164L27.5399 15.3293L28.027 15.8164L27.5399 16.3035L27.0527 15.8164Z" fill="#E6E6E6"/>
<path d="M26.3604 15.1758L26.8475 14.6887L27.3346 15.1758L26.8475 15.6629L26.3604 15.1758Z" fill="#E6E6E6"/>
<path d="M26.9717 14.5039L27.4588 14.0168L27.9459 14.5039L27.4588 14.991L26.9717 14.5039Z" fill="#E6E6E6"/>
<path d="M26.3574 13.9023L26.8445 13.4152L27.3317 13.9023L26.8445 14.3895L26.3574 13.9023Z" fill="#E6E6E6"/>
<path d="M25.6875 15.7422L26.1746 15.2551L26.6617 15.7422L26.1746 16.2293L25.6875 15.7422Z" fill="#E6E6E6"/>
<path d="M35.4227 37.7771H4.57826C4.57826 37.7771 4.35604 35.0882 4.57826 30.7049C4.66159 28.9993 5.43937 27.8549 6.35604 27.0826C7.32826 27.1882 9.21715 27.2715 10.3505 26.5382C11.356 25.8882 13.1116 25.0271 14.0671 22.8549C17.8005 25.8993 21.9505 25.8326 26.1671 22.8438C27.1116 25.016 28.6505 25.8882 29.656 26.5382C30.7838 27.2715 32.6783 27.1882 33.6505 27.0826C34.5671 27.8549 35.3449 28.9993 35.4283 30.7049C35.6449 35.0882 35.4227 37.7771 35.4227 37.7771Z" fill="#333333"/>
<path d="M14.5676 23.2388C14.4009 23.1166 14.2287 22.9944 14.0676 22.8555C13.7787 23.5166 13.412 24.0444 13.0176 24.4888C13.512 24.1721 14.0565 23.7721 14.5676 23.2388Z" fill="#333132"/>
<path d="M12.9505 36.3003C9.16715 36.3003 6.13381 33.1392 6.3227 29.3559C6.3227 29.3115 6.32826 29.267 6.32826 29.2226C6.3727 28.3948 6.5727 27.7059 6.87826 27.1226C6.68937 27.1115 6.50604 27.0948 6.35604 27.0781C5.43937 27.8448 4.66159 28.9948 4.57826 30.7003C4.35604 35.0837 4.57826 37.7726 4.57826 37.7726H35.4227C35.4227 37.7726 35.4671 37.2503 35.4949 36.2948H12.9505V36.3003Z" fill="#1A1A1A"/>
<path d="M26.1615 22.8424C21.9449 25.8313 17.8004 25.898 14.0615 22.8536C14.5949 21.6536 14.8837 20.048 14.6671 17.8591C14.6226 17.3702 14.5837 16.898 14.5615 16.4313C14.8226 17.8424 15.6504 18.9147 16.056 19.3758C16.1171 19.6924 16.7449 22.1424 19.9615 22.1424C22.5893 22.1424 23.5171 19.748 23.6449 19.3869C23.9726 19.0758 25.006 17.998 25.3226 16.4258C25.3226 16.898 25.3226 17.3702 25.3171 17.8591C25.306 20.0424 25.6449 21.6424 26.1615 22.8424V22.8424Z" fill="#F7E2B5"/>
<path d="M24.5559 18.9758C24.7059 18.8313 25.017 18.5147 25.3337 18.0591C25.3337 17.9924 25.3337 17.9258 25.3337 17.8591C25.3393 17.3702 25.3393 16.898 25.3393 16.4258C25.0226 17.998 23.9893 19.0758 23.6615 19.3869C23.5726 19.6313 23.1115 20.8313 21.9893 21.5647C23.767 21.0202 24.4448 19.2758 24.5559 18.9758V18.9758Z" fill="#F0CA8C"/>
<path d="M15.6278 19.3797C15.6334 19.2019 15.6389 19.0186 15.6389 18.8297C15.2334 18.2686 14.7612 17.4352 14.5723 16.4297C14.5889 16.8964 14.6278 17.3686 14.6778 17.8575C14.8889 20.0464 14.6056 21.6575 14.0723 22.8519C17.2667 25.4575 20.7612 25.7741 24.3389 23.9464C22.8723 24.5519 21.4167 24.7908 20 24.6519C17.3612 24.4019 15.5056 22.0241 15.6278 19.3797Z" fill="#F0CA8C"/>
<path d="M25.1557 10.1147C24.0057 9.29243 22.1113 10.9591 22.1113 10.9591C19.6835 9.39243 17.5391 11.0147 17.5391 11.0147C16.2613 9.79799 14.8335 10.1869 14.8335 10.1869C14.8335 10.1869 14.4002 12.948 14.578 16.4258C14.8391 17.8369 15.6669 18.9091 16.0724 19.3702C16.1335 19.6869 16.7613 22.1369 19.978 22.1369C22.6057 22.1369 23.5335 19.7424 23.6613 19.3813C23.9891 19.0702 25.0224 17.9924 25.3391 16.4202C25.328 12.9147 25.1557 10.1147 25.1557 10.1147V10.1147Z" fill="#F7E2B5"/>
<path d="M20.362 21.4478C17.1453 21.4478 16.5175 18.9978 16.4564 18.6812C16.0509 18.2201 15.2231 17.1478 14.962 15.7367C14.8342 13.2534 15.0175 11.1478 15.1342 10.1367C14.9453 10.1534 14.8286 10.1867 14.8286 10.1867C14.8286 10.1867 14.3953 12.9478 14.5731 16.4256C14.8342 17.8367 15.662 18.9089 16.0675 19.3701C16.1286 19.6867 16.7564 22.1367 19.9731 22.1367C22.1564 22.1367 23.1675 20.4867 23.5175 19.7201C22.9842 20.5145 22.0064 21.4478 20.362 21.4478V21.4478Z" fill="#F0CA8C"/>
<path d="M24.0455 18.6978C24.0178 18.7812 23.94 18.9867 23.8066 19.2367C24.09 18.9423 24.5566 18.3923 24.9178 17.6367C24.5678 18.1701 24.2122 18.5367 24.0455 18.6978Z" fill="#F0CA8C"/>
<path d="M25.4453 15.9531H29.6286V16.5253H25.4453V15.9531Z" fill="#E6E6E6"/>
<path d="M10.6006 15.9531H14.6895V16.5253H10.6006V15.9531Z" fill="#E6E6E6"/>
<path d="M7.63958 27.2767C7.37847 27.2767 7.12847 27.2656 6.90625 27.2434C8.81736 25.1045 11.6785 21.099 11.4729 16.5378L12.0451 16.5156C12.2563 21.0267 9.59514 24.9934 7.63958 27.2767Z" fill="#F2F2F2"/>
<path d="M9.83409 26.9751H9.82854C9.52854 27.0806 9.21743 27.1529 8.88965 27.1973C10.7563 25.0918 13.6285 21.0806 13.4174 16.5418L13.9896 16.5195C14.1896 20.8529 11.723 24.6918 9.83409 26.9751Z" fill="#F2F2F2"/>
<path d="M32.4012 27.2767C32.6623 27.2767 32.9123 27.2656 33.1345 27.2434C31.2234 25.1045 28.3623 21.099 28.5678 16.5378L27.9956 16.5156C27.7901 21.0267 30.4456 24.9934 32.4012 27.2767Z" fill="#F2F2F2"/>
<path d="M30.2064 26.9751H30.212C30.512 27.0806 30.8231 27.1529 31.1509 27.1973C29.2842 25.0918 26.412 21.0806 26.6231 16.5418L26.0509 16.5195C25.8564 20.8529 28.3231 24.6918 30.2064 26.9751V26.9751Z" fill="#F2F2F2"/>
<path d="M27.667 6.59384H12.1836C11.9447 6.59384 11.7559 6.39939 11.7559 6.16606C11.7559 5.92717 11.9503 5.73828 12.1836 5.73828H27.667C27.9059 5.73828 28.0947 5.93273 28.0947 6.16606C28.0947 6.39939 27.9059 6.59384 27.667 6.59384Z" fill="#1A1A1A"/>
<path d="M27.9448 8.03134H11.917C11.6781 8.03134 11.4893 7.83689 11.4893 7.60356C11.4893 7.36467 11.6837 7.17578 11.917 7.17578H27.9448C28.1837 7.17578 28.3726 7.37023 28.3726 7.60356C28.3726 7.83689 28.1781 8.03134 27.9448 8.03134Z" fill="#1A1A1A"/>
</svg>