<svg xmlns:xlink="http://www.w3.org/1999/xlink" xmlns="http://www.w3.org/2000/svg" width="40" height="40" viewBox="0 0 40 40" fill="none">
<g clip-path="url(#clip0_1547_13859)">
<path d="M9.94772 11.3607V10.4922C9.52383 10.8059 9.03585 10.8331 8.71298 10.8331C8.3898 10.8331 7.90182 10.8059 7.47793 10.4922V11.3607C7.47793 11.4758 7.38455 11.5688 7.2695 11.5688H7.06259C6.92282 12.4667 7.8005 13.3831 8.71298 13.3831C9.62515 13.3831 10.4995 12.4954 10.3631 11.5688H10.1562C10.0411 11.5688 9.94772 11.4758 9.94772 11.3607Z" fill="#FFCDBE"/>
<path d="M6.61902 9.13007C6.69989 10.2272 8.05243 10.9874 8.71375 10.9874C9.37476 10.9874 10.7273 10.2272 10.8082 9.13007L10.9614 7.04907L8.71344 6.67188L6.46582 7.04907L6.61902 9.13007Z" fill="#FFDECF"/>
<path d="M6.46522 7.04865C6.36879 5.74188 7.40303 4.62891 8.71315 4.62891C10.023 4.62891 11.0569 5.74188 10.9608 7.04865H6.46522Z" fill="#EBE1DC"/>
<path d="M32.6853 11.3607V10.4922C32.2611 10.8059 31.7734 10.8331 31.4502 10.8331C31.127 10.8331 30.6394 10.8059 30.2152 10.4922V11.3607C30.2152 11.4758 30.1221 11.5688 30.0071 11.5688H29.7998C29.6604 12.4667 30.5378 13.3831 31.4502 13.3831C32.3627 13.3831 33.237 12.4954 33.1003 11.5688H32.8934C32.7784 11.5688 32.6853 11.4758 32.6853 11.3607Z" fill="#FFCDBE"/>
<path d="M29.3563 9.13007C29.4369 10.2272 30.7894 10.9874 31.4507 10.9874C32.1121 10.9874 33.4646 10.2272 33.5452 9.13007L33.6987 7.04907L31.4504 6.67188L29.2031 7.04907L29.3563 9.13007Z" fill="#FFDECF"/>
<path d="M23.5951 36.5035V33.7148H37.9487C38.0845 33.7148 38.2102 33.7856 38.2807 33.9016L39.5603 36.007C39.7175 36.2658 39.531 36.5972 39.2283 36.5972H23.7547C23.7046 36.5612 23.6512 36.5301 23.5951 36.5035V36.5035ZM16.5687 36.5035V33.7148H2.21506C2.07956 33.7148 1.95353 33.7856 1.88303 33.9016L0.604038 36.0064C0.446568 36.2655 0.63303 36.5969 0.936375 36.5969H16.4094C16.4594 36.5612 16.5129 36.5301 16.5687 36.5035V36.5035ZM19.2729 36.5969H20.8909C20.941 36.5615 20.9944 36.5304 21.0502 36.5035V33.7148H19.1136V36.5035C19.1694 36.5301 19.2228 36.5612 19.2729 36.5969V36.5969Z" fill="#FFE565"/>
<path d="M21.6514 8.55273V7.44922C21.1124 7.84778 20.4923 7.62744 20.0819 7.62744C19.6714 7.62744 19.0513 7.84778 18.5123 7.44922V8.55273C18.5123 8.69891 18.3936 8.81763 18.2474 8.81763H17.9844C17.9825 9.9776 18.9222 11.7235 20.0819 11.7235C21.2415 11.7235 22.1812 9.9776 22.1793 8.81763H21.9163C21.7701 8.81763 21.6514 8.69891 21.6514 8.55273Z" fill="#FFCDBE"/>
<path d="M17.4193 5.71893C17.5222 7.11328 19.2412 8.07977 20.0814 8.07977C20.9218 8.07977 22.6409 7.11328 22.7434 5.71893L22.9381 3.07428L20.1287 2.26953L17.2246 3.07428L17.4193 5.71893Z" fill="#FFDECF"/>
<path d="M24.5946 8.82031H22.1788C22.1807 9.98029 21.241 10.9211 20.0814 10.9211C18.9217 10.9211 17.9821 9.98029 17.9839 8.82031H15.5684C14.547 8.82031 13.7188 9.64825 13.7188 10.6697V15.1207C13.7188 15.735 14.2168 16.2327 14.8311 16.2327H15.1546C15.2162 16.2327 15.2666 16.2831 15.2666 16.3447V21.1836L14.7158 32.9869C14.7124 33.054 14.7661 33.1105 14.8333 33.1105H25.3295C25.3966 33.1105 25.4503 33.054 25.447 32.9869L24.8961 21.1836V16.3447C24.8961 16.2828 24.9465 16.2327 25.0081 16.2327H25.3316C25.9459 16.2327 26.444 15.735 26.444 15.1207V10.6697C26.444 9.64825 25.616 8.82031 24.5946 8.82031V8.82031Z" fill="#EBE1DC"/>
<path d="M24.5948 8.82031H24.0138C24.0238 8.89874 24.0296 8.9787 24.0296 9.05988V13.7315C24.0296 13.8844 23.9057 14.0083 23.7528 14.0083H21.0981C20.7646 14.0083 20.4945 14.2787 20.4945 14.6119V16.8364C20.4945 17.1699 20.7646 17.44 21.0981 17.44H22.031C22.2801 17.44 22.4821 17.642 22.4821 17.8911V19.5738L23.0326 31.3774C23.036 31.4445 22.9826 31.5007 22.9151 31.5007H14.7855L14.716 32.9869C14.7126 33.054 14.7663 33.1105 14.8335 33.1105H25.3297C25.3971 33.1105 25.4505 33.054 25.4472 32.9869L24.8966 21.1836V16.3447C24.8966 16.2828 24.9467 16.2327 25.0086 16.2327H25.3318C25.9461 16.2327 26.4442 15.735 26.4442 15.1207V10.6697C26.4442 9.64825 25.6162 8.82031 24.5948 8.82031V8.82031Z" fill="#DCD2CD"/>
<path d="M25.7434 35.9922H14.4207C14.32 35.9922 14.2269 36.0471 14.1787 36.1356L12.2872 39.592C12.1865 39.7761 12.3196 40.0007 12.5292 40.0007H27.6348C27.8445 40.0007 27.9775 39.7761 27.8768 39.592L25.9857 36.1356C25.9371 36.0471 25.8444 35.9922 25.7434 35.9922Z" fill="#A4F7C5"/>
<path d="M19.3174 37.7601H16.3649C16.1433 37.7601 15.9639 37.5804 15.9639 37.3588V36.855C15.9639 36.2706 16.4375 35.7969 17.0216 35.7969L17.8413 34.9922L18.6607 35.7969C19.2448 35.7969 19.7184 36.2706 19.7184 36.855V37.3588C19.7184 37.5804 19.539 37.7601 19.3174 37.7601Z" fill="#FFDECF"/>
<path d="M23.7989 37.7601H20.8466C20.6251 37.7601 20.4453 37.5804 20.4453 37.3588V36.855C20.4453 36.2706 20.9189 35.7969 21.5034 35.7969L22.3228 34.9922L23.1422 35.7969C23.7266 35.7969 24.2002 36.2706 24.2002 36.855V37.3588C24.2002 37.5804 24.0204 37.7601 23.7989 37.7601V37.7601Z" fill="#FFDECF"/>
<path d="M20.0822 13.2118C20.4157 13.2118 20.6858 12.9414 20.6858 12.6082V10.832C20.4948 10.8894 20.2921 10.9205 20.0822 10.9205C19.8725 10.9205 19.6699 10.8894 19.4785 10.832V12.6082C19.4785 12.9414 19.7489 13.2118 20.0822 13.2118Z" fill="#DCD2CD"/>
<path d="M20.6213 16.6921H19.1602V14.7539H20.6213C20.8847 14.7539 21.0983 14.9675 21.0983 15.2309V16.2151C21.0983 16.4785 20.8847 16.6921 20.6213 16.6921Z" fill="#FFCDBE"/>
<path d="M17.0212 35.7952H18.66C18.8224 35.7952 18.9756 35.8328 19.1132 35.8981V33.1094H16.5684V35.8981C16.706 35.8328 16.8592 35.7952 17.0212 35.7952Z" fill="#FFCDBE"/>
<path d="M21.503 35.7952H23.1418C23.3041 35.7952 23.4573 35.8328 23.5947 35.8981V33.1094H21.0498V35.8981C21.1874 35.8328 21.3406 35.7952 21.503 35.7952V35.7952Z" fill="#FFCDBE"/>
<path d="M17.2247 3.07495C17.1023 1.41449 18.4167 0 20.0815 0C21.7465 0 23.0606 1.41449 22.9385 3.07495H17.2247Z" fill="#EBE1DC"/>
<path d="M15.3405 12.5838V14.6105C15.3405 14.9437 15.6106 15.2141 15.9442 15.2141H18.5568V16.2312H15.1553C15.2172 16.2312 15.2673 16.2816 15.2673 16.3432V17.4385H19.1604C19.4937 17.4385 19.764 17.1684 19.764 16.8349V14.6105C19.764 14.2772 19.4937 14.0068 19.1604 14.0068H16.8246C16.6717 14.0068 16.5478 13.8829 16.5478 13.73V12.6094C16.5478 12.2789 16.293 11.9905 15.9625 11.9808C15.6207 11.9704 15.3405 12.2444 15.3405 12.5838Z" fill="#DCD2CD"/>
<path d="M6.30566 32.9539H7.59503C7.7226 32.9539 7.84314 32.8226 7.95148 32.8739V30.6797H5.94922V32.8739C6.05725 32.8226 6.1778 32.9539 6.30566 32.9539Z" fill="#FFCDBE"/>
<path d="M9.83173 32.9539H11.1211C11.249 32.9539 11.3695 32.8226 11.4775 32.8739V30.6797H9.47559V32.8739C9.58362 32.8226 9.70416 32.9539 9.83173 32.9539Z" fill="#FFCDBE"/>
<path d="M12.2642 11.5664H10.3635C10.3651 12.4792 9.62561 13.2195 8.71344 13.2195C7.80096 13.2195 7.06152 12.4792 7.06305 11.5664H5.16241C4.35858 11.5664 3.70703 12.218 3.70703 13.0215V16.5237C3.70703 17.0071 4.09888 17.3989 4.58228 17.3989H4.82886C4.88196 17.3989 4.92499 17.442 4.92499 17.4951V21.2942L4.49164 30.5813C4.48889 30.6341 4.53101 30.6783 4.58411 30.6783H12.8425C12.8956 30.6783 12.9377 30.6341 12.9349 30.5813L12.5016 21.2942V17.4951C12.5016 17.442 12.5446 17.3989 12.5977 17.3989H12.8443C13.3277 17.3989 13.7192 17.0071 13.7192 16.5237V13.0215C13.7192 12.218 13.068 11.5664 12.2642 11.5664Z" fill="#958FCA"/>
<path d="M8.71301 15.1523C9.04626 15.1523 9.31635 14.8819 9.31635 14.5486V13.1055C9.12927 13.179 8.92603 13.2208 8.71301 13.2208C8.4997 13.2208 8.29645 13.179 8.10938 13.1055V14.5486C8.10907 14.8819 8.37946 15.1523 8.71301 15.1523Z" fill="#8078BF"/>
<path d="M12.2639 11.5664H10.4996V15.1959C10.4996 15.4458 10.297 15.6484 10.0471 15.6484H9.5127C9.17945 15.6484 8.90906 15.9188 8.90906 16.2521V18.0023C8.90906 18.254 9.06318 18.4695 9.28199 18.5601V19.6844L9.71534 28.9715C9.71808 29.0243 9.67597 29.0685 9.62287 29.0685H4.56183L4.49134 30.581C4.48859 30.6341 4.53071 30.6783 4.58381 30.6783H12.8422C12.8953 30.6783 12.9374 30.6341 12.9346 30.581L12.5013 21.2939V17.4948C12.5013 17.442 12.5443 17.3989 12.5974 17.3989H12.844C13.3274 17.3989 13.7189 17.0071 13.7189 16.5237V13.0215C13.7189 12.218 13.0677 11.5664 12.2639 11.5664V11.5664Z" fill="#8078BF"/>
<path d="M8.11121 34.3375H5.78821C5.61395 34.3375 5.47266 34.1962 5.47266 34.0219V33.6252C5.47266 33.1656 5.84528 32.793 6.30518 32.793H7.59454C8.05414 32.793 8.42706 33.1656 8.42706 33.6252V34.0219C8.42676 34.1962 8.28546 34.3375 8.11121 34.3375V34.3375Z" fill="#FFDECF"/>
<path d="M9.13788 17.8922H7.98828V16.3672H9.13788C9.3454 16.3672 9.51324 16.535 9.51324 16.7422V17.5168C9.51324 17.724 9.3454 17.8922 9.13788 17.8922Z" fill="#FFDECF"/>
<path d="M11.6379 34.3375H9.31488C9.14062 34.3375 8.99902 34.1962 8.99902 34.0219V33.6252C8.99902 33.1656 9.37195 32.793 9.83154 32.793H11.1209C11.5808 32.793 11.9534 33.1656 11.9534 33.6252V34.0219C11.9534 34.1962 11.8121 34.3375 11.6379 34.3375V34.3375Z" fill="#FFDECF"/>
<path d="M4.85388 14.6586V16.2528C4.85388 16.5864 5.12396 16.8565 5.45752 16.8565H7.3844V17.3997H4.78613H4.82886C4.88196 17.3997 4.92499 17.4427 4.92499 17.4955V18.607H7.98804C8.32129 18.607 8.59168 18.3366 8.59168 18.0033V16.2528C8.59168 15.9196 8.32129 15.6492 7.98804 15.6492H6.51373C6.26379 15.6492 6.06116 15.4466 6.06116 15.1966V14.6836C6.06116 14.3534 5.80634 14.065 5.47614 14.055C5.13403 14.0449 4.85388 14.3189 4.85388 14.6586Z" fill="#8078BF"/>
<path d="M29.043 32.9539H30.3323C30.4602 32.9539 30.5807 32.8226 30.6888 32.8739V30.6797H28.6865V32.8739C28.7946 32.8226 28.9154 32.9539 29.043 32.9539V32.9539Z" fill="#FFCDBE"/>
<path d="M32.5693 32.9539H33.8587C33.9863 32.9539 34.1068 32.8226 34.2151 32.8739V30.6797H32.2129V32.8739C32.3209 32.8226 32.4415 32.9539 32.5693 32.9539Z" fill="#FFCDBE"/>
<path d="M35.0015 11.5664H33.1005C33.1024 12.4792 32.3629 13.2195 31.4504 13.2195C30.538 13.2195 29.7985 12.4792 29.8 11.5664H27.8994C27.0959 11.5664 26.4443 12.218 26.4443 13.0215V16.5237C26.4443 17.0071 26.8362 17.3989 27.3196 17.3989H27.5659C27.619 17.3989 27.662 17.442 27.662 17.4951V21.2942L27.2289 30.5813C27.2262 30.6341 27.2683 30.6783 27.3211 30.6783H35.5798C35.6326 30.6783 35.6747 30.6341 35.6722 30.5813L35.2389 21.2942V17.4951C35.2389 17.442 35.2819 17.3989 35.335 17.3989H35.5813C36.0647 17.3989 36.4565 17.0071 36.4565 16.5237V13.0215C36.4565 12.218 35.805 11.5664 35.0015 11.5664V11.5664Z" fill="#FECF8A"/>
<path d="M31.4503 15.1523C31.7836 15.1523 32.054 14.8819 32.054 14.5486V13.1055C31.8669 13.179 31.6636 13.2208 31.4503 13.2208C31.237 13.2208 31.0338 13.179 30.8467 13.1055V14.5486C30.8467 14.8819 31.1171 15.1523 31.4503 15.1523Z" fill="#FDC26B"/>
<path d="M35.0012 11.5664H33.2369V15.1959C33.2369 15.4458 33.0343 15.6484 32.7844 15.6484H32.25C31.9164 15.6484 31.6464 15.9188 31.6464 16.2521V18.0023C31.6464 18.254 31.8005 18.4695 32.0193 18.5601V19.6844L32.4526 28.9715C32.4551 29.0243 32.413 29.0685 32.3602 29.0685H27.2991L27.2286 30.581C27.2259 30.6341 27.268 30.6783 27.3208 30.6783H35.5795C35.6323 30.6783 35.6744 30.6341 35.6719 30.581L35.2386 21.2939V17.4948C35.2386 17.442 35.2816 17.3989 35.3347 17.3989H35.581C36.0644 17.3989 36.4562 17.0071 36.4562 16.5237V13.0215C36.4562 12.218 35.8047 11.5664 35.0012 11.5664V11.5664Z" fill="#FDC26B"/>
<path d="M30.8488 34.3375H28.5258C28.3513 34.3375 28.21 34.1962 28.21 34.0219V33.6252C28.21 33.1656 28.5829 32.793 29.0425 32.793H30.3318C30.7917 32.793 31.1644 33.1656 31.1644 33.6252V34.0219C31.1644 34.1962 31.0231 34.3375 30.8488 34.3375V34.3375Z" fill="#FFDECF"/>
<path d="M31.8752 17.8922H30.7256V16.3672H31.8752C32.0824 16.3672 32.2505 16.535 32.2505 16.7422V17.5168C32.2505 17.724 32.0824 17.8922 31.8752 17.8922Z" fill="#FFDECF"/>
<path d="M34.3749 34.3375H32.0519C31.8776 34.3375 31.7363 34.1962 31.7363 34.0219V33.6252C31.7363 33.1656 32.1089 32.793 32.5688 32.793H33.8582C34.3178 32.793 34.6907 33.1656 34.6907 33.6252V34.0219C34.6907 34.1962 34.5491 34.3375 34.3749 34.3375V34.3375Z" fill="#FFDECF"/>
<path d="M29.2025 7.04865C29.1064 5.74188 30.1403 4.62891 31.4504 4.62891C32.7605 4.62891 33.7945 5.74188 33.6983 7.04865H29.2025Z" fill="#EBE1DC"/>
<path d="M27.5909 14.6586V16.2528C27.5909 16.5864 27.8613 16.8565 28.1945 16.8565H30.1217V17.3997H27.5234H27.5659C27.619 17.3997 27.662 17.4427 27.662 17.4955V18.607H30.7253C31.0586 18.607 31.3287 18.3366 31.3287 18.0033V16.2528C31.3287 15.9196 31.0586 15.6492 30.7253 15.6492H29.2507C29.0008 15.6492 28.7982 15.4466 28.7982 15.1966V14.6836C28.7982 14.3534 28.5433 14.065 28.2131 14.055C27.8713 14.0449 27.5909 14.3189 27.5909 14.6586Z" fill="#FDC26B"/>
</g>
<defs>
<clipPath id="clip0_1547_13859">
<rect width="40" height="40" fill="white"/>
</clipPath>
</defs>
</svg>