<svg xmlns:xlink="http://www.w3.org/1999/xlink" xmlns="http://www.w3.org/2000/svg" width="40" height="40" viewBox="0 0 40 40" fill="none">
<g clip-path="url(#clip0_1540_13526)">
<path d="M20.1777 29.0627H19.8229C17.5502 29.0627 15.666 27.2854 15.5334 25.0166L14.3363 4.54773C14.2676 3.37156 14.6917 2.20562 15.5001 1.34859C16.3084 0.491484 17.4477 0 18.6259 0H21.3748C22.5528 0 23.6921 0.491484 24.5005 1.34852C25.3089 2.20555 25.733 3.37164 25.6644 4.54766L24.4674 25.0166C24.3346 27.2855 22.4503 29.0627 20.1777 29.0627V29.0627Z" fill="#FF674F"/>
<path d="M20.1774 29.0627C22.4501 29.0627 24.3343 27.2855 24.467 25.0166L25.664 4.54766C25.7327 3.37156 25.3085 2.20555 24.5002 1.34852C23.6918 0.491484 22.5525 0 21.3745 0H20V29.0627H20.1774Z" fill="#F2472C"/>
<path d="M20 39.9999C17.6307 39.9999 15.7031 38.0723 15.7031 35.7031C15.7031 33.3338 17.6307 31.4062 20 31.4062C22.3693 31.4062 24.2969 33.3338 24.2969 35.703C24.2969 38.0723 22.3693 39.9999 20 39.9999Z" fill="#FF674F"/>
<path d="M20 31.4062V39.9999C22.3693 39.9999 24.2969 38.0723 24.2969 35.703C24.2969 33.3338 22.3693 31.4062 20 31.4062Z" fill="#F2472C"/>
<path d="M11.8292 31.3892C11.4259 31.3892 11.0336 31.181 10.8158 30.8075C9.8732 29.1913 9.375 27.3456 9.375 25.47C9.375 23.5944 9.8732 21.7487 10.8158 20.1325C11.1418 19.5736 11.8592 19.3843 12.4184 19.7107C12.9775 20.0367 13.1664 20.7542 12.8404 21.3133C12.1066 22.5715 11.7188 24.0089 11.7188 25.47C11.7188 26.9311 12.1066 28.3686 12.8404 29.6268C13.1664 30.1858 12.9775 30.9034 12.4184 31.2295C12.2328 31.3377 12.0296 31.3892 11.8292 31.3892Z" fill="#FF9300"/>
<path d="M7.77695 33.7416C7.37367 33.7416 6.98133 33.5334 6.76352 33.1599C5.40539 30.8309 4.6875 28.1713 4.6875 25.4684C4.6875 22.7656 5.40539 20.106 6.76359 17.777C7.08953 17.218 7.80711 17.029 8.36625 17.3551C8.92539 17.6812 9.1143 18.3987 8.7882 18.9578C7.63875 20.9288 7.03125 23.1801 7.03125 25.4684C7.03125 27.7568 7.63875 30.0081 8.7882 31.9791C9.11422 32.5382 8.92531 33.2558 8.36625 33.5819C8.18055 33.6901 7.97742 33.7416 7.77695 33.7416Z" fill="#FFB500"/>
<path d="M3.71883 36.0972C3.31523 36.0972 2.92266 35.8886 2.70492 35.5147C0.935391 32.4751 0 29.0006 0 25.4666C0 21.9327 0.935391 18.4581 2.70492 15.4184C3.03055 14.8592 3.74797 14.6695 4.30727 14.9953C4.86656 15.3209 5.05602 16.0384 4.73047 16.5977C3.16906 19.2797 2.34375 22.3465 2.34375 25.4666C2.34375 28.5867 3.16906 31.6534 4.73047 34.3354C5.05609 34.8947 4.86664 35.6121 4.30727 35.9377C4.12187 36.0457 3.91898 36.0972 3.71883 36.0972V36.0972Z" fill="#FFE645"/>
<path d="M28.1808 31.3711C27.981 31.3711 27.7787 31.3201 27.5936 31.2126C27.0338 30.8878 26.8434 30.1706 27.1683 29.6108C27.8963 28.3563 28.2812 26.924 28.2812 25.4688C28.2812 24.0135 27.8963 22.5812 27.1683 21.3267C26.8434 20.7669 27.0338 20.0497 27.5936 19.7249C28.1533 19.4001 28.8705 19.5904 29.1954 20.1502C30.1306 21.7617 30.6249 23.6008 30.6249 25.4688C30.6249 27.3368 30.1306 29.1758 29.1954 30.7872C28.978 31.1619 28.5848 31.3711 28.1808 31.3711V31.3711Z" fill="#FF9300"/>
<path d="M32.2335 33.7236C32.0335 33.7236 31.831 33.6723 31.6457 33.5646C31.0861 33.2394 30.8961 32.5221 31.2214 31.9626C32.3648 29.9955 32.9692 27.7495 32.9692 25.4673C32.9692 23.185 32.3648 20.939 31.2214 18.972C30.8961 18.4124 31.0861 17.6952 31.6457 17.3699C32.2049 17.0446 32.9225 17.2345 33.2477 17.7941C34.5988 20.1184 35.3129 22.7717 35.3129 25.4673C35.3129 28.1628 34.5988 30.8161 33.2477 33.1404C33.0301 33.5146 32.6372 33.7236 32.2335 33.7236V33.7236Z" fill="#FFB500"/>
<path d="M36.2912 36.0829C36.0913 36.0829 35.8889 36.0318 35.7037 35.9242C35.144 35.5992 34.9538 34.8819 35.2788 34.3223C36.8342 31.6444 37.6563 28.5831 37.6563 25.4692C37.6563 22.3554 36.8342 19.294 35.2789 16.6161C34.9538 16.0565 35.144 15.3393 35.7038 15.0143C36.2632 14.6891 36.9806 14.8792 37.3056 15.4391C39.0683 18.474 40 21.9424 40 25.4692C40 28.996 39.0683 32.4644 37.3056 35.4994C37.0881 35.8738 36.6951 36.0829 36.2912 36.0829V36.0829Z" fill="#FFE645"/>
</g>
<defs>
<clipPath id="clip0_1540_13526">
<rect width="40" height="40" fill="white"/>
</clipPath>
</defs>
</svg>