<svg xmlns:xlink="http://www.w3.org/1999/xlink" xmlns="http://www.w3.org/2000/svg" width="40" height="40" viewBox="0 0 40 40" fill="none">
<g clip-path="url(#clip0_1540_13155)">
<path d="M21.5234 11.9531C21.5234 10.2266 16.8047 8.82812 10.9766 8.82812C5.14844 8.82812 0.429688 10.2266 0.429688 11.9531C0.429688 12.0078 0.4375 12.0547 0.445312 12.1016L3.16406 36.4844C3.16406 38.2109 6.66406 39.6094 10.9766 39.6094C15.2891 39.6094 18.7891 38.2109 18.7891 36.4844L21.5078 12.1016C21.5156 12.0547 21.5234 12.0078 21.5234 11.9531V11.9531Z" fill="#FFE3A9"/>
<path d="M10.9766 8.82812C10.2266 8.82812 9.49219 8.85156 8.78906 8.89844C13.5625 9.19531 17.1484 10.4531 17.1484 11.9531C17.1484 12.0078 17.1406 12.0547 17.1328 12.1016L14.4141 36.4844C14.4141 37.9063 12.0391 39.1094 8.78906 39.4844C9.48437 39.5625 10.2188 39.6094 10.9766 39.6094C15.2891 39.6094 18.7891 38.2109 18.7891 36.4844L21.5078 12.1016C21.5156 12.0547 21.5234 12 21.5234 11.9531C21.5234 10.2266 16.8047 8.82812 10.9766 8.82812V8.82812Z" fill="#FFCB5D"/>
<path d="M16.5937 24.2422C15.0391 23.8125 13.0391 23.5781 10.9766 23.5781C8.91406 23.5781 6.92187 23.8125 5.35937 24.2422C4.17969 24.5703 3.54688 24.9219 3.25781 25.1406L4.77344 36.4844C4.92969 36.6719 5.40625 37.0391 6.4375 37.3906C7.6875 37.8125 9.29688 38.0469 10.9766 38.0469C12.6563 38.0469 14.2656 37.8125 15.5156 37.3906C16.5469 37.0391 17.0234 36.6641 17.1797 36.4844L18.6953 25.1406C18.4063 24.9219 17.7734 24.5703 16.5937 24.2422Z" fill="#F0917B"/>
<path d="M16.5937 24.2422C15.0391 23.8125 13.0391 23.5781 10.9766 23.5781C10.2344 23.5781 9.5 23.6094 8.78906 23.6719C10.0469 23.7734 11.2187 23.9688 12.2187 24.2422C13.3984 24.5703 14.0313 24.9219 14.3203 25.1406L12.8047 36.4844C12.6484 36.6719 12.1719 37.0391 11.1406 37.3906C10.4531 37.625 9.64844 37.7969 8.78906 37.9063C9.48437 37.9922 10.2266 38.0391 10.9766 38.0391C12.6562 38.0391 14.2656 37.8047 15.5156 37.3828C16.5469 37.0313 17.0234 36.6563 17.1797 36.4766L18.6953 25.1328C18.4063 24.9219 17.7734 24.5703 16.5937 24.2422V24.2422Z" fill="#E86B4D"/>
<path d="M10.9766 15.0781C16.8014 15.0781 21.5234 13.679 21.5234 11.9531C21.5234 10.2272 16.8014 8.82812 10.9766 8.82812C5.15168 8.82812 0.429688 10.2272 0.429688 11.9531C0.429688 13.679 5.15168 15.0781 10.9766 15.0781Z" fill="#FFCB5D"/>
<path d="M1.30469 13.2031C2.92969 14.3047 6.64844 15.0781 10.9766 15.0781C15.3047 15.0781 19.0156 14.3047 20.6484 13.2031C19.0234 12.1016 15.3047 11.3281 10.9766 11.3281C6.64844 11.3281 2.9375 12.1016 1.30469 13.2031V13.2031Z" fill="#FFB30F"/>
<path d="M10.9766 23.5781C13.0391 23.5781 15.0312 23.8125 16.5937 24.2422C17.7734 24.5703 18.4063 24.9219 18.6953 25.1406C18.4063 25.3594 17.7734 25.7109 16.5937 26.0391C15.0391 26.4688 13.0391 26.7031 10.9766 26.7031C8.91406 26.7031 6.92187 26.4688 5.35937 26.0391C4.17969 25.7109 3.54688 25.3594 3.25781 25.1406C3.54688 24.9219 4.17969 24.5703 5.35937 24.2422C6.92187 23.8125 8.91406 23.5781 10.9766 23.5781Z" fill="#E86B4D"/>
<path d="M34.5234 36.1719C33.3125 38.2031 30.0625 39.5781 26.2344 39.5781C22.4062 39.5781 19.1484 38.2031 17.9453 36.1719H34.5234Z" fill="#9ABD2D"/>
<path d="M39.6094 28.6328C39.6094 33.9609 33.6172 38.2812 26.2344 38.2812C18.8516 38.2812 12.8594 33.9609 12.8594 28.6328C12.8594 25.8047 18.8516 23.5156 26.2344 23.5156C33.6172 23.5156 39.6094 25.8047 39.6094 28.6328Z" fill="#B3D34C"/>
<path d="M26.2344 23.5156C25.4609 23.5156 24.7031 23.5391 23.9688 23.5859C30.2734 24 35.0781 26.1016 35.0781 28.625C35.0781 33.3984 30.2734 37.3594 23.9688 38.1328C24.7031 38.2266 25.4609 38.2734 26.2344 38.2734C33.625 38.2734 39.6094 33.9531 39.6094 28.625C39.6094 25.8047 33.6172 23.5156 26.2344 23.5156Z" fill="#9ABD2D"/>
<path d="M29.4531 20.7031C35.0623 20.7031 39.6094 16.156 39.6094 10.5469C39.6094 4.93773 35.0623 0.390625 29.4531 0.390625C23.844 0.390625 19.2969 4.93773 19.2969 10.5469C19.2969 16.156 23.844 20.7031 29.4531 20.7031Z" fill="#FFE3A9"/>
<path d="M26.2344 33.75C33.6212 33.75 39.6094 31.459 39.6094 28.6328C39.6094 25.8067 33.6212 23.5156 26.2344 23.5156C18.8476 23.5156 12.8594 25.8067 12.8594 28.6328C12.8594 31.459 18.8476 33.75 26.2344 33.75Z" fill="#C3DC74"/>
<path d="M35.1328 26.4766C32.7813 25.5781 29.6172 25.0781 26.2344 25.0781C22.8516 25.0781 19.6875 25.5703 17.3359 26.4766C15.0312 27.3594 14.4219 28.2734 14.4219 28.6328C14.4219 28.9922 15.0312 29.9063 17.3359 30.7891C19.6875 31.6875 22.8437 32.1875 26.2344 32.1875C29.625 32.1875 32.7813 31.6953 35.1328 30.7891C37.4375 29.9063 38.0469 28.9922 38.0469 28.6328C38.0469 28.2734 37.4375 27.3516 35.1328 26.4766V26.4766Z" fill="#9ABD2D"/>
<path d="M36.3359 30.2492C36 30.4288 35.6016 30.6085 35.1328 30.7882C32.7813 31.6867 29.6172 32.1867 26.2344 32.1867C22.8516 32.1867 19.6875 31.6945 17.3359 30.7882C16.8672 30.6085 16.4609 30.4288 16.125 30.2492C16.2109 30.0304 16.7734 28.8273 18.6953 28.4367C18.6953 28.4367 19.8047 26.0929 22.6563 27.3429C22.6563 27.3429 24.6094 25.1242 27.3047 26.9757C27.3047 26.9757 29.6328 25.8351 30.8359 27.6788C30.8359 27.6788 32.8828 27.0148 33.75 28.7726C33.75 28.7726 36.0938 28.6398 36.3359 30.2492V30.2492Z" fill="#FFE3A9"/>
<path d="M25.0205 27.9766L25.6111 28.4875L24.5433 29.7219L23.9526 29.211L25.0205 27.9766Z" fill="#FFCB5D"/>
<path d="M29.0537 29.3867L30.4366 30.1638L30.0538 30.8451L28.6709 30.068L29.0537 29.3867Z" fill="#FFCB5D"/>
<path d="M29.4531 14.4531C31.6105 14.4531 33.3594 12.7042 33.3594 10.5469C33.3594 8.38951 31.6105 6.64062 29.4531 6.64062C27.2958 6.64062 25.5469 8.38951 25.5469 10.5469C25.5469 12.7042 27.2958 14.4531 29.4531 14.4531Z" fill="#FFB30F"/>
<path d="M29.0625 3.51562H29.8438V5.07812H29.0625V3.51562Z" fill="#FFB30F"/>
<path d="M29.0625 16.0156H29.8438V17.5781H29.0625V16.0156Z" fill="#FFB30F"/>
<path d="M24.7549 5.29297L25.8596 6.39766L25.3072 6.95L24.2025 5.84531L24.7549 5.29297Z" fill="#FFB30F"/>
<path d="M33.5938 14.1367L34.6984 15.2414L34.1461 15.7938L33.0414 14.6891L33.5938 14.1367Z" fill="#FFB30F"/>
<path d="M22.4219 10.1562H23.9844V10.9375H22.4219V10.1562Z" fill="#FFB30F"/>
<path d="M34.9219 10.1562H36.4844V10.9375H34.9219V10.1562Z" fill="#FFB30F"/>
<path d="M29.4531 0.390625C23.8437 0.390625 19.2969 4.9375 19.2969 10.5469C19.2969 16.1563 23.8437 20.7031 29.4531 20.7031C35.0625 20.7031 39.6094 16.1563 39.6094 10.5469C39.6094 4.9375 35.0625 0.390625 29.4531 0.390625ZM29.4531 1.95312C31.5469 1.95312 33.4609 2.70313 34.9531 3.94531L22.8516 16.0469C21.6094 14.5547 20.8594 12.6406 20.8594 10.5469C20.8594 5.79688 24.7031 1.95312 29.4531 1.95312ZM29.4531 19.1406C27.3594 19.1406 25.4453 18.3906 23.9531 17.1484L36.0547 5.04687C37.2969 6.53906 38.0469 8.45313 38.0469 10.5469C38.0469 15.2969 34.2031 19.1406 29.4531 19.1406Z" fill="#E86B4D"/>
</g>
<defs>
<clipPath id="clip0_1540_13155">
<rect width="40" height="40" fill="white"/>
</clipPath>
</defs>
</svg>