<svg xmlns:xlink="http://www.w3.org/1999/xlink" xmlns="http://www.w3.org/2000/svg" width="40" height="40" viewBox="0 0 40 40" fill="none">
<path d="M16.6656 30.7453C22.637 30.7453 27.4777 25.9046 27.4777 19.9332C27.4777 13.9618 22.637 9.12109 16.6656 9.12109C10.6943 9.12109 5.85352 13.9618 5.85352 19.9332C5.85352 25.9046 10.6943 30.7453 16.6656 30.7453Z" fill="#FF8522"/>
<path d="M16.6659 9.12109C16.2984 9.12109 15.9353 9.13961 15.5771 9.17547C21.0372 9.72141 25.3006 14.3294 25.3006 19.9333C25.3006 25.5372 21.0372 30.1452 15.5771 30.6911C15.9352 30.7269 16.2984 30.7454 16.6659 30.7454C22.6373 30.7454 27.478 25.9046 27.478 19.9332C27.478 13.9618 22.6373 9.12109 16.6659 9.12109V9.12109Z" fill="#F47414"/>
<path d="M17.4543 21.428C18.5558 17.8872 21.8586 15.3164 25.7619 15.3164C30.5059 15.3164 34.3625 19.1141 34.4584 23.8352C37.5724 24.1619 39.9996 26.7955 39.9996 29.9961C39.9996 33.1969 37.5721 35.8648 34.4578 36.1913H34.4606H17.9548C13.8732 36.1913 10.5645 32.8826 10.5645 28.801C10.5645 24.8877 13.6062 21.6854 17.4543 21.428Z" fill="#FFE9A1"/>
<path d="M34.459 23.8352C34.3631 19.1141 30.5065 15.3164 25.7625 15.3164C24.0768 15.3164 22.5037 15.7967 21.1709 16.6267C22.145 16.2495 23.2036 16.0422 24.3108 16.0422C28.9431 16.0422 32.7292 19.663 32.9943 24.2288C33.0054 24.4198 33.1489 24.5745 33.338 24.6046C36.2916 25.0763 38.5486 27.6354 38.5486 30.7218C38.5486 32.867 37.4575 34.7715 35.8008 35.8935C38.2429 35.0555 40.0003 32.7191 40.0003 29.9961C40.0003 26.7955 37.5731 24.162 34.459 23.8352V23.8352Z" fill="#FFDC78"/>
<path d="M17.9294 24.4501C17.0534 21.6343 14.4268 19.5898 11.3227 19.5898C7.55 19.5898 4.48305 22.61 4.4068 26.3645C1.93023 26.6243 0 28.7186 0 31.2639C0 33.8094 1.93047 35.9311 4.40719 36.1907H4.40492H17.5313C20.7772 36.1907 23.4085 33.5594 23.4085 30.3135C23.4085 27.2015 20.9895 24.6548 17.9294 24.4501V24.4501Z" fill="#FFE9A1"/>
<path d="M17.9298 24.4501C17.0538 21.6343 14.4272 19.5898 11.3231 19.5898C9.92281 19.5898 8.62023 20.0066 7.53125 20.7218C8.26219 20.4591 9.05008 20.3156 9.87148 20.3156C12.8856 20.3156 15.4495 22.2433 16.3977 24.9331C16.4491 25.0791 16.5798 25.1816 16.7336 25.1985C19.6719 25.5236 21.9573 28.0144 21.9573 31.0394C21.9573 33.0496 20.9475 34.8233 19.408 35.883C21.7334 35.0998 23.4089 32.9031 23.4089 30.3136C23.4089 27.2015 20.9899 24.6548 17.9298 24.4501V24.4501Z" fill="#FFDC78"/>
<path d="M22.3992 5.01607C22.4086 5.01506 23.3139 4.99342 23.8972 6.04811C24.0779 6.386 24.6763 6.50389 24.9578 6.04811C25.5411 4.99342 26.4464 5.01514 26.4559 5.01607C26.7909 5.03553 27.0767 4.78053 27.0962 4.44639C27.1157 4.11225 26.8607 3.82553 26.5265 3.80607C26.4698 3.80279 25.3533 3.75186 24.4275 4.72904C23.5017 3.75186 22.3853 3.80279 22.3285 3.80607C21.9945 3.82553 21.7394 4.11225 21.7589 4.44639C21.7784 4.78053 22.0642 5.03553 22.3992 5.01607V5.01607Z" fill="#756C74"/>
<path d="M30.4031 11.1606C30.4125 11.1596 31.3178 11.1379 31.9011 12.1926C32.0818 12.5306 32.6802 12.6484 32.9618 12.1926C33.545 11.1379 34.4503 11.1597 34.4598 11.1606C34.7948 11.1801 35.0806 10.9251 35.1001 10.5909C35.1196 10.2568 34.8645 9.97014 34.5304 9.95061C34.4737 9.94732 33.3572 9.89639 32.4314 10.8736C31.5057 9.89639 30.3892 9.94732 30.3325 9.95061C29.9984 9.97006 29.7432 10.2568 29.7628 10.5909C29.7823 10.9251 30.0681 11.1801 30.4031 11.1606V11.1606Z" fill="#756C74"/>
<path d="M1.52612 10.5044C1.5355 10.5034 2.44089 10.4817 3.02417 11.5364C3.20487 11.8743 3.80323 11.9922 4.08479 11.5364C4.66807 10.4817 5.57339 10.5034 5.58284 10.5044C5.91784 10.5238 6.20362 10.2688 6.22315 9.93469C6.24261 9.60055 5.98761 9.31383 5.65346 9.29438C5.59675 9.29102 4.48026 9.24016 3.55448 10.2173C2.6287 9.24016 1.51221 9.2911 1.4555 9.29438C1.12136 9.31383 0.866355 9.60055 0.885809 9.93469C0.90534 10.2688 1.19112 10.5238 1.52612 10.5044V10.5044Z" fill="#756C74"/>
</svg>