<svg xmlns:xlink="http://www.w3.org/1999/xlink" xmlns="http://www.w3.org/2000/svg" width="35" height="35" viewBox="0 0 35 35" fill="none">
<g clip-path="url(#clip0_17_6525)">
<path d="M6.9375 22.2608C6.68886 22.2608 6.4504 22.162 6.27459 21.9862C6.09877 21.8104 6 21.5719 6 21.3233V14.6753C6.00139 13.409 6.50501 12.1951 7.40038 11.2997C8.29574 10.4043 9.50971 9.90068 10.776 9.89927H23.375L22.0175 8.54182C21.9304 8.45476 21.8614 8.35141 21.8142 8.23767C21.7671 8.12392 21.7429 8.00201 21.7429 7.8789C21.7429 7.63025 21.8417 7.3918 22.0175 7.21598C22.1933 7.04017 22.4318 6.9414 22.6804 6.94141C22.9291 6.94141 23.1675 7.04019 23.3433 7.21601L26.3011 10.1738C26.477 10.3496 26.5757 10.5881 26.5757 10.8367C26.5757 11.0854 26.477 11.3238 26.3011 11.4996L23.2554 14.5453C23.1684 14.6324 23.065 14.7015 22.9513 14.7486C22.8375 14.7957 22.7156 14.8199 22.5925 14.8199C22.4694 14.8199 22.3475 14.7957 22.2337 14.7486C22.12 14.7015 22.0166 14.6324 21.9296 14.5453C21.8425 14.4583 21.7735 14.3549 21.7263 14.2412C21.6792 14.1274 21.655 14.0055 21.655 13.8824C21.655 13.7593 21.6792 13.6374 21.7263 13.5236C21.7735 13.4099 21.8425 13.3065 21.9296 13.2195L23.375 11.7743H10.776C10.0068 11.7751 9.26946 12.0811 8.72561 12.6249C8.18176 13.1688 7.87586 13.9062 7.875 14.6753V21.3233C7.875 21.5719 7.77623 21.8104 7.60041 21.9862C7.4246 22.162 7.18614 22.2608 6.9375 22.2608ZM29.0625 13.7378C28.8139 13.7378 28.5754 13.8365 28.3996 14.0124C28.2238 14.1882 28.125 14.4266 28.125 14.6753V21.3233C28.1241 22.0924 27.8182 22.8298 27.2744 23.3736C26.7305 23.9175 25.9932 24.2234 25.224 24.2243H12.625L14.0703 22.779C14.1573 22.692 14.2264 22.5886 14.2735 22.4749C14.3206 22.3611 14.3449 22.2392 14.3449 22.1161C14.3449 21.993 14.3206 21.8711 14.2735 21.7573C14.2264 21.6436 14.1573 21.5402 14.0703 21.4532C13.9832 21.3661 13.8799 21.297 13.7661 21.2499C13.6524 21.2028 13.5305 21.1786 13.4074 21.1786C13.2842 21.1786 13.1623 21.2028 13.0486 21.2499C12.9348 21.297 12.8315 21.3661 12.7444 21.4532L9.69872 24.4988C9.61166 24.5858 9.5426 24.6892 9.49548 24.8029C9.44837 24.9167 9.42411 25.0386 9.42411 25.1617C9.42411 25.2848 9.44837 25.4067 9.49548 25.5205C9.5426 25.6342 9.61166 25.7376 9.69872 25.8246L12.6565 28.7824C12.8324 28.9583 13.0708 29.057 13.3195 29.057C13.5681 29.057 13.8066 28.9583 13.9824 28.7824C14.1582 28.6066 14.257 28.3682 14.257 28.1195C14.257 27.8709 14.1582 27.6324 13.9824 27.4566L12.625 26.0993H25.224C26.4903 26.0979 27.7043 25.5942 28.5996 24.6989C29.495 23.8035 29.9986 22.5895 30 21.3233V14.6753C30 14.4266 29.9012 14.1882 29.7254 14.0124C29.5496 13.8365 29.3111 13.7378 29.0625 13.7378Z" fill="#393939"/>
</g>
<defs>
<clipPath id="clip0_17_6525">
<rect width="24" height="24" fill="white" transform="translate(6 6)"/>
</clipPath>
</defs>
</svg>