<svg xmlns:xlink="http://www.w3.org/1999/xlink" xmlns="http://www.w3.org/2000/svg" width="40" height="40" viewBox="0 0 40 40" fill="none">
<g clip-path="url(#clip0_1540_13327)">
<path d="M23.9844 34.4453H31.1876V39.9986H23.9844V34.4453Z" fill="#8F989E"/>
<path d="M32.1927 33.2383H31.3879C30.9433 33.2383 30.583 33.5986 30.583 34.0431V39.9988H32.1927C32.6372 39.9988 32.9975 39.6385 32.9975 39.194V34.043C32.9975 33.5986 32.6372 33.2383 32.1927 33.2383V33.2383Z" fill="#687177"/>
<path d="M31.2277 0H28.8937C28.4492 0 28.0889 0.360312 28.0889 0.804844V3.2193H32.0325V0.804844C32.0325 0.360312 31.6722 0 31.2277 0V0Z" fill="#B7B3FF"/>
<path d="M32.0317 0.804844V3.2193H29.6173V0.804844C29.6173 0.374219 29.2792 0.0225781 28.8535 0.000859375C28.8663 0 28.8792 0 28.8929 0H31.2269C31.6712 0 32.0317 0.360547 32.0317 0.804844Z" fill="#9292FF"/>
<path d="M22.3746 31.2266H13.441L10.2217 37.5848L17.9882 38.7115L25.5939 37.5848L22.3746 31.2266Z" fill="#9CDBEF"/>
<path d="M21.8916 31.2285H14.0847C8.75082 31.2285 4.42676 26.9045 4.42676 21.5705V20.3633H31.5495V21.5705C31.5496 26.9045 27.2256 31.2285 21.8916 31.2285Z" fill="#D2F1FF"/>
<path d="M31.549 21.168V21.5704C31.549 26.904 27.2246 31.2284 21.891 31.2284H19.4766C24.8102 31.2284 29.1345 26.904 29.1345 21.5704V21.168H31.549Z" fill="#9CDBEF"/>
<path d="M33.803 21.1666H22.2939V2.41406H33.803C35.581 2.41406 37.0223 3.85539 37.0223 5.63336V17.9473C37.0223 19.7253 35.581 21.1666 33.803 21.1666V21.1666Z" fill="#9CDBEF"/>
<path d="M37.0224 5.63336V17.9472C37.0224 19.7251 35.581 21.1665 33.8031 21.1665H31.3887C33.1666 21.1665 34.608 19.725 34.608 17.9472V5.63336C34.608 3.85547 33.1666 2.41406 31.3887 2.41406H33.8031C35.581 2.41398 37.0224 3.85547 37.0224 5.63336V5.63336Z" fill="#79C7E2"/>
<path d="M21.6897 0C22.4676 0 23.0981 0.630547 23.0981 1.40844V19.1549H20.2812V1.40844C20.2812 0.630547 20.9118 0 21.6897 0V0Z" fill="#9292FF"/>
<path d="M4.38598 18.3516H23.0982V21.1684H4.38598C3.60809 21.1684 2.97754 20.5379 2.97754 19.76C2.97754 18.9822 3.60809 18.3516 4.38598 18.3516V18.3516Z" fill="#B7B3FF"/>
<path d="M26.398 40.0005H9.41617C8.97164 40.0005 8.61133 39.6402 8.61133 39.1956V38.3908C8.61133 37.9463 8.97164 37.5859 9.41617 37.5859H26.398C26.8426 37.5859 27.2029 37.9463 27.2029 38.3908V39.1956C27.2029 39.6402 26.8426 40.0005 26.398 40.0005Z" fill="#D2F1FF"/>
<path d="M27.2037 38.3908V39.1956C27.2037 39.6399 26.8431 40.0005 26.3988 40.0005H23.9844C24.4287 40.0005 24.7892 39.6399 24.7892 39.1956V38.3908C24.7892 37.9465 24.4287 37.5859 23.9844 37.5859H26.3988C26.8431 37.586 27.2037 37.9466 27.2037 38.3908V38.3908Z" fill="#9CDBEF"/>
<path d="M12.3945 15.5323V12.8361C12.3945 10.9914 13.8899 9.49609 15.7345 9.49609C16.7791 9.49609 17.6259 10.3429 17.6259 11.3874C17.6259 12.432 16.7791 13.2787 15.7345 13.2787C14.8405 13.2787 13.9913 13.6694 13.4095 14.3481L12.3945 15.5323Z" fill="#9CDBEF"/>
<path d="M17.626 11.3874C17.626 11.9098 17.4144 12.3822 17.0723 12.7251C16.7294 13.0671 16.257 13.2788 15.7346 13.2788C15.2871 13.2788 14.8517 13.3762 14.4549 13.5589C14.0581 13.7416 13.7 14.0088 13.4095 14.3484L12.3945 15.5323V13.4221C12.6907 13.328 13.0022 13.2788 13.3201 13.2788C13.8424 13.2788 14.3148 13.0672 14.6577 12.7251C14.9998 12.3822 15.2115 11.9098 15.2115 11.3874C15.2115 10.8651 14.9998 10.3927 14.6577 10.0498C14.5627 9.95477 14.4581 9.87031 14.3447 9.79789C14.768 9.60391 15.2388 9.49609 15.7346 9.49609C16.257 9.49609 16.7294 9.70773 17.0723 10.0498C17.4143 10.3927 17.626 10.8651 17.626 11.3874V11.3874Z" fill="#79C7E2"/>
<path d="M9.97937 13.1182V10.422C9.97937 8.57734 8.48398 7.08203 6.63937 7.08203C5.59484 7.08203 4.74805 7.92883 4.74805 8.97336C4.74805 10.0179 5.59484 10.8647 6.63937 10.8647C7.53336 10.8647 8.38266 11.2553 8.96445 11.9341L9.97937 13.1182Z" fill="#9CDBEF"/>
<path d="M9.97984 10.422V13.1182L8.96492 11.9343C8.67437 11.5947 8.31625 11.3274 7.91945 11.1448C7.80438 11.0916 7.68602 11.0458 7.56531 11.008V10.422C7.56531 9.07313 6.76609 7.9118 5.61523 7.38383C5.91062 7.19227 6.26234 7.08203 6.63977 7.08203C8.48453 7.08203 9.97984 8.57742 9.97984 10.422Z" fill="#79C7E2"/>
<path d="M25.5938 37.5848H23.1793L19.96 31.2266H22.3744L25.5938 37.5848Z" fill="#79C7E2"/>
</g>
<defs>
<clipPath id="clip0_1540_13327">
<rect width="40" height="40" fill="white"/>
</clipPath>
</defs>
</svg>