<svg xmlns:xlink="http://www.w3.org/1999/xlink" xmlns="http://www.w3.org/2000/svg" width="40" height="40" viewBox="0 0 40 40" fill="none">
<path d="M11.503 4.27734C12.9972 4.28754 14.4706 4.62752 15.8182 5.273C17.1658 5.91848 18.3542 6.85354 19.2986 8.01141C19.3832 8.11606 19.4901 8.20047 19.6114 8.25846C19.7328 8.31645 19.8657 8.34655 20.0002 8.34655C20.1347 8.34655 20.2676 8.31645 20.3889 8.25846C20.5103 8.20047 20.6172 8.11606 20.7018 8.01141C21.6462 6.85354 22.8346 5.91848 24.1822 5.273C25.5298 4.62752 27.0032 4.28754 28.4974 4.27734C34.2824 4.27734 38.2221 9.31078 38.2221 15.5198C38.2221 19.233 36.2439 25.2427 32.3708 28.8636C26.8564 34.0198 22.1711 35.3455 20.5805 35.6645C20.1982 35.7414 19.8044 35.7414 19.4221 35.6645C17.8311 35.3458 13.1443 34.0189 7.62957 28.8636C3.75644 25.2427 1.77832 19.233 1.77832 15.5198C1.77832 9.31234 5.71894 4.27734 11.503 4.27734V4.27734Z" fill="#FFC9BB"/>
<path d="M35.8369 23.4363C31.7269 25.4675 23.6275 24.5509 18.8266 20.9391C13.6294 17.03 12.8775 11.8028 11.7937 7.06907C11.3959 5.33125 8.75874 5.73969 9.02686 7.87844C9.14749 8.84 9.0403 10.8728 8.4353 11.6672C8.30595 11.876 8.11127 12.0362 7.88151 12.123C7.65175 12.2098 7.39977 12.2183 7.16468 12.1472C6.08968 11.9313 4.28436 10.9184 3.54749 10.405C2.48499 9.66469 1.08686 10.9 1.50811 12.1238C0.976864 12.8425 0.868739 13.4909 1.0228 14.0613C0.873826 14.4532 0.806622 14.8715 0.825325 15.2905C0.844027 15.7094 0.948239 16.12 1.13155 16.4972C1.08686 19.4675 7.2078 24.1894 12.9081 27.2706C19.5822 30.8781 33.4169 34.6769 36.9262 24.3997C36.9776 24.2524 36.984 24.0932 36.9446 23.9423C36.9052 23.7914 36.8218 23.6556 36.705 23.5523C36.5881 23.449 36.4432 23.3827 36.2886 23.3621C36.134 23.3414 35.9767 23.3672 35.8369 23.4363V23.4363Z" fill="#FF7171"/>
<path d="M38.9772 14.0613C39.1313 13.4916 39.0244 12.8444 38.4919 12.1238C38.9131 10.9016 37.5141 9.66625 36.4525 10.405C35.7156 10.9184 33.9103 11.9313 32.8353 12.1472C32.6002 12.2183 32.3483 12.2098 32.1185 12.123C31.8887 12.0362 31.6941 11.876 31.5647 11.6672C30.9597 10.8728 30.8525 8.84 30.9731 7.87844C31.2413 5.73969 28.6041 5.33125 28.2063 7.06907C27.1225 11.8028 26.3706 17.0303 21.175 20.94C16.3725 24.5541 8.27315 25.4697 4.16315 23.4384C4.02336 23.3696 3.86625 23.3438 3.71179 23.3645C3.55733 23.3851 3.4125 23.4512 3.29572 23.5544C3.17894 23.6576 3.09548 23.7932 3.05596 23.9439C3.01644 24.0946 3.02264 24.2537 3.07377 24.4009C6.58314 34.6784 20.4175 30.8794 27.0919 27.2719C32.7922 24.1906 38.9131 19.4694 38.8685 16.4963C39.0516 16.1192 39.1558 15.7087 39.1745 15.29C39.1932 14.8712 39.1261 14.4531 38.9772 14.0613V14.0613Z" fill="#FF8C83"/>
<path d="M3.51134 16.8046C3.45146 16.8046 3.39215 16.793 3.33665 16.7706C2.79196 16.5518 0.983212 15.7156 0.570712 14.1806C0.538471 14.0604 0.555291 13.9323 0.617471 13.8245C0.679651 13.7168 0.782098 13.6381 0.902274 13.6059C1.02245 13.5736 1.15051 13.5904 1.25829 13.6526C1.36606 13.7148 1.44472 13.8173 1.47696 13.9374C1.7154 14.8249 2.81727 15.5499 3.6879 15.9012C3.78882 15.9419 3.87243 16.0165 3.92438 16.1121C3.97633 16.2078 3.99338 16.3185 3.97261 16.4253C3.95184 16.5321 3.89455 16.6284 3.81056 16.6976C3.72656 16.7668 3.62111 16.8047 3.51227 16.8046H3.51134Z" fill="#ED4559"/>
<path d="M2.8806 18.5852C2.82957 18.5852 2.7789 18.5767 2.7306 18.5602C1.84038 18.2257 1.11481 17.5586 0.706852 16.6996C0.676677 16.6438 0.658135 16.5825 0.652347 16.5193C0.646559 16.4562 0.653646 16.3925 0.673179 16.3322C0.692712 16.2718 0.724285 16.2161 0.765986 16.1683C0.807687 16.1205 0.85865 16.0817 0.91579 16.0542C0.972929 16.0267 1.03506 16.0111 1.09841 16.0083C1.16177 16.0055 1.22503 16.0155 1.28438 16.0379C1.34373 16.0603 1.39792 16.0944 1.44368 16.1383C1.48944 16.1822 1.52581 16.235 1.5506 16.2933C1.85047 16.9249 2.3802 17.4181 3.03154 17.6721C3.13701 17.7075 3.22646 17.7793 3.28387 17.8746C3.34128 17.9699 3.36293 18.0825 3.34493 18.1923C3.32693 18.3021 3.27046 18.4019 3.18563 18.4739C3.10079 18.5459 2.99311 18.5853 2.88185 18.5852H2.8806Z" fill="#ED4559"/>
<path d="M4.40125 14.8323C4.32904 14.8323 4.25782 14.8157 4.19312 14.7836C4.08125 14.728 3.96219 14.672 3.83875 14.6142C2.99156 14.2164 1.83094 13.6714 1.09812 12.353C1.0377 12.2443 1.02294 12.116 1.05708 11.9964C1.09121 11.8769 1.17146 11.7757 1.28015 11.7153C1.38885 11.6549 1.5171 11.6401 1.63668 11.6743C1.75627 11.7084 1.85739 11.7886 1.91781 11.8973C2.50344 12.9514 3.42469 13.3839 4.2375 13.7655C4.36719 13.828 4.49187 13.8852 4.61 13.9436C4.70478 13.9906 4.78089 14.0682 4.82595 14.1639C4.87101 14.2596 4.88237 14.3678 4.85818 14.4708C4.83399 14.5738 4.77568 14.6655 4.69272 14.7312C4.60976 14.7968 4.50704 14.8325 4.40125 14.8323Z" fill="#ED4559"/>
<path d="M36.4895 16.8085C36.3806 16.8086 36.2752 16.7707 36.1912 16.7015C36.1072 16.6323 36.0499 16.5361 36.0291 16.4292C36.0084 16.3224 36.0254 16.2117 36.0774 16.116C36.1293 16.0204 36.2129 15.9458 36.3138 15.9051C37.1845 15.5538 38.2863 14.8288 38.5248 13.9413C38.557 13.8212 38.6357 13.7187 38.7434 13.6565C38.8512 13.5944 38.9793 13.5775 39.0995 13.6098C39.2196 13.642 39.3221 13.7207 39.3843 13.8284C39.4464 13.9362 39.4633 14.0643 39.431 14.1845C39.0185 15.7195 37.2098 16.5551 36.6651 16.7745C36.6093 16.7971 36.5497 16.8086 36.4895 16.8085V16.8085Z" fill="#FF7171"/>
<path d="M37.1206 18.5891C37.0094 18.5892 36.9017 18.5498 36.8168 18.4778C36.732 18.4058 36.6755 18.306 36.6575 18.1962C36.6395 18.0864 36.6612 17.9738 36.7186 17.8785C36.776 17.7832 36.8655 17.7114 36.9709 17.676C37.6214 17.4215 38.1503 16.9284 38.4497 16.2973C38.4745 16.2389 38.5108 16.1861 38.5566 16.1422C38.6024 16.0983 38.6566 16.0642 38.7159 16.0418C38.7752 16.0195 38.8385 16.0094 38.9019 16.0122C38.9652 16.015 39.0274 16.0306 39.0845 16.0581C39.1416 16.0856 39.1926 16.1245 39.2343 16.1722C39.276 16.22 39.3076 16.2758 39.3271 16.3361C39.3466 16.3964 39.3537 16.4601 39.3479 16.5232C39.3421 16.5864 39.3236 16.6477 39.2934 16.7035C38.8855 17.5625 38.1599 18.2296 37.2697 18.5641C37.2217 18.5805 37.1713 18.589 37.1206 18.5891Z" fill="#FF7171"/>
<path d="M35.5992 14.8323C35.4934 14.8325 35.3907 14.7968 35.3078 14.7312C35.2248 14.6655 35.1665 14.5738 35.1423 14.4708C35.1181 14.3678 35.1295 14.2596 35.1745 14.1639C35.2196 14.0682 35.2957 13.9906 35.3905 13.9436C35.5086 13.8852 35.6333 13.8264 35.763 13.7655C36.5755 13.3839 37.497 12.953 38.0827 11.8973C38.1431 11.7886 38.2442 11.7084 38.3638 11.6743C38.4834 11.6401 38.6116 11.6549 38.7203 11.7153C38.829 11.7757 38.9093 11.8769 38.9434 11.9964C38.9775 12.116 38.9628 12.2443 38.9024 12.353C38.1695 13.6714 37.0089 14.2164 36.1617 14.6142C36.0383 14.672 35.9192 14.728 35.8074 14.7836C35.7427 14.8157 35.6714 14.8323 35.5992 14.8323V14.8323Z" fill="#FF7171"/>
</svg>